<svg xmlns="http://www.w3.org/2000/svg" xmlns:xlink="http://www.w3.org/1999/xlink" width="500" zoomAndPan="magnify" viewBox="0 0 375 374.999991" height="500" preserveAspectRatio="xMidYMid meet" version="1.0"><defs><clipPath id="3a37facedd"><path d="M 65 40.3125 L 227 40.3125 L 227 217 L 65 217 Z M 65 40.3125 " clip-rule="nonzero"/></clipPath></defs><path fill="#008ab0" d="M 177.285156 68.320312 C 177.003906 68.269531 176.71875 68.25 176.433594 68.257812 C 176.144531 68.261719 175.863281 68.296875 175.582031 68.359375 C 175.304688 68.421875 175.035156 68.511719 174.773438 68.625 C 174.511719 68.742188 174.261719 68.882812 174.027344 69.046875 C 173.792969 69.210938 173.578125 69.394531 173.378906 69.605469 C 173.183594 69.8125 173.007812 70.035156 172.851562 70.277344 C 172.699219 70.519531 172.570312 70.773438 172.46875 71.039062 C 172.367188 71.308594 172.289062 71.582031 172.242188 71.863281 C 170.347656 82.6875 168.136719 100.527344 168.136719 115.175781 C 168.136719 127.03125 171.265625 137.144531 177.433594 145.25 C 177.605469 145.476562 177.800781 145.683594 178.015625 145.875 C 178.230469 146.0625 178.460938 146.230469 178.707031 146.375 C 178.953125 146.519531 179.214844 146.636719 179.484375 146.730469 C 179.753906 146.824219 180.03125 146.890625 180.316406 146.925781 C 180.597656 146.964844 180.882812 146.976562 181.167969 146.957031 C 181.457031 146.941406 181.738281 146.894531 182.011719 146.824219 C 182.289062 146.75 182.558594 146.652344 182.816406 146.523438 C 183.070312 146.398438 183.3125 146.25 183.542969 146.078125 C 183.769531 145.902344 183.976562 145.710938 184.167969 145.496094 C 184.359375 145.28125 184.523438 145.050781 184.667969 144.800781 C 184.8125 144.554688 184.929688 144.296875 185.023438 144.023438 C 185.117188 143.753906 185.183594 143.476562 185.222656 143.191406 C 185.257812 142.910156 185.269531 142.625 185.253906 142.339844 C 185.234375 142.054688 185.1875 141.773438 185.117188 141.496094 C 185.042969 141.21875 184.945312 140.953125 184.820312 140.695312 C 184.691406 140.4375 184.542969 140.195312 184.371094 139.96875 C 179.382812 133.417969 176.855469 125.078125 176.855469 115.175781 C 176.855469 101.085938 178.996094 83.847656 180.828125 73.363281 C 180.878906 73.082031 180.898438 72.800781 180.890625 72.511719 C 180.886719 72.226562 180.851562 71.945312 180.789062 71.664062 C 180.726562 71.386719 180.636719 71.113281 180.523438 70.851562 C 180.40625 70.589844 180.265625 70.34375 180.101562 70.109375 C 179.9375 69.875 179.75 69.660156 179.542969 69.460938 C 179.335938 69.261719 179.113281 69.089844 178.871094 68.933594 C 178.628906 68.78125 178.375 68.652344 178.109375 68.550781 C 177.839844 68.445312 177.566406 68.371094 177.285156 68.320312 Z M 177.285156 68.320312 " fill-opacity="1" fill-rule="nonzero"/><path fill="#008ab0" d="M 233.785156 98.390625 C 241.765625 104.054688 246.160156 112.515625 246.160156 122.222656 C 246.160156 122.511719 246.1875 122.792969 246.246094 123.074219 C 246.300781 123.351562 246.382812 123.625 246.492188 123.890625 C 246.601562 124.152344 246.738281 124.402344 246.898438 124.640625 C 247.054688 124.878906 247.238281 125.097656 247.4375 125.300781 C 247.640625 125.503906 247.863281 125.683594 248.097656 125.839844 C 248.335938 126 248.589844 126.132812 248.851562 126.242188 C 249.117188 126.351562 249.386719 126.433594 249.667969 126.492188 C 249.949219 126.546875 250.230469 126.574219 250.519531 126.574219 C 250.804688 126.574219 251.085938 126.546875 251.367188 126.492188 C 251.648438 126.433594 251.921875 126.351562 252.183594 126.242188 C 252.449219 126.132812 252.699219 126 252.9375 125.839844 C 253.175781 125.683594 253.394531 125.503906 253.597656 125.300781 C 253.800781 125.097656 253.980469 124.878906 254.140625 124.640625 C 254.296875 124.402344 254.433594 124.152344 254.542969 123.890625 C 254.652344 123.625 254.734375 123.351562 254.792969 123.074219 C 254.847656 122.792969 254.875 122.511719 254.875 122.222656 C 254.875 109.613281 249.179688 98.625 238.832031 91.28125 C 238.601562 91.113281 238.351562 90.972656 238.089844 90.855469 C 237.832031 90.738281 237.558594 90.648438 237.28125 90.585938 C 237.003906 90.519531 236.71875 90.484375 236.433594 90.476562 C 236.148438 90.46875 235.863281 90.488281 235.582031 90.535156 C 235.300781 90.585938 235.023438 90.660156 234.757812 90.761719 C 234.488281 90.863281 234.234375 90.992188 233.992188 91.144531 C 233.75 91.296875 233.523438 91.46875 233.316406 91.667969 C 233.109375 91.863281 232.921875 92.078125 232.753906 92.3125 C 232.589844 92.542969 232.449219 92.792969 232.332031 93.054688 C 232.214844 93.3125 232.125 93.585938 232.0625 93.863281 C 231.996094 94.140625 231.960938 94.425781 231.953125 94.710938 C 231.945312 94.996094 231.964844 95.28125 232.011719 95.5625 C 232.058594 95.84375 232.136719 96.121094 232.238281 96.386719 C 232.339844 96.65625 232.464844 96.910156 232.617188 97.152344 C 232.769531 97.394531 232.945312 97.621094 233.140625 97.828125 C 233.339844 98.035156 233.554688 98.222656 233.785156 98.390625 Z M 233.785156 98.390625 " fill-opacity="1" fill-rule="nonzero"/><path fill="#008ab0" d="M 145.640625 291.859375 C 145.355469 291.859375 145.070312 291.886719 144.792969 291.941406 C 144.511719 291.996094 144.238281 292.082031 143.972656 292.191406 C 143.710938 292.300781 143.457031 292.433594 143.21875 292.59375 C 142.980469 292.75 142.761719 292.933594 142.558594 293.136719 C 142.355469 293.335938 142.175781 293.558594 142.015625 293.796875 C 141.859375 294.035156 141.722656 294.285156 141.613281 294.550781 C 141.503906 294.8125 141.421875 295.085938 141.367188 295.367188 C 141.3125 295.648438 141.28125 295.929688 141.28125 296.21875 C 141.28125 304.476562 135.847656 312.191406 126.746094 316.863281 C 115.550781 322.601562 102.398438 322.058594 93.234375 315.476562 C 80.894531 306.613281 76.222656 287.59375 80.078125 261.925781 C 80.117188 261.644531 80.132812 261.359375 80.121094 261.070312 C 80.105469 260.785156 80.066406 260.503906 79.996094 260.226562 C 79.929688 259.949219 79.832031 259.679688 79.710938 259.421875 C 79.589844 259.160156 79.441406 258.917969 79.273438 258.6875 C 79.101562 258.457031 78.910156 258.246094 78.699219 258.050781 C 78.488281 257.859375 78.257812 257.6875 78.015625 257.542969 C 77.769531 257.394531 77.511719 257.273438 77.242188 257.175781 C 76.972656 257.078125 76.695312 257.007812 76.414062 256.964844 C 76.128906 256.921875 75.84375 256.910156 75.558594 256.921875 C 75.273438 256.933594 74.992188 256.976562 74.714844 257.046875 C 74.4375 257.113281 74.167969 257.210938 73.910156 257.332031 C 73.648438 257.453125 73.40625 257.601562 73.175781 257.769531 C 72.945312 257.941406 72.734375 258.132812 72.539062 258.34375 C 72.347656 258.554688 72.175781 258.785156 72.03125 259.03125 C 71.882812 259.273438 71.761719 259.53125 71.664062 259.800781 C 71.566406 260.070312 71.496094 260.347656 71.453125 260.632812 C 65.863281 297.882812 77.445312 314.867188 88.148438 322.558594 C 94.582031 327.179688 102.480469 329.519531 110.617188 329.519531 C 114.117188 329.511719 117.5625 329.089844 120.960938 328.261719 C 124.359375 327.433594 127.613281 326.21875 130.722656 324.617188 C 142.792969 318.425781 150 307.808594 150 296.21875 C 150 295.929688 149.972656 295.648438 149.917969 295.367188 C 149.859375 295.085938 149.777344 294.8125 149.667969 294.550781 C 149.558594 294.285156 149.425781 294.035156 149.265625 293.796875 C 149.105469 293.558594 148.925781 293.335938 148.722656 293.136719 C 148.519531 292.933594 148.300781 292.75 148.0625 292.59375 C 147.824219 292.433594 147.574219 292.300781 147.308594 292.191406 C 147.046875 292.082031 146.773438 291.996094 146.492188 291.941406 C 146.210938 291.886719 145.929688 291.859375 145.640625 291.859375 Z M 145.640625 291.859375 " fill-opacity="1" fill-rule="nonzero"/><g clip-path="url(#3a37facedd)"><path fill="#008ab0" d="M 75.769531 108.417969 C 76.550781 108.417969 77.28125 108.21875 77.957031 107.828125 C 78.632812 107.433594 79.164062 106.898438 79.550781 106.21875 C 79.9375 105.542969 80.128906 104.8125 80.125 104.03125 C 80.121094 103.25 79.917969 102.519531 79.523438 101.847656 C 75.683594 95.320312 73.738281 88.953125 73.738281 82.925781 C 73.738281 62.984375 95.855469 49.082031 115.710938 49.082031 C 123.101562 49.082031 139.910156 51.210938 141.195312 70.25 C 141.152344 71.027344 141.121094 71.8125 141.121094 72.613281 L 141.121094 203.519531 C 128.136719 194.03125 116.570312 184.488281 116.476562 176.117188 C 116.429688 172.019531 119.207031 167.929688 124.964844 163.613281 C 125.195312 163.441406 125.40625 163.25 125.597656 163.035156 C 125.789062 162.824219 125.957031 162.59375 126.101562 162.347656 C 126.246094 162.101562 126.367188 161.84375 126.464844 161.570312 C 126.558594 161.300781 126.625 161.023438 126.667969 160.742188 C 126.707031 160.457031 126.71875 160.171875 126.703125 159.886719 C 126.6875 159.601562 126.644531 159.320312 126.574219 159.042969 C 126.503906 158.765625 126.40625 158.496094 126.28125 158.238281 C 126.160156 157.980469 126.011719 157.738281 125.839844 157.507812 C 125.667969 157.277344 125.476562 157.070312 125.261719 156.878906 C 125.046875 156.6875 124.820312 156.519531 124.574219 156.371094 C 124.324219 156.226562 124.066406 156.105469 123.796875 156.011719 C 123.527344 155.917969 123.25 155.847656 122.96875 155.808594 C 122.683594 155.769531 122.398438 155.753906 122.113281 155.769531 C 121.828125 155.785156 121.546875 155.832031 121.269531 155.902344 C 120.992188 155.972656 120.722656 156.070312 120.464844 156.195312 C 120.207031 156.320312 119.964844 156.464844 119.734375 156.636719 C 111.710938 162.65625 107.683594 169.242188 107.757812 176.210938 C 107.917969 190.296875 124.511719 202.378906 142.308594 215.121094 C 143.035156 215.894531 143.921875 216.339844 144.976562 216.457031 C 144.984375 216.457031 144.992188 216.457031 145 216.460938 C 145.160156 216.484375 145.320312 216.5 145.480469 216.507812 C 145.503906 216.507812 145.523438 216.5 145.546875 216.5 C 145.578125 216.5 145.605469 216.507812 145.636719 216.507812 C 145.972656 216.507812 146.300781 216.472656 146.625 216.398438 C 146.949219 216.324219 147.261719 216.210938 147.5625 216.066406 C 147.859375 215.917969 148.140625 215.742188 148.398438 215.53125 C 148.65625 215.320312 148.886719 215.082031 149.089844 214.816406 C 149.292969 214.550781 149.460938 214.269531 149.601562 213.964844 C 149.738281 213.660156 149.839844 213.347656 149.90625 213.019531 C 149.96875 212.691406 149.996094 212.363281 149.984375 212.03125 C 149.972656 211.695312 149.925781 211.367188 149.839844 211.046875 L 149.839844 73.730469 C 149.941406 73.367188 149.996094 72.992188 150 72.613281 C 150 71.8125 149.96875 71.027344 149.925781 70.25 C 151.210938 51.210938 168.019531 49.082031 175.410156 49.082031 C 195.265625 49.082031 217.382812 62.984375 217.382812 82.925781 C 217.382812 88.953125 215.4375 95.320312 211.597656 101.847656 C 211.453125 102.09375 211.332031 102.351562 211.238281 102.625 C 211.140625 102.894531 211.074219 103.171875 211.035156 103.453125 C 210.992188 103.738281 210.980469 104.023438 210.996094 104.308594 C 211.015625 104.59375 211.058594 104.878906 211.128906 105.15625 C 211.203125 105.433594 211.300781 105.699219 211.421875 105.957031 C 211.546875 106.214844 211.695312 106.460938 211.871094 106.6875 C 212.042969 106.917969 212.234375 107.128906 212.449219 107.316406 C 212.664062 107.507812 212.894531 107.675781 213.140625 107.820312 C 213.386719 107.96875 213.644531 108.085938 213.917969 108.179688 C 214.1875 108.277344 214.464844 108.34375 214.746094 108.382812 C 215.03125 108.421875 215.316406 108.433594 215.601562 108.417969 C 215.890625 108.398438 216.171875 108.355469 216.449219 108.285156 C 216.726562 108.210938 216.992188 108.113281 217.25 107.988281 C 217.507812 107.863281 217.75 107.714844 217.980469 107.542969 C 218.207031 107.367188 218.417969 107.175781 218.609375 106.960938 C 218.800781 106.746094 218.964844 106.515625 219.113281 106.269531 C 223.75 98.382812 226.101562 90.527344 226.101562 82.925781 C 226.101562 57.46875 199.890625 40.367188 175.410156 40.367188 C 161.667969 40.367188 151.140625 45.875 145.558594 55.25 C 139.980469 45.875 129.453125 40.367188 115.710938 40.367188 C 91.230469 40.367188 65.019531 57.46875 65.019531 82.925781 C 65.019531 90.53125 67.371094 98.382812 72.007812 106.269531 C 72.398438 106.933594 72.933594 107.460938 73.601562 107.84375 C 74.273438 108.226562 74.996094 108.417969 75.769531 108.417969 Z M 75.769531 108.417969 " fill-opacity="1" fill-rule="nonzero"/></g><path fill="#008ab0" d="M 59.078125 160.230469 C 55.988281 161.335938 53.011719 162.925781 51.441406 166.214844 C 49.875 169.492188 50.15625 173.503906 52.316406 178.839844 C 52.421875 179.105469 52.554688 179.359375 52.710938 179.597656 C 52.871094 179.835938 53.046875 180.058594 53.25 180.261719 C 53.449219 180.46875 53.667969 180.648438 53.90625 180.808594 C 54.140625 180.972656 54.390625 181.109375 54.65625 181.21875 C 54.917969 181.332031 55.191406 181.414062 55.472656 181.472656 C 55.75 181.53125 56.035156 181.5625 56.320312 181.566406 C 56.609375 181.566406 56.890625 181.542969 57.171875 181.488281 C 57.453125 181.433594 57.726562 181.355469 57.992188 181.246094 C 58.257812 181.140625 58.507812 181.007812 58.75 180.851562 C 58.988281 180.691406 59.210938 180.511719 59.414062 180.3125 C 59.617188 180.113281 59.800781 179.894531 59.960938 179.65625 C 60.121094 179.421875 60.257812 179.171875 60.371094 178.90625 C 60.480469 178.644531 60.566406 178.371094 60.625 178.089844 C 60.683594 177.808594 60.714844 177.527344 60.714844 177.242188 C 60.71875 176.953125 60.691406 176.671875 60.636719 176.390625 C 60.585938 176.109375 60.503906 175.835938 60.398438 175.570312 C 58.753906 171.511719 59.203125 170.191406 59.308594 169.96875 C 59.726562 169.09375 62.414062 168.273438 64.574219 167.617188 C 67.070312 166.859375 70.128906 165.921875 72.925781 164.164062 C 74.15625 164.273438 75.402344 164.34375 76.679688 164.34375 C 79.128906 164.34375 90.476562 162.996094 101.234375 156.390625 C 111.15625 150.300781 122.984375 138.207031 122.984375 115.175781 C 122.984375 100.519531 120.773438 82.683594 118.878906 71.863281 C 118.828125 71.582031 118.753906 71.304688 118.652344 71.039062 C 118.546875 70.773438 118.417969 70.519531 118.265625 70.277344 C 118.113281 70.035156 117.9375 69.808594 117.738281 69.601562 C 117.542969 69.394531 117.324219 69.210938 117.089844 69.046875 C 116.855469 68.878906 116.609375 68.742188 116.347656 68.625 C 116.085938 68.507812 115.8125 68.417969 115.535156 68.359375 C 115.253906 68.296875 114.972656 68.261719 114.6875 68.253906 C 114.398438 68.246094 114.117188 68.269531 113.832031 68.316406 C 113.550781 68.367188 113.277344 68.445312 113.011719 68.546875 C 112.742188 68.652344 112.488281 68.777344 112.246094 68.933594 C 112.003906 69.085938 111.78125 69.261719 111.574219 69.460938 C 111.367188 69.65625 111.179688 69.875 111.015625 70.109375 C 110.851562 70.34375 110.710938 70.589844 110.597656 70.851562 C 110.480469 71.113281 110.394531 71.386719 110.332031 71.664062 C 110.269531 71.945312 110.234375 72.226562 110.226562 72.511719 C 110.222656 72.800781 110.242188 73.085938 110.292969 73.367188 C 112.125 83.84375 114.265625 101.078125 114.265625 115.175781 C 114.265625 146.4375 88.980469 153.640625 79.894531 155.210938 C 81.171875 151.242188 81.457031 145.929688 80.042969 138.710938 C 79.988281 138.429688 79.90625 138.160156 79.796875 137.894531 C 79.6875 137.628906 79.554688 137.378906 79.398438 137.140625 C 79.238281 136.902344 79.058594 136.679688 78.855469 136.476562 C 78.65625 136.273438 78.433594 136.09375 78.199219 135.933594 C 77.960938 135.773438 77.710938 135.636719 77.445312 135.527344 C 77.179688 135.417969 76.910156 135.335938 76.628906 135.277344 C 76.347656 135.222656 76.0625 135.191406 75.777344 135.191406 C 75.492188 135.191406 75.207031 135.21875 74.925781 135.273438 C 74.648438 135.328125 74.375 135.410156 74.109375 135.519531 C 73.84375 135.628906 73.59375 135.761719 73.355469 135.917969 C 73.117188 136.078125 72.894531 136.257812 72.691406 136.460938 C 72.488281 136.660156 72.308594 136.878906 72.148438 137.117188 C 71.988281 137.355469 71.855469 137.605469 71.742188 137.871094 C 71.632812 138.132812 71.550781 138.40625 71.492188 138.6875 C 71.4375 138.96875 71.40625 139.25 71.40625 139.539062 C 71.40625 139.824219 71.433594 140.105469 71.488281 140.386719 C 73.015625 148.179688 72.292969 152.394531 70.289062 154.941406 C 54.902344 151.59375 44.960938 136.46875 44.960938 122.222656 C 44.960938 112.515625 49.355469 104.054688 57.335938 98.390625 C 57.566406 98.222656 57.78125 98.035156 57.980469 97.828125 C 58.175781 97.621094 58.351562 97.394531 58.503906 97.152344 C 58.65625 96.910156 58.78125 96.65625 58.882812 96.386719 C 58.984375 96.121094 59.0625 95.84375 59.109375 95.5625 C 59.15625 95.28125 59.175781 94.996094 59.167969 94.710938 C 59.160156 94.425781 59.125 94.140625 59.058594 93.863281 C 58.996094 93.585938 58.90625 93.3125 58.789062 93.054688 C 58.671875 92.792969 58.53125 92.542969 58.363281 92.3125 C 58.199219 92.078125 58.011719 91.863281 57.804688 91.667969 C 57.597656 91.46875 57.371094 91.296875 57.128906 91.144531 C 56.886719 90.992188 56.632812 90.863281 56.363281 90.761719 C 56.097656 90.660156 55.820312 90.585938 55.539062 90.535156 C 55.257812 90.488281 54.972656 90.46875 54.6875 90.476562 C 54.402344 90.484375 54.117188 90.519531 53.839844 90.585938 C 53.5625 90.648438 53.289062 90.738281 53.027344 90.855469 C 52.769531 90.972656 52.519531 91.113281 52.289062 91.28125 C 41.941406 98.625 36.242188 109.613281 36.242188 122.222656 C 36.242188 137.160156 44.65625 152.957031 59.078125 160.230469 Z M 59.078125 160.230469 " fill-opacity="1" fill-rule="nonzero"/><path fill="#008ab0" d="M 114.121094 264.484375 C 113.414062 274.296875 111.796875 283.472656 110.613281 290.171875 L 110.292969 292 C 110.242188 292.28125 110.222656 292.566406 110.226562 292.851562 C 110.234375 293.136719 110.269531 293.421875 110.328125 293.699219 C 110.390625 293.980469 110.480469 294.25 110.597656 294.511719 C 110.710938 294.773438 110.851562 295.023438 111.015625 295.257812 C 111.179688 295.492188 111.367188 295.707031 111.574219 295.90625 C 111.78125 296.105469 112.003906 296.28125 112.246094 296.433594 C 112.488281 296.585938 112.742188 296.714844 113.011719 296.820312 C 113.277344 296.921875 113.550781 297 113.832031 297.046875 C 114.117188 297.097656 114.398438 297.117188 114.6875 297.113281 C 114.972656 297.105469 115.253906 297.070312 115.535156 297.007812 C 115.8125 296.945312 116.085938 296.855469 116.347656 296.742188 C 116.609375 296.625 116.855469 296.484375 117.089844 296.320312 C 117.324219 296.15625 117.542969 295.96875 117.738281 295.761719 C 117.9375 295.554688 118.113281 295.332031 118.265625 295.089844 C 118.417969 294.847656 118.546875 294.59375 118.652344 294.324219 C 118.753906 294.058594 118.832031 293.785156 118.878906 293.5 L 119.199219 291.6875 C 120.414062 284.800781 122.078125 275.371094 122.816406 265.113281 C 122.835938 264.828125 122.832031 264.542969 122.792969 264.257812 C 122.757812 263.976562 122.695312 263.699219 122.605469 263.425781 C 122.515625 263.15625 122.402344 262.894531 122.257812 262.644531 C 122.117188 262.394531 121.953125 262.164062 121.765625 261.945312 C 121.578125 261.730469 121.371094 261.535156 121.144531 261.359375 C 120.921875 261.183594 120.679688 261.03125 120.421875 260.902344 C 120.167969 260.773438 119.902344 260.671875 119.625 260.597656 C 119.351562 260.519531 119.070312 260.472656 118.785156 260.449219 C 118.496094 260.429688 118.214844 260.4375 117.929688 260.472656 C 117.644531 260.507812 117.367188 260.570312 117.09375 260.660156 C 116.824219 260.753906 116.5625 260.867188 116.316406 261.007812 C 116.066406 261.152344 115.832031 261.316406 115.617188 261.503906 C 115.398438 261.691406 115.203125 261.898438 115.027344 262.121094 C 114.851562 262.347656 114.699219 262.589844 114.574219 262.847656 C 114.445312 263.101562 114.34375 263.367188 114.265625 263.644531 C 114.191406 263.917969 114.140625 264.199219 114.121094 264.484375 Z M 114.121094 264.484375 " fill-opacity="1" fill-rule="nonzero"/><path fill="#008ab0" d="M 61.148438 270.664062 C 45.808594 262.871094 43.523438 246.910156 46.230469 235.613281 C 49.3125 222.734375 59.925781 209.738281 76.679688 209.738281 C 88.160156 209.738281 97.078125 212.785156 103.191406 218.789062 C 103.394531 218.992188 103.617188 219.171875 103.855469 219.328125 C 104.09375 219.484375 104.347656 219.617188 104.613281 219.722656 C 104.878906 219.832031 105.152344 219.910156 105.433594 219.964844 C 105.714844 220.019531 105.996094 220.042969 106.285156 220.042969 C 106.570312 220.039062 106.851562 220.007812 107.132812 219.949219 C 107.414062 219.890625 107.6875 219.808594 107.949219 219.695312 C 108.210938 219.582031 108.460938 219.445312 108.699219 219.285156 C 108.9375 219.125 109.15625 218.941406 109.355469 218.738281 C 109.554688 218.535156 109.734375 218.3125 109.890625 218.074219 C 110.046875 217.832031 110.179688 217.582031 110.289062 217.316406 C 110.394531 217.050781 110.476562 216.777344 110.527344 216.496094 C 110.582031 216.214844 110.609375 215.929688 110.605469 215.644531 C 110.601562 215.359375 110.574219 215.074219 110.515625 214.796875 C 110.457031 214.515625 110.371094 214.242188 110.257812 213.980469 C 110.148438 213.714844 110.011719 213.464844 109.851562 213.230469 C 109.6875 212.992188 109.507812 212.773438 109.300781 212.574219 C 101.5 204.90625 90.527344 201.019531 76.679688 201.019531 C 55.175781 201.019531 41.632812 217.375 37.753906 233.582031 C 33.21875 252.523438 40.851562 270.128906 57.199219 278.4375 C 57.457031 278.566406 57.722656 278.667969 57.996094 278.746094 C 58.273438 278.820312 58.550781 278.871094 58.835938 278.894531 C 59.121094 278.914062 59.40625 278.910156 59.691406 278.875 C 59.972656 278.839844 60.253906 278.777344 60.523438 278.691406 C 60.796875 278.601562 61.054688 278.488281 61.304688 278.347656 C 61.554688 278.207031 61.789062 278.042969 62.003906 277.855469 C 62.222656 277.671875 62.417969 277.464844 62.59375 277.242188 C 62.773438 277.015625 62.925781 276.777344 63.054688 276.523438 C 63.183594 276.265625 63.289062 276 63.363281 275.726562 C 63.441406 275.449219 63.492188 275.171875 63.515625 274.886719 C 63.535156 274.601562 63.53125 274.316406 63.496094 274.03125 C 63.464844 273.75 63.402344 273.472656 63.3125 273.199219 C 63.226562 272.925781 63.109375 272.667969 62.972656 272.417969 C 62.832031 272.167969 62.667969 271.933594 62.484375 271.714844 C 62.296875 271.5 62.09375 271.300781 61.867188 271.125 C 61.644531 270.949219 61.402344 270.792969 61.148438 270.664062 Z M 61.148438 270.664062 " fill-opacity="1" fill-rule="nonzero"/><path fill="#008ab0" d="M 26.210938 145.378906 C 26.394531 145.160156 26.554688 144.921875 26.691406 144.671875 C 26.824219 144.417969 26.9375 144.15625 27.019531 143.882812 C 27.105469 143.609375 27.160156 143.332031 27.191406 143.046875 C 27.21875 142.761719 27.222656 142.476562 27.195312 142.191406 C 27.167969 141.90625 27.113281 141.628906 27.03125 141.355469 C 26.953125 141.082031 26.84375 140.816406 26.710938 140.5625 C 26.578125 140.3125 26.417969 140.074219 26.238281 139.851562 C 26.058594 139.628906 25.859375 139.425781 25.640625 139.242188 C 25.417969 139.0625 25.183594 138.902344 24.929688 138.765625 C 24.679688 138.628906 24.417969 138.519531 24.144531 138.433594 C 23.871094 138.351562 23.59375 138.292969 23.308594 138.261719 C 23.023438 138.234375 22.738281 138.230469 22.453125 138.257812 C 22.167969 138.285156 21.890625 138.339844 21.613281 138.417969 C 21.339844 138.5 21.078125 138.609375 20.824219 138.742188 C 20.570312 138.875 20.332031 139.03125 20.109375 139.210938 C 19.890625 139.390625 19.6875 139.59375 19.503906 139.8125 C -0.00390625 163.324219 0.796875 198.09375 21.359375 220.683594 C 21.554688 220.894531 21.765625 221.085938 21.996094 221.257812 C 22.226562 221.425781 22.46875 221.574219 22.730469 221.695312 C 22.988281 221.816406 23.257812 221.914062 23.535156 221.980469 C 23.8125 222.050781 24.09375 222.09375 24.378906 222.105469 C 24.667969 222.121094 24.953125 222.105469 25.234375 222.0625 C 25.519531 222.019531 25.792969 221.949219 26.0625 221.851562 C 26.332031 221.757812 26.589844 221.632812 26.835938 221.484375 C 27.082031 221.339844 27.308594 221.167969 27.519531 220.976562 C 27.734375 220.78125 27.925781 220.570312 28.09375 220.339844 C 28.265625 220.109375 28.410156 219.863281 28.53125 219.605469 C 28.652344 219.347656 28.75 219.078125 28.816406 218.800781 C 28.886719 218.523438 28.929688 218.238281 28.941406 217.953125 C 28.953125 217.667969 28.941406 217.382812 28.898438 217.101562 C 28.855469 216.816406 28.785156 216.539062 28.6875 216.269531 C 28.589844 216.003906 28.464844 215.746094 28.320312 215.5 C 28.171875 215.253906 28 215.027344 27.808594 214.816406 C 10.152344 195.417969 9.464844 165.566406 26.210938 145.378906 Z M 26.210938 145.378906 " fill-opacity="1" fill-rule="nonzero"/><path fill="#008ab0" d="M 373.382812 154.816406 C 373.195312 154.605469 372.984375 154.410156 372.753906 154.238281 C 372.527344 154.066406 372.28125 153.921875 372.023438 153.796875 C 371.765625 153.671875 371.5 153.574219 371.222656 153.503906 C 370.945312 153.433594 370.664062 153.390625 370.375 153.375 C 370.089844 153.359375 369.804688 153.371094 369.523438 153.410156 C 369.238281 153.453125 368.960938 153.519531 368.691406 153.613281 C 368.421875 153.710938 368.164062 153.832031 367.917969 153.976562 C 367.671875 154.121094 367.441406 154.289062 367.230469 154.480469 C 344.019531 175.300781 316.78125 165.882812 287.921875 155.175781 C 280.414062 125.335938 274.03125 97.257812 297.234375 76.445312 C 297.449219 76.253906 297.640625 76.042969 297.8125 75.8125 C 297.984375 75.585938 298.132812 75.339844 298.257812 75.082031 C 298.378906 74.824219 298.476562 74.558594 298.550781 74.28125 C 298.621094 74.003906 298.664062 73.722656 298.679688 73.433594 C 298.695312 73.148438 298.683594 72.863281 298.644531 72.582031 C 298.601562 72.296875 298.535156 72.019531 298.441406 71.75 C 298.34375 71.480469 298.222656 71.222656 298.078125 70.976562 C 297.933594 70.730469 297.765625 70.5 297.574219 70.285156 C 297.382812 70.074219 297.171875 69.878906 296.941406 69.707031 C 296.714844 69.535156 296.46875 69.386719 296.210938 69.265625 C 295.953125 69.140625 295.683594 69.042969 295.40625 68.972656 C 295.128906 68.902344 294.847656 68.859375 294.5625 68.84375 C 294.277344 68.828125 293.992188 68.839844 293.707031 68.882812 C 293.425781 68.921875 293.148438 68.988281 292.878906 69.085938 C 292.609375 69.179688 292.347656 69.300781 292.101562 69.445312 C 291.855469 69.59375 291.628906 69.761719 291.414062 69.953125 C 266.03125 92.71875 270.871094 122.253906 278.03125 151.523438 C 249.710938 141.226562 220.882812 133.214844 195.507812 155.96875 C 170.113281 178.746094 174.96875 208.300781 182.136719 237.585938 C 153.804688 227.285156 124.953125 219.25 99.570312 242.015625 C 99.355469 242.207031 99.164062 242.417969 98.992188 242.648438 C 98.820312 242.875 98.671875 243.121094 98.546875 243.378906 C 98.425781 243.636719 98.328125 243.902344 98.253906 244.179688 C 98.183594 244.457031 98.140625 244.738281 98.125 245.027344 C 98.109375 245.3125 98.121094 245.597656 98.164062 245.878906 C 98.203125 246.164062 98.269531 246.441406 98.367188 246.710938 C 98.460938 246.980469 98.582031 247.238281 98.726562 247.484375 C 98.871094 247.730469 99.039062 247.960938 99.230469 248.175781 C 99.421875 248.386719 99.632812 248.578125 99.863281 248.75 C 100.089844 248.921875 100.335938 249.070312 100.59375 249.195312 C 100.851562 249.320312 101.117188 249.414062 101.394531 249.488281 C 101.671875 249.558594 101.957031 249.601562 102.242188 249.617188 C 102.527344 249.632812 102.8125 249.621094 103.09375 249.578125 C 103.378906 249.539062 103.65625 249.46875 103.925781 249.375 C 104.195312 249.28125 104.453125 249.160156 104.699219 249.015625 C 104.945312 248.867188 105.175781 248.699219 105.390625 248.507812 C 128.597656 227.695312 155.832031 237.109375 184.691406 247.816406 C 192.199219 277.652344 198.585938 305.738281 175.382812 326.546875 C 175.167969 326.738281 174.976562 326.949219 174.804688 327.179688 C 174.632812 327.40625 174.484375 327.652344 174.359375 327.910156 C 174.238281 328.167969 174.140625 328.433594 174.070312 328.710938 C 173.996094 328.988281 173.953125 329.269531 173.9375 329.554688 C 173.921875 329.84375 173.933594 330.125 173.976562 330.410156 C 174.015625 330.691406 174.085938 330.96875 174.179688 331.238281 C 174.273438 331.507812 174.394531 331.769531 174.539062 332.015625 C 174.6875 332.261719 174.855469 332.488281 175.046875 332.703125 C 175.238281 332.917969 175.445312 333.109375 175.675781 333.28125 C 175.90625 333.453125 176.148438 333.601562 176.40625 333.722656 C 176.664062 333.847656 176.933594 333.945312 177.210938 334.015625 C 177.488281 334.085938 177.769531 334.128906 178.054688 334.144531 C 178.339844 334.160156 178.625 334.148438 178.90625 334.109375 C 179.191406 334.066406 179.46875 334 179.738281 333.90625 C 180.007812 333.808594 180.265625 333.691406 180.511719 333.542969 C 180.757812 333.398438 180.988281 333.230469 181.199219 333.039062 C 206.582031 310.273438 201.746094 280.738281 194.582031 251.46875 C 209.488281 256.886719 224.535156 261.675781 239.148438 261.675781 C 252.296875 261.675781 265.089844 257.800781 277.105469 247.019531 C 302.503906 224.242188 297.644531 194.6875 290.476562 165.402344 C 318.808594 175.707031 347.660156 183.742188 373.050781 160.972656 C 373.261719 160.78125 373.453125 160.570312 373.625 160.34375 C 373.796875 160.113281 373.945312 159.871094 374.070312 159.613281 C 374.191406 159.355469 374.289062 159.085938 374.363281 158.808594 C 374.433594 158.53125 374.476562 158.25 374.492188 157.964844 C 374.507812 157.679688 374.496094 157.394531 374.453125 157.109375 C 374.414062 156.828125 374.347656 156.550781 374.25 156.28125 C 374.15625 156.011719 374.035156 155.753906 373.890625 155.507812 C 373.742188 155.261719 373.574219 155.03125 373.382812 154.816406 Z M 271.289062 240.53125 C 248.089844 261.339844 220.871094 251.941406 192.027344 241.238281 C 184.515625 211.382812 178.109375 183.285156 201.328125 162.460938 C 224.523438 141.65625 251.746094 151.050781 280.585938 161.75 C 288.097656 191.605469 294.503906 219.707031 271.289062 240.53125 Z M 271.289062 240.53125 " fill-opacity="1" fill-rule="nonzero"/><path fill="#008ab0" d="M 291.488281 93.027344 C 291.273438 93.21875 291.082031 93.429688 290.910156 93.65625 C 290.738281 93.886719 290.589844 94.128906 290.46875 94.386719 C 290.34375 94.644531 290.246094 94.914062 290.175781 95.191406 C 290.105469 95.46875 290.0625 95.75 290.046875 96.035156 C 290.03125 96.320312 290.042969 96.605469 290.082031 96.890625 C 290.121094 97.171875 290.191406 97.449219 290.285156 97.71875 C 290.378906 97.988281 290.5 98.246094 290.648438 98.492188 C 290.792969 98.738281 290.960938 98.96875 291.152344 99.183594 L 343.96875 158.070312 C 344.160156 158.285156 344.371094 158.476562 344.597656 158.652344 C 344.828125 158.824219 345.070312 158.972656 345.328125 159.097656 C 345.589844 159.21875 345.855469 159.316406 346.132812 159.390625 C 346.410156 159.460938 346.691406 159.503906 346.980469 159.519531 C 347.265625 159.535156 347.550781 159.523438 347.835938 159.484375 C 348.117188 159.445312 348.394531 159.375 348.664062 159.28125 C 348.9375 159.1875 349.195312 159.066406 349.441406 158.921875 C 349.6875 158.773438 349.917969 158.605469 350.132812 158.414062 C 350.34375 158.222656 350.539062 158.011719 350.710938 157.78125 C 350.882812 157.554688 351.03125 157.308594 351.152344 157.050781 C 351.277344 156.792969 351.375 156.523438 351.445312 156.246094 C 351.515625 155.96875 351.558594 155.6875 351.574219 155.402344 C 351.589844 155.113281 351.578125 154.828125 351.535156 154.546875 C 351.496094 154.261719 351.425781 153.984375 351.332031 153.714844 C 351.234375 153.445312 351.113281 153.1875 350.96875 152.941406 C 350.820312 152.695312 350.652344 152.464844 350.460938 152.25 L 297.644531 93.363281 C 297.453125 93.148438 297.242188 92.957031 297.011719 92.785156 C 296.785156 92.613281 296.539062 92.464844 296.28125 92.34375 C 296.023438 92.21875 295.757812 92.121094 295.480469 92.050781 C 295.203125 91.980469 294.921875 91.933594 294.632812 91.917969 C 294.347656 91.902344 294.0625 91.917969 293.78125 91.957031 C 293.496094 91.996094 293.222656 92.066406 292.949219 92.160156 C 292.679688 92.253906 292.421875 92.375 292.175781 92.523438 C 291.929688 92.667969 291.699219 92.835938 291.488281 93.027344 Z M 291.488281 93.027344 " fill-opacity="1" fill-rule="nonzero"/><path fill="#008ab0" d="M 291.140625 135.15625 C 290.929688 135.347656 290.734375 135.554688 290.5625 135.785156 C 290.390625 136.015625 290.246094 136.257812 290.121094 136.515625 C 289.996094 136.773438 289.898438 137.042969 289.828125 137.320312 C 289.757812 137.597656 289.714844 137.878906 289.699219 138.164062 C 289.683594 138.449219 289.695312 138.734375 289.734375 139.015625 C 289.777344 139.300781 289.84375 139.578125 289.9375 139.847656 C 290.035156 140.117188 290.15625 140.375 290.300781 140.621094 C 290.445312 140.867188 290.613281 141.097656 290.804688 141.3125 L 302.050781 153.851562 C 302.242188 154.0625 302.453125 154.253906 302.679688 154.425781 C 302.910156 154.597656 303.152344 154.746094 303.414062 154.871094 C 303.671875 154.996094 303.9375 155.09375 304.214844 155.164062 C 304.492188 155.234375 304.773438 155.277344 305.058594 155.292969 C 305.347656 155.308594 305.628906 155.296875 305.914062 155.257812 C 306.199219 155.214844 306.472656 155.148438 306.746094 155.054688 C 307.015625 154.957031 307.273438 154.839844 307.519531 154.691406 C 307.765625 154.546875 307.996094 154.378906 308.207031 154.1875 C 308.421875 153.996094 308.613281 153.785156 308.785156 153.554688 C 308.957031 153.328125 309.105469 153.082031 309.230469 152.824219 C 309.351562 152.566406 309.449219 152.300781 309.519531 152.023438 C 309.59375 151.746094 309.636719 151.464844 309.652344 151.175781 C 309.667969 150.890625 309.652344 150.605469 309.613281 150.324219 C 309.574219 150.039062 309.503906 149.761719 309.410156 149.492188 C 309.316406 149.222656 309.195312 148.964844 309.046875 148.71875 C 308.902344 148.472656 308.734375 148.242188 308.542969 148.03125 L 297.296875 135.492188 C 297.105469 135.277344 296.894531 135.085938 296.667969 134.914062 C 296.4375 134.742188 296.195312 134.59375 295.9375 134.46875 C 295.675781 134.347656 295.410156 134.25 295.132812 134.179688 C 294.855469 134.105469 294.574219 134.0625 294.289062 134.046875 C 294.003906 134.03125 293.71875 134.046875 293.433594 134.085938 C 293.152344 134.125 292.875 134.195312 292.605469 134.289062 C 292.335938 134.382812 292.078125 134.503906 291.828125 134.648438 C 291.582031 134.796875 291.355469 134.964844 291.140625 135.15625 Z M 291.140625 135.15625 " fill-opacity="1" fill-rule="nonzero"/><path fill="#008ab0" d="M 240.4375 157.125 C 240.246094 156.914062 240.035156 156.71875 239.808594 156.546875 C 239.578125 156.375 239.335938 156.230469 239.078125 156.105469 C 238.820312 155.980469 238.550781 155.882812 238.273438 155.8125 C 237.996094 155.742188 237.714844 155.699219 237.429688 155.683594 C 237.144531 155.667969 236.859375 155.679688 236.574219 155.71875 C 236.292969 155.761719 236.015625 155.828125 235.746094 155.921875 C 235.476562 156.019531 235.21875 156.140625 234.972656 156.285156 C 234.726562 156.429688 234.496094 156.597656 234.28125 156.789062 C 234.070312 156.980469 233.875 157.191406 233.703125 157.421875 C 233.53125 157.648438 233.386719 157.894531 233.261719 158.152344 C 233.136719 158.410156 233.039062 158.675781 232.96875 158.953125 C 232.898438 159.230469 232.855469 159.511719 232.839844 159.796875 C 232.824219 160.085938 232.835938 160.367188 232.875 160.652344 C 232.917969 160.933594 232.984375 161.210938 233.082031 161.480469 C 233.175781 161.753906 233.296875 162.011719 233.441406 162.257812 C 233.585938 162.503906 233.753906 162.734375 233.945312 162.945312 L 274.378906 208.027344 C 274.570312 208.242188 274.78125 208.433594 275.011719 208.605469 C 275.238281 208.777344 275.484375 208.925781 275.742188 209.050781 C 276 209.175781 276.265625 209.273438 276.542969 209.34375 C 276.820312 209.414062 277.105469 209.457031 277.390625 209.472656 C 277.675781 209.488281 277.960938 209.476562 278.246094 209.4375 C 278.527344 209.398438 278.804688 209.328125 279.074219 209.234375 C 279.34375 209.140625 279.605469 209.019531 279.851562 208.875 C 280.097656 208.726562 280.328125 208.558594 280.539062 208.367188 C 280.753906 208.175781 280.945312 207.964844 281.117188 207.738281 C 281.289062 207.507812 281.4375 207.265625 281.5625 207.003906 C 281.683594 206.746094 281.78125 206.480469 281.851562 206.203125 C 281.921875 205.925781 281.96875 205.644531 281.980469 205.355469 C 281.996094 205.070312 281.984375 204.785156 281.945312 204.503906 C 281.902344 204.21875 281.835938 203.941406 281.742188 203.671875 C 281.644531 203.402344 281.523438 203.144531 281.378906 202.898438 C 281.230469 202.652344 281.0625 202.421875 280.871094 202.207031 Z M 240.4375 157.125 " fill-opacity="1" fill-rule="nonzero"/><path fill="#008ab0" d="M 211.09375 166.921875 C 210.902344 166.707031 210.691406 166.515625 210.460938 166.34375 C 210.234375 166.171875 209.988281 166.023438 209.730469 165.902344 C 209.472656 165.777344 209.207031 165.679688 208.929688 165.609375 C 208.652344 165.535156 208.371094 165.492188 208.082031 165.476562 C 207.796875 165.460938 207.511719 165.476562 207.230469 165.515625 C 206.945312 165.554688 206.667969 165.625 206.398438 165.71875 C 206.128906 165.8125 205.871094 165.933594 205.625 166.078125 C 205.378906 166.226562 205.148438 166.394531 204.9375 166.585938 C 204.722656 166.777344 204.53125 166.984375 204.359375 167.214844 C 204.1875 167.445312 204.039062 167.6875 203.914062 167.945312 C 203.792969 168.203125 203.695312 168.472656 203.621094 168.75 C 203.550781 169.027344 203.507812 169.308594 203.492188 169.59375 C 203.476562 169.878906 203.488281 170.164062 203.53125 170.449219 C 203.570312 170.730469 203.640625 171.007812 203.734375 171.277344 C 203.828125 171.546875 203.949219 171.804688 204.097656 172.054688 C 204.242188 172.300781 204.410156 172.527344 204.601562 172.742188 L 261.460938 236.136719 C 261.652344 236.351562 261.863281 236.542969 262.089844 236.714844 C 262.320312 236.890625 262.5625 237.035156 262.820312 237.160156 C 263.082031 237.285156 263.347656 237.382812 263.625 237.453125 C 263.902344 237.527344 264.183594 237.570312 264.46875 237.585938 C 264.757812 237.601562 265.042969 237.589844 265.324219 237.546875 C 265.609375 237.507812 265.886719 237.441406 266.15625 237.34375 C 266.425781 237.25 266.683594 237.128906 266.929688 236.984375 C 267.175781 236.835938 267.40625 236.667969 267.621094 236.476562 C 267.832031 236.285156 268.027344 236.078125 268.199219 235.847656 C 268.371094 235.617188 268.519531 235.375 268.640625 235.117188 C 268.765625 234.859375 268.863281 234.589844 268.933594 234.3125 C 269.003906 234.035156 269.046875 233.753906 269.0625 233.46875 C 269.078125 233.179688 269.066406 232.894531 269.023438 232.613281 C 268.984375 232.328125 268.917969 232.050781 268.820312 231.78125 C 268.726562 231.511719 268.605469 231.253906 268.457031 231.007812 C 268.3125 230.761719 268.144531 230.53125 267.953125 230.320312 Z M 211.09375 166.921875 " fill-opacity="1" fill-rule="nonzero"/><path fill="#008ab0" d="M 198.238281 195.101562 C 198.046875 194.890625 197.835938 194.695312 197.605469 194.523438 C 197.378906 194.351562 197.132812 194.203125 196.875 194.078125 C 196.617188 193.957031 196.351562 193.859375 196.074219 193.785156 C 195.796875 193.714844 195.511719 193.671875 195.226562 193.65625 C 194.941406 193.640625 194.65625 193.652344 194.371094 193.691406 C 194.089844 193.734375 193.8125 193.800781 193.542969 193.894531 C 193.273438 193.992188 193.011719 194.113281 192.765625 194.257812 C 192.519531 194.402344 192.289062 194.570312 192.078125 194.761719 C 191.863281 194.953125 191.671875 195.164062 191.5 195.394531 C 191.328125 195.621094 191.179688 195.867188 191.054688 196.125 C 190.933594 196.382812 190.835938 196.652344 190.765625 196.929688 C 190.695312 197.207031 190.648438 197.488281 190.636719 197.773438 C 190.621094 198.058594 190.632812 198.34375 190.671875 198.628906 C 190.714844 198.910156 190.78125 199.1875 190.875 199.457031 C 190.972656 199.730469 191.09375 199.988281 191.238281 200.234375 C 191.386719 200.480469 191.554688 200.710938 191.746094 200.921875 L 232.050781 245.863281 C 232.242188 246.078125 232.453125 246.269531 232.683594 246.441406 C 232.910156 246.613281 233.15625 246.761719 233.414062 246.882812 C 233.671875 247.007812 233.9375 247.105469 234.214844 247.175781 C 234.492188 247.246094 234.773438 247.292969 235.058594 247.308594 C 235.347656 247.324219 235.628906 247.308594 235.914062 247.269531 C 236.199219 247.230469 236.472656 247.160156 236.742188 247.066406 C 237.015625 246.972656 237.273438 246.851562 237.519531 246.703125 C 237.765625 246.558594 237.996094 246.390625 238.207031 246.199219 C 238.421875 246.007812 238.613281 245.796875 238.785156 245.570312 C 238.957031 245.339844 239.105469 245.097656 239.226562 244.839844 C 239.351562 244.582031 239.449219 244.3125 239.519531 244.035156 C 239.589844 243.757812 239.632812 243.476562 239.648438 243.191406 C 239.664062 242.90625 239.652344 242.621094 239.613281 242.335938 C 239.570312 242.054688 239.503906 241.777344 239.410156 241.507812 C 239.316406 241.238281 239.195312 240.980469 239.046875 240.734375 C 238.902344 240.488281 238.734375 240.257812 238.542969 240.042969 Z M 198.238281 195.101562 " fill-opacity="1" fill-rule="nonzero"/><path fill="#008ab0" d="M 178.628906 269.160156 C 179.050781 269.160156 179.460938 269.097656 179.867188 268.980469 C 180.269531 268.859375 180.648438 268.6875 181 268.457031 C 181.355469 268.226562 181.667969 267.953125 181.941406 267.632812 C 182.214844 267.3125 182.4375 266.960938 182.609375 266.578125 C 182.78125 266.191406 182.894531 265.792969 182.949219 265.375 C 183.003906 264.957031 183 264.539062 182.933594 264.125 C 182.871094 263.707031 182.746094 263.3125 182.566406 262.929688 C 182.386719 262.550781 182.15625 262.203125 181.875 261.890625 L 170.375 249.070312 C 170.183594 248.855469 169.976562 248.664062 169.746094 248.492188 C 169.515625 248.320312 169.273438 248.171875 169.015625 248.050781 C 168.757812 247.925781 168.488281 247.828125 168.210938 247.757812 C 167.933594 247.6875 167.652344 247.644531 167.367188 247.628906 C 167.082031 247.613281 166.796875 247.625 166.515625 247.664062 C 166.230469 247.707031 165.953125 247.773438 165.683594 247.867188 C 165.414062 247.960938 165.15625 248.082031 164.910156 248.230469 C 164.664062 248.375 164.433594 248.542969 164.21875 248.734375 C 164.007812 248.925781 163.816406 249.136719 163.644531 249.363281 C 163.472656 249.59375 163.324219 249.835938 163.199219 250.09375 C 163.078125 250.351562 162.980469 250.621094 162.90625 250.898438 C 162.835938 251.175781 162.792969 251.457031 162.777344 251.742188 C 162.761719 252.027344 162.773438 252.3125 162.816406 252.597656 C 162.855469 252.878906 162.921875 253.15625 163.019531 253.425781 C 163.113281 253.695312 163.234375 253.953125 163.378906 254.199219 C 163.527344 254.445312 163.695312 254.675781 163.886719 254.890625 L 175.382812 267.710938 C 175.796875 268.171875 176.285156 268.527344 176.851562 268.78125 C 177.417969 269.035156 178.011719 269.160156 178.628906 269.160156 Z M 178.628906 269.160156 " fill-opacity="1" fill-rule="nonzero"/><path fill="#008ab0" d="M 122.367188 244.582031 C 122.152344 244.773438 121.960938 244.984375 121.789062 245.214844 C 121.617188 245.441406 121.46875 245.6875 121.347656 245.945312 C 121.222656 246.203125 121.125 246.46875 121.054688 246.746094 C 120.984375 247.023438 120.9375 247.304688 120.921875 247.589844 C 120.910156 247.878906 120.921875 248.164062 120.960938 248.445312 C 121 248.730469 121.070312 249.003906 121.164062 249.277344 C 121.257812 249.546875 121.378906 249.804688 121.527344 250.050781 C 121.671875 250.296875 121.839844 250.527344 122.03125 250.738281 L 174.972656 309.769531 C 175.164062 309.980469 175.375 310.175781 175.601562 310.347656 C 175.832031 310.519531 176.074219 310.667969 176.332031 310.792969 C 176.59375 310.914062 176.859375 311.011719 177.136719 311.085938 C 177.414062 311.15625 177.695312 311.199219 177.980469 311.214844 C 178.269531 311.230469 178.554688 311.21875 178.835938 311.179688 C 179.121094 311.136719 179.398438 311.070312 179.667969 310.976562 C 179.9375 310.878906 180.195312 310.757812 180.441406 310.613281 C 180.6875 310.46875 180.917969 310.300781 181.132812 310.109375 C 181.34375 309.917969 181.539062 309.707031 181.710938 309.476562 C 181.882812 309.25 182.03125 309.003906 182.152344 308.746094 C 182.277344 308.488281 182.375 308.21875 182.445312 307.941406 C 182.515625 307.664062 182.558594 307.382812 182.574219 307.097656 C 182.589844 306.8125 182.578125 306.527344 182.535156 306.242188 C 182.496094 305.960938 182.429688 305.683594 182.332031 305.414062 C 182.238281 305.140625 182.117188 304.882812 181.96875 304.636719 C 181.824219 304.390625 181.65625 304.160156 181.464844 303.949219 L 128.523438 244.917969 C 128.332031 244.707031 128.121094 244.511719 127.890625 244.34375 C 127.664062 244.171875 127.417969 244.023438 127.160156 243.898438 C 126.902344 243.773438 126.636719 243.675781 126.359375 243.605469 C 126.082031 243.535156 125.800781 243.492188 125.511719 243.476562 C 125.226562 243.460938 124.941406 243.472656 124.660156 243.515625 C 124.375 243.554688 124.101562 243.621094 123.828125 243.71875 C 123.558594 243.8125 123.300781 243.933594 123.054688 244.078125 C 122.808594 244.222656 122.578125 244.390625 122.367188 244.582031 Z M 122.367188 244.582031 " fill-opacity="1" fill-rule="nonzero"/></svg>