<svg xmlns="http://www.w3.org/2000/svg" xmlns:xlink="http://www.w3.org/1999/xlink" width="500" zoomAndPan="magnify" viewBox="0 0 375 374.999991" height="500" preserveAspectRatio="xMidYMid meet" version="1.0"><defs><clipPath id="7fbb9c764d"><path d="M 89 69.75 L 219 69.75 L 219 211 L 89 211 Z M 89 69.75 " clip-rule="nonzero"/></clipPath><clipPath id="1688882a26"><path d="M 115 92 L 337.5 92 L 337.5 305 L 115 305 Z M 115 92 " clip-rule="nonzero"/></clipPath></defs><path fill="#008ab0" d="M 179.328125 92.15625 C 178.871094 92.078125 178.417969 92.085938 177.96875 92.1875 C 177.515625 92.289062 177.101562 92.472656 176.722656 92.738281 C 176.34375 93.003906 176.03125 93.332031 175.78125 93.722656 C 175.535156 94.113281 175.371094 94.535156 175.292969 94.992188 C 173.777344 103.652344 172.011719 117.921875 172.011719 129.640625 C 172.011719 139.125 174.511719 147.214844 179.445312 153.699219 C 179.726562 154.066406 180.066406 154.367188 180.464844 154.601562 C 180.867188 154.832031 181.292969 154.980469 181.753906 155.042969 C 182.210938 155.105469 182.664062 155.078125 183.109375 154.957031 C 183.558594 154.839844 183.964844 154.640625 184.332031 154.359375 C 184.703125 154.082031 185 153.742188 185.234375 153.339844 C 185.46875 152.941406 185.613281 152.511719 185.675781 152.054688 C 185.738281 151.597656 185.710938 151.144531 185.59375 150.695312 C 185.476562 150.25 185.277344 149.839844 184.996094 149.472656 C 181.007812 144.234375 178.984375 137.5625 178.984375 129.640625 C 178.984375 118.367188 180.695312 104.578125 182.164062 96.191406 C 182.242188 95.738281 182.230469 95.28125 182.128906 94.832031 C 182.03125 94.378906 181.847656 93.964844 181.582031 93.585938 C 181.316406 93.207031 180.988281 92.894531 180.597656 92.648438 C 180.207031 92.398438 179.785156 92.234375 179.328125 92.15625 Z M 179.328125 92.15625 " fill-opacity="1" fill-rule="nonzero"/><path fill="#008ab0" d="M 224.527344 116.210938 C 230.910156 120.742188 234.425781 127.515625 234.425781 135.277344 C 234.429688 135.742188 234.515625 136.183594 234.695312 136.613281 C 234.871094 137.039062 235.125 137.414062 235.453125 137.742188 C 235.777344 138.066406 236.15625 138.316406 236.582031 138.496094 C 237.007812 138.671875 237.453125 138.757812 237.914062 138.757812 C 238.375 138.757812 238.820312 138.671875 239.246094 138.496094 C 239.675781 138.316406 240.050781 138.066406 240.378906 137.742188 C 240.703125 137.414062 240.957031 137.039062 241.132812 136.613281 C 241.3125 136.183594 241.402344 135.742188 241.402344 135.277344 C 241.402344 125.191406 236.84375 116.398438 228.566406 110.523438 C 228.191406 110.257812 227.777344 110.070312 227.324219 109.96875 C 226.875 109.863281 226.421875 109.851562 225.964844 109.929688 C 225.507812 110.007812 225.085938 110.167969 224.695312 110.414062 C 224.300781 110.660156 223.972656 110.972656 223.703125 111.347656 C 223.4375 111.726562 223.25 112.140625 223.148438 112.589844 C 223.046875 113.042969 223.03125 113.496094 223.109375 113.949219 C 223.1875 114.40625 223.347656 114.832031 223.59375 115.222656 C 223.839844 115.613281 224.152344 115.945312 224.527344 116.210938 Z M 224.527344 116.210938 " fill-opacity="1" fill-rule="nonzero"/><path fill="#008ab0" d="M 154.011719 270.988281 C 153.550781 270.988281 153.105469 271.074219 152.679688 271.253906 C 152.25 271.429688 151.875 271.679688 151.546875 272.007812 C 151.21875 272.335938 150.96875 272.710938 150.792969 273.140625 C 150.613281 273.566406 150.527344 274.011719 150.527344 274.472656 C 150.527344 281.078125 146.179688 287.253906 138.894531 290.988281 C 129.941406 295.582031 119.417969 295.148438 112.085938 289.882812 C 102.214844 282.789062 98.476562 267.574219 101.5625 247.039062 C 101.628906 246.582031 101.609375 246.128906 101.496094 245.679688 C 101.386719 245.230469 101.191406 244.820312 100.917969 244.449219 C 100.644531 244.078125 100.308594 243.773438 99.910156 243.535156 C 99.515625 243.292969 99.089844 243.140625 98.628906 243.074219 C 98.171875 243.003906 97.71875 243.023438 97.269531 243.136719 C 96.820312 243.25 96.410156 243.441406 96.039062 243.714844 C 95.667969 243.992188 95.363281 244.328125 95.125 244.722656 C 94.886719 245.121094 94.730469 245.546875 94.664062 246.003906 C 90.191406 275.808594 99.457031 289.394531 108.019531 295.546875 C 113.164062 299.242188 119.484375 301.117188 125.996094 301.117188 C 131.671875 301.101562 137.03125 299.792969 142.078125 297.195312 C 151.734375 292.242188 157.5 283.746094 157.5 274.472656 C 157.5 274.011719 157.410156 273.566406 157.234375 273.140625 C 157.058594 272.710938 156.804688 272.335938 156.480469 272.007812 C 156.152344 271.679688 155.773438 271.429688 155.347656 271.25 C 154.921875 271.074219 154.476562 270.988281 154.011719 270.988281 Z M 154.011719 270.988281 " fill-opacity="1" fill-rule="nonzero"/><g clip-path="url(#7fbb9c764d)"><path fill="#008ab0" d="M 98.117188 124.234375 C 98.742188 124.234375 99.324219 124.074219 99.863281 123.761719 C 100.40625 123.449219 100.832031 123.019531 101.140625 122.476562 C 101.449219 121.933594 101.601562 121.347656 101.597656 120.722656 C 101.59375 120.097656 101.433594 119.515625 101.117188 118.976562 C 98.046875 113.757812 96.488281 108.664062 96.488281 103.839844 C 96.488281 87.886719 114.183594 76.765625 130.066406 76.765625 C 135.980469 76.765625 149.429688 78.46875 150.457031 93.703125 C 150.421875 94.324219 150.398438 94.949219 150.398438 95.589844 L 150.398438 200.3125 C 140.007812 192.722656 130.753906 185.089844 130.679688 178.390625 C 130.644531 175.117188 132.867188 171.84375 137.472656 168.390625 C 137.84375 168.113281 138.144531 167.773438 138.382812 167.378906 C 138.617188 166.980469 138.769531 166.550781 138.832031 166.09375 C 138.898438 165.636719 138.875 165.183594 138.761719 164.734375 C 138.644531 164.285156 138.449219 163.875 138.171875 163.507812 C 137.894531 163.136719 137.554688 162.832031 137.15625 162.597656 C 136.761719 162.363281 136.332031 162.210938 135.875 162.148438 C 135.414062 162.082031 134.960938 162.105469 134.515625 162.222656 C 134.066406 162.335938 133.65625 162.53125 133.289062 162.8125 C 126.871094 167.625 123.644531 172.894531 123.707031 178.46875 C 123.832031 189.734375 137.109375 199.402344 151.347656 209.597656 C 151.925781 210.214844 152.636719 210.570312 153.480469 210.664062 C 153.488281 210.667969 153.492188 210.667969 153.5 210.667969 C 153.628906 210.6875 153.753906 210.699219 153.882812 210.707031 C 153.902344 210.707031 153.917969 210.703125 153.9375 210.699219 C 153.960938 210.703125 153.984375 210.707031 154.011719 210.707031 C 154.277344 210.707031 154.539062 210.679688 154.800781 210.617188 C 155.058594 210.558594 155.308594 210.46875 155.546875 210.351562 C 155.789062 210.234375 156.011719 210.09375 156.21875 209.921875 C 156.425781 209.753906 156.609375 209.566406 156.769531 209.351562 C 156.933594 209.140625 157.070312 208.914062 157.179688 208.671875 C 157.289062 208.429688 157.371094 208.175781 157.421875 207.914062 C 157.476562 207.652344 157.496094 207.390625 157.488281 207.125 C 157.480469 206.855469 157.441406 206.59375 157.371094 206.335938 L 157.371094 96.484375 C 157.453125 96.191406 157.496094 95.894531 157.5 95.589844 C 157.5 94.949219 157.476562 94.324219 157.441406 93.703125 C 158.46875 78.46875 171.914062 76.765625 177.828125 76.765625 C 193.710938 76.765625 211.40625 87.886719 211.40625 103.839844 C 211.40625 108.664062 209.847656 113.757812 206.777344 118.976562 C 206.542969 119.375 206.390625 119.804688 206.328125 120.261719 C 206.261719 120.722656 206.289062 121.175781 206.402344 121.625 C 206.519531 122.070312 206.714844 122.480469 206.996094 122.851562 C 207.273438 123.21875 207.613281 123.523438 208.011719 123.757812 C 208.410156 123.992188 208.839844 124.140625 209.296875 124.207031 C 209.757812 124.269531 210.210938 124.242188 210.660156 124.125 C 211.105469 124.011719 211.515625 123.8125 211.882812 123.53125 C 212.253906 123.253906 212.554688 122.914062 212.789062 122.515625 C 216.5 116.207031 218.382812 109.921875 218.382812 103.839844 C 218.382812 83.472656 197.414062 69.792969 177.828125 69.792969 C 166.835938 69.792969 158.410156 74.203125 153.949219 81.699219 C 149.484375 74.203125 141.0625 69.792969 130.066406 69.792969 C 110.484375 69.792969 89.515625 83.472656 89.515625 103.839844 C 89.515625 109.925781 91.394531 116.207031 95.105469 122.515625 C 95.421875 123.046875 95.84375 123.46875 96.382812 123.773438 C 96.917969 124.082031 97.496094 124.234375 98.117188 124.234375 Z M 98.117188 124.234375 " fill-opacity="1" fill-rule="nonzero"/></g><path fill="#008ab0" d="M 84.761719 165.6875 C 82.292969 166.570312 79.910156 167.839844 78.652344 170.472656 C 77.402344 173.09375 77.625 176.300781 79.351562 180.574219 C 79.527344 181 79.773438 181.378906 80.097656 181.710938 C 80.421875 182.039062 80.800781 182.296875 81.226562 182.476562 C 81.652344 182.65625 82.09375 182.746094 82.558594 182.75 C 83.019531 182.753906 83.464844 182.671875 83.894531 182.496094 C 84.324219 182.324219 84.703125 182.074219 85.03125 181.75 C 85.359375 181.425781 85.617188 181.050781 85.796875 180.625 C 85.976562 180.199219 86.070312 179.753906 86.074219 179.292969 C 86.074219 178.832031 85.992188 178.386719 85.816406 177.957031 C 84.503906 174.707031 84.859375 173.65625 84.945312 173.476562 C 85.28125 172.773438 87.429688 172.121094 89.15625 171.59375 C 91.15625 170.988281 93.601562 170.238281 95.839844 168.832031 C 96.824219 168.917969 97.820312 168.976562 98.84375 168.976562 C 100.800781 168.976562 109.878906 167.894531 118.488281 162.613281 C 126.425781 157.742188 135.886719 148.066406 135.886719 129.640625 C 135.886719 117.917969 134.117188 103.648438 132.601562 94.992188 C 132.523438 94.535156 132.359375 94.113281 132.113281 93.722656 C 131.863281 93.332031 131.550781 93.003906 131.171875 92.734375 C 130.792969 92.46875 130.378906 92.285156 129.929688 92.1875 C 129.476562 92.085938 129.023438 92.074219 128.566406 92.15625 C 128.109375 92.234375 127.6875 92.398438 127.296875 92.644531 C 126.90625 92.894531 126.578125 93.207031 126.3125 93.585938 C 126.046875 93.964844 125.863281 94.378906 125.765625 94.832031 C 125.664062 95.285156 125.652344 95.738281 125.734375 96.191406 C 127.199219 104.574219 128.914062 118.363281 128.914062 129.640625 C 128.914062 154.652344 108.683594 160.414062 101.414062 161.667969 C 102.4375 158.496094 102.664062 154.246094 101.535156 148.46875 C 101.445312 148.015625 101.273438 147.597656 101.015625 147.210938 C 100.761719 146.824219 100.441406 146.503906 100.058594 146.246094 C 99.675781 145.988281 99.253906 145.8125 98.800781 145.722656 C 98.347656 145.628906 97.894531 145.628906 97.441406 145.71875 C 96.988281 145.808594 96.570312 145.980469 96.183594 146.234375 C 95.796875 146.492188 95.476562 146.8125 95.21875 147.195312 C 94.960938 147.578125 94.785156 147.996094 94.695312 148.449219 C 94.601562 148.902344 94.601562 149.355469 94.691406 149.808594 C 95.914062 156.042969 95.335938 159.414062 93.730469 161.453125 C 81.421875 158.773438 73.46875 146.675781 73.46875 135.277344 C 73.46875 127.515625 76.984375 120.742188 83.367188 116.210938 C 83.746094 115.945312 84.054688 115.613281 84.300781 115.222656 C 84.546875 114.832031 84.710938 114.40625 84.785156 113.949219 C 84.863281 113.496094 84.851562 113.042969 84.75 112.589844 C 84.644531 112.140625 84.460938 111.726562 84.191406 111.347656 C 83.925781 110.972656 83.59375 110.660156 83.203125 110.414062 C 82.8125 110.167969 82.386719 110.007812 81.933594 109.929688 C 81.476562 109.851562 81.023438 109.863281 80.570312 109.96875 C 80.121094 110.070312 79.707031 110.257812 79.328125 110.523438 C 71.054688 116.398438 66.496094 125.191406 66.496094 135.277344 C 66.496094 147.226562 73.222656 159.863281 84.761719 165.6875 Z M 84.761719 165.6875 " fill-opacity="1" fill-rule="nonzero"/><path fill="#008ab0" d="M 128.796875 249.089844 C 128.230469 256.9375 126.9375 264.277344 125.992188 269.640625 L 125.734375 271.097656 C 125.652344 271.554688 125.664062 272.007812 125.765625 272.460938 C 125.863281 272.910156 126.046875 273.328125 126.3125 273.707031 C 126.578125 274.085938 126.90625 274.398438 127.296875 274.644531 C 127.6875 274.894531 128.109375 275.058594 128.566406 275.136719 C 129.023438 275.21875 129.476562 275.207031 129.929688 275.105469 C 130.378906 275.007812 130.792969 274.824219 131.171875 274.554688 C 131.550781 274.289062 131.863281 273.960938 132.113281 273.570312 C 132.359375 273.179688 132.523438 272.757812 132.601562 272.300781 L 132.859375 270.851562 C 133.832031 265.339844 135.160156 257.796875 135.753906 249.589844 C 135.785156 249.128906 135.730469 248.679688 135.585938 248.242188 C 135.441406 247.800781 135.214844 247.40625 134.914062 247.058594 C 134.609375 246.707031 134.253906 246.429688 133.839844 246.222656 C 133.425781 246.015625 132.988281 245.894531 132.527344 245.859375 C 132.066406 245.828125 131.617188 245.882812 131.175781 246.03125 C 130.738281 246.175781 130.34375 246.398438 129.992188 246.703125 C 129.644531 247.003906 129.363281 247.363281 129.15625 247.777344 C 128.949219 248.191406 128.832031 248.628906 128.796875 249.089844 Z M 128.796875 249.089844 " fill-opacity="1" fill-rule="nonzero"/><path fill="#008ab0" d="M 86.417969 254.03125 C 74.148438 247.796875 72.320312 235.027344 74.484375 225.992188 C 76.953125 215.6875 85.441406 205.289062 98.84375 205.289062 C 108.027344 205.289062 115.164062 207.726562 120.050781 212.53125 C 120.382812 212.855469 120.761719 213.105469 121.191406 213.277344 C 121.617188 213.453125 122.066406 213.535156 122.527344 213.53125 C 122.988281 213.527344 123.433594 213.4375 123.859375 213.257812 C 124.285156 213.074219 124.660156 212.820312 124.984375 212.492188 C 125.308594 212.160156 125.558594 211.78125 125.730469 211.351562 C 125.902344 210.921875 125.988281 210.476562 125.984375 210.015625 C 125.980469 209.554688 125.886719 209.109375 125.707031 208.683594 C 125.527344 208.257812 125.273438 207.882812 124.941406 207.558594 C 118.699219 201.425781 109.921875 198.316406 98.84375 198.316406 C 81.640625 198.316406 70.808594 211.398438 67.703125 224.367188 C 64.074219 239.519531 70.179688 253.605469 83.261719 260.25 C 83.671875 260.457031 84.109375 260.578125 84.570312 260.613281 C 85.03125 260.648438 85.480469 260.59375 85.917969 260.453125 C 86.359375 260.308594 86.753906 260.085938 87.105469 259.785156 C 87.453125 259.484375 87.734375 259.128906 87.945312 258.71875 C 88.152344 258.304688 88.277344 257.871094 88.3125 257.410156 C 88.347656 256.949219 88.292969 256.5 88.152344 256.058594 C 88.007812 255.621094 87.785156 255.226562 87.484375 254.875 C 87.1875 254.523438 86.832031 254.242188 86.417969 254.03125 Z M 86.417969 254.03125 " fill-opacity="1" fill-rule="nonzero"/><path fill="#008ab0" d="M 58.46875 153.804688 C 58.765625 153.449219 58.980469 153.046875 59.117188 152.605469 C 59.253906 152.164062 59.300781 151.714844 59.257812 151.253906 C 59.214844 150.792969 59.085938 150.359375 58.867188 149.949219 C 58.652344 149.542969 58.367188 149.191406 58.011719 148.894531 C 57.65625 148.601562 57.257812 148.382812 56.816406 148.246094 C 56.375 148.109375 55.921875 148.0625 55.460938 148.105469 C 55.003906 148.148438 54.566406 148.277344 54.160156 148.492188 C 53.75 148.707031 53.398438 148.996094 53.101562 149.347656 C 37.496094 168.160156 38.136719 195.972656 54.589844 214.046875 C 54.898438 214.390625 55.265625 214.660156 55.683594 214.855469 C 56.101562 215.054688 56.542969 215.164062 57.003906 215.183594 C 57.464844 215.207031 57.914062 215.140625 58.351562 214.984375 C 58.785156 214.824219 59.175781 214.589844 59.515625 214.28125 C 59.859375 213.96875 60.128906 213.601562 60.324219 213.183594 C 60.523438 212.765625 60.632812 212.324219 60.652344 211.863281 C 60.675781 211.402344 60.605469 210.953125 60.449219 210.515625 C 60.292969 210.082031 60.058594 209.695312 59.746094 209.351562 C 45.621094 193.835938 45.070312 169.953125 58.46875 153.804688 Z M 58.46875 153.804688 " fill-opacity="1" fill-rule="nonzero"/><g clip-path="url(#1688882a26)"><path fill="#008ab0" d="M 336.207031 161.355469 C 335.898438 161.007812 335.535156 160.738281 335.121094 160.539062 C 334.703125 160.335938 334.261719 160.226562 333.800781 160.199219 C 333.339844 160.175781 332.890625 160.238281 332.453125 160.390625 C 332.019531 160.546875 331.628906 160.777344 331.285156 161.085938 C 312.714844 177.742188 290.925781 170.203125 267.835938 161.640625 C 261.832031 137.769531 256.726562 115.304688 275.289062 98.65625 C 275.632812 98.347656 275.90625 97.984375 276.105469 97.566406 C 276.304688 97.148438 276.417969 96.710938 276.445312 96.25 C 276.46875 95.785156 276.40625 95.335938 276.25 94.898438 C 276.097656 94.464844 275.867188 94.074219 275.558594 93.730469 C 275.25 93.382812 274.886719 93.113281 274.46875 92.910156 C 274.050781 92.710938 273.613281 92.597656 273.148438 92.574219 C 272.6875 92.550781 272.238281 92.613281 271.800781 92.769531 C 271.367188 92.921875 270.976562 93.152344 270.632812 93.460938 C 250.324219 111.675781 254.195312 135.304688 259.925781 158.71875 C 237.269531 150.480469 214.203125 144.070312 193.90625 162.277344 C 173.589844 180.496094 177.476562 204.140625 183.207031 227.570312 C 160.542969 219.328125 137.464844 212.902344 117.15625 231.113281 C 116.8125 231.421875 116.539062 231.785156 116.339844 232.203125 C 116.136719 232.621094 116.023438 233.058594 116 233.519531 C 115.976562 233.984375 116.039062 234.433594 116.191406 234.867188 C 116.347656 235.304688 116.578125 235.695312 116.886719 236.039062 C 117.195312 236.382812 117.558594 236.65625 117.972656 236.855469 C 118.390625 237.054688 118.832031 237.167969 119.292969 237.191406 C 119.753906 237.21875 120.203125 237.152344 120.640625 237 C 121.078125 236.847656 121.46875 236.617188 121.8125 236.304688 C 140.375 219.65625 162.164062 227.1875 185.253906 235.753906 C 191.261719 259.625 196.367188 282.089844 177.804688 298.738281 C 177.460938 299.046875 177.1875 299.410156 176.988281 299.828125 C 176.789062 300.242188 176.675781 300.683594 176.652344 301.144531 C 176.625 301.605469 176.691406 302.054688 176.84375 302.492188 C 176.996094 302.929688 177.226562 303.316406 177.535156 303.664062 C 177.84375 304.007812 178.207031 304.277344 178.625 304.480469 C 179.042969 304.679688 179.480469 304.792969 179.941406 304.816406 C 180.40625 304.839844 180.855469 304.777344 181.289062 304.625 C 181.726562 304.46875 182.117188 304.238281 182.460938 303.929688 C 202.765625 285.71875 198.894531 262.089844 193.167969 238.671875 C 205.089844 243.007812 217.128906 246.839844 228.816406 246.839844 C 239.335938 246.839844 249.570312 243.738281 259.1875 235.117188 C 279.503906 216.894531 275.617188 193.25 269.882812 169.824219 C 292.546875 178.066406 315.628906 184.492188 335.9375 166.277344 C 336.285156 165.96875 336.554688 165.605469 336.753906 165.191406 C 336.957031 164.773438 337.066406 164.332031 337.09375 163.871094 C 337.117188 163.410156 337.054688 162.960938 336.902344 162.523438 C 336.746094 162.089844 336.515625 161.699219 336.207031 161.355469 Z M 254.53125 229.925781 C 235.972656 246.570312 214.195312 239.054688 191.121094 230.492188 C 185.113281 206.605469 179.988281 184.125 198.5625 167.46875 C 217.121094 150.824219 238.898438 158.339844 261.96875 166.902344 C 267.980469 190.785156 273.101562 213.265625 254.53125 229.925781 Z M 254.53125 229.925781 " fill-opacity="1" fill-rule="nonzero"/></g><path fill="#008ab0" d="M 270.691406 111.921875 C 270.347656 112.230469 270.074219 112.59375 269.875 113.011719 C 269.671875 113.425781 269.5625 113.867188 269.535156 114.328125 C 269.511719 114.789062 269.574219 115.238281 269.726562 115.675781 C 269.882812 116.109375 270.113281 116.5 270.421875 116.84375 L 312.675781 163.957031 C 312.984375 164.300781 313.347656 164.574219 313.765625 164.777344 C 314.179688 164.976562 314.621094 165.089844 315.082031 165.117188 C 315.546875 165.144531 315.996094 165.078125 316.433594 164.925781 C 316.871094 164.773438 317.261719 164.539062 317.605469 164.230469 C 317.949219 163.921875 318.222656 163.558594 318.421875 163.140625 C 318.621094 162.722656 318.734375 162.28125 318.757812 161.820312 C 318.785156 161.359375 318.71875 160.910156 318.566406 160.472656 C 318.410156 160.035156 318.179688 159.644531 317.867188 159.300781 L 275.613281 112.191406 C 275.304688 111.84375 274.941406 111.574219 274.527344 111.375 C 274.109375 111.171875 273.667969 111.0625 273.207031 111.035156 C 272.746094 111.011719 272.296875 111.074219 271.859375 111.226562 C 271.425781 111.382812 271.035156 111.613281 270.691406 111.921875 Z M 270.691406 111.921875 " fill-opacity="1" fill-rule="nonzero"/><path fill="#008ab0" d="M 270.414062 145.625 C 270.070312 145.933594 269.796875 146.296875 269.597656 146.714844 C 269.394531 147.128906 269.285156 147.570312 269.257812 148.03125 C 269.234375 148.492188 269.296875 148.941406 269.449219 149.378906 C 269.605469 149.8125 269.835938 150.203125 270.144531 150.546875 L 279.140625 160.578125 C 279.449219 160.925781 279.8125 161.195312 280.230469 161.398438 C 280.648438 161.597656 281.085938 161.710938 281.546875 161.734375 C 282.011719 161.761719 282.460938 161.695312 282.894531 161.542969 C 283.332031 161.390625 283.722656 161.160156 284.066406 160.847656 C 284.410156 160.539062 284.683594 160.175781 284.882812 159.761719 C 285.082031 159.34375 285.195312 158.902344 285.21875 158.441406 C 285.246094 157.980469 285.179688 157.53125 285.027344 157.09375 C 284.875 156.660156 284.644531 156.269531 284.332031 155.925781 L 275.335938 145.894531 C 275.027344 145.546875 274.664062 145.277344 274.25 145.078125 C 273.832031 144.875 273.390625 144.765625 272.929688 144.738281 C 272.46875 144.714844 272.019531 144.777344 271.582031 144.929688 C 271.148438 145.085938 270.757812 145.316406 270.414062 145.625 Z M 270.414062 145.625 " fill-opacity="1" fill-rule="nonzero"/><path fill="#008ab0" d="M 229.851562 163.199219 C 229.542969 162.855469 229.179688 162.585938 228.761719 162.382812 C 228.34375 162.183594 227.90625 162.070312 227.445312 162.046875 C 226.980469 162.019531 226.53125 162.085938 226.097656 162.238281 C 225.660156 162.390625 225.269531 162.625 224.925781 162.933594 C 224.582031 163.242188 224.308594 163.605469 224.109375 164.019531 C 223.910156 164.4375 223.796875 164.878906 223.773438 165.339844 C 223.746094 165.800781 223.8125 166.25 223.964844 166.6875 C 224.117188 167.121094 224.347656 167.511719 224.65625 167.855469 L 257.003906 203.921875 C 257.3125 204.265625 257.675781 204.539062 258.09375 204.742188 C 258.511719 204.941406 258.949219 205.054688 259.410156 205.078125 C 259.875 205.105469 260.324219 205.042969 260.761719 204.886719 C 261.195312 204.734375 261.585938 204.503906 261.933594 204.195312 C 262.277344 203.886719 262.546875 203.523438 262.75 203.105469 C 262.949219 202.6875 263.0625 202.246094 263.085938 201.785156 C 263.109375 201.324219 263.046875 200.875 262.890625 200.4375 C 262.738281 200 262.507812 199.609375 262.195312 199.265625 Z M 229.851562 163.199219 " fill-opacity="1" fill-rule="nonzero"/><path fill="#008ab0" d="M 206.375 171.039062 C 206.066406 170.691406 205.703125 170.421875 205.285156 170.21875 C 204.867188 170.019531 204.429688 169.90625 203.96875 169.882812 C 203.503906 169.855469 203.054688 169.921875 202.621094 170.074219 C 202.183594 170.226562 201.792969 170.460938 201.449219 170.769531 C 201.105469 171.078125 200.832031 171.441406 200.632812 171.855469 C 200.433594 172.273438 200.320312 172.714844 200.292969 173.175781 C 200.269531 173.636719 200.332031 174.085938 200.488281 174.523438 C 200.640625 174.957031 200.871094 175.347656 201.179688 175.695312 L 246.667969 226.410156 C 246.976562 226.753906 247.339844 227.027344 247.757812 227.230469 C 248.175781 227.429688 248.613281 227.542969 249.078125 227.566406 C 249.539062 227.59375 249.988281 227.527344 250.425781 227.375 C 250.859375 227.222656 251.25 226.992188 251.597656 226.683594 C 251.941406 226.375 252.214844 226.011719 252.414062 225.59375 C 252.613281 225.175781 252.726562 224.734375 252.75 224.273438 C 252.773438 223.8125 252.710938 223.363281 252.558594 222.925781 C 252.402344 222.488281 252.171875 222.097656 251.863281 221.753906 Z M 206.375 171.039062 " fill-opacity="1" fill-rule="nonzero"/><path fill="#008ab0" d="M 196.089844 193.582031 C 195.78125 193.238281 195.417969 192.964844 195 192.765625 C 194.582031 192.5625 194.144531 192.449219 193.683594 192.425781 C 193.21875 192.398438 192.769531 192.464844 192.332031 192.617188 C 191.898438 192.769531 191.507812 193 191.160156 193.308594 C 190.816406 193.621094 190.546875 193.984375 190.34375 194.398438 C 190.144531 194.816406 190.03125 195.257812 190.007812 195.71875 C 189.984375 196.179688 190.046875 196.628906 190.203125 197.066406 C 190.355469 197.503906 190.585938 197.894531 190.894531 198.238281 L 223.140625 234.191406 C 223.449219 234.535156 223.8125 234.808594 224.230469 235.007812 C 224.648438 235.207031 225.085938 235.320312 225.546875 235.34375 C 226.011719 235.371094 226.460938 235.304688 226.894531 235.152344 C 227.332031 235 227.722656 234.769531 228.066406 234.460938 C 228.410156 234.152344 228.683594 233.789062 228.882812 233.371094 C 229.082031 232.953125 229.195312 232.515625 229.21875 232.054688 C 229.246094 231.589844 229.179688 231.140625 229.027344 230.707031 C 228.875 230.269531 228.644531 229.878906 228.335938 229.535156 Z M 196.089844 193.582031 " fill-opacity="1" fill-rule="nonzero"/><path fill="#008ab0" d="M 180.402344 252.828125 C 181.089844 252.828125 181.722656 252.640625 182.300781 252.265625 C 182.878906 251.890625 183.308594 251.390625 183.585938 250.761719 C 183.867188 250.132812 183.953125 249.480469 183.847656 248.800781 C 183.742188 248.121094 183.457031 247.523438 183 247.011719 L 173.800781 236.753906 C 173.492188 236.410156 173.128906 236.140625 172.710938 235.941406 C 172.296875 235.738281 171.855469 235.628906 171.394531 235.601562 C 170.933594 235.578125 170.484375 235.640625 170.046875 235.792969 C 169.609375 235.949219 169.222656 236.179688 168.875 236.488281 C 168.53125 236.796875 168.261719 237.160156 168.058594 237.574219 C 167.859375 237.992188 167.746094 238.433594 167.722656 238.894531 C 167.699219 239.355469 167.761719 239.804688 167.914062 240.242188 C 168.070312 240.675781 168.300781 241.066406 168.609375 241.410156 L 177.804688 251.667969 C 178.5 252.441406 179.363281 252.828125 180.402344 252.828125 Z M 180.402344 252.828125 " fill-opacity="1" fill-rule="nonzero"/><path fill="#008ab0" d="M 135.394531 233.167969 C 135.046875 233.476562 134.777344 233.839844 134.578125 234.253906 C 134.375 234.671875 134.265625 235.113281 134.238281 235.574219 C 134.214844 236.035156 134.277344 236.484375 134.429688 236.921875 C 134.585938 237.355469 134.816406 237.746094 135.125 238.089844 L 177.480469 285.316406 C 177.789062 285.660156 178.148438 285.933594 178.566406 286.132812 C 178.984375 286.332031 179.421875 286.445312 179.886719 286.472656 C 180.347656 286.496094 180.796875 286.433594 181.234375 286.28125 C 181.671875 286.125 182.0625 285.894531 182.40625 285.585938 C 182.75 285.277344 183.023438 284.914062 183.222656 284.496094 C 183.421875 284.078125 183.535156 283.640625 183.558594 283.175781 C 183.585938 282.714844 183.519531 282.265625 183.367188 281.828125 C 183.210938 281.394531 182.980469 281.003906 182.671875 280.660156 L 140.316406 233.433594 C 140.007812 233.089844 139.644531 232.820312 139.230469 232.617188 C 138.8125 232.417969 138.371094 232.304688 137.910156 232.28125 C 137.449219 232.257812 137 232.320312 136.5625 232.472656 C 136.128906 232.628906 135.738281 232.859375 135.394531 233.167969 Z M 135.394531 233.167969 " fill-opacity="1" fill-rule="nonzero"/></svg>