<svg xmlns="http://www.w3.org/2000/svg" xmlns:xlink="http://www.w3.org/1999/xlink" width="750" zoomAndPan="magnify" viewBox="0 0 562.5 562.499982" height="750" preserveAspectRatio="xMidYMid meet" version="1.0"><defs><clipPath id="7ca7b6849f"><path d="M 97 60.414062 L 339 60.414062 L 339 325 L 97 325 Z M 97 60.414062 " clip-rule="nonzero"/></clipPath></defs><path fill="#008ab0" d="M 265.691406 102.390625 C 265.269531 102.316406 264.84375 102.285156 264.414062 102.292969 C 263.984375 102.304688 263.5625 102.355469 263.140625 102.449219 C 262.722656 102.539062 262.316406 102.671875 261.925781 102.847656 C 261.53125 103.019531 261.160156 103.230469 260.808594 103.476562 C 260.457031 103.722656 260.132812 104.003906 259.839844 104.3125 C 259.542969 104.625 259.28125 104.960938 259.050781 105.320312 C 258.820312 105.683594 258.628906 106.066406 258.472656 106.464844 C 258.320312 106.867188 258.203125 107.277344 258.132812 107.699219 C 255.296875 123.921875 251.984375 150.65625 251.984375 172.613281 C 251.984375 190.375 256.667969 205.535156 265.914062 217.679688 C 266.171875 218.019531 266.464844 218.332031 266.785156 218.617188 C 267.105469 218.902344 267.453125 219.152344 267.824219 219.367188 C 268.191406 219.582031 268.582031 219.761719 268.988281 219.898438 C 269.394531 220.039062 269.808594 220.136719 270.234375 220.195312 C 270.660156 220.253906 271.085938 220.269531 271.511719 220.242188 C 271.941406 220.214844 272.363281 220.148438 272.777344 220.039062 C 273.191406 219.929688 273.59375 219.78125 273.976562 219.59375 C 274.363281 219.402344 274.726562 219.179688 275.070312 218.921875 C 275.410156 218.660156 275.722656 218.371094 276.007812 218.046875 C 276.289062 217.726562 276.539062 217.378906 276.757812 217.007812 C 276.972656 216.640625 277.148438 216.25 277.289062 215.84375 C 277.429688 215.441406 277.527344 215.023438 277.585938 214.597656 C 277.644531 214.175781 277.65625 213.746094 277.632812 213.320312 C 277.605469 212.890625 277.539062 212.46875 277.429688 212.054688 C 277.320312 211.640625 277.167969 211.238281 276.980469 210.855469 C 276.792969 210.46875 276.570312 210.105469 276.308594 209.765625 C 268.835938 199.949219 265.046875 187.449219 265.046875 172.613281 C 265.046875 151.492188 268.253906 125.65625 271 109.949219 C 271.074219 109.527344 271.105469 109.101562 271.097656 108.671875 C 271.085938 108.242188 271.035156 107.820312 270.941406 107.402344 C 270.847656 106.984375 270.714844 106.578125 270.542969 106.183594 C 270.367188 105.792969 270.160156 105.421875 269.910156 105.070312 C 269.664062 104.71875 269.386719 104.394531 269.078125 104.097656 C 268.765625 103.804688 268.429688 103.539062 268.066406 103.308594 C 267.707031 103.082031 267.324219 102.886719 266.925781 102.734375 C 266.523438 102.578125 266.113281 102.464844 265.691406 102.390625 Z M 265.691406 102.390625 " fill-opacity="1" fill-rule="nonzero"/><path fill="#008ab0" d="M 350.367188 147.453125 C 362.324219 155.941406 368.910156 168.625 368.910156 183.171875 C 368.910156 183.601562 368.953125 184.027344 369.039062 184.445312 C 369.125 184.867188 369.246094 185.273438 369.410156 185.667969 C 369.578125 186.066406 369.777344 186.441406 370.015625 186.796875 C 370.253906 187.152344 370.527344 187.480469 370.828125 187.785156 C 371.132812 188.085938 371.460938 188.355469 371.816406 188.59375 C 372.175781 188.832031 372.550781 189.03125 372.945312 189.195312 C 373.34375 189.359375 373.75 189.484375 374.171875 189.566406 C 374.589844 189.652344 375.015625 189.691406 375.445312 189.691406 C 375.871094 189.691406 376.296875 189.652344 376.714844 189.566406 C 377.136719 189.484375 377.542969 189.359375 377.941406 189.195312 C 378.335938 189.03125 378.710938 188.832031 379.070312 188.59375 C 379.425781 188.355469 379.753906 188.085938 380.058594 187.785156 C 380.359375 187.480469 380.632812 187.152344 380.871094 186.796875 C 381.109375 186.441406 381.308594 186.066406 381.476562 185.667969 C 381.640625 185.273438 381.765625 184.867188 381.847656 184.445312 C 381.933594 184.027344 381.976562 183.601562 381.976562 183.171875 C 381.976562 164.277344 373.4375 147.808594 357.933594 136.796875 C 357.582031 136.550781 357.210938 136.339844 356.820312 136.164062 C 356.429688 135.988281 356.023438 135.851562 355.605469 135.757812 C 355.1875 135.660156 354.765625 135.609375 354.335938 135.59375 C 353.90625 135.582031 353.480469 135.613281 353.058594 135.683594 C 352.636719 135.757812 352.222656 135.867188 351.824219 136.023438 C 351.421875 136.175781 351.039062 136.363281 350.675781 136.59375 C 350.3125 136.820312 349.976562 137.082031 349.664062 137.378906 C 349.351562 137.671875 349.070312 137.992188 348.824219 138.34375 C 348.574219 138.695312 348.363281 139.0625 348.1875 139.457031 C 348.011719 139.847656 347.878906 140.25 347.78125 140.671875 C 347.6875 141.089844 347.632812 141.511719 347.621094 141.941406 C 347.609375 142.371094 347.636719 142.796875 347.710938 143.21875 C 347.78125 143.640625 347.894531 144.050781 348.046875 144.453125 C 348.199219 144.855469 348.390625 145.234375 348.617188 145.597656 C 348.847656 145.960938 349.105469 146.300781 349.402344 146.613281 C 349.695312 146.925781 350.019531 147.203125 350.367188 147.453125 Z M 350.367188 147.453125 " fill-opacity="1" fill-rule="nonzero"/><path fill="#008ab0" d="M 218.269531 437.398438 C 217.839844 437.398438 217.414062 437.441406 216.992188 437.523438 C 216.574219 437.609375 216.164062 437.730469 215.769531 437.894531 C 215.371094 438.058594 214.996094 438.261719 214.640625 438.5 C 214.28125 438.738281 213.953125 439.007812 213.648438 439.3125 C 213.347656 439.613281 213.074219 439.945312 212.835938 440.300781 C 212.597656 440.660156 212.398438 441.035156 212.234375 441.429688 C 212.070312 441.828125 211.945312 442.234375 211.863281 442.65625 C 211.777344 443.078125 211.734375 443.5 211.734375 443.929688 C 211.734375 456.304688 203.589844 467.871094 189.949219 474.871094 C 173.171875 483.476562 153.460938 482.660156 139.726562 472.796875 C 121.234375 459.511719 114.230469 431.007812 120.007812 392.539062 C 120.070312 392.117188 120.09375 391.6875 120.074219 391.261719 C 120.054688 390.832031 119.992188 390.410156 119.886719 389.992188 C 119.785156 389.578125 119.640625 389.175781 119.460938 388.785156 C 119.277344 388.398438 119.058594 388.03125 118.804688 387.683594 C 118.546875 387.339844 118.261719 387.023438 117.945312 386.734375 C 117.628906 386.445312 117.285156 386.191406 116.917969 385.96875 C 116.550781 385.75 116.164062 385.566406 115.761719 385.417969 C 115.355469 385.273438 114.941406 385.167969 114.519531 385.105469 C 114.09375 385.042969 113.667969 385.019531 113.238281 385.039062 C 112.808594 385.0625 112.386719 385.121094 111.972656 385.226562 C 111.554688 385.332031 111.152344 385.472656 110.765625 385.65625 C 110.375 385.839844 110.007812 386.058594 109.664062 386.3125 C 109.320312 386.566406 109.003906 386.855469 108.714844 387.171875 C 108.425781 387.488281 108.171875 387.832031 107.949219 388.199219 C 107.726562 388.566406 107.546875 388.953125 107.398438 389.355469 C 107.253906 389.761719 107.152344 390.175781 107.085938 390.597656 C 98.707031 446.429688 116.066406 471.882812 132.105469 483.40625 C 141.746094 490.332031 153.585938 493.839844 165.78125 493.839844 C 171.023438 493.828125 176.191406 493.199219 181.28125 491.957031 C 186.375 490.714844 191.25 488.894531 195.910156 486.496094 C 214 477.214844 224.800781 461.304688 224.800781 443.929688 C 224.800781 443.5 224.757812 443.078125 224.675781 442.65625 C 224.589844 442.234375 224.46875 441.828125 224.304688 441.429688 C 224.140625 441.035156 223.9375 440.660156 223.699219 440.300781 C 223.460938 439.945312 223.191406 439.613281 222.886719 439.3125 C 222.585938 439.007812 222.253906 438.738281 221.898438 438.5 C 221.539062 438.261719 221.164062 438.058594 220.769531 437.894531 C 220.371094 437.730469 219.964844 437.609375 219.542969 437.523438 C 219.121094 437.441406 218.695312 437.398438 218.269531 437.398438 Z M 218.269531 437.398438 " fill-opacity="1" fill-rule="nonzero"/><g clip-path="url(#7ca7b6849f)"><path fill="#008ab0" d="M 113.554688 162.480469 C 114.128906 162.480469 114.695312 162.40625 115.25 162.257812 C 115.804688 162.105469 116.332031 161.886719 116.828125 161.597656 C 117.328125 161.308594 117.777344 160.960938 118.183594 160.550781 C 118.589844 160.140625 118.933594 159.6875 119.21875 159.1875 C 119.503906 158.6875 119.71875 158.160156 119.867188 157.605469 C 120.011719 157.046875 120.082031 156.480469 120.078125 155.90625 C 120.078125 155.332031 119.996094 154.765625 119.84375 154.210938 C 119.691406 153.65625 119.46875 153.132812 119.179688 152.636719 C 113.421875 142.855469 110.507812 133.3125 110.507812 124.277344 C 110.507812 94.390625 143.65625 73.558594 173.410156 73.558594 C 184.488281 73.558594 209.679688 76.75 211.605469 105.285156 C 211.539062 106.449219 211.492188 107.625 211.492188 108.824219 L 211.492188 305.003906 C 192.03125 290.785156 174.699219 276.488281 174.558594 263.9375 C 174.492188 257.800781 178.652344 251.671875 187.28125 245.199219 C 187.625 244.945312 187.941406 244.65625 188.226562 244.335938 C 188.511719 244.015625 188.765625 243.671875 188.984375 243.304688 C 189.203125 242.933594 189.382812 242.546875 189.527344 242.140625 C 189.667969 241.738281 189.769531 241.324219 189.832031 240.898438 C 189.894531 240.472656 189.910156 240.046875 189.886719 239.617188 C 189.863281 239.191406 189.800781 238.769531 189.695312 238.351562 C 189.585938 237.9375 189.441406 237.535156 189.253906 237.148438 C 189.070312 236.761719 188.847656 236.394531 188.589844 236.050781 C 188.332031 235.710938 188.046875 235.394531 187.726562 235.109375 C 187.40625 234.820312 187.0625 234.570312 186.691406 234.351562 C 186.324219 234.132812 185.9375 233.953125 185.53125 233.808594 C 185.125 233.667969 184.710938 233.566406 184.285156 233.503906 C 183.863281 233.445312 183.4375 233.425781 183.007812 233.449219 C 182.578125 233.472656 182.15625 233.539062 181.742188 233.644531 C 181.324219 233.75 180.925781 233.898438 180.539062 234.082031 C 180.152344 234.269531 179.785156 234.492188 179.441406 234.75 C 167.417969 243.765625 161.378906 253.636719 161.496094 264.085938 C 161.730469 285.1875 186.601562 303.300781 213.273438 322.398438 C 214.359375 323.554688 215.691406 324.21875 217.269531 324.398438 C 217.28125 324.398438 217.296875 324.398438 217.308594 324.402344 C 217.546875 324.4375 217.785156 324.464844 218.023438 324.472656 C 218.058594 324.472656 218.09375 324.464844 218.128906 324.464844 C 218.171875 324.464844 218.21875 324.472656 218.261719 324.472656 C 218.761719 324.476562 219.253906 324.421875 219.742188 324.308594 C 220.226562 324.195312 220.695312 324.03125 221.144531 323.8125 C 221.59375 323.589844 222.011719 323.324219 222.398438 323.007812 C 222.785156 322.691406 223.128906 322.335938 223.433594 321.9375 C 223.738281 321.542969 223.996094 321.117188 224.199219 320.664062 C 224.40625 320.207031 224.558594 319.734375 224.65625 319.246094 C 224.753906 318.757812 224.792969 318.261719 224.777344 317.761719 C 224.761719 317.261719 224.6875 316.773438 224.558594 316.289062 L 224.558594 110.496094 C 224.710938 109.949219 224.792969 109.394531 224.800781 108.824219 C 224.800781 107.625 224.753906 106.449219 224.6875 105.285156 C 226.613281 76.75 251.804688 73.558594 262.882812 73.558594 C 292.636719 73.558594 325.785156 94.390625 325.785156 124.277344 C 325.785156 133.3125 322.867188 142.851562 317.113281 152.636719 C 316.894531 153.003906 316.714844 153.394531 316.574219 153.796875 C 316.429688 154.203125 316.332031 154.617188 316.269531 155.042969 C 316.210938 155.46875 316.191406 155.894531 316.214844 156.324219 C 316.238281 156.753906 316.304688 157.175781 316.414062 157.589844 C 316.519531 158.007812 316.667969 158.410156 316.855469 158.796875 C 317.039062 159.183594 317.261719 159.546875 317.523438 159.890625 C 317.78125 160.234375 318.070312 160.546875 318.390625 160.832031 C 318.710938 161.121094 319.054688 161.371094 319.425781 161.589844 C 319.796875 161.808594 320.183594 161.988281 320.589844 162.128906 C 320.996094 162.269531 321.410156 162.371094 321.835938 162.429688 C 322.261719 162.488281 322.6875 162.503906 323.117188 162.480469 C 323.546875 162.457031 323.96875 162.390625 324.382812 162.28125 C 324.800781 162.171875 325.199219 162.023438 325.585938 161.835938 C 325.972656 161.652344 326.335938 161.425781 326.679688 161.167969 C 327.023438 160.910156 327.335938 160.621094 327.621094 160.296875 C 327.90625 159.976562 328.160156 159.632812 328.375 159.261719 C 335.328125 147.441406 338.851562 135.671875 338.851562 124.277344 C 338.851562 86.125 299.570312 60.496094 262.882812 60.496094 C 242.289062 60.496094 226.507812 68.753906 218.148438 82.800781 C 209.785156 68.753906 194.003906 60.496094 173.410156 60.496094 C 136.722656 60.496094 97.441406 86.125 97.441406 124.277344 C 97.441406 135.675781 100.964844 147.441406 107.917969 159.261719 C 108.207031 159.75 108.550781 160.199219 108.957031 160.597656 C 109.363281 160.996094 109.8125 161.339844 110.304688 161.621094 C 110.800781 161.902344 111.324219 162.117188 111.875 162.265625 C 112.425781 162.410156 112.984375 162.484375 113.554688 162.480469 Z M 113.554688 162.480469 " fill-opacity="1" fill-rule="nonzero"/></g><path fill="#008ab0" d="M 88.539062 240.132812 C 83.910156 241.792969 79.445312 244.171875 77.089844 249.101562 C 74.746094 254.011719 75.164062 260.023438 78.402344 268.023438 C 78.566406 268.421875 78.761719 268.800781 79 269.15625 C 79.234375 269.515625 79.503906 269.847656 79.804688 270.152344 C 80.105469 270.460938 80.433594 270.734375 80.785156 270.976562 C 81.140625 271.214844 81.515625 271.421875 81.910156 271.585938 C 82.304688 271.753906 82.714844 271.882812 83.132812 271.96875 C 83.554688 272.054688 83.976562 272.101562 84.40625 272.105469 C 84.835938 272.109375 85.261719 272.070312 85.683594 271.988281 C 86.105469 271.910156 86.511719 271.789062 86.910156 271.628906 C 87.308594 271.46875 87.6875 271.269531 88.046875 271.035156 C 88.402344 270.796875 88.734375 270.53125 89.042969 270.230469 C 89.347656 269.929688 89.621094 269.601562 89.863281 269.246094 C 90.101562 268.890625 90.308594 268.515625 90.476562 268.121094 C 90.640625 267.726562 90.769531 267.320312 90.855469 266.898438 C 90.945312 266.480469 90.988281 266.054688 90.992188 265.625 C 90.996094 265.195312 90.957031 264.769531 90.878906 264.351562 C 90.796875 263.929688 90.675781 263.519531 90.515625 263.121094 C 88.050781 257.035156 88.722656 255.0625 88.882812 254.726562 C 89.507812 253.414062 93.535156 252.1875 96.773438 251.203125 C 100.515625 250.066406 105.097656 248.664062 109.292969 246.027344 C 111.132812 246.191406 113 246.300781 114.917969 246.300781 C 118.585938 246.300781 135.59375 244.277344 151.714844 234.378906 C 166.585938 225.25 184.3125 207.125 184.3125 172.613281 C 184.3125 150.648438 180.996094 123.914062 178.160156 107.699219 C 178.085938 107.277344 177.972656 106.863281 177.816406 106.464844 C 177.664062 106.0625 177.46875 105.683594 177.242188 105.320312 C 177.011719 104.957031 176.746094 104.621094 176.453125 104.3125 C 176.15625 104 175.832031 103.722656 175.480469 103.476562 C 175.128906 103.230469 174.757812 103.019531 174.363281 102.84375 C 173.972656 102.671875 173.566406 102.539062 173.148438 102.445312 C 172.730469 102.351562 172.304688 102.300781 171.875 102.289062 C 171.449219 102.28125 171.023438 102.3125 170.597656 102.386719 C 170.175781 102.460938 169.765625 102.574219 169.363281 102.730469 C 168.964844 102.882812 168.582031 103.078125 168.222656 103.308594 C 167.859375 103.539062 167.523438 103.800781 167.210938 104.097656 C 166.902344 104.394531 166.625 104.71875 166.378906 105.070312 C 166.132812 105.421875 165.921875 105.792969 165.75 106.183594 C 165.574219 106.578125 165.441406 106.984375 165.347656 107.402344 C 165.253906 107.820312 165.203125 108.246094 165.195312 108.671875 C 165.183594 109.101562 165.21875 109.527344 165.292969 109.953125 C 168.039062 125.652344 171.246094 151.484375 171.246094 172.613281 C 171.246094 219.464844 133.351562 230.257812 119.734375 232.609375 C 121.652344 226.664062 122.078125 218.699219 119.957031 207.882812 C 119.875 207.460938 119.753906 207.054688 119.589844 206.65625 C 119.425781 206.261719 119.226562 205.882812 118.988281 205.527344 C 118.75 205.167969 118.480469 204.835938 118.179688 204.535156 C 117.878906 204.230469 117.546875 203.957031 117.191406 203.71875 C 116.835938 203.480469 116.460938 203.277344 116.0625 203.113281 C 115.667969 202.945312 115.261719 202.820312 114.839844 202.734375 C 114.417969 202.652344 113.996094 202.609375 113.566406 202.605469 C 113.136719 202.605469 112.710938 202.644531 112.292969 202.730469 C 111.871094 202.8125 111.460938 202.933594 111.066406 203.097656 C 110.667969 203.261719 110.292969 203.460938 109.933594 203.699219 C 109.578125 203.933594 109.246094 204.203125 108.941406 204.507812 C 108.636719 204.808594 108.367188 205.136719 108.125 205.496094 C 107.886719 205.851562 107.683594 206.226562 107.519531 206.621094 C 107.355469 207.019531 107.230469 207.425781 107.144531 207.847656 C 107.058594 208.265625 107.015625 208.691406 107.015625 209.121094 C 107.015625 209.550781 107.054688 209.972656 107.136719 210.394531 C 109.425781 222.074219 108.34375 228.386719 105.34375 232.203125 C 82.28125 227.1875 67.382812 204.519531 67.382812 183.171875 C 67.382812 168.625 73.96875 155.941406 85.925781 147.453125 C 86.273438 147.203125 86.597656 146.925781 86.890625 146.613281 C 87.1875 146.300781 87.449219 145.960938 87.675781 145.597656 C 87.902344 145.234375 88.09375 144.855469 88.246094 144.453125 C 88.398438 144.050781 88.511719 143.640625 88.585938 143.21875 C 88.65625 142.796875 88.6875 142.371094 88.671875 141.941406 C 88.660156 141.511719 88.605469 141.089844 88.511719 140.671875 C 88.417969 140.25 88.28125 139.847656 88.105469 139.457031 C 87.929688 139.0625 87.71875 138.695312 87.46875 138.34375 C 87.222656 137.992188 86.941406 137.671875 86.628906 137.378906 C 86.316406 137.082031 85.980469 136.820312 85.617188 136.59375 C 85.253906 136.363281 84.871094 136.175781 84.472656 136.023438 C 84.070312 135.867188 83.660156 135.757812 83.234375 135.683594 C 82.8125 135.613281 82.386719 135.582031 81.957031 135.59375 C 81.53125 135.609375 81.105469 135.660156 80.6875 135.757812 C 80.269531 135.851562 79.863281 135.988281 79.472656 136.164062 C 79.082031 136.339844 78.710938 136.550781 78.363281 136.796875 C 62.855469 147.808594 54.316406 164.277344 54.316406 183.171875 C 54.316406 205.554688 66.921875 229.230469 88.539062 240.132812 Z M 88.539062 240.132812 " fill-opacity="1" fill-rule="nonzero"/><path fill="#008ab0" d="M 171.03125 396.375 C 169.96875 411.078125 167.542969 424.832031 165.773438 434.875 L 165.292969 437.609375 C 165.21875 438.03125 165.183594 438.457031 165.195312 438.886719 C 165.203125 439.316406 165.253906 439.738281 165.347656 440.160156 C 165.441406 440.578125 165.574219 440.984375 165.746094 441.375 C 165.921875 441.769531 166.128906 442.140625 166.375 442.492188 C 166.625 442.84375 166.902344 443.167969 167.210938 443.464844 C 167.523438 443.761719 167.859375 444.023438 168.21875 444.253906 C 168.582031 444.484375 168.964844 444.675781 169.363281 444.832031 C 169.765625 444.988281 170.175781 445.101562 170.597656 445.175781 C 171.019531 445.25 171.449219 445.28125 171.875 445.273438 C 172.304688 445.261719 172.730469 445.210938 173.148438 445.117188 C 173.566406 445.023438 173.972656 444.890625 174.367188 444.714844 C 174.757812 444.542969 175.128906 444.332031 175.480469 444.085938 C 175.832031 443.839844 176.15625 443.5625 176.453125 443.25 C 176.75 442.941406 177.011719 442.601562 177.242188 442.242188 C 177.472656 441.878906 177.664062 441.496094 177.816406 441.097656 C 177.972656 440.695312 178.085938 440.285156 178.160156 439.863281 L 178.640625 437.144531 C 180.460938 426.824219 182.953125 412.6875 184.0625 397.316406 C 184.09375 396.890625 184.082031 396.464844 184.027344 396.039062 C 183.976562 395.613281 183.882812 395.195312 183.746094 394.789062 C 183.613281 394.382812 183.4375 393.992188 183.226562 393.617188 C 183.015625 393.246094 182.769531 392.894531 182.488281 392.570312 C 182.207031 392.246094 181.898438 391.953125 181.558594 391.691406 C 181.21875 391.425781 180.859375 391.199219 180.476562 391.007812 C 180.089844 390.8125 179.691406 390.660156 179.28125 390.546875 C 178.867188 390.433594 178.445312 390.359375 178.015625 390.328125 C 177.589844 390.296875 177.164062 390.308594 176.738281 390.363281 C 176.3125 390.417969 175.894531 390.511719 175.488281 390.644531 C 175.078125 390.78125 174.691406 390.953125 174.316406 391.167969 C 173.945312 391.378906 173.59375 391.625 173.269531 391.90625 C 172.945312 392.1875 172.652344 392.496094 172.390625 392.835938 C 172.125 393.171875 171.898438 393.535156 171.707031 393.917969 C 171.515625 394.300781 171.359375 394.699219 171.246094 395.113281 C 171.132812 395.527344 171.0625 395.949219 171.03125 396.375 Z M 171.03125 396.375 " fill-opacity="1" fill-rule="nonzero"/><path fill="#008ab0" d="M 91.640625 405.636719 C 68.652344 393.957031 65.230469 370.039062 69.285156 353.105469 C 73.90625 333.800781 89.808594 314.324219 114.917969 314.324219 C 132.121094 314.324219 145.488281 318.890625 154.648438 327.894531 C 154.953125 328.195312 155.285156 328.464844 155.644531 328.699219 C 156.003906 328.933594 156.382812 329.132812 156.78125 329.292969 C 157.179688 329.453125 157.585938 329.574219 158.007812 329.652344 C 158.429688 329.734375 158.855469 329.773438 159.285156 329.769531 C 159.714844 329.765625 160.136719 329.71875 160.558594 329.632812 C 160.976562 329.542969 161.386719 329.417969 161.78125 329.25 C 162.175781 329.082031 162.550781 328.878906 162.902344 328.636719 C 163.257812 328.394531 163.585938 328.121094 163.886719 327.816406 C 164.1875 327.507812 164.457031 327.175781 164.691406 326.820312 C 164.925781 326.460938 165.125 326.082031 165.285156 325.683594 C 165.445312 325.285156 165.566406 324.875 165.644531 324.457031 C 165.726562 324.035156 165.765625 323.609375 165.761719 323.179688 C 165.757812 322.75 165.710938 322.328125 165.625 321.90625 C 165.535156 321.484375 165.410156 321.078125 165.242188 320.683594 C 165.074219 320.289062 164.871094 319.914062 164.628906 319.558594 C 164.386719 319.207031 164.113281 318.878906 163.808594 318.578125 C 152.117188 307.085938 135.667969 301.261719 114.917969 301.261719 C 82.6875 301.261719 62.394531 325.769531 56.578125 350.0625 C 49.78125 378.449219 61.222656 404.835938 85.726562 417.285156 C 86.105469 417.476562 86.503906 417.632812 86.917969 417.746094 C 87.332031 417.863281 87.75 417.9375 88.175781 417.96875 C 88.605469 418 89.03125 417.992188 89.457031 417.941406 C 89.882812 417.890625 90.296875 417.796875 90.707031 417.664062 C 91.113281 417.53125 91.503906 417.359375 91.875 417.148438 C 92.25 416.9375 92.597656 416.695312 92.925781 416.414062 C 93.25 416.136719 93.546875 415.828125 93.808594 415.492188 C 94.074219 415.15625 94.304688 414.796875 94.5 414.414062 C 94.691406 414.03125 94.847656 413.636719 94.964844 413.222656 C 95.078125 412.808594 95.152344 412.390625 95.1875 411.960938 C 95.21875 411.535156 95.210938 411.109375 95.160156 410.683594 C 95.109375 410.257812 95.019531 409.839844 94.886719 409.433594 C 94.753906 409.027344 94.582031 408.636719 94.371094 408.261719 C 94.164062 407.890625 93.917969 407.539062 93.640625 407.214844 C 93.363281 406.886719 93.054688 406.59375 92.71875 406.328125 C 92.382812 406.0625 92.023438 405.832031 91.640625 405.636719 Z M 91.640625 405.636719 " fill-opacity="1" fill-rule="nonzero"/><path fill="#008ab0" d="M 39.285156 217.875 C 39.558594 217.542969 39.796875 217.191406 40 216.8125 C 40.203125 216.4375 40.367188 216.042969 40.496094 215.632812 C 40.621094 215.222656 40.707031 214.804688 40.75 214.378906 C 40.792969 213.953125 40.796875 213.527344 40.757812 213.101562 C 40.71875 212.671875 40.636719 212.253906 40.511719 211.84375 C 40.390625 211.433594 40.230469 211.039062 40.03125 210.65625 C 39.828125 210.277344 39.59375 209.921875 39.324219 209.589844 C 39.054688 209.257812 38.753906 208.953125 38.425781 208.679688 C 38.09375 208.40625 37.742188 208.167969 37.363281 207.964844 C 36.988281 207.757812 36.59375 207.59375 36.183594 207.46875 C 35.773438 207.339844 35.355469 207.253906 34.929688 207.210938 C 34.503906 207.164062 34.078125 207.164062 33.648438 207.203125 C 33.222656 207.242188 32.804688 207.324219 32.394531 207.445312 C 31.984375 207.566406 31.585938 207.726562 31.207031 207.929688 C 30.828125 208.128906 30.472656 208.363281 30.140625 208.632812 C 29.804688 208.902344 29.503906 209.203125 29.230469 209.53125 C -0.00390625 244.769531 1.191406 296.875 32.011719 330.730469 C 32.300781 331.046875 32.617188 331.335938 32.964844 331.589844 C 33.308594 331.84375 33.675781 332.066406 34.0625 332.246094 C 34.453125 332.429688 34.855469 332.574219 35.269531 332.675781 C 35.6875 332.78125 36.109375 332.84375 36.539062 332.863281 C 36.96875 332.882812 37.394531 332.863281 37.816406 332.796875 C 38.242188 332.734375 38.65625 332.628906 39.0625 332.484375 C 39.464844 332.339844 39.851562 332.15625 40.21875 331.933594 C 40.585938 331.710938 40.929688 331.457031 41.246094 331.167969 C 41.5625 330.878906 41.847656 330.5625 42.105469 330.21875 C 42.359375 329.871094 42.578125 329.503906 42.761719 329.117188 C 42.941406 328.726562 43.085938 328.324219 43.1875 327.910156 C 43.292969 327.492188 43.351562 327.070312 43.371094 326.640625 C 43.394531 326.210938 43.371094 325.785156 43.304688 325.359375 C 43.242188 324.9375 43.136719 324.523438 42.992188 324.117188 C 42.84375 323.714844 42.660156 323.328125 42.441406 322.960938 C 42.21875 322.59375 41.960938 322.253906 41.671875 321.933594 C 15.210938 292.867188 14.183594 248.132812 39.285156 217.875 Z M 39.285156 217.875 " fill-opacity="1" fill-rule="nonzero"/><path fill="#008ab0" d="M 559.578125 232.019531 C 559.292969 231.699219 558.976562 231.410156 558.636719 231.15625 C 558.292969 230.898438 557.925781 230.675781 557.539062 230.488281 C 557.152344 230.304688 556.753906 230.160156 556.335938 230.050781 C 555.921875 229.945312 555.5 229.882812 555.070312 229.859375 C 554.644531 229.835938 554.214844 229.851562 553.792969 229.914062 C 553.367188 229.972656 552.953125 230.074219 552.546875 230.21875 C 552.144531 230.359375 551.757812 230.539062 551.386719 230.757812 C 551.019531 230.976562 550.675781 231.230469 550.355469 231.515625 C 515.570312 262.71875 474.75 248.601562 431.496094 232.554688 C 420.25 187.835938 410.679688 145.753906 445.453125 114.5625 C 445.773438 114.277344 446.0625 113.964844 446.320312 113.621094 C 446.578125 113.277344 446.800781 112.914062 446.988281 112.523438 C 447.171875 112.136719 447.320312 111.738281 447.425781 111.320312 C 447.535156 110.90625 447.597656 110.484375 447.621094 110.054688 C 447.644531 109.625 447.628906 109.199219 447.566406 108.773438 C 447.507812 108.351562 447.40625 107.933594 447.261719 107.53125 C 447.121094 107.125 446.941406 106.738281 446.722656 106.367188 C 446.503906 106 446.25 105.65625 445.964844 105.335938 C 445.675781 105.015625 445.363281 104.726562 445.019531 104.46875 C 444.675781 104.210938 444.308594 103.992188 443.921875 103.804688 C 443.535156 103.621094 443.132812 103.472656 442.71875 103.367188 C 442.300781 103.261719 441.878906 103.195312 441.453125 103.171875 C 441.023438 103.148438 440.597656 103.167969 440.171875 103.230469 C 439.746094 103.289062 439.332031 103.390625 438.925781 103.535156 C 438.523438 103.679688 438.132812 103.859375 437.765625 104.078125 C 437.394531 104.296875 437.050781 104.550781 436.734375 104.835938 C 398.695312 138.953125 405.945312 183.21875 416.675781 227.082031 C 374.234375 211.652344 331.027344 199.644531 293 233.746094 C 254.941406 267.882812 262.21875 312.175781 272.960938 356.066406 C 230.5 340.625 187.265625 328.585938 149.222656 362.703125 C 148.902344 362.988281 148.613281 363.304688 148.355469 363.648438 C 148.097656 363.992188 147.875 364.355469 147.691406 364.742188 C 147.503906 365.128906 147.359375 365.53125 147.25 365.945312 C 147.144531 366.363281 147.082031 366.785156 147.058594 367.210938 C 147.035156 367.640625 147.050781 368.066406 147.113281 368.492188 C 147.171875 368.917969 147.273438 369.332031 147.417969 369.738281 C 147.558594 370.140625 147.738281 370.527344 147.957031 370.898438 C 148.175781 371.265625 148.429688 371.609375 148.714844 371.929688 C 149.003906 372.25 149.316406 372.539062 149.660156 372.796875 C 150.003906 373.054688 150.367188 373.273438 150.753906 373.460938 C 151.144531 373.644531 151.542969 373.792969 151.960938 373.898438 C 152.375 374.003906 152.796875 374.070312 153.226562 374.09375 C 153.652344 374.117188 154.082031 374.097656 154.503906 374.035156 C 154.929688 373.976562 155.34375 373.875 155.75 373.730469 C 156.15625 373.589844 156.542969 373.40625 156.910156 373.1875 C 157.28125 372.96875 157.625 372.71875 157.941406 372.429688 C 192.722656 341.242188 233.539062 355.347656 276.792969 371.394531 C 288.042969 416.113281 297.613281 458.199219 262.839844 489.386719 C 262.519531 489.671875 262.230469 489.988281 261.972656 490.332031 C 261.714844 490.675781 261.492188 491.039062 261.308594 491.425781 C 261.125 491.8125 260.976562 492.214844 260.871094 492.628906 C 260.765625 493.042969 260.699219 493.464844 260.675781 493.894531 C 260.652344 494.324219 260.671875 494.75 260.730469 495.175781 C 260.792969 495.597656 260.894531 496.011719 261.035156 496.417969 C 261.179688 496.824219 261.359375 497.210938 261.578125 497.578125 C 261.796875 497.949219 262.050781 498.292969 262.335938 498.613281 C 262.621094 498.929688 262.9375 499.21875 263.28125 499.476562 C 263.621094 499.734375 263.988281 499.957031 264.375 500.140625 C 264.761719 500.328125 265.164062 500.472656 265.578125 500.578125 C 265.992188 500.683594 266.414062 500.75 266.84375 500.773438 C 267.273438 500.796875 267.699219 500.777344 268.121094 500.71875 C 268.546875 500.65625 268.960938 500.554688 269.367188 500.414062 C 269.769531 500.269531 270.160156 500.089844 270.527344 499.871094 C 270.894531 499.652344 271.242188 499.402344 271.558594 499.113281 C 309.601562 464.996094 302.347656 420.730469 291.613281 376.867188 C 313.953125 384.988281 336.503906 392.164062 358.402344 392.164062 C 378.105469 392.164062 397.28125 386.355469 415.292969 370.203125 C 453.351562 336.066406 446.070312 291.773438 435.328125 247.882812 C 477.789062 263.328125 521.027344 275.367188 559.078125 241.246094 C 559.394531 240.957031 559.683594 240.644531 559.941406 240.300781 C 560.199219 239.957031 560.421875 239.59375 560.605469 239.207031 C 560.792969 238.820312 560.9375 238.417969 561.042969 238.003906 C 561.148438 237.585938 561.214844 237.164062 561.238281 236.738281 C 561.261719 236.308594 561.242188 235.882812 561.183594 235.457031 C 561.121094 235.03125 561.019531 234.617188 560.878906 234.214844 C 560.734375 233.808594 560.554688 233.421875 560.335938 233.050781 C 560.117188 232.683594 559.867188 232.339844 559.578125 232.019531 Z M 406.570312 360.476562 C 371.804688 391.660156 331.011719 377.574219 287.785156 361.539062 C 276.527344 316.792969 266.929688 274.679688 301.722656 243.476562 C 336.488281 212.292969 377.285156 226.375 420.507812 242.410156 C 431.765625 287.15625 441.363281 329.269531 406.570312 360.476562 Z M 406.570312 360.476562 " fill-opacity="1" fill-rule="nonzero"/><path fill="#008ab0" d="M 436.84375 139.417969 C 436.523438 139.703125 436.234375 140.015625 435.976562 140.359375 C 435.71875 140.703125 435.5 141.070312 435.3125 141.457031 C 435.128906 141.84375 434.980469 142.242188 434.875 142.660156 C 434.769531 143.074219 434.703125 143.496094 434.679688 143.925781 C 434.65625 144.351562 434.675781 144.78125 434.738281 145.203125 C 434.796875 145.628906 434.898438 146.042969 435.042969 146.449219 C 435.183594 146.851562 435.363281 147.238281 435.582031 147.609375 C 435.800781 147.976562 436.054688 148.320312 436.339844 148.640625 L 515.496094 236.894531 C 515.78125 237.214844 516.097656 237.507812 516.4375 237.765625 C 516.78125 238.023438 517.148438 238.246094 517.535156 238.433594 C 517.921875 238.617188 518.324219 238.765625 518.738281 238.871094 C 519.15625 238.980469 519.578125 239.046875 520.007812 239.070312 C 520.433594 239.09375 520.863281 239.074219 521.289062 239.015625 C 521.714844 238.953125 522.128906 238.851562 522.535156 238.710938 C 522.9375 238.566406 523.328125 238.386719 523.695312 238.167969 C 524.066406 237.949219 524.410156 237.695312 524.730469 237.410156 C 525.050781 237.125 525.339844 236.808594 525.597656 236.464844 C 525.855469 236.121094 526.078125 235.753906 526.261719 235.367188 C 526.449219 234.980469 526.59375 234.578125 526.699219 234.160156 C 526.804688 233.746094 526.871094 233.324219 526.894531 232.894531 C 526.917969 232.464844 526.898438 232.039062 526.835938 231.613281 C 526.773438 231.1875 526.671875 230.773438 526.527344 230.367188 C 526.386719 229.960938 526.203125 229.574219 525.984375 229.207031 C 525.765625 228.835938 525.511719 228.492188 525.222656 228.171875 L 446.066406 139.917969 C 445.78125 139.601562 445.464844 139.3125 445.125 139.054688 C 444.78125 138.796875 444.414062 138.574219 444.027344 138.390625 C 443.640625 138.203125 443.242188 138.058594 442.824219 137.953125 C 442.410156 137.84375 441.988281 137.78125 441.558594 137.757812 C 441.132812 137.734375 440.703125 137.753906 440.28125 137.8125 C 439.855469 137.875 439.441406 137.976562 439.035156 138.117188 C 438.632812 138.261719 438.246094 138.441406 437.875 138.660156 C 437.507812 138.878906 437.164062 139.128906 436.84375 139.417969 Z M 436.84375 139.417969 " fill-opacity="1" fill-rule="nonzero"/><path fill="#008ab0" d="M 436.324219 202.554688 C 436.003906 202.839844 435.714844 203.15625 435.457031 203.496094 C 435.199219 203.839844 434.980469 204.207031 434.792969 204.59375 C 434.609375 204.980469 434.460938 205.378906 434.355469 205.796875 C 434.25 206.210938 434.183594 206.632812 434.160156 207.0625 C 434.136719 207.488281 434.15625 207.917969 434.21875 208.339844 C 434.277344 208.765625 434.378906 209.179688 434.523438 209.585938 C 434.664062 209.988281 434.84375 210.375 435.0625 210.746094 C 435.28125 211.113281 435.535156 211.457031 435.820312 211.777344 L 452.675781 230.570312 C 452.960938 230.890625 453.277344 231.179688 453.621094 231.433594 C 453.960938 231.691406 454.328125 231.914062 454.714844 232.101562 C 455.101562 232.285156 455.503906 232.433594 455.917969 232.539062 C 456.332031 232.644531 456.753906 232.710938 457.183594 232.734375 C 457.613281 232.757812 458.039062 232.738281 458.464844 232.679688 C 458.886719 232.617188 459.304688 232.515625 459.707031 232.375 C 460.113281 232.230469 460.5 232.050781 460.867188 231.832031 C 461.238281 231.613281 461.582031 231.359375 461.902344 231.074219 C 462.222656 230.789062 462.507812 230.472656 462.765625 230.128906 C 463.023438 229.785156 463.246094 229.421875 463.429688 229.035156 C 463.617188 228.648438 463.761719 228.246094 463.871094 227.832031 C 463.976562 227.414062 464.039062 226.992188 464.0625 226.566406 C 464.085938 226.136719 464.066406 225.710938 464.007812 225.285156 C 463.945312 224.859375 463.84375 224.445312 463.703125 224.042969 C 463.558594 223.636719 463.378906 223.25 463.160156 222.878906 C 462.941406 222.511719 462.6875 222.167969 462.402344 221.847656 L 445.546875 203.054688 C 445.261719 202.738281 444.945312 202.449219 444.605469 202.191406 C 444.261719 201.933594 443.894531 201.710938 443.507812 201.527344 C 443.121094 201.339844 442.722656 201.195312 442.304688 201.089844 C 441.890625 200.984375 441.46875 200.917969 441.039062 200.894531 C 440.613281 200.871094 440.183594 200.890625 439.761719 200.949219 C 439.335938 201.011719 438.921875 201.113281 438.515625 201.253906 C 438.113281 201.398438 437.726562 201.578125 437.355469 201.796875 C 436.988281 202.015625 436.644531 202.265625 436.324219 202.554688 Z M 436.324219 202.554688 " fill-opacity="1" fill-rule="nonzero"/><path fill="#008ab0" d="M 360.335938 235.480469 C 360.050781 235.160156 359.734375 234.871094 359.390625 234.613281 C 359.046875 234.355469 358.683594 234.136719 358.296875 233.949219 C 357.910156 233.765625 357.507812 233.617188 357.09375 233.511719 C 356.679688 233.40625 356.253906 233.339844 355.828125 233.316406 C 355.398438 233.292969 354.972656 233.3125 354.546875 233.375 C 354.125 233.433594 353.707031 233.535156 353.304688 233.679688 C 352.898438 233.820312 352.511719 234 352.144531 234.21875 C 351.773438 234.4375 351.429688 234.691406 351.109375 234.976562 C 350.792969 235.261719 350.503906 235.578125 350.246094 235.921875 C 349.988281 236.265625 349.765625 236.628906 349.582031 237.015625 C 349.394531 237.402344 349.25 237.804688 349.144531 238.21875 C 349.039062 238.632812 348.972656 239.054688 348.949219 239.484375 C 348.925781 239.914062 348.945312 240.339844 349.003906 240.765625 C 349.066406 241.1875 349.167969 241.601562 349.308594 242.007812 C 349.453125 242.414062 349.632812 242.800781 349.851562 243.167969 C 350.070312 243.539062 350.320312 243.882812 350.609375 244.203125 L 411.207031 311.765625 C 411.492188 312.085938 411.804688 312.375 412.148438 312.632812 C 412.492188 312.890625 412.859375 313.113281 413.246094 313.296875 C 413.632812 313.484375 414.03125 313.628906 414.449219 313.738281 C 414.863281 313.84375 415.285156 313.910156 415.714844 313.933594 C 416.144531 313.957031 416.570312 313.9375 416.996094 313.878906 C 417.421875 313.816406 417.835938 313.714844 418.242188 313.574219 C 418.644531 313.429688 419.03125 313.25 419.402344 313.03125 C 419.773438 312.8125 420.117188 312.558594 420.4375 312.273438 C 420.753906 311.988281 421.042969 311.671875 421.300781 311.328125 C 421.558594 310.984375 421.78125 310.621094 421.964844 310.234375 C 422.152344 309.84375 422.296875 309.445312 422.402344 309.027344 C 422.511719 308.613281 422.574219 308.191406 422.597656 307.761719 C 422.621094 307.332031 422.601562 306.90625 422.539062 306.480469 C 422.480469 306.054688 422.378906 305.640625 422.234375 305.238281 C 422.09375 304.832031 421.910156 304.445312 421.691406 304.074219 C 421.472656 303.707031 421.21875 303.363281 420.933594 303.042969 Z M 360.335938 235.480469 " fill-opacity="1" fill-rule="nonzero"/><path fill="#008ab0" d="M 316.359375 250.160156 C 316.070312 249.839844 315.757812 249.550781 315.414062 249.292969 C 315.070312 249.039062 314.707031 248.816406 314.320312 248.628906 C 313.929688 248.445312 313.53125 248.296875 313.113281 248.191406 C 312.699219 248.085938 312.277344 248.019531 311.847656 247.996094 C 311.421875 247.972656 310.992188 247.992188 310.570312 248.050781 C 310.144531 248.113281 309.730469 248.214844 309.324219 248.355469 C 308.917969 248.5 308.53125 248.679688 308.164062 248.898438 C 307.792969 249.117188 307.449219 249.367188 307.128906 249.65625 C 306.8125 249.941406 306.523438 250.257812 306.265625 250.601562 C 306.007812 250.945312 305.785156 251.308594 305.601562 251.695312 C 305.414062 252.082031 305.269531 252.484375 305.164062 252.898438 C 305.058594 253.316406 304.992188 253.738281 304.96875 254.164062 C 304.945312 254.59375 304.964844 255.019531 305.023438 255.445312 C 305.085938 255.871094 305.1875 256.285156 305.328125 256.6875 C 305.472656 257.09375 305.652344 257.480469 305.871094 257.851562 C 306.089844 258.21875 306.34375 258.5625 306.628906 258.882812 L 391.84375 353.894531 C 392.128906 354.210938 392.445312 354.5 392.789062 354.757812 C 393.132812 355.019531 393.496094 355.238281 393.882812 355.425781 C 394.269531 355.613281 394.671875 355.757812 395.085938 355.863281 C 395.503906 355.972656 395.925781 356.035156 396.355469 356.058594 C 396.78125 356.085938 397.207031 356.066406 397.632812 356.003906 C 398.058594 355.945312 398.472656 355.84375 398.878906 355.699219 C 399.285156 355.558594 399.671875 355.378906 400.039062 355.160156 C 400.410156 354.941406 400.753906 354.6875 401.074219 354.402344 C 401.394531 354.113281 401.683594 353.800781 401.941406 353.457031 C 402.199219 353.113281 402.417969 352.746094 402.605469 352.359375 C 402.789062 351.972656 402.9375 351.570312 403.042969 351.15625 C 403.148438 350.738281 403.214844 350.316406 403.234375 349.890625 C 403.257812 349.460938 403.242188 349.035156 403.179688 348.609375 C 403.117188 348.183594 403.015625 347.769531 402.875 347.363281 C 402.730469 346.960938 402.550781 346.574219 402.332031 346.203125 C 402.113281 345.835938 401.859375 345.488281 401.570312 345.171875 Z M 316.359375 250.160156 " fill-opacity="1" fill-rule="nonzero"/><path fill="#008ab0" d="M 297.089844 292.394531 C 296.804688 292.074219 296.488281 291.785156 296.144531 291.527344 C 295.804688 291.269531 295.4375 291.046875 295.050781 290.859375 C 294.664062 290.675781 294.261719 290.527344 293.847656 290.421875 C 293.433594 290.316406 293.007812 290.25 292.582031 290.226562 C 292.152344 290.203125 291.726562 290.222656 291.300781 290.28125 C 290.875 290.34375 290.460938 290.445312 290.054688 290.585938 C 289.652344 290.726562 289.261719 290.910156 288.894531 291.128906 C 288.523438 291.347656 288.179688 291.597656 287.859375 291.886719 C 287.539062 292.171875 287.253906 292.488281 286.996094 292.832031 C 286.738281 293.171875 286.515625 293.539062 286.332031 293.925781 C 286.144531 294.3125 286 294.714844 285.890625 295.128906 C 285.785156 295.546875 285.722656 295.96875 285.699219 296.398438 C 285.675781 296.828125 285.695312 297.253906 285.753906 297.679688 C 285.816406 298.101562 285.917969 298.519531 286.0625 298.921875 C 286.203125 299.328125 286.382812 299.714844 286.605469 300.082031 C 286.824219 300.453125 287.074219 300.796875 287.363281 301.117188 L 347.769531 368.46875 C 348.054688 368.789062 348.371094 369.078125 348.714844 369.332031 C 349.054688 369.589844 349.421875 369.8125 349.808594 370 C 350.195312 370.183594 350.597656 370.328125 351.011719 370.4375 C 351.425781 370.542969 351.847656 370.605469 352.277344 370.628906 C 352.707031 370.652344 353.132812 370.636719 353.558594 370.574219 C 353.980469 370.515625 354.394531 370.414062 354.800781 370.269531 C 355.207031 370.128906 355.59375 369.949219 355.960938 369.730469 C 356.332031 369.511719 356.675781 369.257812 356.992188 368.972656 C 357.3125 368.683594 357.601562 368.371094 357.859375 368.027344 C 358.117188 367.683594 358.335938 367.320312 358.523438 366.933594 C 358.707031 366.546875 358.855469 366.144531 358.960938 365.730469 C 359.066406 365.3125 359.132812 364.890625 359.15625 364.464844 C 359.179688 364.035156 359.160156 363.609375 359.101562 363.183594 C 359.039062 362.757812 358.9375 362.34375 358.796875 361.941406 C 358.652344 361.535156 358.472656 361.148438 358.253906 360.78125 C 358.035156 360.410156 357.78125 360.066406 357.496094 359.746094 Z M 297.089844 292.394531 " fill-opacity="1" fill-rule="nonzero"/><path fill="#008ab0" d="M 267.707031 403.378906 C 268.335938 403.378906 268.953125 403.289062 269.558594 403.109375 C 270.164062 402.933594 270.730469 402.671875 271.261719 402.328125 C 271.789062 401.984375 272.257812 401.574219 272.667969 401.09375 C 273.078125 400.613281 273.414062 400.085938 273.671875 399.511719 C 273.925781 398.933594 274.097656 398.332031 274.179688 397.707031 C 274.261719 397.082031 274.257812 396.457031 274.160156 395.835938 C 274.0625 395.210938 273.875 394.617188 273.605469 394.046875 C 273.335938 393.476562 272.988281 392.957031 272.570312 392.488281 L 255.335938 373.273438 C 255.050781 372.953125 254.734375 372.664062 254.394531 372.40625 C 254.050781 372.152344 253.683594 371.929688 253.296875 371.742188 C 252.910156 371.558594 252.511719 371.414062 252.09375 371.304688 C 251.679688 371.199219 251.257812 371.132812 250.828125 371.109375 C 250.398438 371.085938 249.972656 371.105469 249.550781 371.167969 C 249.125 371.226562 248.710938 371.328125 248.304688 371.472656 C 247.902344 371.613281 247.515625 371.792969 247.144531 372.011719 C 246.777344 372.230469 246.429688 372.484375 246.113281 372.769531 C 245.792969 373.054688 245.503906 373.371094 245.246094 373.714844 C 244.988281 374.058594 244.769531 374.421875 244.582031 374.808594 C 244.398438 375.195312 244.25 375.597656 244.144531 376.011719 C 244.039062 376.429688 243.972656 376.851562 243.949219 377.277344 C 243.925781 377.707031 243.945312 378.132812 244.007812 378.558594 C 244.066406 378.984375 244.167969 379.398438 244.3125 379.800781 C 244.453125 380.207031 244.632812 380.59375 244.851562 380.960938 C 245.070312 381.332031 245.324219 381.675781 245.609375 381.996094 L 262.839844 401.207031 C 263.460938 401.902344 264.195312 402.4375 265.042969 402.8125 C 265.890625 403.191406 266.777344 403.382812 267.707031 403.378906 Z M 267.707031 403.378906 " fill-opacity="1" fill-rule="nonzero"/><path fill="#008ab0" d="M 183.386719 366.550781 C 183.066406 366.835938 182.777344 367.152344 182.519531 367.492188 C 182.265625 367.835938 182.042969 368.203125 181.855469 368.589844 C 181.671875 368.976562 181.527344 369.375 181.417969 369.792969 C 181.3125 370.207031 181.246094 370.628906 181.222656 371.058594 C 181.203125 371.484375 181.21875 371.914062 181.28125 372.335938 C 181.339844 372.761719 181.441406 373.175781 181.585938 373.582031 C 181.726562 373.984375 181.90625 374.371094 182.125 374.742188 C 182.34375 375.109375 182.597656 375.453125 182.882812 375.773438 L 262.226562 464.238281 C 262.511719 464.558594 262.828125 464.847656 263.171875 465.105469 C 263.515625 465.363281 263.878906 465.585938 264.265625 465.773438 C 264.652344 465.957031 265.054688 466.105469 265.46875 466.210938 C 265.886719 466.320312 266.308594 466.382812 266.738281 466.40625 C 267.164062 466.429688 267.59375 466.414062 268.015625 466.351562 C 268.441406 466.292969 268.855469 466.191406 269.261719 466.046875 C 269.667969 465.90625 270.054688 465.726562 270.421875 465.507812 C 270.792969 465.289062 271.136719 465.035156 271.457031 464.75 C 271.777344 464.460938 272.066406 464.148438 272.324219 463.804688 C 272.582031 463.460938 272.800781 463.09375 272.988281 462.707031 C 273.171875 462.320312 273.320312 461.917969 273.425781 461.503906 C 273.53125 461.085938 273.597656 460.664062 273.617188 460.238281 C 273.640625 459.808594 273.625 459.382812 273.5625 458.957031 C 273.5 458.53125 273.398438 458.117188 273.257812 457.710938 C 273.113281 457.304688 272.933594 456.917969 272.714844 456.550781 C 272.496094 456.179688 272.242188 455.835938 271.953125 455.519531 L 192.609375 367.050781 C 192.324219 366.734375 192.011719 366.445312 191.667969 366.1875 C 191.324219 365.929688 190.957031 365.707031 190.570312 365.523438 C 190.183594 365.335938 189.785156 365.191406 189.367188 365.085938 C 188.953125 364.980469 188.53125 364.914062 188.101562 364.890625 C 187.675781 364.867188 187.246094 364.886719 186.824219 364.945312 C 186.398438 365.007812 185.984375 365.109375 185.578125 365.25 C 185.175781 365.394531 184.789062 365.574219 184.417969 365.792969 C 184.050781 366.011719 183.707031 366.261719 183.386719 366.550781 Z M 183.386719 366.550781 " fill-opacity="1" fill-rule="nonzero"/></svg>