<svg xmlns="http://www.w3.org/2000/svg" xmlns:xlink="http://www.w3.org/1999/xlink" width="500" zoomAndPan="magnify" viewBox="0 0 375 374.999991" height="500" preserveAspectRatio="xMidYMid meet" version="1.0"><path fill="#008ab0" d="M 71.648438 217.5 C 65.085938 214.332031 57.761719 212.5 50 212.5 C 22.429688 212.5 0 234.929688 0 262.5 C 0 290.070312 22.429688 312.5 50 312.5 C 67.300781 312.5 82.570312 303.664062 91.550781 290.269531 L 138.78125 313.914062 C 137.96875 317.480469 137.5 321.1875 137.5 325 C 137.5 352.570312 159.929688 375 187.5 375 C 215.070312 375 237.5 352.570312 237.5 325 C 237.5 314.636719 234.332031 305.007812 228.90625 297.011719 L 295.273438 227.617188 C 303.601562 233.792969 313.863281 237.5 325 237.5 C 352.570312 237.5 375 215.070312 375 187.5 C 375 159.929688 352.570312 137.5 325 137.5 C 313.460938 137.5 302.863281 141.460938 294.386719 148.050781 L 226.949219 80.613281 C 233.539062 72.136719 237.5 61.539062 237.5 50 C 237.5 22.429688 215.070312 0 187.5 0 C 159.929688 0 137.5 22.429688 137.5 50 C 137.5 53.800781 137.960938 57.492188 138.773438 61.054688 L 94.449219 77.207031 C 86.136719 61.074219 69.355469 50 50 50 C 22.429688 50 0 72.429688 0 100 C 0 127.570312 22.429688 150 50 150 C 57.113281 150 63.867188 148.488281 70 145.792969 L 93.007812 184.511719 Z M 50 300 C 29.320312 300 12.5 283.179688 12.5 262.5 C 12.5 241.820312 29.320312 225 50 225 C 70.679688 225 87.5 241.820312 87.5 262.5 C 87.5 283.179688 70.679688 300 50 300 Z M 97.117188 279.070312 C 98.949219 273.875 100 268.3125 100 262.5 C 100 247.167969 93.050781 233.445312 82.15625 224.269531 L 100.132812 196.507812 L 154.324219 287.699219 C 149.761719 291.761719 145.945312 296.625 143.113281 302.09375 Z M 187.5 100 C 199.039062 100 209.636719 96.039062 218.113281 89.449219 L 285.554688 156.894531 C 281.511719 162.09375 278.488281 168.101562 276.742188 174.636719 L 237.480469 169.238281 C 237.476562 169.074219 237.5 168.914062 237.5 168.75 C 237.5 141.179688 215.070312 118.75 187.5 118.75 C 170.199219 118.75 154.925781 127.585938 145.949219 140.980469 L 138.492188 137.257812 L 165.855469 95 C 172.414062 98.167969 179.738281 100 187.5 100 Z M 193.75 275.429688 L 193.75 218.3125 C 214.0625 215.761719 230.585938 201 235.761719 181.613281 L 275.023438 187.011719 C 275.023438 187.175781 275 187.335938 275 187.5 C 275 199.4375 279.210938 210.394531 286.21875 219 L 220.59375 287.617188 C 213.238281 281.101562 203.980469 276.71875 193.75 275.429688 Z M 187.5 131.25 C 208.179688 131.25 225 148.070312 225 168.75 C 225 189.429688 208.179688 206.25 187.5 206.25 C 166.820312 206.25 150 189.429688 150 168.75 C 150 148.070312 166.820312 131.25 187.5 131.25 Z M 140.382812 152.179688 C 138.550781 157.375 137.5 162.9375 137.5 168.75 C 137.5 194.199219 156.625 215.226562 181.25 218.320312 L 181.25 275.4375 C 175.324219 276.179688 169.730469 277.957031 164.636719 280.585938 L 107.710938 184.792969 L 131.65625 147.820312 Z M 187.5 362.5 C 166.820312 362.5 150 345.679688 150 325 C 150 304.320312 166.820312 287.5 187.5 287.5 C 208.179688 287.5 225 304.320312 225 325 C 225 345.679688 208.179688 362.5 187.5 362.5 Z M 325 150 C 345.679688 150 362.5 166.820312 362.5 187.5 C 362.5 208.179688 345.679688 225 325 225 C 304.320312 225 287.5 208.179688 287.5 187.5 C 287.5 166.820312 304.320312 150 325 150 Z M 187.5 12.5 C 208.179688 12.5 225 29.320312 225 50 C 225 70.679688 208.179688 87.5 187.5 87.5 C 166.820312 87.5 150 70.679688 150 50 C 150 29.320312 166.820312 12.5 187.5 12.5 Z M 143.050781 72.792969 C 146.105469 78.726562 150.289062 83.96875 155.34375 88.230469 L 127.242188 131.632812 L 97.117188 116.570312 C 98.949219 111.375 100 105.8125 100 100 C 100 96.199219 99.539062 92.507812 98.726562 88.945312 Z M 12.5 100 C 12.5 79.320312 29.320312 62.5 50 62.5 C 70.679688 62.5 87.5 79.320312 87.5 100 C 87.5 120.679688 70.679688 137.5 50 137.5 C 29.320312 137.5 12.5 120.679688 12.5 100 Z M 80.71875 139.367188 C 84.90625 136.09375 88.582031 132.195312 91.550781 127.769531 L 120.40625 142.195312 L 100.585938 172.800781 Z M 80.71875 139.367188 " fill-opacity="1" fill-rule="nonzero"/></svg>