<svg xmlns="http://www.w3.org/2000/svg" xmlns:xlink="http://www.w3.org/1999/xlink" width="500" zoomAndPan="magnify" viewBox="0 0 375 374.999991" height="500" preserveAspectRatio="xMidYMid meet" version="1.0"><defs><clipPath id="14db36e58b"><path d="M 37.5 37.5 L 337.5 37.5 L 337.5 337.5 L 37.5 337.5 Z M 37.5 37.5 " clip-rule="nonzero"/></clipPath></defs><g clip-path="url(#14db36e58b)"><path fill="#008ab0" d="M 94.820312 211.5 C 89.570312 208.964844 83.710938 207.5 77.5 207.5 C 55.445312 207.5 37.5 225.445312 37.5 247.5 C 37.5 269.554688 55.445312 287.5 77.5 287.5 C 91.339844 287.5 103.554688 280.429688 110.738281 269.714844 L 148.523438 288.628906 C 147.875 291.484375 147.5 294.449219 147.5 297.5 C 147.5 319.554688 165.445312 337.5 187.5 337.5 C 209.554688 337.5 227.5 319.554688 227.5 297.5 C 227.5 289.210938 224.964844 281.503906 220.625 275.109375 L 273.71875 219.59375 C 280.378906 224.535156 288.589844 227.5 297.5 227.5 C 319.554688 227.5 337.5 209.554688 337.5 187.5 C 337.5 165.445312 319.554688 147.5 297.5 147.5 C 288.269531 147.5 279.789062 150.671875 273.011719 155.941406 L 219.058594 101.988281 C 224.328125 95.210938 227.5 86.730469 227.5 77.5 C 227.5 55.445312 209.554688 37.5 187.5 37.5 C 165.445312 37.5 147.5 55.445312 147.5 77.5 C 147.5 80.539062 147.871094 83.496094 148.519531 86.34375 L 113.058594 99.265625 C 106.410156 86.359375 92.984375 77.5 77.5 77.5 C 55.445312 77.5 37.5 95.445312 37.5 117.5 C 37.5 139.554688 55.445312 157.5 77.5 157.5 C 83.191406 157.5 88.59375 156.289062 93.5 154.136719 L 111.90625 185.109375 Z M 77.5 277.5 C 60.953125 277.5 47.5 264.046875 47.5 247.5 C 47.5 230.953125 60.953125 217.5 77.5 217.5 C 94.046875 217.5 107.5 230.953125 107.5 247.5 C 107.5 264.046875 94.046875 277.5 77.5 277.5 Z M 115.195312 260.753906 C 116.660156 256.601562 117.5 252.148438 117.5 247.5 C 117.5 235.234375 111.941406 224.253906 103.226562 216.914062 L 117.605469 194.703125 L 160.960938 267.660156 C 157.308594 270.910156 154.253906 274.800781 151.988281 279.175781 Z M 187.5 117.5 C 196.730469 117.5 205.210938 114.328125 211.988281 109.058594 L 265.945312 163.015625 C 262.710938 167.175781 260.289062 171.980469 258.894531 177.210938 L 227.484375 172.890625 C 227.480469 172.761719 227.5 172.628906 227.5 172.5 C 227.5 150.445312 209.554688 132.5 187.5 132.5 C 173.660156 132.5 161.441406 139.570312 154.261719 150.285156 L 148.296875 147.304688 L 170.183594 113.5 C 175.429688 116.035156 181.289062 117.5 187.5 117.5 Z M 192.5 257.84375 L 192.5 212.148438 C 208.75 210.109375 221.96875 198.300781 226.109375 182.789062 L 257.519531 187.109375 C 257.519531 187.238281 257.5 187.371094 257.5 187.5 C 257.5 197.050781 260.871094 205.816406 266.476562 212.699219 L 213.976562 267.59375 C 208.089844 262.378906 200.683594 258.875 192.5 257.84375 Z M 187.5 142.5 C 204.046875 142.5 217.5 155.953125 217.5 172.5 C 217.5 189.046875 204.046875 202.5 187.5 202.5 C 170.953125 202.5 157.5 189.046875 157.5 172.5 C 157.5 155.953125 170.953125 142.5 187.5 142.5 Z M 149.804688 159.246094 C 148.339844 163.398438 147.5 167.851562 147.5 172.5 C 147.5 192.859375 162.800781 209.679688 182.5 212.15625 L 182.5 257.851562 C 177.761719 258.445312 173.285156 259.863281 169.210938 261.96875 L 123.671875 185.335938 L 142.824219 155.753906 Z M 187.5 327.5 C 170.953125 327.5 157.5 314.046875 157.5 297.5 C 157.5 280.953125 170.953125 267.5 187.5 267.5 C 204.046875 267.5 217.5 280.953125 217.5 297.5 C 217.5 314.046875 204.046875 327.5 187.5 327.5 Z M 297.5 157.5 C 314.046875 157.5 327.5 170.953125 327.5 187.5 C 327.5 204.046875 314.046875 217.5 297.5 217.5 C 280.953125 217.5 267.5 204.046875 267.5 187.5 C 267.5 170.953125 280.953125 157.5 297.5 157.5 Z M 187.5 47.5 C 204.046875 47.5 217.5 60.953125 217.5 77.5 C 217.5 94.046875 204.046875 107.5 187.5 107.5 C 170.953125 107.5 157.5 94.046875 157.5 77.5 C 157.5 60.953125 170.953125 47.5 187.5 47.5 Z M 151.941406 95.734375 C 154.386719 100.480469 157.730469 104.675781 161.773438 108.085938 L 139.296875 142.804688 L 115.195312 130.753906 C 116.660156 126.601562 117.5 122.148438 117.5 117.5 C 117.5 114.460938 117.128906 111.503906 116.480469 108.65625 Z M 47.5 117.5 C 47.5 100.953125 60.953125 87.5 77.5 87.5 C 94.046875 87.5 107.5 100.953125 107.5 117.5 C 107.5 134.046875 94.046875 147.5 77.5 147.5 C 60.953125 147.5 47.5 134.046875 47.5 117.5 Z M 102.074219 148.996094 C 105.425781 146.375 108.363281 143.253906 110.738281 139.714844 L 133.824219 151.253906 L 117.96875 175.738281 Z M 102.074219 148.996094 " fill-opacity="1" fill-rule="nonzero"/></g></svg>