<svg xmlns="http://www.w3.org/2000/svg" xmlns:xlink="http://www.w3.org/1999/xlink" width="750" zoomAndPan="magnify" viewBox="0 0 562.5 562.499982" height="750" preserveAspectRatio="xMidYMid meet" version="1.0"><path fill="#008ab0" d="M 107.378906 325.960938 C 97.542969 321.210938 86.566406 318.46875 74.933594 318.46875 C 33.617188 318.46875 0 352.082031 0 393.398438 C 0 434.714844 33.617188 468.332031 74.933594 468.332031 C 100.859375 468.332031 123.742188 455.089844 137.203125 435.015625 L 207.988281 470.449219 C 206.769531 475.800781 206.066406 481.351562 206.066406 487.066406 C 206.066406 528.382812 239.683594 562 281 562 C 322.316406 562 355.933594 528.382812 355.933594 487.066406 C 355.933594 471.535156 351.183594 457.101562 343.054688 445.121094 L 442.519531 341.125 C 454.996094 350.378906 470.375 355.933594 487.066406 355.933594 C 528.382812 355.933594 562 322.316406 562 281 C 562 239.683594 528.382812 206.066406 487.066406 206.066406 C 469.777344 206.066406 453.890625 212.003906 441.1875 221.878906 L 340.121094 120.8125 C 349.996094 108.109375 355.933594 92.222656 355.933594 74.933594 C 355.933594 33.617188 322.316406 0 281 0 C 239.683594 0 206.066406 33.617188 206.066406 74.933594 C 206.066406 80.628906 206.761719 86.164062 207.976562 91.503906 L 141.550781 115.707031 C 129.089844 91.53125 103.941406 74.933594 74.933594 74.933594 C 33.617188 74.933594 0 108.550781 0 149.867188 C 0 191.183594 33.617188 224.800781 74.933594 224.800781 C 85.59375 224.800781 95.71875 222.535156 104.90625 218.496094 L 139.386719 276.523438 Z M 74.933594 449.601562 C 43.9375 449.601562 18.734375 424.394531 18.734375 393.398438 C 18.734375 362.40625 43.9375 337.199219 74.933594 337.199219 C 105.925781 337.199219 131.132812 362.40625 131.132812 393.398438 C 131.132812 424.394531 105.925781 449.601562 74.933594 449.601562 Z M 145.546875 418.230469 C 148.292969 410.449219 149.867188 402.109375 149.867188 393.398438 C 149.867188 370.425781 139.449219 349.855469 123.125 336.105469 L 150.0625 294.496094 L 231.28125 431.167969 C 224.445312 437.253906 218.722656 444.542969 214.476562 452.738281 Z M 281 149.867188 C 298.292969 149.867188 314.175781 143.929688 326.878906 134.054688 L 427.953125 235.132812 C 421.894531 242.925781 417.359375 251.925781 414.746094 261.722656 L 355.90625 253.628906 C 355.894531 253.386719 355.933594 253.144531 355.933594 252.898438 C 355.933594 211.582031 322.316406 177.964844 281 177.964844 C 255.074219 177.964844 232.179688 191.210938 218.730469 211.285156 L 207.554688 205.703125 L 248.5625 142.375 C 258.390625 147.121094 269.367188 149.867188 281 149.867188 Z M 290.367188 412.78125 L 290.367188 327.179688 C 320.808594 323.355469 345.574219 301.230469 353.328125 272.175781 L 412.171875 280.269531 C 412.171875 280.511719 412.132812 280.757812 412.132812 281 C 412.132812 298.890625 418.445312 315.308594 428.945312 328.207031 L 330.597656 431.046875 C 319.570312 421.277344 305.699219 414.710938 290.367188 412.78125 Z M 281 196.699219 C 311.996094 196.699219 337.199219 221.90625 337.199219 252.898438 C 337.199219 283.894531 311.996094 309.101562 281 309.101562 C 250.007812 309.101562 224.800781 283.894531 224.800781 252.898438 C 224.800781 221.90625 250.007812 196.699219 281 196.699219 Z M 210.386719 228.070312 C 207.640625 235.851562 206.066406 244.1875 206.066406 252.898438 C 206.066406 291.042969 234.730469 322.550781 271.632812 327.1875 L 271.632812 412.789062 C 262.753906 413.902344 254.371094 416.5625 246.738281 420.507812 L 161.425781 276.945312 L 197.308594 221.53125 Z M 281 543.265625 C 250.007812 543.265625 224.800781 518.0625 224.800781 487.066406 C 224.800781 456.074219 250.007812 430.867188 281 430.867188 C 311.996094 430.867188 337.199219 456.074219 337.199219 487.066406 C 337.199219 518.0625 311.996094 543.265625 281 543.265625 Z M 487.066406 224.800781 C 518.0625 224.800781 543.265625 250.007812 543.265625 281 C 543.265625 311.996094 518.0625 337.199219 487.066406 337.199219 C 456.074219 337.199219 430.867188 311.996094 430.867188 281 C 430.867188 250.007812 456.074219 224.800781 487.066406 224.800781 Z M 281 18.734375 C 311.996094 18.734375 337.199219 43.9375 337.199219 74.933594 C 337.199219 105.925781 311.996094 131.132812 281 131.132812 C 250.007812 131.132812 224.800781 105.925781 224.800781 74.933594 C 224.800781 43.9375 250.007812 18.734375 281 18.734375 Z M 214.382812 109.09375 C 218.964844 117.984375 225.230469 125.839844 232.808594 132.230469 L 190.695312 197.273438 L 145.546875 174.699219 C 148.292969 166.914062 149.867188 158.578125 149.867188 149.867188 C 149.867188 144.171875 149.171875 138.636719 147.957031 133.296875 Z M 18.734375 149.867188 C 18.734375 118.871094 43.9375 93.667969 74.933594 93.667969 C 105.925781 93.667969 131.132812 118.871094 131.132812 149.867188 C 131.132812 180.859375 105.925781 206.066406 74.933594 206.066406 C 43.9375 206.066406 18.734375 180.859375 18.734375 149.867188 Z M 120.96875 208.867188 C 127.246094 203.960938 132.753906 198.113281 137.203125 191.484375 L 180.449219 213.101562 L 150.746094 258.96875 Z M 120.96875 208.867188 " fill-opacity="1" fill-rule="nonzero"/></svg>