<svg xmlns="http://www.w3.org/2000/svg" xmlns:xlink="http://www.w3.org/1999/xlink" width="500" zoomAndPan="magnify" viewBox="0 0 375 374.999991" height="500" preserveAspectRatio="xMidYMid meet" version="1.0"><defs><clipPath id="22e5cd980c"><path d="M 168 37.5 L 222 37.5 L 222 70 L 168 70 Z M 168 37.5 " clip-rule="nonzero"/></clipPath><clipPath id="fccd907995"><path d="M 168 306 L 222 306 L 222 337.5 L 168 337.5 Z M 168 306 " clip-rule="nonzero"/></clipPath></defs><path fill="#008ab0" d="M 191.335938 171.761719 C 163.722656 171.761719 134.375 163.957031 134.375 149.496094 C 134.375 120.03125 248.304688 120.03125 248.304688 149.496094 C 248.304688 163.957031 218.949219 171.761719 191.339844 171.761719 Z M 191.335938 134.257812 C 160.398438 134.257812 141.402344 143.132812 141.402344 149.496094 C 141.402344 155.859375 160.398438 164.730469 191.335938 164.730469 C 222.277344 164.730469 241.269531 155.859375 241.269531 149.496094 C 241.269531 143.132812 222.277344 134.257812 191.335938 134.257812 Z M 191.335938 134.257812 " fill-opacity="1" fill-rule="evenodd"/><path fill="#008ab0" d="M 191.335938 251.394531 C 163.722656 251.394531 134.375 243.589844 134.375 229.125 L 134.375 149.496094 C 134.375 144.867188 141.402344 144.867188 141.402344 149.496094 L 141.402344 176.039062 C 141.402344 182.402344 160.398438 191.277344 191.335938 191.277344 C 222.277344 191.277344 241.269531 182.40625 241.269531 176.039062 L 241.269531 149.496094 C 241.269531 144.871094 248.300781 144.871094 248.300781 149.496094 L 248.300781 229.125 C 248.300781 243.589844 218.949219 251.394531 191.335938 251.394531 Z M 141.402344 213.730469 L 141.402344 229.128906 C 141.402344 235.492188 160.398438 244.367188 191.335938 244.367188 C 222.277344 244.367188 241.269531 235.488281 241.269531 229.128906 L 241.269531 213.730469 C 220.261719 228.507812 162.410156 228.503906 141.402344 213.730469 Z M 141.402344 202.582031 C 141.402344 208.945312 160.398438 217.816406 191.335938 217.816406 C 222.277344 217.816406 241.269531 208.945312 241.269531 202.582031 L 241.269531 187.183594 C 220.265625 201.960938 162.410156 201.960938 141.402344 187.183594 Z M 141.402344 202.582031 " fill-opacity="1" fill-rule="evenodd"/><path fill="#008ab0" d="M 190.363281 185.03125 L 177.703125 185.03125 C 173.078125 185.03125 173.078125 178 177.703125 178 L 190.363281 178 C 194.992188 178 194.992188 185.03125 190.363281 185.03125 Z M 190.363281 185.03125 " fill-opacity="1" fill-rule="evenodd"/><path fill="#008ab0" d="M 204.972656 185.03125 C 201.242188 185.03125 195.859375 185.953125 195.859375 181.519531 C 195.859375 177.085938 201.246094 178.003906 204.972656 178.003906 C 209.597656 178.003906 209.601562 185.03125 204.972656 185.03125 Z M 204.972656 185.03125 " fill-opacity="1" fill-rule="evenodd"/><path fill="#008ab0" d="M 190.363281 211.574219 L 177.703125 211.574219 C 173.078125 211.574219 173.078125 204.546875 177.703125 204.546875 L 190.363281 204.546875 C 194.992188 204.546875 194.992188 211.574219 190.363281 211.574219 Z M 190.363281 211.574219 " fill-opacity="1" fill-rule="evenodd"/><path fill="#008ab0" d="M 204.972656 211.578125 C 201.242188 211.578125 195.859375 212.496094 195.859375 208.066406 C 195.859375 203.632812 201.246094 204.550781 204.972656 204.550781 C 209.597656 204.550781 209.601562 211.578125 204.972656 211.578125 Z M 204.972656 211.578125 " fill-opacity="1" fill-rule="evenodd"/><path fill="#008ab0" d="M 190.363281 238.121094 L 177.703125 238.121094 C 173.078125 238.121094 173.078125 231.09375 177.703125 231.09375 L 190.363281 231.09375 C 194.992188 231.09375 194.992188 238.121094 190.363281 238.121094 Z M 190.363281 238.121094 " fill-opacity="1" fill-rule="evenodd"/><path fill="#008ab0" d="M 204.972656 238.121094 C 201.242188 238.121094 195.859375 239.042969 195.859375 234.609375 C 195.859375 230.175781 201.246094 231.09375 204.972656 231.09375 C 209.597656 231.09375 209.601562 238.121094 204.972656 238.121094 Z M 204.972656 238.121094 " fill-opacity="1" fill-rule="evenodd"/><path fill="#008ab0" d="M 194.976562 95.613281 C 192.902344 95.613281 173.121094 83.496094 169.769531 81.554688 C 168.683594 80.925781 168.015625 79.769531 168.015625 78.515625 L 168.015625 53.324219 C 168.015625 48.699219 175.042969 48.699219 175.042969 53.324219 L 175.042969 76.488281 L 191.46875 86 L 191.46875 65.503906 C 191.46875 60.882812 198.496094 60.882812 198.496094 65.503906 L 198.496094 86.003906 L 214.917969 76.492188 L 214.917969 53.324219 C 214.917969 48.699219 221.945312 48.699219 221.945312 53.324219 L 221.945312 78.511719 C 221.945312 79.769531 221.277344 80.925781 220.195312 81.554688 C 216.769531 83.53125 197.066406 95.613281 194.980469 95.613281 Z M 194.976562 95.613281 " fill-opacity="1" fill-rule="evenodd"/><g clip-path="url(#22e5cd980c)"><path fill="#008ab0" d="M 194.953125 69.015625 C 193.015625 69.015625 173.214844 58.15625 169.90625 56.4375 C 167.390625 55.132812 167.390625 51.511719 169.90625 50.207031 L 193.328125 38.023438 C 194.34375 37.496094 195.550781 37.496094 196.566406 38.019531 L 220.050781 50.203125 C 222.578125 51.511719 222.570312 55.132812 220.050781 56.4375 L 194.949219 69.015625 Z M 179.144531 53.324219 L 194.957031 61.542969 L 210.804688 53.324219 L 194.957031 45.101562 Z M 179.144531 53.324219 " fill-opacity="1" fill-rule="evenodd"/></g><path fill="#008ab0" d="M 195.09375 123.046875 C 193.152344 123.046875 191.578125 121.472656 191.578125 119.535156 L 191.578125 101.464844 C 191.578125 96.839844 198.605469 96.839844 198.605469 101.464844 L 198.605469 119.535156 C 198.605469 121.476562 197.03125 123.046875 195.09375 123.046875 Z M 195.09375 123.046875 " fill-opacity="1" fill-rule="evenodd"/><path fill="#008ab0" d="M 298.890625 143.097656 L 270.832031 135.585938 L 269.304688 133.507812 L 262.328125 107.324219 C 262.007812 106.113281 262.351562 104.820312 263.238281 103.933594 L 281.050781 86.121094 L 286.023438 91.089844 L 269.640625 107.46875 L 274.527344 125.8125 L 289.019531 111.316406 C 292.292969 108.042969 297.265625 113.015625 293.992188 116.285156 L 279.5 130.777344 L 297.839844 135.667969 L 314.222656 119.289062 L 319.191406 124.257812 L 301.378906 142.066406 C 300.710938 142.738281 299.8125 143.097656 298.890625 143.097656 Z M 298.890625 143.097656 " fill-opacity="1" fill-rule="evenodd"/><path fill="#008ab0" d="M 316.703125 125.285156 L 290.425781 117.132812 C 289.332031 116.785156 288.476562 115.929688 288.136719 114.839844 L 280.183594 89.664062 C 279.328125 86.960938 281.890625 84.398438 284.59375 85.253906 L 309.769531 93.207031 C 310.859375 93.550781 311.71875 94.402344 312.0625 95.496094 L 320.050781 120.710938 C 320.769531 122.984375 319.054688 125.289062 316.707031 125.289062 Z M 294.285156 110.980469 L 311.308594 116.375 L 305.917969 99.355469 L 288.921875 93.988281 L 294.289062 110.980469 Z M 294.285156 110.980469 " fill-opacity="1" fill-rule="evenodd"/><path fill="#008ab0" d="M 253.378906 155.601562 C 250.28125 155.601562 248.671875 151.824219 250.894531 149.601562 L 263.671875 136.824219 C 266.945312 133.554688 271.914062 138.523438 268.644531 141.796875 L 255.867188 154.570312 C 255.179688 155.257812 254.277344 155.601562 253.378906 155.601562 Z M 253.378906 155.601562 " fill-opacity="1" fill-rule="evenodd"/><path fill="#008ab0" d="M 283.535156 293.535156 C 282.636719 293.535156 281.734375 293.191406 281.050781 292.503906 L 263.238281 274.695312 C 262.351562 273.808594 262.003906 272.515625 262.328125 271.300781 L 269.324219 245.050781 L 271.863281 242.605469 L 297.984375 235.640625 C 299.195312 235.320312 300.488281 235.667969 301.378906 236.550781 L 319.191406 254.363281 C 322.464844 257.640625 317.488281 262.605469 314.21875 259.335938 L 297.839844 242.957031 L 279.496094 247.839844 L 293.988281 262.335938 C 297.265625 265.609375 292.285156 270.578125 289.019531 267.304688 L 274.523438 252.8125 L 269.640625 271.15625 L 286.019531 287.535156 C 288.246094 289.761719 286.628906 293.539062 283.535156 293.539062 Z M 283.535156 293.535156 " fill-opacity="1" fill-rule="evenodd"/><path fill="#008ab0" d="M 283.535156 293.535156 C 281.183594 293.535156 279.464844 291.238281 280.183594 288.960938 L 288.136719 263.789062 C 288.480469 262.695312 289.332031 261.839844 290.425781 261.496094 L 315.640625 253.503906 C 318.351562 252.652344 320.914062 255.207031 320.054688 257.914062 L 312.066406 283.132812 C 311.71875 284.222656 310.863281 285.078125 309.773438 285.421875 Z M 294.285156 267.640625 L 288.921875 284.632812 L 305.914062 279.265625 L 311.308594 262.246094 Z M 294.285156 267.640625 " fill-opacity="1" fill-rule="evenodd"/><path fill="#008ab0" d="M 266.15625 242.828125 C 265.257812 242.828125 264.355469 242.480469 263.667969 241.796875 L 250.890625 229.019531 C 247.617188 225.742188 252.59375 220.777344 255.863281 224.050781 L 268.640625 236.824219 C 270.859375 239.046875 269.257812 242.828125 266.15625 242.828125 Z M 266.15625 242.828125 " fill-opacity="1" fill-rule="evenodd"/><path fill="#008ab0" d="M 80.703125 143.097656 C 79.785156 143.097656 78.886719 142.738281 78.21875 142.070312 L 60.410156 124.257812 C 57.136719 120.988281 62.109375 116.019531 65.378906 119.289062 L 81.757812 135.667969 L 100.101562 130.78125 L 85.609375 116.289062 C 82.335938 113.019531 87.308594 108.050781 90.578125 111.320312 L 105.070312 125.816406 L 109.960938 107.472656 L 93.578125 91.089844 L 98.550781 86.121094 L 116.359375 103.933594 C 117.246094 104.816406 117.59375 106.109375 117.273438 107.320312 L 110.292969 133.519531 C 109.96875 134.738281 109.019531 135.679688 107.804688 136.003906 L 80.707031 143.097656 Z M 80.703125 143.097656 " fill-opacity="1" fill-rule="evenodd"/><path fill="#008ab0" d="M 62.894531 125.285156 C 60.542969 125.285156 58.820312 122.984375 59.542969 120.710938 L 67.535156 95.492188 C 67.878906 94.402344 68.734375 93.546875 69.824219 93.203125 L 95 85.253906 C 97.707031 84.398438 100.265625 86.957031 99.410156 89.664062 L 91.460938 114.839844 C 91.117188 115.929688 90.261719 116.785156 89.171875 117.132812 L 62.894531 125.289062 Z M 73.679688 99.355469 L 68.289062 116.375 L 85.308594 110.984375 L 90.675781 93.992188 L 73.683594 99.355469 Z M 73.679688 99.355469 " fill-opacity="1" fill-rule="evenodd"/><path fill="#008ab0" d="M 126.21875 155.601562 C 125.316406 155.601562 124.417969 155.257812 123.734375 154.570312 L 110.960938 141.796875 C 107.6875 138.527344 112.65625 133.554688 115.929688 136.828125 L 128.703125 149.605469 C 130.925781 151.828125 129.316406 155.601562 126.21875 155.601562 Z M 126.21875 155.601562 " fill-opacity="1" fill-rule="evenodd"/><path fill="#008ab0" d="M 96.0625 293.535156 C 92.964844 293.535156 91.355469 289.753906 93.578125 287.53125 L 109.957031 271.152344 L 105.070312 252.8125 L 90.578125 267.304688 C 87.300781 270.582031 82.339844 265.601562 85.609375 262.332031 L 100.105469 247.839844 L 81.761719 242.953125 L 65.382812 259.332031 C 62.105469 262.609375 57.140625 257.628906 60.410156 254.363281 L 78.222656 236.550781 C 79.109375 235.667969 80.402344 235.320312 81.613281 235.640625 L 108.453125 242.867188 L 110.292969 245.113281 L 117.269531 271.300781 C 117.59375 272.511719 117.246094 273.804688 116.355469 274.695312 L 98.546875 292.503906 C 97.859375 293.1875 96.960938 293.53125 96.0625 293.53125 Z M 96.0625 293.535156 " fill-opacity="1" fill-rule="evenodd"/><path fill="#008ab0" d="M 96.0625 293.535156 L 69.828125 285.421875 C 68.734375 285.078125 67.882812 284.222656 67.535156 283.132812 C 55.9375 246.53125 52.535156 249.867188 89.171875 261.496094 C 90.261719 261.84375 91.117188 262.695312 91.460938 263.785156 L 99.410156 288.960938 C 100.128906 291.230469 98.414062 293.53125 96.0625 293.53125 Z M 73.679688 279.269531 L 90.671875 284.632812 L 85.304688 267.644531 L 68.289062 262.25 Z M 73.679688 279.269531 " fill-opacity="1" fill-rule="evenodd"/><path fill="#008ab0" d="M 113.445312 242.828125 C 110.347656 242.828125 108.738281 239.046875 110.960938 236.824219 L 123.734375 224.050781 C 127.011719 220.773438 131.972656 225.753906 128.703125 229.019531 L 115.929688 241.796875 C 115.242188 242.484375 114.34375 242.828125 113.445312 242.828125 Z M 113.445312 242.828125 " fill-opacity="1" fill-rule="evenodd"/><path fill="#008ab0" d="M 218.433594 325.308594 C 216.496094 325.308594 214.921875 323.730469 214.921875 321.792969 L 214.921875 298.628906 L 198.496094 289.117188 L 198.496094 309.613281 C 198.496094 314.238281 191.46875 314.238281 191.46875 309.613281 L 191.46875 289.117188 L 175.046875 298.628906 L 175.046875 321.792969 C 175.046875 326.421875 168.019531 326.417969 168.019531 321.792969 L 168.019531 296.605469 C 168.019531 295.351562 168.683594 294.195312 169.769531 293.566406 L 193.292969 279.9375 L 196.804688 280.011719 L 220.199219 293.566406 C 221.28125 294.195312 221.953125 295.351562 221.953125 296.605469 L 221.953125 321.796875 C 221.949219 323.734375 220.371094 325.308594 218.429688 325.308594 Z M 218.433594 325.308594 " fill-opacity="1" fill-rule="evenodd"/><g clip-path="url(#fccd907995)"><path fill="#008ab0" d="M 194.953125 337.488281 L 169.90625 324.910156 C 167.390625 323.601562 167.390625 319.984375 169.90625 318.675781 L 193.328125 306.5 C 194.34375 305.972656 195.550781 305.96875 196.566406 306.496094 L 220.050781 318.671875 C 222.574219 319.980469 222.574219 323.601562 220.050781 324.910156 L 194.949219 337.488281 Z M 179.144531 321.792969 L 194.957031 330.015625 L 210.804688 321.792969 L 194.957031 313.574219 Z M 179.144531 321.792969 " fill-opacity="1" fill-rule="evenodd"/></g><path fill="#008ab0" d="M 195.09375 277.164062 C 193.152344 277.164062 191.578125 275.585938 191.578125 273.648438 L 191.578125 255.582031 C 191.578125 250.953125 198.605469 250.957031 198.605469 255.582031 L 198.605469 273.648438 C 198.605469 275.585938 197.03125 277.164062 195.09375 277.164062 Z M 195.09375 277.164062 " fill-opacity="1" fill-rule="evenodd"/></svg>