<svg xmlns="http://www.w3.org/2000/svg" xmlns:xlink="http://www.w3.org/1999/xlink" width="750" zoomAndPan="magnify" viewBox="0 0 562.5 562.499982" height="750" preserveAspectRatio="xMidYMid meet" version="1.0"><path fill="#008ab0" d="M 288.1875 251.515625 C 236.457031 251.515625 181.476562 236.898438 181.476562 209.808594 C 181.476562 154.609375 394.90625 154.609375 394.90625 209.808594 C 394.90625 236.898438 339.914062 251.515625 288.191406 251.515625 Z M 288.1875 181.261719 C 230.230469 181.261719 194.644531 197.886719 194.644531 209.808594 C 194.644531 221.726562 230.230469 238.347656 288.1875 238.347656 C 346.148438 238.347656 381.730469 221.726562 381.730469 209.808594 C 381.730469 197.886719 346.148438 181.261719 288.1875 181.261719 Z M 288.1875 181.261719 " fill-opacity="1" fill-rule="evenodd"/><path fill="#008ab0" d="M 288.1875 400.695312 C 236.457031 400.695312 181.476562 386.078125 181.476562 358.980469 L 181.476562 209.804688 C 181.476562 201.136719 194.644531 201.136719 194.644531 209.804688 L 194.644531 259.53125 C 194.644531 271.453125 230.230469 288.078125 288.1875 288.078125 C 346.148438 288.078125 381.730469 271.453125 381.730469 259.53125 L 381.730469 209.804688 C 381.730469 201.140625 394.898438 201.140625 394.898438 209.804688 L 394.898438 358.980469 C 394.902344 386.078125 339.914062 400.695312 288.1875 400.695312 Z M 194.644531 330.140625 L 194.644531 358.984375 C 194.644531 370.902344 230.230469 387.527344 288.1875 387.527344 C 346.148438 387.527344 381.730469 370.898438 381.730469 358.984375 L 381.730469 330.140625 C 342.375 357.820312 234 357.816406 194.644531 330.140625 Z M 194.644531 309.253906 C 194.644531 321.171875 230.230469 337.796875 288.1875 337.796875 C 346.148438 337.796875 381.730469 321.171875 381.730469 309.253906 L 381.730469 280.410156 C 342.378906 308.09375 233.996094 308.09375 194.644531 280.410156 Z M 194.644531 309.253906 " fill-opacity="1" fill-rule="evenodd"/><path fill="#008ab0" d="M 286.367188 276.371094 L 262.644531 276.371094 C 253.980469 276.371094 253.980469 263.207031 262.644531 263.207031 L 286.367188 263.207031 C 295.03125 263.207031 295.03125 276.371094 286.367188 276.371094 Z M 286.367188 276.371094 " fill-opacity="1" fill-rule="evenodd"/><path fill="#008ab0" d="M 313.734375 276.378906 C 306.742188 276.378906 296.660156 278.101562 296.660156 269.796875 C 296.660156 261.492188 306.75 263.210938 313.734375 263.210938 C 322.398438 263.210938 322.402344 276.378906 313.734375 276.378906 Z M 313.734375 276.378906 " fill-opacity="1" fill-rule="evenodd"/><path fill="#008ab0" d="M 286.367188 326.101562 L 262.644531 326.101562 C 253.984375 326.101562 253.984375 312.933594 262.644531 312.933594 L 286.367188 312.933594 C 295.03125 312.933594 295.03125 326.101562 286.367188 326.101562 Z M 286.367188 326.101562 " fill-opacity="1" fill-rule="evenodd"/><path fill="#008ab0" d="M 313.734375 326.109375 C 306.746094 326.109375 296.660156 327.828125 296.660156 319.523438 C 296.660156 311.21875 306.753906 312.941406 313.734375 312.941406 C 322.398438 312.941406 322.402344 326.109375 313.734375 326.109375 Z M 313.734375 326.109375 " fill-opacity="1" fill-rule="evenodd"/><path fill="#008ab0" d="M 286.367188 375.828125 L 262.644531 375.828125 C 253.984375 375.828125 253.984375 362.664062 262.644531 362.664062 L 286.367188 362.664062 C 295.03125 362.664062 295.03125 375.828125 286.367188 375.828125 Z M 286.367188 375.828125 " fill-opacity="1" fill-rule="evenodd"/><path fill="#008ab0" d="M 313.734375 375.832031 C 306.746094 375.832031 296.660156 377.554688 296.660156 369.25 C 296.660156 360.945312 306.753906 362.667969 313.734375 362.667969 C 322.398438 362.667969 322.402344 375.832031 313.734375 375.832031 Z M 313.734375 375.832031 " fill-opacity="1" fill-rule="evenodd"/><path fill="#008ab0" d="M 295.007812 108.863281 C 291.121094 108.863281 254.066406 86.167969 247.78125 82.527344 C 245.746094 81.355469 244.5 79.183594 244.5 76.835938 L 244.5 29.644531 C 244.5 20.976562 257.667969 20.976562 257.667969 29.644531 L 257.667969 73.035156 L 288.433594 90.859375 L 288.433594 52.464844 C 288.433594 43.800781 301.597656 43.800781 301.597656 52.464844 L 301.597656 90.867188 L 332.363281 73.042969 L 332.363281 29.644531 C 332.363281 20.976562 345.53125 20.976562 345.53125 29.644531 L 345.53125 76.832031 C 345.53125 79.183594 344.277344 81.355469 342.246094 82.527344 C 335.835938 86.234375 298.917969 108.867188 295.015625 108.867188 Z M 295.007812 108.863281 " fill-opacity="1" fill-rule="evenodd"/><path fill="#008ab0" d="M 294.960938 59.039062 C 291.332031 59.039062 254.238281 38.699219 248.042969 35.480469 C 243.328125 33.03125 243.328125 26.246094 248.042969 23.800781 L 291.921875 0.980469 C 293.816406 -0.0078125 296.082031 -0.0117188 297.988281 0.972656 L 341.980469 23.792969 C 346.710938 26.25 346.695312 33.035156 341.980469 35.480469 L 294.957031 59.039062 Z M 265.347656 29.640625 L 294.964844 45.042969 L 324.660156 29.640625 L 294.964844 14.238281 Z M 265.347656 29.640625 " fill-opacity="1" fill-rule="evenodd"/><path fill="#008ab0" d="M 295.222656 160.257812 C 291.589844 160.257812 288.640625 157.308594 288.640625 153.675781 L 288.640625 119.828125 C 288.640625 111.164062 301.804688 111.164062 301.804688 119.828125 L 301.804688 153.675781 C 301.804688 157.3125 298.855469 160.257812 295.222656 160.257812 Z M 295.222656 160.257812 " fill-opacity="1" fill-rule="evenodd"/><path fill="#008ab0" d="M 489.675781 197.824219 L 437.113281 183.746094 L 434.246094 179.855469 L 421.179688 130.804688 C 420.574219 128.535156 421.222656 126.117188 422.882812 124.453125 L 456.25 91.082031 L 465.5625 100.390625 L 434.878906 131.074219 L 444.03125 165.4375 L 471.183594 138.285156 C 477.316406 132.152344 486.628906 141.46875 480.496094 147.59375 L 453.347656 174.742188 L 487.707031 183.898438 L 518.390625 153.214844 L 527.703125 162.523438 L 494.335938 195.890625 C 493.082031 197.144531 491.398438 197.824219 489.675781 197.824219 Z M 489.675781 197.824219 " fill-opacity="1" fill-rule="evenodd"/><path fill="#008ab0" d="M 523.042969 164.453125 L 473.8125 149.175781 C 471.769531 148.527344 470.164062 146.929688 469.523438 144.882812 L 454.628906 97.71875 C 453.027344 92.65625 457.824219 87.855469 462.886719 89.460938 L 510.054688 104.355469 C 512.097656 105 513.699219 106.601562 514.34375 108.644531 L 529.3125 155.886719 C 530.65625 160.140625 527.449219 164.457031 523.042969 164.457031 Z M 481.046875 137.65625 L 512.9375 147.757812 L 502.835938 115.871094 L 471 105.820312 L 481.050781 137.65625 Z M 481.046875 137.65625 " fill-opacity="1" fill-rule="evenodd"/><path fill="#008ab0" d="M 404.414062 221.246094 C 398.609375 221.246094 395.59375 214.167969 399.757812 210 L 423.691406 186.070312 C 429.824219 179.941406 439.132812 189.25 433.007812 195.382812 L 409.070312 219.3125 C 407.785156 220.601562 406.097656 221.246094 404.417969 221.246094 Z M 404.414062 221.246094 " fill-opacity="1" fill-rule="evenodd"/><path fill="#008ab0" d="M 460.90625 479.640625 C 459.226562 479.640625 457.535156 478.992188 456.25 477.710938 L 422.882812 444.34375 C 421.222656 442.683594 420.570312 440.261719 421.175781 437.988281 L 434.285156 388.808594 L 439.039062 384.230469 L 487.976562 371.183594 C 490.246094 370.585938 492.667969 371.230469 494.332031 372.890625 L 527.699219 406.257812 C 533.835938 412.394531 524.507812 421.699219 518.386719 415.570312 L 487.703125 384.886719 L 453.34375 394.039062 L 480.492188 421.191406 C 486.628906 427.328125 477.296875 436.632812 471.179688 430.503906 L 444.027344 403.355469 L 434.878906 437.714844 L 465.5625 468.398438 C 469.730469 472.570312 466.699219 479.644531 460.90625 479.644531 Z M 460.90625 479.640625 " fill-opacity="1" fill-rule="evenodd"/><path fill="#008ab0" d="M 460.90625 479.640625 C 456.503906 479.640625 453.28125 475.335938 454.628906 471.070312 L 469.523438 423.914062 C 470.167969 421.867188 471.769531 420.265625 473.8125 419.621094 L 521.054688 404.652344 C 526.128906 403.054688 530.929688 407.839844 529.320312 412.914062 L 514.351562 460.152344 C 513.703125 462.195312 512.105469 463.800781 510.058594 464.441406 Z M 481.046875 431.132812 L 470.996094 462.960938 L 502.832031 452.910156 L 512.933594 421.027344 L 481.042969 431.128906 Z M 481.046875 431.132812 " fill-opacity="1" fill-rule="evenodd"/><path fill="#008ab0" d="M 428.347656 384.644531 C 426.664062 384.644531 424.976562 384 423.6875 382.714844 L 399.753906 358.78125 C 393.621094 352.644531 402.941406 343.34375 409.066406 349.472656 L 433.003906 373.402344 C 437.160156 377.566406 434.160156 384.644531 428.351562 384.644531 Z M 428.347656 384.644531 " fill-opacity="1" fill-rule="evenodd"/><path fill="#008ab0" d="M 80.9375 197.824219 C 79.210938 197.824219 77.53125 197.144531 76.28125 195.894531 L 42.914062 162.527344 C 36.78125 156.402344 46.097656 147.089844 52.222656 153.21875 L 82.90625 183.902344 L 117.273438 174.75 L 90.121094 147.601562 C 83.992188 141.472656 93.304688 132.164062 99.429688 138.292969 L 126.582031 165.445312 L 135.742188 131.078125 L 105.054688 100.390625 L 114.363281 91.082031 L 147.730469 124.449219 C 149.390625 126.109375 150.046875 128.527344 149.441406 130.800781 L 136.371094 179.878906 C 135.757812 182.15625 133.984375 183.925781 131.703125 184.53125 Z M 80.9375 197.824219 " fill-opacity="1" fill-rule="evenodd"/><path fill="#008ab0" d="M 47.570312 164.453125 C 43.164062 164.453125 39.941406 160.144531 41.296875 155.882812 L 56.261719 108.640625 C 56.910156 106.597656 58.511719 104.996094 60.554688 104.351562 L 107.71875 89.457031 C 112.785156 87.859375 117.582031 92.652344 115.980469 97.71875 L 101.085938 144.882812 C 100.441406 146.929688 98.84375 148.527344 96.796875 149.175781 L 47.570312 164.457031 Z M 67.78125 115.875 L 57.679688 147.761719 L 89.558594 137.660156 L 99.613281 105.828125 Z M 67.78125 115.875 " fill-opacity="1" fill-rule="evenodd"/><path fill="#008ab0" d="M 166.199219 221.246094 C 164.511719 221.246094 162.828125 220.601562 161.546875 219.3125 L 137.613281 195.382812 C 131.480469 189.257812 140.796875 179.945312 146.921875 186.074219 L 170.851562 210.007812 C 175.019531 214.171875 172 221.246094 166.199219 221.246094 Z M 166.199219 221.246094 " fill-opacity="1" fill-rule="evenodd"/><path fill="#008ab0" d="M 109.703125 479.640625 C 103.902344 479.640625 100.886719 472.554688 105.054688 468.394531 L 135.738281 437.710938 L 126.582031 403.351562 L 99.433594 430.503906 C 93.296875 436.640625 84 427.308594 90.125 421.1875 L 117.277344 394.039062 L 82.914062 384.886719 L 52.230469 415.570312 C 46.089844 421.707031 36.796875 412.375 42.921875 406.257812 L 76.289062 372.890625 C 77.949219 371.234375 80.371094 370.585938 82.636719 371.183594 L 132.917969 384.71875 L 136.367188 388.925781 L 149.4375 437.988281 C 150.039062 440.257812 149.390625 442.679688 147.726562 444.34375 L 114.359375 477.710938 C 113.074219 478.992188 111.394531 479.636719 109.703125 479.636719 Z M 109.703125 479.640625 " fill-opacity="1" fill-rule="evenodd"/><path fill="#008ab0" d="M 109.703125 479.640625 L 60.558594 464.4375 C 58.515625 463.792969 56.914062 462.195312 56.265625 460.148438 C 34.539062 391.585938 28.167969 397.835938 96.796875 419.617188 C 98.84375 420.269531 100.441406 421.867188 101.085938 423.910156 L 115.980469 471.066406 C 117.328125 475.324219 114.113281 479.636719 109.707031 479.636719 Z M 67.78125 452.910156 L 99.609375 462.964844 L 89.558594 431.132812 L 57.675781 421.03125 L 67.777344 452.914062 Z M 67.78125 452.910156 " fill-opacity="1" fill-rule="evenodd"/><path fill="#008ab0" d="M 142.269531 384.644531 C 136.464844 384.644531 133.449219 377.5625 137.613281 373.402344 L 161.546875 349.472656 C 167.683594 343.332031 176.980469 352.664062 170.855469 358.78125 L 146.921875 382.714844 C 145.636719 384.007812 143.953125 384.644531 142.269531 384.644531 Z M 142.269531 384.644531 " fill-opacity="1" fill-rule="evenodd"/><path fill="#008ab0" d="M 338.953125 539.160156 C 335.316406 539.160156 332.367188 536.207031 332.367188 532.578125 L 332.367188 489.183594 L 301.601562 471.359375 L 301.601562 509.757812 C 301.601562 518.421875 288.4375 518.421875 288.4375 509.757812 L 288.4375 471.359375 L 257.667969 489.183594 L 257.667969 532.578125 C 257.667969 541.242188 244.503906 541.242188 244.503906 532.578125 L 244.503906 485.394531 C 244.503906 483.042969 245.75 480.875 247.789062 479.695312 L 291.851562 454.164062 L 298.429688 454.308594 L 342.257812 479.699219 C 344.285156 480.875 345.542969 483.046875 345.542969 485.394531 L 345.542969 532.582031 C 345.535156 536.210938 342.578125 539.160156 338.945312 539.160156 Z M 338.953125 539.160156 " fill-opacity="1" fill-rule="evenodd"/><path fill="#008ab0" d="M 294.960938 561.980469 L 248.042969 538.417969 C 243.324219 535.964844 243.332031 529.191406 248.042969 526.738281 L 291.921875 503.925781 C 293.816406 502.9375 296.082031 502.933594 297.988281 503.917969 L 341.980469 526.730469 C 346.707031 529.183594 346.703125 535.964844 341.980469 538.417969 L 294.957031 561.980469 Z M 265.347656 532.578125 L 294.964844 547.976562 L 324.660156 532.578125 L 294.964844 517.179688 Z M 265.347656 532.578125 " fill-opacity="1" fill-rule="evenodd"/><path fill="#008ab0" d="M 295.222656 448.96875 C 291.589844 448.96875 288.640625 446.015625 288.640625 442.386719 L 288.640625 408.539062 C 288.640625 399.871094 301.804688 399.875 301.804688 408.539062 L 301.804688 442.386719 C 301.804688 446.015625 298.855469 448.96875 295.222656 448.96875 Z M 295.222656 448.96875 " fill-opacity="1" fill-rule="evenodd"/></svg>