<svg xmlns="http://www.w3.org/2000/svg" xmlns:xlink="http://www.w3.org/1999/xlink" width="500" zoomAndPan="magnify" viewBox="0 0 375 374.999991" height="500" preserveAspectRatio="xMidYMid meet" version="1.0"><path fill="#008ab0" d="M 192.296875 167.824219 C 157.78125 167.824219 121.09375 158.070312 121.09375 139.996094 C 121.09375 103.164062 263.503906 103.164062 263.503906 139.996094 C 263.503906 158.074219 226.8125 167.824219 192.300781 167.824219 Z M 192.296875 120.949219 C 153.625 120.949219 129.878906 132.042969 129.878906 139.996094 C 129.878906 147.949219 153.625 159.039062 192.296875 159.039062 C 230.96875 159.039062 254.714844 147.949219 254.714844 139.996094 C 254.714844 132.042969 230.96875 120.949219 192.296875 120.949219 Z M 192.296875 120.949219 " fill-opacity="1" fill-rule="evenodd"/><path fill="#008ab0" d="M 192.296875 267.367188 C 157.78125 267.367188 121.09375 257.613281 121.09375 239.53125 L 121.09375 139.992188 C 121.09375 134.210938 129.878906 134.210938 129.878906 139.992188 L 129.878906 173.175781 C 129.878906 181.128906 153.625 192.222656 192.296875 192.222656 C 230.96875 192.222656 254.714844 181.128906 254.714844 173.175781 L 254.714844 139.992188 C 254.714844 134.210938 263.5 134.210938 263.5 139.992188 L 263.5 239.53125 C 263.5 257.613281 226.8125 267.367188 192.296875 267.367188 Z M 129.878906 220.289062 L 129.878906 239.535156 C 129.878906 247.488281 153.625 258.582031 192.296875 258.582031 C 230.96875 258.582031 254.714844 247.484375 254.714844 239.535156 L 254.714844 220.289062 C 228.453125 238.761719 156.140625 238.753906 129.878906 220.289062 Z M 129.878906 206.351562 C 129.878906 214.304688 153.625 225.398438 192.296875 225.398438 C 230.96875 225.398438 254.714844 214.304688 254.714844 206.351562 L 254.714844 187.105469 C 228.453125 205.578125 156.136719 205.578125 129.878906 187.105469 Z M 129.878906 206.351562 " fill-opacity="1" fill-rule="evenodd"/><path fill="#008ab0" d="M 191.078125 184.410156 L 175.253906 184.410156 C 169.46875 184.410156 169.46875 175.625 175.253906 175.625 L 191.078125 175.625 C 196.863281 175.625 196.863281 184.410156 191.078125 184.410156 Z M 191.078125 184.410156 " fill-opacity="1" fill-rule="evenodd"/><path fill="#008ab0" d="M 209.34375 184.417969 C 204.675781 184.417969 197.949219 185.566406 197.949219 180.023438 C 197.949219 174.480469 204.683594 175.632812 209.34375 175.632812 C 215.125 175.632812 215.125 184.417969 209.34375 184.417969 Z M 209.34375 184.417969 " fill-opacity="1" fill-rule="evenodd"/><path fill="#008ab0" d="M 191.078125 217.59375 L 175.253906 217.59375 C 169.472656 217.59375 169.472656 208.808594 175.253906 208.808594 L 191.078125 208.808594 C 196.863281 208.808594 196.863281 217.59375 191.078125 217.59375 Z M 191.078125 217.59375 " fill-opacity="1" fill-rule="evenodd"/><path fill="#008ab0" d="M 209.34375 217.597656 C 204.679688 217.597656 197.949219 218.746094 197.949219 213.207031 C 197.949219 207.664062 204.683594 208.8125 209.34375 208.8125 C 215.125 208.8125 215.125 217.597656 209.34375 217.597656 Z M 209.34375 217.597656 " fill-opacity="1" fill-rule="evenodd"/><path fill="#008ab0" d="M 191.078125 250.777344 L 175.253906 250.777344 C 169.472656 250.777344 169.472656 241.992188 175.253906 241.992188 L 191.078125 241.992188 C 196.863281 241.992188 196.863281 250.777344 191.078125 250.777344 Z M 191.078125 250.777344 " fill-opacity="1" fill-rule="evenodd"/><path fill="#008ab0" d="M 209.34375 250.777344 C 204.679688 250.777344 197.949219 251.925781 197.949219 246.386719 C 197.949219 240.84375 204.683594 241.992188 209.34375 241.992188 C 215.125 241.992188 215.125 250.777344 209.34375 250.777344 Z M 209.34375 250.777344 " fill-opacity="1" fill-rule="evenodd"/><path fill="#008ab0" d="M 196.847656 72.640625 C 194.253906 72.640625 169.527344 57.496094 165.335938 55.070312 C 163.976562 54.285156 163.144531 52.835938 163.144531 51.269531 L 163.144531 19.78125 C 163.144531 13.996094 171.929688 13.996094 171.929688 19.78125 L 171.929688 48.734375 L 192.460938 60.628906 L 192.460938 35.007812 C 192.460938 29.226562 201.246094 29.226562 201.246094 35.007812 L 201.246094 60.632812 L 221.773438 48.738281 L 221.773438 19.78125 C 221.773438 13.996094 230.558594 13.996094 230.558594 19.78125 L 230.558594 51.265625 C 230.558594 52.835938 229.722656 54.285156 228.367188 55.066406 C 224.089844 57.542969 199.457031 72.644531 196.851562 72.644531 Z M 196.847656 72.640625 " fill-opacity="1" fill-rule="evenodd"/><path fill="#008ab0" d="M 196.816406 39.394531 C 194.394531 39.394531 169.640625 25.820312 165.507812 23.675781 C 162.363281 22.039062 162.363281 17.511719 165.507812 15.882812 L 194.789062 0.65625 C 196.050781 -0.00390625 197.5625 -0.0078125 198.835938 0.648438 L 228.1875 15.878906 C 231.347656 17.515625 231.335938 22.042969 228.1875 23.675781 L 196.8125 39.394531 Z M 177.054688 19.777344 L 196.820312 30.054688 L 216.632812 19.777344 L 196.820312 9.5 Z M 177.054688 19.777344 " fill-opacity="1" fill-rule="evenodd"/><path fill="#008ab0" d="M 196.992188 106.933594 C 194.566406 106.933594 192.597656 104.964844 192.597656 102.542969 L 192.597656 79.957031 C 192.597656 74.175781 201.382812 74.175781 201.382812 79.957031 L 201.382812 102.542969 C 201.382812 104.96875 199.414062 106.933594 196.992188 106.933594 Z M 196.992188 106.933594 " fill-opacity="1" fill-rule="evenodd"/><path fill="#008ab0" d="M 326.738281 132 L 291.667969 122.609375 L 289.753906 120.007812 L 281.035156 87.28125 C 280.632812 85.765625 281.066406 84.152344 282.171875 83.042969 L 304.4375 60.773438 L 310.652344 66.984375 L 290.179688 87.460938 L 296.285156 110.390625 L 314.402344 92.273438 C 318.492188 88.179688 324.707031 94.394531 320.613281 98.484375 L 302.5 116.597656 L 325.425781 122.707031 L 345.902344 102.234375 L 352.113281 108.445312 L 329.851562 130.710938 C 329.011719 131.546875 327.890625 132 326.742188 132 Z M 326.738281 132 " fill-opacity="1" fill-rule="evenodd"/><path fill="#008ab0" d="M 349.003906 109.734375 L 316.15625 99.539062 C 314.792969 99.105469 313.722656 98.039062 313.292969 96.675781 L 303.355469 65.203125 C 302.285156 61.828125 305.488281 58.621094 308.867188 59.695312 L 340.335938 69.632812 C 341.703125 70.0625 342.769531 71.128906 343.203125 72.492188 L 353.1875 104.015625 C 354.085938 106.855469 351.945312 109.734375 349.007812 109.734375 Z M 320.984375 91.851562 L 342.261719 98.59375 L 335.519531 77.316406 L 314.277344 70.609375 Z M 320.984375 91.851562 " fill-opacity="1" fill-rule="evenodd"/><path fill="#008ab0" d="M 269.847656 147.628906 C 265.972656 147.628906 263.960938 142.90625 266.742188 140.125 L 282.710938 124.15625 C 286.804688 120.070312 293.015625 126.28125 288.929688 130.371094 L 272.957031 146.339844 C 272.097656 147.199219 270.972656 147.628906 269.851562 147.628906 Z M 269.847656 147.628906 " fill-opacity="1" fill-rule="evenodd"/><path fill="#008ab0" d="M 307.542969 320.042969 C 306.421875 320.042969 305.296875 319.613281 304.4375 318.757812 L 282.171875 296.492188 C 281.066406 295.386719 280.628906 293.769531 281.035156 292.25 L 289.78125 259.4375 L 292.953125 256.382812 L 325.605469 247.675781 C 327.121094 247.277344 328.738281 247.707031 329.847656 248.816406 L 352.113281 271.078125 C 356.207031 275.175781 349.984375 281.382812 345.898438 277.292969 L 325.425781 256.820312 L 302.496094 262.925781 L 320.613281 281.042969 C 324.707031 285.136719 318.480469 291.347656 314.398438 287.257812 L 296.28125 269.140625 L 290.175781 292.070312 L 310.648438 312.542969 C 313.433594 315.324219 311.410156 320.046875 307.542969 320.046875 Z M 307.542969 320.042969 " fill-opacity="1" fill-rule="evenodd"/><path fill="#008ab0" d="M 307.542969 320.042969 C 304.605469 320.042969 302.457031 317.171875 303.355469 314.328125 L 313.292969 282.859375 C 313.726562 281.496094 314.792969 280.425781 316.15625 279.996094 L 347.679688 270.007812 C 351.066406 268.941406 354.265625 272.136719 353.191406 275.519531 L 343.207031 307.042969 C 342.773438 308.40625 341.707031 309.476562 340.34375 309.902344 L 307.542969 320.046875 Z M 320.984375 287.675781 L 314.277344 308.914062 L 335.519531 302.207031 L 342.257812 280.933594 L 320.980469 287.675781 Z M 320.984375 287.675781 " fill-opacity="1" fill-rule="evenodd"/><path fill="#008ab0" d="M 285.816406 256.65625 C 284.695312 256.65625 283.570312 256.226562 282.710938 255.371094 L 266.738281 239.402344 C 262.648438 235.304688 268.867188 229.097656 272.953125 233.1875 L 288.925781 249.15625 C 291.699219 251.933594 289.695312 256.65625 285.820312 256.65625 Z M 285.816406 256.65625 " fill-opacity="1" fill-rule="evenodd"/><path fill="#008ab0" d="M 54.003906 132 C 52.855469 132 51.730469 131.546875 50.898438 130.710938 L 28.636719 108.449219 C 24.542969 104.359375 30.757812 98.148438 34.847656 102.238281 L 55.320312 122.710938 L 78.25 116.601562 L 60.136719 98.488281 C 56.042969 94.398438 62.257812 88.1875 66.347656 92.277344 L 84.464844 110.394531 L 90.574219 87.464844 L 70.101562 66.988281 L 76.3125 60.777344 L 98.574219 83.039062 C 99.683594 84.148438 100.121094 85.761719 99.71875 87.277344 L 90.992188 120.027344 C 90.585938 121.546875 89.402344 122.726562 87.882812 123.128906 L 54.007812 132 Z M 54.003906 132 " fill-opacity="1" fill-rule="evenodd"/><path fill="#008ab0" d="M 31.742188 109.734375 C 28.800781 109.734375 26.652344 106.859375 27.554688 104.011719 L 37.542969 72.492188 C 37.972656 71.128906 39.042969 70.058594 40.40625 69.628906 L 71.875 59.691406 C 75.257812 58.625 78.457031 61.820312 77.390625 65.203125 L 67.453125 96.675781 C 67.019531 98.039062 65.953125 99.105469 64.589844 99.539062 Z M 45.226562 77.320312 L 38.484375 98.59375 L 59.757812 91.855469 L 66.46875 70.613281 L 45.230469 77.320312 Z M 45.226562 77.320312 " fill-opacity="1" fill-rule="evenodd"/><path fill="#008ab0" d="M 110.898438 147.628906 C 109.773438 147.628906 108.648438 147.199219 107.792969 146.339844 L 91.824219 130.371094 C 87.730469 126.285156 93.949219 120.070312 98.035156 124.160156 L 114.003906 140.128906 C 116.78125 142.90625 114.769531 147.628906 110.898438 147.628906 Z M 110.898438 147.628906 " fill-opacity="1" fill-rule="evenodd"/><path fill="#008ab0" d="M 73.203125 320.042969 C 69.328125 320.042969 67.316406 315.316406 70.097656 312.539062 L 90.570312 292.066406 L 84.464844 269.140625 L 66.347656 287.257812 C 62.253906 291.351562 56.050781 285.125 60.136719 281.042969 L 78.253906 262.925781 L 55.324219 256.816406 L 34.851562 277.292969 C 30.753906 281.386719 24.550781 275.160156 28.640625 271.078125 L 50.902344 248.816406 C 52.011719 247.710938 53.628906 247.277344 55.140625 247.675781 L 88.691406 256.707031 L 90.992188 259.515625 L 99.714844 292.25 C 100.113281 293.765625 99.683594 295.382812 98.570312 296.492188 L 76.308594 318.757812 C 75.449219 319.609375 74.328125 320.042969 73.203125 320.042969 Z M 73.203125 320.042969 " fill-opacity="1" fill-rule="evenodd"/><path fill="#008ab0" d="M 73.203125 320.042969 L 40.40625 309.902344 C 39.042969 309.46875 37.976562 308.402344 37.542969 307.039062 C 23.046875 261.289062 18.796875 265.460938 64.589844 279.992188 C 65.953125 280.429688 67.019531 281.492188 67.453125 282.859375 L 77.390625 314.324219 C 78.289062 317.164062 76.140625 320.042969 73.203125 320.042969 Z M 45.226562 302.210938 L 66.464844 308.917969 L 59.757812 287.679688 L 38.484375 280.9375 L 45.222656 302.210938 Z M 45.226562 302.210938 " fill-opacity="1" fill-rule="evenodd"/><path fill="#008ab0" d="M 94.929688 256.65625 C 91.058594 256.65625 89.046875 251.929688 91.824219 249.15625 L 107.792969 233.1875 C 111.890625 229.089844 118.09375 235.316406 114.003906 239.402344 L 98.035156 255.371094 C 97.175781 256.230469 96.054688 256.65625 94.929688 256.65625 Z M 94.929688 256.65625 " fill-opacity="1" fill-rule="evenodd"/><path fill="#008ab0" d="M 226.167969 359.757812 C 223.742188 359.757812 221.777344 357.789062 221.777344 355.367188 L 221.777344 326.414062 L 201.246094 314.519531 L 201.246094 340.140625 C 201.246094 345.921875 192.460938 345.921875 192.460938 340.140625 L 192.460938 314.519531 L 171.933594 326.414062 L 171.933594 355.367188 C 171.933594 361.148438 163.148438 361.148438 163.148438 355.367188 L 163.148438 323.882812 C 163.148438 322.316406 163.980469 320.871094 165.339844 320.082031 L 194.742188 303.046875 L 199.128906 303.140625 L 228.375 320.082031 C 229.730469 320.871094 230.566406 322.316406 230.566406 323.882812 L 230.566406 355.371094 C 230.5625 357.792969 228.589844 359.757812 226.164062 359.757812 Z M 226.167969 359.757812 " fill-opacity="1" fill-rule="evenodd"/><path fill="#008ab0" d="M 196.816406 374.988281 L 165.507812 359.261719 C 162.359375 357.628906 162.367188 353.105469 165.507812 351.472656 L 194.789062 336.25 C 196.050781 335.589844 197.5625 335.585938 198.835938 336.242188 L 228.1875 351.464844 C 231.34375 353.101562 231.339844 357.628906 228.1875 359.261719 L 196.8125 374.988281 Z M 177.054688 355.367188 L 196.820312 365.644531 L 216.632812 355.367188 L 196.820312 345.09375 Z M 177.054688 355.367188 " fill-opacity="1" fill-rule="evenodd"/><path fill="#008ab0" d="M 196.992188 299.578125 C 194.566406 299.578125 192.597656 297.609375 192.597656 295.1875 L 192.597656 272.601562 C 192.597656 266.816406 201.382812 266.820312 201.382812 272.601562 L 201.382812 295.1875 C 201.382812 297.609375 199.414062 299.578125 196.992188 299.578125 Z M 196.992188 299.578125 " fill-opacity="1" fill-rule="evenodd"/></svg>