<svg xmlns="http://www.w3.org/2000/svg" xmlns:xlink="http://www.w3.org/1999/xlink" width="500" zoomAndPan="magnify" viewBox="0 0 375 374.999991" height="500" preserveAspectRatio="xMidYMid meet" version="1.0"><path fill="#008ab0" d="M 177.171875 55.0625 C 184.949219 49.230469 189.785156 41.125 189.785156 32.152344 C 189.785156 14.394531 170.882812 0 147.566406 0 C 124.246094 0 105.34375 14.394531 105.34375 32.152344 C 105.34375 49.910156 124.246094 64.308594 147.566406 64.308594 C 150.492188 64.308594 153.347656 64.078125 156.105469 63.648438 C 168.863281 73.765625 198.617188 73.382812 198.617188 73.382812 C 186.886719 69.003906 180.289062 60.367188 177.171875 55.0625 Z M 132.816406 34.304688 C 132.816406 36.15625 131.320312 37.65625 129.46875 37.65625 C 127.617188 37.65625 126.121094 36.15625 126.121094 34.304688 L 126.121094 27.871094 C 126.121094 26.019531 127.617188 24.523438 129.46875 24.523438 C 131.320312 24.523438 132.816406 26.019531 132.816406 27.871094 Z M 150.898438 34.304688 C 150.898438 36.15625 149.402344 37.65625 147.550781 37.65625 C 145.699219 37.65625 144.203125 36.15625 144.203125 34.304688 L 144.203125 27.871094 C 144.203125 26.019531 145.699219 24.523438 147.550781 24.523438 C 149.402344 24.523438 150.898438 26.019531 150.898438 27.871094 Z M 168.988281 34.304688 C 168.988281 36.15625 167.488281 37.65625 165.636719 37.65625 C 163.789062 37.65625 162.289062 36.15625 162.289062 34.304688 L 162.289062 27.871094 C 162.289062 26.019531 163.789062 24.523438 165.636719 24.523438 C 167.488281 24.523438 168.988281 26.019531 168.988281 27.871094 Z M 168.988281 34.304688 " fill-opacity="1" fill-rule="nonzero"/><path fill="#008ab0" d="M 85.191406 311.886719 L 40.179688 311.886719 C 38.328125 311.886719 36.832031 313.386719 36.832031 315.234375 L 36.832031 371.652344 C 36.832031 373.503906 38.328125 375 40.179688 375 L 85.191406 375 C 87.039062 375 88.539062 373.503906 88.539062 371.652344 L 88.539062 315.234375 C 88.539062 313.386719 87.039062 311.886719 85.191406 311.886719 Z M 81.839844 368.304688 L 43.527344 368.304688 L 43.527344 318.582031 L 81.839844 318.582031 Z M 81.839844 368.304688 " fill-opacity="1" fill-rule="nonzero"/><path fill="#008ab0" d="M 168.398438 280.980469 L 123.386719 280.980469 C 121.535156 280.980469 120.039062 282.480469 120.039062 284.332031 L 120.039062 371.652344 C 120.039062 373.503906 121.535156 375 123.386719 375 L 168.398438 375 C 170.25 375 171.746094 373.503906 171.746094 371.652344 L 171.746094 284.332031 C 171.746094 282.480469 170.25 280.980469 168.398438 280.980469 Z M 165.050781 368.304688 L 126.734375 368.304688 L 126.734375 287.679688 L 165.050781 287.679688 Z M 165.050781 368.304688 " fill-opacity="1" fill-rule="nonzero"/><path fill="#008ab0" d="M 251.613281 226.769531 L 206.601562 226.769531 C 204.75 226.769531 203.253906 228.265625 203.253906 230.117188 L 203.253906 371.652344 C 203.253906 373.503906 204.75 375 206.601562 375 L 251.613281 375 C 253.464844 375 254.960938 373.503906 254.960938 371.652344 L 254.960938 230.117188 C 254.960938 228.265625 253.464844 226.769531 251.613281 226.769531 Z M 248.265625 368.304688 L 209.949219 368.304688 L 209.949219 233.464844 L 248.265625 233.464844 Z M 248.265625 368.304688 " fill-opacity="1" fill-rule="nonzero"/><path fill="#008ab0" d="M 334.820312 216.246094 L 289.808594 216.246094 C 287.960938 216.246094 286.460938 217.746094 286.460938 219.597656 L 286.460938 371.652344 C 286.460938 373.503906 287.960938 375 289.808594 375 L 334.820312 375 C 336.671875 375 338.167969 373.503906 338.167969 371.652344 L 338.167969 219.597656 C 338.167969 217.746094 336.671875 216.246094 334.820312 216.246094 Z M 331.472656 368.304688 L 293.160156 368.304688 L 293.160156 222.945312 L 331.472656 222.945312 Z M 331.472656 368.304688 " fill-opacity="1" fill-rule="nonzero"/><path fill="#008ab0" d="M 166.304688 130.660156 C 166.304688 131.269531 166.277344 131.878906 166.214844 132.484375 C 166.15625 133.09375 166.066406 133.695312 165.949219 134.292969 C 165.828125 134.890625 165.679688 135.480469 165.503906 136.066406 C 165.328125 136.648438 165.121094 137.222656 164.890625 137.785156 C 164.65625 138.347656 164.394531 138.898438 164.109375 139.4375 C 163.820312 139.972656 163.507812 140.496094 163.167969 141.003906 C 162.828125 141.511719 162.46875 142 162.082031 142.46875 C 161.691406 142.941406 161.285156 143.394531 160.851562 143.824219 C 160.421875 144.253906 159.972656 144.664062 159.5 145.050781 C 159.027344 145.4375 158.539062 145.800781 158.03125 146.140625 C 157.523438 146.476562 157.003906 146.792969 156.464844 147.078125 C 155.925781 147.367188 155.378906 147.625 154.8125 147.859375 C 154.25 148.09375 153.675781 148.296875 153.09375 148.476562 C 152.511719 148.652344 151.917969 148.800781 151.320312 148.917969 C 150.722656 149.039062 150.121094 149.128906 149.515625 149.1875 C 148.90625 149.246094 148.300781 149.277344 147.691406 149.277344 C 147.078125 149.277344 146.472656 149.246094 145.863281 149.1875 C 145.257812 149.128906 144.65625 149.039062 144.058594 148.917969 C 143.460938 148.800781 142.871094 148.652344 142.285156 148.476562 C 141.703125 148.296875 141.128906 148.09375 140.566406 147.859375 C 140.003906 147.625 139.453125 147.367188 138.914062 147.078125 C 138.375 146.792969 137.855469 146.476562 137.347656 146.140625 C 136.839844 145.800781 136.351562 145.4375 135.878906 145.050781 C 135.410156 144.664062 134.957031 144.253906 134.527344 143.824219 C 134.09375 143.394531 133.6875 142.941406 133.300781 142.46875 C 132.914062 142 132.550781 141.511719 132.210938 141.003906 C 131.871094 140.496094 131.558594 139.972656 131.273438 139.4375 C 130.984375 138.898438 130.722656 138.347656 130.492188 137.785156 C 130.257812 137.222656 130.050781 136.648438 129.875 136.066406 C 129.699219 135.480469 129.550781 134.890625 129.429688 134.292969 C 129.3125 133.695312 129.222656 133.09375 129.164062 132.484375 C 129.105469 131.878906 129.074219 131.269531 129.074219 130.660156 C 129.074219 130.050781 129.105469 129.441406 129.164062 128.835938 C 129.222656 128.230469 129.3125 127.625 129.429688 127.027344 C 129.550781 126.429688 129.699219 125.839844 129.875 125.257812 C 130.050781 124.671875 130.257812 124.101562 130.492188 123.535156 C 130.722656 122.972656 130.984375 122.421875 131.273438 121.886719 C 131.558594 121.347656 131.871094 120.824219 132.210938 120.316406 C 132.550781 119.8125 132.914062 119.320312 133.300781 118.851562 C 133.6875 118.378906 134.09375 117.929688 134.527344 117.496094 C 134.957031 117.066406 135.410156 116.65625 135.878906 116.269531 C 136.351562 115.882812 136.839844 115.519531 137.347656 115.183594 C 137.855469 114.84375 138.375 114.53125 138.914062 114.242188 C 139.453125 113.957031 140.003906 113.695312 140.566406 113.460938 C 141.128906 113.226562 141.703125 113.023438 142.285156 112.847656 C 142.871094 112.667969 143.460938 112.519531 144.058594 112.402344 C 144.65625 112.285156 145.257812 112.195312 145.863281 112.132812 C 146.472656 112.074219 147.078125 112.042969 147.691406 112.042969 C 148.300781 112.042969 148.90625 112.074219 149.515625 112.132812 C 150.121094 112.195312 150.722656 112.285156 151.320312 112.402344 C 151.917969 112.519531 152.511719 112.667969 153.09375 112.847656 C 153.675781 113.023438 154.25 113.226562 154.8125 113.460938 C 155.378906 113.695312 155.925781 113.957031 156.464844 114.242188 C 157.003906 114.53125 157.523438 114.84375 158.03125 115.183594 C 158.539062 115.519531 159.027344 115.882812 159.5 116.269531 C 159.972656 116.65625 160.421875 117.066406 160.851562 117.496094 C 161.285156 117.929688 161.691406 118.378906 162.082031 118.851562 C 162.46875 119.320312 162.828125 119.8125 163.167969 120.316406 C 163.507812 120.824219 163.820312 121.347656 164.109375 121.886719 C 164.394531 122.421875 164.65625 122.972656 164.890625 123.535156 C 165.121094 124.101562 165.328125 124.671875 165.503906 125.257812 C 165.679688 125.839844 165.828125 126.429688 165.949219 127.027344 C 166.066406 127.625 166.15625 128.230469 166.214844 128.835938 C 166.277344 129.441406 166.304688 130.050781 166.304688 130.660156 Z M 166.304688 130.660156 " fill-opacity="1" fill-rule="nonzero"/><path fill="#008ab0" d="M 201.707031 157.136719 C 198.894531 152.675781 192.957031 151.320312 188.453125 154.09375 L 154.054688 175.386719 L 135.097656 152.953125 C 134.917969 152.738281 134.703125 152.574219 134.511719 152.382812 C 134.378906 152.246094 134.242188 152.121094 134.105469 151.992188 C 133.871094 151.78125 133.632812 151.578125 133.382812 151.398438 C 132.414062 150.601562 131.355469 149.894531 130.128906 149.394531 C 123.570312 146.738281 116.089844 149.796875 113.375 156.269531 L 88.421875 215.425781 C 88.210938 215.925781 69.550781 268.332031 69.550781 268.332031 L 50.632812 295.328125 C 46.589844 301.097656 48.066406 309.019531 53.902344 313.011719 C 56.144531 314.53125 58.648438 315.230469 61.210938 315.230469 C 65.253906 315.230469 69.230469 313.328125 71.730469 309.777344 L 91.675781 281.257812 C 92.378906 280.246094 92.957031 279.167969 93.34375 278.027344 C 93.34375 278.027344 107.195312 241.289062 109.667969 234.402344 L 131.015625 237.433594 L 133.714844 272.613281 C 134.222656 279.265625 139.84375 284.328125 146.488281 284.328125 C 146.816406 284.328125 147.140625 284.316406 147.472656 284.289062 C 154.535156 283.765625 159.828125 277.675781 159.289062 270.695312 L 155.816406 225.378906 C 155.363281 219.453125 150.804688 214.632812 144.847656 213.792969 L 118.433594 210.039062 L 131.726562 178.621094 L 144.648438 193.917969 C 146.535156 196.152344 149.265625 197.332031 152.039062 197.332031 C 153.78125 197.332031 155.546875 196.863281 157.117188 195.898438 L 198.625 170.234375 C 203.132812 167.460938 204.511719 161.59375 201.707031 157.136719 Z M 201.707031 157.136719 " fill-opacity="1" fill-rule="nonzero"/><path fill="#008ab0" d="M 229.472656 82.21875 C 239.753906 82.21875 248.089844 73.882812 248.089844 63.601562 C 248.089844 53.320312 239.753906 44.984375 229.472656 44.984375 C 219.191406 44.984375 210.855469 53.320312 210.855469 63.601562 C 210.855469 73.882812 219.191406 82.21875 229.472656 82.21875 Z M 229.472656 82.21875 " fill-opacity="1" fill-rule="nonzero"/><path fill="#008ab0" d="M 317.671875 202.738281 L 304.203125 163.632812 L 302.085938 129.535156 C 302.089844 129.558594 301.753906 126.175781 300.265625 124.015625 L 271.808594 78.328125 C 268.09375 72.367188 260.191406 70.503906 254.160156 74.183594 C 253.164062 74.789062 250.339844 77.089844 249.265625 79.535156 L 228.679688 126.601562 L 204.417969 145.40625 C 200.242188 148.648438 199.507812 154.621094 202.785156 158.753906 C 204.679688 161.144531 207.507812 162.394531 210.363281 162.394531 C 212.441406 162.394531 214.53125 161.730469 216.292969 160.371094 L 242.476562 140.078125 C 243.734375 139.097656 244.730469 137.824219 245.371094 136.363281 L 258.761719 105.746094 L 272.742188 128.195312 L 237.328125 158.890625 C 235.304688 160.648438 233.886719 162.996094 233.285156 165.59375 L 221.929688 214.617188 C 220.347656 221.4375 224.660156 228.238281 231.570312 229.796875 C 232.535156 230.019531 233.492188 230.121094 234.441406 230.121094 C 240.285156 230.121094 245.570312 226.148438 246.929688 220.273438 L 257.367188 175.25 L 278.101562 157.277344 L 278.679688 166.867188 C 278.742188 168.007812 279 169.148438 279.320312 170.222656 L 293.429688 210.976562 C 295.226562 216.234375 300.226562 219.53125 305.550781 219.53125 C 306.894531 219.53125 308.308594 219.339844 309.71875 218.832031 C 316.386719 216.617188 319.980469 209.390625 317.671875 202.738281 Z M 317.671875 202.738281 " fill-opacity="1" fill-rule="nonzero"/></svg>