<svg xmlns="http://www.w3.org/2000/svg" xmlns:xlink="http://www.w3.org/1999/xlink" width="750" zoomAndPan="magnify" viewBox="0 0 562.5 562.499982" height="750" preserveAspectRatio="xMidYMid meet" version="1.0"><defs><clipPath id="7a734e1973"><path d="M 53 453 L 129 453 L 129 544.765625 L 53 544.765625 Z M 53 453 " clip-rule="nonzero"/></clipPath><clipPath id="1c7bf61d80"><path d="M 174 408 L 250 408 L 250 544.765625 L 174 544.765625 Z M 174 408 " clip-rule="nonzero"/></clipPath><clipPath id="355a4a138e"><path d="M 295 329 L 371 329 L 371 544.765625 L 295 544.765625 Z M 295 329 " clip-rule="nonzero"/></clipPath><clipPath id="478ea5b747"><path d="M 416 314 L 492 314 L 492 544.765625 L 416 544.765625 Z M 416 314 " clip-rule="nonzero"/></clipPath><clipPath id="bad5c443ce"><path d="M 170 17.425781 L 306 17.425781 L 306 124 L 170 124 Z M 170 17.425781 " clip-rule="nonzero"/></clipPath></defs><path fill="#000000" d="M 257.375 79.988281 C 268.679688 71.515625 275.703125 59.742188 275.703125 46.710938 C 275.703125 20.914062 248.242188 0 214.371094 0 C 180.496094 0 153.035156 20.914062 153.035156 46.710938 C 153.035156 72.507812 180.496094 93.421875 214.371094 93.421875 C 218.621094 93.421875 222.769531 93.089844 226.777344 92.460938 C 245.3125 107.160156 288.53125 106.605469 288.53125 106.605469 C 271.496094 100.242188 261.90625 87.695312 257.375 79.988281 Z M 192.945312 49.835938 C 192.945312 52.523438 190.769531 54.699219 188.082031 54.699219 C 185.390625 54.699219 183.214844 52.523438 183.214844 49.835938 L 183.214844 40.488281 C 183.214844 37.800781 185.390625 35.625 188.082031 35.625 C 190.769531 35.625 192.945312 37.800781 192.945312 40.488281 Z M 219.210938 49.835938 C 219.210938 52.523438 217.035156 54.699219 214.347656 54.699219 C 211.660156 54.699219 209.484375 52.523438 209.484375 49.835938 L 209.484375 40.488281 C 209.484375 37.800781 211.660156 35.625 214.347656 35.625 C 217.035156 35.625 219.210938 37.800781 219.210938 40.488281 Z M 245.488281 49.835938 C 245.488281 52.523438 243.3125 54.699219 240.625 54.699219 C 237.9375 54.699219 235.761719 52.523438 235.761719 49.835938 L 235.761719 40.488281 C 235.761719 37.800781 237.9375 35.625 240.625 35.625 C 243.3125 35.625 245.488281 37.800781 245.488281 40.488281 Z M 245.488281 49.835938 " fill-opacity="1" fill-rule="nonzero"/><g clip-path="url(#7a734e1973)"><path fill="#000000" d="M 123.757812 453.082031 L 58.367188 453.082031 C 55.679688 453.082031 53.503906 455.257812 53.503906 457.945312 L 53.503906 539.902344 C 53.503906 542.589844 55.679688 544.765625 58.367188 544.765625 L 123.757812 544.765625 C 126.445312 544.765625 128.621094 542.589844 128.621094 539.902344 L 128.621094 457.945312 C 128.621094 455.257812 126.445312 453.082031 123.757812 453.082031 Z M 118.890625 535.039062 L 63.230469 535.039062 L 63.230469 462.808594 L 118.890625 462.808594 Z M 118.890625 535.039062 " fill-opacity="1" fill-rule="nonzero"/></g><g clip-path="url(#1c7bf61d80)"><path fill="#000000" d="M 244.632812 408.183594 L 179.246094 408.183594 C 176.558594 408.183594 174.382812 410.359375 174.382812 413.046875 L 174.382812 539.902344 C 174.382812 542.589844 176.558594 544.765625 179.246094 544.765625 L 244.632812 544.765625 C 247.320312 544.765625 249.496094 542.589844 249.496094 539.902344 L 249.496094 413.046875 C 249.496094 410.359375 247.320312 408.183594 244.632812 408.183594 Z M 239.769531 535.039062 L 184.109375 535.039062 L 184.109375 417.914062 L 239.769531 417.914062 Z M 239.769531 535.039062 " fill-opacity="1" fill-rule="nonzero"/></g><g clip-path="url(#355a4a138e)"><path fill="#000000" d="M 365.519531 329.429688 L 300.132812 329.429688 C 297.445312 329.429688 295.269531 331.605469 295.269531 334.292969 L 295.269531 539.902344 C 295.269531 542.589844 297.445312 544.765625 300.132812 544.765625 L 365.519531 544.765625 C 368.207031 544.765625 370.382812 542.589844 370.382812 539.902344 L 370.382812 334.292969 C 370.382812 331.605469 368.207031 329.429688 365.519531 329.429688 Z M 360.65625 535.039062 L 304.996094 535.039062 L 304.996094 339.15625 L 360.65625 339.15625 Z M 360.65625 535.039062 " fill-opacity="1" fill-rule="nonzero"/></g><g clip-path="url(#478ea5b747)"><path fill="#000000" d="M 486.398438 314.144531 L 421.007812 314.144531 C 418.320312 314.144531 416.144531 316.320312 416.144531 319.007812 L 416.144531 539.902344 C 416.144531 542.589844 418.320312 544.765625 421.007812 544.765625 L 486.398438 544.765625 C 489.085938 544.765625 491.261719 542.589844 491.261719 539.902344 L 491.261719 319.007812 C 491.261719 316.320312 489.085938 314.144531 486.398438 314.144531 Z M 481.535156 535.039062 L 425.875 535.039062 L 425.875 323.871094 L 481.535156 323.871094 Z M 481.535156 535.039062 " fill-opacity="1" fill-rule="nonzero"/></g><path fill="#000000" d="M 241.59375 189.8125 C 241.59375 190.699219 241.550781 191.582031 241.464844 192.460938 C 241.375 193.34375 241.246094 194.21875 241.074219 195.085938 C 240.902344 195.957031 240.6875 196.816406 240.429688 197.664062 C 240.171875 198.511719 239.875 199.34375 239.535156 200.160156 C 239.195312 200.980469 238.816406 201.777344 238.402344 202.558594 C 237.984375 203.339844 237.527344 204.101562 237.035156 204.835938 C 236.542969 205.574219 236.015625 206.285156 235.457031 206.96875 C 234.894531 207.652344 234.300781 208.308594 233.671875 208.933594 C 233.046875 209.5625 232.390625 210.15625 231.707031 210.71875 C 231.023438 211.277344 230.3125 211.804688 229.574219 212.296875 C 228.839844 212.789062 228.078125 213.246094 227.296875 213.664062 C 226.515625 214.078125 225.71875 214.457031 224.898438 214.796875 C 224.082031 215.136719 223.25 215.433594 222.402344 215.691406 C 221.554688 215.949219 220.695312 216.164062 219.824219 216.335938 C 218.957031 216.507812 218.082031 216.636719 217.199219 216.726562 C 216.320312 216.8125 215.4375 216.855469 214.550781 216.855469 C 213.664062 216.855469 212.78125 216.8125 211.898438 216.726562 C 211.019531 216.636719 210.144531 216.507812 209.273438 216.335938 C 208.40625 216.164062 207.546875 215.949219 206.699219 215.691406 C 205.851562 215.433594 205.019531 215.136719 204.199219 214.796875 C 203.382812 214.457031 202.582031 214.078125 201.800781 213.664062 C 201.019531 213.246094 200.261719 212.789062 199.527344 212.296875 C 198.789062 211.804688 198.078125 211.277344 197.394531 210.71875 C 196.710938 210.15625 196.054688 209.5625 195.425781 208.933594 C 194.800781 208.308594 194.207031 207.652344 193.644531 206.96875 C 193.082031 206.285156 192.554688 205.574219 192.0625 204.835938 C 191.570312 204.101562 191.117188 203.339844 190.699219 202.558594 C 190.28125 201.777344 189.902344 200.980469 189.566406 200.160156 C 189.226562 199.34375 188.929688 198.511719 188.671875 197.664062 C 188.414062 196.816406 188.199219 195.957031 188.027344 195.085938 C 187.851562 194.21875 187.722656 193.34375 187.636719 192.460938 C 187.550781 191.582031 187.507812 190.699219 187.507812 189.8125 C 187.507812 188.925781 187.550781 188.042969 187.636719 187.160156 C 187.722656 186.28125 187.851562 185.40625 188.027344 184.535156 C 188.199219 183.667969 188.414062 182.808594 188.671875 181.960938 C 188.929688 181.113281 189.226562 180.28125 189.566406 179.460938 C 189.902344 178.644531 190.28125 177.84375 190.699219 177.0625 C 191.117188 176.28125 191.570312 175.523438 192.0625 174.789062 C 192.554688 174.050781 193.082031 173.339844 193.644531 172.65625 C 194.207031 171.972656 194.800781 171.316406 195.425781 170.6875 C 196.054688 170.0625 196.710938 169.46875 197.394531 168.90625 C 198.078125 168.34375 198.789062 167.816406 199.527344 167.324219 C 200.261719 166.832031 201.019531 166.378906 201.800781 165.960938 C 202.582031 165.542969 203.382812 165.164062 204.199219 164.828125 C 205.019531 164.488281 205.851562 164.191406 206.699219 163.933594 C 207.546875 163.675781 208.40625 163.460938 209.273438 163.289062 C 210.144531 163.113281 211.019531 162.984375 211.898438 162.898438 C 212.78125 162.8125 213.664062 162.769531 214.550781 162.769531 C 215.4375 162.769531 216.320312 162.8125 217.199219 162.898438 C 218.082031 162.984375 218.957031 163.113281 219.824219 163.289062 C 220.695312 163.460938 221.554688 163.675781 222.402344 163.933594 C 223.25 164.191406 224.082031 164.488281 224.898438 164.828125 C 225.71875 165.164062 226.515625 165.542969 227.296875 165.960938 C 228.078125 166.378906 228.839844 166.832031 229.574219 167.324219 C 230.3125 167.816406 231.023438 168.34375 231.707031 168.90625 C 232.390625 169.46875 233.046875 170.0625 233.671875 170.6875 C 234.300781 171.316406 234.894531 171.972656 235.457031 172.65625 C 236.015625 173.339844 236.542969 174.050781 237.035156 174.789062 C 237.527344 175.523438 237.984375 176.28125 238.402344 177.0625 C 238.816406 177.84375 239.195312 178.644531 239.535156 179.460938 C 239.875 180.28125 240.171875 181.113281 240.429688 181.960938 C 240.6875 182.808594 240.902344 183.667969 241.074219 184.535156 C 241.246094 185.40625 241.375 186.28125 241.464844 187.160156 C 241.550781 188.042969 241.59375 188.925781 241.59375 189.8125 Z M 241.59375 189.8125 " fill-opacity="1" fill-rule="nonzero"/><path fill="#000000" d="M 293.019531 228.273438 C 288.9375 221.792969 280.3125 219.824219 273.769531 223.851562 L 223.800781 254.785156 L 196.257812 222.195312 C 195.996094 221.882812 195.6875 221.648438 195.402344 221.367188 C 195.214844 221.167969 195.015625 220.988281 194.816406 220.796875 C 194.472656 220.496094 194.128906 220.203125 193.765625 219.9375 C 192.359375 218.78125 190.820312 217.753906 189.039062 217.027344 C 179.511719 213.167969 168.640625 217.613281 164.703125 227.015625 L 128.449219 312.949219 C 128.148438 313.675781 101.035156 389.804688 101.035156 389.804688 L 73.554688 429.027344 C 67.683594 437.40625 69.824219 448.914062 78.304688 454.714844 C 81.5625 456.921875 85.199219 457.933594 88.925781 457.933594 C 94.792969 457.933594 100.570312 455.175781 104.203125 450.019531 L 133.175781 408.589844 C 134.203125 407.113281 135.039062 405.550781 135.597656 403.894531 C 135.597656 403.894531 155.722656 350.523438 159.3125 340.519531 L 190.324219 344.921875 L 194.246094 396.027344 C 194.984375 405.691406 203.152344 413.046875 212.808594 413.046875 C 213.28125 413.046875 213.753906 413.027344 214.234375 412.992188 C 224.496094 412.226562 232.183594 403.378906 231.402344 393.238281 L 226.351562 327.40625 C 225.699219 318.804688 219.074219 311.800781 210.421875 310.578125 L 172.046875 305.128906 L 191.359375 259.484375 L 210.132812 281.707031 C 212.871094 284.953125 216.839844 286.667969 220.871094 286.667969 C 223.398438 286.667969 225.964844 285.984375 228.246094 284.582031 L 288.542969 247.296875 C 295.09375 243.269531 297.097656 234.746094 293.019531 228.273438 Z M 293.019531 228.273438 " fill-opacity="1" fill-rule="nonzero"/><path fill="#000000" d="M 333.359375 119.441406 C 348.296875 119.441406 360.402344 107.332031 360.402344 92.394531 C 360.402344 77.460938 348.296875 65.351562 333.359375 65.351562 C 318.421875 65.351562 306.3125 77.460938 306.3125 92.394531 C 306.3125 107.332031 318.421875 119.441406 333.359375 119.441406 Z M 333.359375 119.441406 " fill-opacity="1" fill-rule="nonzero"/><path fill="#000000" d="M 461.484375 294.515625 L 441.917969 237.710938 L 438.84375 188.179688 C 438.847656 188.210938 438.359375 183.296875 436.199219 180.160156 L 394.859375 113.789062 C 389.464844 105.128906 377.984375 102.425781 369.222656 107.765625 C 367.773438 108.644531 363.671875 111.992188 362.109375 115.539062 L 332.207031 183.917969 L 296.960938 211.230469 C 290.890625 215.941406 289.828125 224.617188 294.585938 230.625 C 297.34375 234.09375 301.445312 235.910156 305.59375 235.910156 C 308.613281 235.910156 311.652344 234.949219 314.210938 232.972656 L 352.25 203.492188 C 354.078125 202.070312 355.523438 200.21875 356.453125 198.09375 L 375.902344 153.617188 L 396.214844 186.226562 L 344.765625 230.824219 C 341.828125 233.378906 339.769531 236.785156 338.898438 240.5625 L 322.398438 311.773438 C 320.097656 321.683594 326.367188 331.5625 336.402344 333.828125 C 337.804688 334.152344 339.195312 334.296875 340.578125 334.296875 C 349.066406 334.296875 356.746094 328.523438 358.71875 319.992188 L 373.878906 254.585938 L 404 228.476562 L 404.839844 242.40625 C 404.933594 244.0625 405.304688 245.722656 405.769531 247.285156 L 426.265625 306.484375 C 428.875 314.128906 436.140625 318.914062 443.875 318.914062 C 445.832031 318.914062 447.878906 318.636719 449.929688 317.902344 C 459.617188 314.679688 464.835938 304.183594 461.484375 294.515625 Z M 461.484375 294.515625 " fill-opacity="1" fill-rule="nonzero"/><g clip-path="url(#bad5c443ce)"><path fill="#008ab0" d="M 274.707031 97.386719 C 286.007812 88.917969 293.027344 77.148438 293.027344 64.121094 C 293.027344 38.332031 265.578125 17.425781 231.71875 17.425781 C 197.855469 17.425781 170.40625 38.332031 170.40625 64.121094 C 170.40625 89.90625 197.855469 110.8125 231.71875 110.8125 C 235.964844 110.8125 240.113281 110.480469 244.121094 109.855469 C 262.648438 124.546875 305.851562 123.992188 305.851562 123.992188 C 288.820312 117.632812 279.238281 105.089844 274.707031 97.386719 Z M 210.300781 67.246094 C 210.300781 69.933594 208.125 72.105469 205.4375 72.105469 C 202.75 72.105469 200.574219 69.933594 200.574219 67.246094 L 200.574219 57.902344 C 200.574219 55.214844 202.75 53.039062 205.4375 53.039062 C 208.125 53.039062 210.300781 55.214844 210.300781 57.902344 Z M 236.558594 67.246094 C 236.558594 69.933594 234.382812 72.105469 231.695312 72.105469 C 229.007812 72.105469 226.832031 69.933594 226.832031 67.246094 L 226.832031 57.902344 C 226.832031 55.214844 229.007812 53.039062 231.695312 53.039062 C 234.382812 53.039062 236.558594 55.214844 236.558594 57.902344 Z M 262.824219 67.246094 C 262.824219 69.933594 260.652344 72.105469 257.964844 72.105469 C 255.277344 72.105469 253.101562 69.933594 253.101562 67.246094 L 253.101562 57.902344 C 253.101562 55.214844 255.277344 53.039062 257.964844 53.039062 C 260.652344 53.039062 262.824219 55.214844 262.824219 57.902344 Z M 262.824219 67.246094 " fill-opacity="1" fill-rule="nonzero"/></g><path fill="#008ab0" d="M 141.136719 470.34375 L 75.773438 470.34375 C 73.085938 470.34375 70.910156 472.515625 70.910156 475.203125 L 70.910156 557.132812 C 70.910156 559.820312 73.085938 561.992188 75.773438 561.992188 L 141.136719 561.992188 C 143.824219 561.992188 146 559.820312 146 557.132812 L 146 475.203125 C 146 472.515625 143.824219 470.34375 141.136719 470.34375 Z M 136.273438 552.269531 L 80.636719 552.269531 L 80.636719 480.066406 L 136.273438 480.066406 Z M 136.273438 552.269531 " fill-opacity="1" fill-rule="nonzero"/><path fill="#008ab0" d="M 261.96875 425.460938 L 196.605469 425.460938 C 193.917969 425.460938 191.742188 427.636719 191.742188 430.324219 L 191.742188 557.132812 C 191.742188 559.820312 193.917969 561.992188 196.605469 561.992188 L 261.96875 561.992188 C 264.65625 561.992188 266.832031 559.820312 266.832031 557.132812 L 266.832031 430.324219 C 266.832031 427.636719 264.65625 425.460938 261.96875 425.460938 Z M 257.109375 552.269531 L 201.46875 552.269531 L 201.46875 435.1875 L 257.109375 435.1875 Z M 257.109375 552.269531 " fill-opacity="1" fill-rule="nonzero"/><path fill="#008ab0" d="M 382.8125 346.734375 L 317.449219 346.734375 C 314.761719 346.734375 312.585938 348.910156 312.585938 351.597656 L 312.585938 557.132812 C 312.585938 559.820312 314.761719 561.992188 317.449219 561.992188 L 382.8125 561.992188 C 385.5 561.992188 387.675781 559.820312 387.675781 557.132812 L 387.675781 351.597656 C 387.675781 348.910156 385.5 346.734375 382.8125 346.734375 Z M 377.949219 552.269531 L 322.3125 552.269531 L 322.3125 356.460938 L 377.949219 356.460938 Z M 377.949219 552.269531 " fill-opacity="1" fill-rule="nonzero"/><path fill="#008ab0" d="M 503.648438 331.457031 L 438.28125 331.457031 C 435.59375 331.457031 433.421875 333.632812 433.421875 336.320312 L 433.421875 557.132812 C 433.421875 559.820312 435.59375 561.992188 438.28125 561.992188 L 503.648438 561.992188 C 506.335938 561.992188 508.507812 559.820312 508.507812 557.132812 L 508.507812 336.320312 C 508.507812 333.632812 506.335938 331.457031 503.648438 331.457031 Z M 498.785156 552.269531 L 443.144531 552.269531 L 443.144531 341.179688 L 498.785156 341.179688 Z M 498.785156 552.269531 " fill-opacity="1" fill-rule="nonzero"/><path fill="#008ab0" d="M 258.933594 207.167969 C 258.933594 208.054688 258.886719 208.9375 258.800781 209.820312 C 258.714844 210.699219 258.585938 211.574219 258.414062 212.441406 C 258.238281 213.3125 258.023438 214.167969 257.769531 215.015625 C 257.511719 215.863281 257.214844 216.695312 256.875 217.515625 C 256.535156 218.332031 256.15625 219.132812 255.738281 219.914062 C 255.324219 220.695312 254.867188 221.453125 254.375 222.1875 C 253.882812 222.925781 253.355469 223.632812 252.796875 224.320312 C 252.234375 225.003906 251.640625 225.660156 251.015625 226.285156 C 250.386719 226.910156 249.734375 227.503906 249.046875 228.066406 C 248.363281 228.628906 247.652344 229.15625 246.917969 229.648438 C 246.179688 230.136719 245.421875 230.59375 244.640625 231.011719 C 243.859375 231.429688 243.0625 231.804688 242.242188 232.144531 C 241.425781 232.484375 240.59375 232.78125 239.746094 233.039062 C 238.898438 233.296875 238.039062 233.511719 237.171875 233.683594 C 236.304688 233.855469 235.429688 233.984375 234.546875 234.074219 C 233.667969 234.160156 232.785156 234.203125 231.898438 234.203125 C 231.011719 234.203125 230.128906 234.160156 229.25 234.074219 C 228.367188 233.984375 227.492188 233.855469 226.625 233.683594 C 225.753906 233.511719 224.898438 233.296875 224.050781 233.039062 C 223.203125 232.78125 222.371094 232.484375 221.550781 232.144531 C 220.734375 231.804688 219.933594 231.429688 219.15625 231.011719 C 218.375 230.59375 217.613281 230.136719 216.878906 229.648438 C 216.144531 229.15625 215.433594 228.628906 214.746094 228.066406 C 214.0625 227.503906 213.410156 226.910156 212.78125 226.285156 C 212.15625 225.660156 211.5625 225.003906 211 224.320312 C 210.4375 223.632812 209.914062 222.925781 209.421875 222.1875 C 208.929688 221.453125 208.472656 220.695312 208.054688 219.914062 C 207.640625 219.132812 207.261719 218.332031 206.921875 217.515625 C 206.582031 216.695312 206.285156 215.863281 206.027344 215.015625 C 205.769531 214.167969 205.554688 213.3125 205.382812 212.441406 C 205.210938 211.574219 205.082031 210.699219 204.996094 209.820312 C 204.90625 208.9375 204.863281 208.054688 204.863281 207.167969 C 204.863281 206.285156 204.90625 205.398438 204.996094 204.519531 C 205.082031 203.636719 205.210938 202.761719 205.382812 201.894531 C 205.554688 201.027344 205.769531 200.167969 206.027344 199.320312 C 206.285156 198.472656 206.582031 197.640625 206.921875 196.824219 C 207.261719 196.003906 207.640625 195.207031 208.054688 194.425781 C 208.472656 193.644531 208.929688 192.886719 209.421875 192.148438 C 209.914062 191.414062 210.4375 190.703125 211 190.019531 C 211.5625 189.335938 212.15625 188.679688 212.78125 188.054688 C 213.410156 187.425781 214.0625 186.832031 214.746094 186.273438 C 215.433594 185.710938 216.144531 185.183594 216.878906 184.691406 C 217.613281 184.199219 218.375 183.746094 219.15625 183.328125 C 219.933594 182.910156 220.734375 182.53125 221.550781 182.191406 C 222.371094 181.855469 223.203125 181.554688 224.050781 181.300781 C 224.898438 181.042969 225.753906 180.828125 226.625 180.65625 C 227.492188 180.480469 228.367188 180.351562 229.25 180.265625 C 230.128906 180.179688 231.011719 180.136719 231.898438 180.136719 C 232.785156 180.136719 233.667969 180.179688 234.546875 180.265625 C 235.429688 180.351562 236.304688 180.480469 237.171875 180.65625 C 238.039062 180.828125 238.898438 181.042969 239.746094 181.300781 C 240.59375 181.554688 241.425781 181.855469 242.242188 182.191406 C 243.0625 182.53125 243.859375 182.910156 244.640625 183.328125 C 245.421875 183.746094 246.179688 184.199219 246.917969 184.691406 C 247.652344 185.183594 248.363281 185.710938 249.046875 186.273438 C 249.734375 186.832031 250.386719 187.425781 251.015625 188.054688 C 251.640625 188.679688 252.234375 189.335938 252.796875 190.019531 C 253.355469 190.703125 253.882812 191.414062 254.375 192.148438 C 254.867188 192.886719 255.324219 193.644531 255.738281 194.425781 C 256.15625 195.207031 256.535156 196.003906 256.875 196.824219 C 257.214844 197.640625 257.511719 198.472656 257.769531 199.320312 C 258.023438 200.167969 258.238281 201.027344 258.414062 201.894531 C 258.585938 202.761719 258.714844 203.636719 258.800781 204.519531 C 258.886719 205.398438 258.933594 206.285156 258.933594 207.167969 Z M 258.933594 207.167969 " fill-opacity="1" fill-rule="nonzero"/><path fill="#008ab0" d="M 310.339844 245.617188 C 306.257812 239.136719 297.636719 237.167969 291.097656 241.195312 L 241.144531 272.121094 L 213.613281 239.539062 C 213.351562 239.230469 213.039062 238.992188 212.757812 238.710938 C 212.570312 238.515625 212.367188 238.332031 212.171875 238.144531 C 211.828125 237.839844 211.484375 237.546875 211.121094 237.28125 C 209.714844 236.128906 208.175781 235.097656 206.394531 234.375 C 196.875 230.519531 186.007812 234.957031 182.070312 244.359375 L 145.832031 330.261719 C 145.527344 330.988281 118.425781 407.089844 118.425781 407.089844 L 90.953125 446.296875 C 85.085938 454.671875 87.226562 466.175781 95.703125 471.972656 C 98.960938 474.183594 102.59375 475.195312 106.316406 475.195312 C 112.183594 475.195312 117.960938 472.433594 121.589844 467.28125 L 150.554688 425.863281 C 151.578125 424.390625 152.417969 422.828125 152.976562 421.171875 C 152.976562 421.171875 173.09375 367.820312 176.679688 357.820312 L 207.683594 362.222656 L 211.601562 413.308594 C 212.339844 422.96875 220.503906 430.320312 230.15625 430.320312 C 230.628906 430.320312 231.101562 430.304688 231.582031 430.265625 C 241.839844 429.503906 249.527344 420.660156 248.746094 410.523438 L 243.695312 344.714844 C 243.042969 336.113281 236.421875 329.113281 227.773438 327.890625 L 189.410156 322.441406 L 208.714844 276.8125 L 227.484375 299.027344 C 230.222656 302.273438 234.1875 303.988281 238.214844 303.988281 C 240.742188 303.988281 243.308594 303.308594 245.589844 301.90625 L 305.867188 264.636719 C 312.414062 260.609375 314.414062 252.085938 310.339844 245.617188 Z M 310.339844 245.617188 " fill-opacity="1" fill-rule="nonzero"/><path fill="#008ab0" d="M 350.664062 136.824219 C 365.59375 136.824219 377.699219 124.71875 377.699219 109.789062 C 377.699219 94.855469 365.59375 82.753906 350.664062 82.753906 C 335.734375 82.753906 323.628906 94.855469 323.628906 109.789062 C 323.628906 124.71875 335.734375 136.824219 350.664062 136.824219 Z M 350.664062 136.824219 " fill-opacity="1" fill-rule="nonzero"/><path fill="#008ab0" d="M 478.742188 311.835938 L 459.183594 255.050781 L 456.109375 205.535156 C 456.113281 205.566406 455.625 200.65625 453.46875 197.519531 L 412.140625 131.171875 C 406.75 122.519531 395.269531 119.8125 386.511719 125.152344 C 385.066406 126.03125 380.96875 129.375 379.40625 132.925781 L 349.511719 201.277344 L 314.277344 228.582031 C 308.210938 233.289062 307.148438 241.964844 311.902344 247.964844 C 314.660156 251.4375 318.761719 253.25 322.910156 253.25 C 325.929688 253.25 328.964844 252.289062 331.523438 250.3125 L 369.546875 220.84375 C 371.375 219.421875 372.820312 217.570312 373.746094 215.449219 L 393.191406 170.988281 L 413.496094 203.585938 L 362.066406 248.164062 C 359.128906 250.71875 357.074219 254.125 356.199219 257.898438 L 339.707031 329.085938 C 337.40625 338.992188 343.675781 348.871094 353.707031 351.132812 C 355.105469 351.457031 356.496094 351.601562 357.878906 351.601562 C 366.363281 351.601562 374.039062 345.832031 376.015625 337.300781 L 391.167969 271.917969 L 421.277344 245.820312 L 422.117188 259.746094 C 422.210938 261.402344 422.582031 263.058594 423.046875 264.621094 L 443.539062 323.800781 C 446.144531 331.4375 453.410156 336.222656 461.136719 336.222656 C 463.09375 336.222656 465.144531 335.949219 467.191406 335.210938 C 476.878906 331.992188 482.09375 321.5 478.742188 311.835938 Z M 478.742188 311.835938 " fill-opacity="1" fill-rule="nonzero"/></svg>