<svg xmlns="http://www.w3.org/2000/svg" xmlns:xlink="http://www.w3.org/1999/xlink" width="500" zoomAndPan="magnify" viewBox="0 0 375 374.999991" height="500" preserveAspectRatio="xMidYMid meet" version="1.0"><defs><clipPath id="c08eed91bc"><path d="M 121 37.5 L 197 37.5 L 197 97 L 121 97 Z M 121 37.5 " clip-rule="nonzero"/></clipPath><clipPath id="3de06785aa"><path d="M 66 287 L 109 287 L 109 337.5 L 66 337.5 Z M 66 287 " clip-rule="nonzero"/></clipPath><clipPath id="339d02c3f2"><path d="M 133 262 L 175 262 L 175 337.5 L 133 337.5 Z M 133 262 " clip-rule="nonzero"/></clipPath><clipPath id="2501f1566a"><path d="M 200 218 L 242 218 L 242 337.5 L 200 337.5 Z M 200 218 " clip-rule="nonzero"/></clipPath><clipPath id="eb3431a404"><path d="M 266 210 L 309 210 L 309 337.5 L 266 337.5 Z M 266 210 " clip-rule="nonzero"/></clipPath></defs><g clip-path="url(#c08eed91bc)"><path fill="#008ab0" d="M 179.234375 81.550781 C 185.460938 76.882812 189.328125 70.398438 189.328125 63.222656 C 189.328125 49.015625 174.207031 37.5 155.550781 37.5 C 136.898438 37.5 121.777344 49.015625 121.777344 63.222656 C 121.777344 77.429688 136.898438 88.945312 155.550781 88.945312 C 157.894531 88.945312 160.175781 88.761719 162.382812 88.417969 C 172.59375 96.511719 196.394531 96.207031 196.394531 96.207031 C 187.011719 92.703125 181.730469 85.792969 179.234375 81.550781 Z M 143.753906 64.945312 C 143.753906 66.425781 142.554688 67.625 141.074219 67.625 C 139.59375 67.625 138.394531 66.425781 138.394531 64.945312 L 138.394531 59.796875 C 138.394531 58.316406 139.59375 57.117188 141.074219 57.117188 C 142.554688 57.117188 143.753906 58.316406 143.753906 59.796875 Z M 158.21875 64.945312 C 158.21875 66.425781 157.019531 67.625 155.539062 67.625 C 154.058594 67.625 152.863281 66.425781 152.863281 64.945312 L 152.863281 59.796875 C 152.863281 58.316406 154.058594 57.117188 155.539062 57.117188 C 157.019531 57.117188 158.21875 58.316406 158.21875 59.796875 Z M 172.6875 64.945312 C 172.6875 66.425781 171.492188 67.625 170.011719 67.625 C 168.53125 67.625 167.332031 66.425781 167.332031 64.945312 L 167.332031 59.796875 C 167.332031 58.316406 168.53125 57.117188 170.011719 57.117188 C 171.492188 57.117188 172.6875 58.316406 172.6875 59.796875 Z M 172.6875 64.945312 " fill-opacity="1" fill-rule="nonzero"/></g><g clip-path="url(#3de06785aa)"><path fill="#008ab0" d="M 105.652344 287.011719 L 69.644531 287.011719 C 68.164062 287.011719 66.964844 288.207031 66.964844 289.6875 L 66.964844 334.820312 C 66.964844 336.300781 68.164062 337.5 69.644531 337.5 L 105.652344 337.5 C 107.132812 337.5 108.332031 336.300781 108.332031 334.820312 L 108.332031 289.6875 C 108.332031 288.207031 107.132812 287.011719 105.652344 287.011719 Z M 102.972656 332.144531 L 72.320312 332.144531 L 72.320312 292.367188 L 102.972656 292.367188 Z M 102.972656 332.144531 " fill-opacity="1" fill-rule="nonzero"/></g><g clip-path="url(#339d02c3f2)"><path fill="#008ab0" d="M 172.21875 262.285156 L 136.210938 262.285156 C 134.730469 262.285156 133.53125 263.484375 133.53125 264.964844 L 133.53125 334.820312 C 133.53125 336.300781 134.730469 337.5 136.210938 337.5 L 172.21875 337.5 C 173.699219 337.5 174.898438 336.300781 174.898438 334.820312 L 174.898438 264.964844 C 174.898438 263.484375 173.699219 262.285156 172.21875 262.285156 Z M 169.539062 332.144531 L 138.886719 332.144531 L 138.886719 267.644531 L 169.539062 267.644531 Z M 169.539062 332.144531 " fill-opacity="1" fill-rule="nonzero"/></g><g clip-path="url(#2501f1566a)"><path fill="#008ab0" d="M 238.789062 218.914062 L 202.78125 218.914062 C 201.300781 218.914062 200.101562 220.113281 200.101562 221.59375 L 200.101562 334.820312 C 200.101562 336.300781 201.300781 337.5 202.78125 337.5 L 238.789062 337.5 C 240.269531 337.5 241.46875 336.300781 241.46875 334.820312 L 241.46875 221.59375 C 241.46875 220.113281 240.269531 218.914062 238.789062 218.914062 Z M 236.113281 332.144531 L 205.460938 332.144531 L 205.460938 224.273438 L 236.113281 224.273438 Z M 236.113281 332.144531 " fill-opacity="1" fill-rule="nonzero"/></g><g clip-path="url(#eb3431a404)"><path fill="#008ab0" d="M 305.355469 210.496094 L 269.347656 210.496094 C 267.867188 210.496094 266.667969 211.695312 266.667969 213.175781 L 266.667969 334.820312 C 266.667969 336.300781 267.867188 337.5 269.347656 337.5 L 305.355469 337.5 C 306.835938 337.5 308.035156 336.300781 308.035156 334.820312 L 308.035156 213.175781 C 308.035156 211.695312 306.835938 210.496094 305.355469 210.496094 Z M 302.679688 332.144531 L 272.027344 332.144531 L 272.027344 215.855469 L 302.679688 215.855469 Z M 302.679688 332.144531 " fill-opacity="1" fill-rule="nonzero"/></g><path fill="#008ab0" d="M 170.542969 142.027344 C 170.542969 143.007812 170.449219 143.976562 170.257812 144.933594 C 170.066406 145.894531 169.785156 146.824219 169.410156 147.726562 C 169.035156 148.632812 168.578125 149.488281 168.035156 150.300781 C 167.492188 151.117188 166.875 151.867188 166.183594 152.558594 C 165.492188 153.25 164.738281 153.867188 163.925781 154.410156 C 163.113281 154.953125 162.253906 155.414062 161.351562 155.789062 C 160.449219 156.160156 159.515625 156.445312 158.558594 156.636719 C 157.597656 156.824219 156.628906 156.921875 155.652344 156.921875 C 154.675781 156.921875 153.707031 156.824219 152.746094 156.636719 C 151.789062 156.445312 150.855469 156.160156 149.953125 155.789062 C 149.050781 155.414062 148.191406 154.953125 147.378906 154.410156 C 146.566406 153.867188 145.8125 153.25 145.121094 152.558594 C 144.429688 151.867188 143.8125 151.117188 143.269531 150.300781 C 142.726562 149.488281 142.265625 148.632812 141.890625 147.726562 C 141.519531 146.824219 141.234375 145.894531 141.046875 144.933594 C 140.855469 143.976562 140.757812 143.007812 140.757812 142.027344 C 140.757812 141.050781 140.855469 140.082031 141.046875 139.125 C 141.234375 138.164062 141.519531 137.234375 141.890625 136.328125 C 142.265625 135.425781 142.726562 134.566406 143.269531 133.753906 C 143.8125 132.941406 144.429688 132.1875 145.121094 131.496094 C 145.8125 130.804688 146.566406 130.1875 147.378906 129.644531 C 148.191406 129.101562 149.050781 128.644531 149.953125 128.269531 C 150.855469 127.894531 151.789062 127.613281 152.746094 127.421875 C 153.707031 127.230469 154.675781 127.136719 155.652344 127.136719 C 156.628906 127.136719 157.597656 127.230469 158.558594 127.421875 C 159.515625 127.613281 160.449219 127.894531 161.351562 128.269531 C 162.253906 128.644531 163.113281 129.101562 163.925781 129.644531 C 164.738281 130.1875 165.492188 130.804688 166.183594 131.496094 C 166.875 132.1875 167.492188 132.941406 168.035156 133.753906 C 168.578125 134.566406 169.035156 135.425781 169.410156 136.328125 C 169.785156 137.234375 170.066406 138.164062 170.257812 139.125 C 170.449219 140.082031 170.542969 141.050781 170.542969 142.027344 Z M 170.542969 142.027344 " fill-opacity="1" fill-rule="nonzero"/><path fill="#008ab0" d="M 198.867188 163.210938 C 196.617188 159.640625 191.867188 158.554688 188.265625 160.773438 L 160.746094 177.808594 L 145.578125 159.863281 C 145.433594 159.691406 145.261719 159.558594 145.109375 159.40625 C 145.003906 159.296875 144.894531 159.195312 144.785156 159.09375 C 144.59375 158.925781 144.40625 158.765625 144.207031 158.617188 C 143.429688 157.984375 142.582031 157.414062 141.601562 157.015625 C 136.355469 154.890625 130.371094 157.335938 128.199219 162.515625 L 108.238281 209.839844 C 108.070312 210.238281 93.140625 252.164062 93.140625 252.164062 L 78.003906 273.761719 C 74.773438 278.375 75.953125 284.714844 80.621094 287.910156 C 82.417969 289.125 84.417969 289.683594 86.46875 289.683594 C 89.703125 289.683594 92.882812 288.164062 94.882812 285.324219 L 110.839844 262.507812 C 111.40625 261.695312 111.867188 260.835938 112.171875 259.921875 C 112.171875 259.921875 123.257812 230.53125 125.234375 225.023438 L 142.3125 227.445312 L 144.472656 255.589844 C 144.875 260.914062 149.375 264.960938 154.691406 264.960938 C 154.953125 264.960938 155.210938 264.953125 155.476562 264.933594 C 161.128906 264.511719 165.363281 259.640625 164.933594 254.054688 L 162.152344 217.800781 C 161.789062 213.0625 158.144531 209.207031 153.378906 208.53125 L 132.246094 205.53125 L 142.882812 180.394531 L 153.21875 192.632812 C 154.726562 194.421875 156.914062 195.367188 159.132812 195.367188 C 160.523438 195.367188 161.9375 194.992188 163.195312 194.21875 L 196.398438 173.6875 C 200.007812 171.46875 201.109375 166.773438 198.867188 163.210938 Z M 198.867188 163.210938 " fill-opacity="1" fill-rule="nonzero"/><path fill="#008ab0" d="M 221.078125 103.277344 C 229.304688 103.277344 235.972656 96.605469 235.972656 88.382812 C 235.972656 80.15625 229.304688 73.488281 221.078125 73.488281 C 212.855469 73.488281 206.1875 80.15625 206.1875 88.382812 C 206.1875 96.605469 212.855469 103.277344 221.078125 103.277344 Z M 221.078125 103.277344 " fill-opacity="1" fill-rule="nonzero"/><path fill="#008ab0" d="M 291.636719 199.6875 L 280.863281 168.40625 L 279.167969 141.128906 C 279.171875 141.144531 278.902344 138.441406 277.714844 136.714844 L 254.945312 100.164062 C 251.976562 95.394531 245.652344 93.90625 240.828125 96.847656 C 240.03125 97.332031 237.773438 99.171875 236.914062 101.128906 L 220.445312 138.78125 L 201.035156 153.824219 C 197.691406 156.417969 197.105469 161.195312 199.726562 164.503906 C 201.246094 166.414062 203.503906 167.414062 205.789062 167.414062 C 207.453125 167.414062 209.125 166.886719 210.535156 165.796875 L 231.480469 149.5625 C 232.488281 148.777344 233.285156 147.757812 233.796875 146.589844 L 244.507812 122.097656 L 255.695312 140.054688 L 227.359375 164.613281 C 225.742188 166.019531 224.609375 167.894531 224.128906 169.976562 L 215.042969 209.191406 C 213.777344 214.648438 217.230469 220.089844 222.753906 221.339844 C 223.527344 221.515625 224.292969 221.597656 225.054688 221.597656 C 229.730469 221.597656 233.957031 218.417969 235.046875 213.71875 L 243.394531 177.699219 L 259.980469 163.320312 L 260.441406 170.992188 C 260.496094 171.90625 260.699219 172.816406 260.957031 173.679688 L 272.242188 206.28125 C 273.679688 210.488281 277.679688 213.125 281.941406 213.125 C 283.015625 213.125 284.144531 212.972656 285.273438 212.566406 C 290.609375 210.792969 293.484375 205.011719 291.636719 199.6875 Z M 291.636719 199.6875 " fill-opacity="1" fill-rule="nonzero"/></svg>