<svg xmlns="http://www.w3.org/2000/svg" xmlns:xlink="http://www.w3.org/1999/xlink" width="750" zoomAndPan="magnify" viewBox="0 0 562.5 562.499982" height="750" preserveAspectRatio="xMidYMid meet" version="1.0"><defs><clipPath id="9c43dff77a"><path d="M 0 0 L 544.765625 0 L 544.765625 544.765625 L 0 544.765625 Z M 0 0 " clip-rule="nonzero"/></clipPath><clipPath id="850a7c389f"><path d="M 17.425781 17.425781 L 562 17.425781 L 562 562 L 17.425781 562 Z M 17.425781 17.425781 " clip-rule="nonzero"/></clipPath></defs><g clip-path="url(#9c43dff77a)"><path fill="#000000" d="M 7.148438 7.167969 L 7.148438 494.449219 C 7.148438 518.125 26.421875 537.398438 50.097656 537.398438 L 537.417969 537.398438 L 537.417969 50.074219 C 537.417969 26.421875 518.148438 7.167969 494.472656 7.167969 Z M 540.992188 544.566406 L 50.097656 544.566406 C 22.464844 544.566406 -0.0195312 522.082031 -0.0195312 494.449219 L -0.0195312 3.59375 C -0.0195312 1.617188 1.59375 0 3.574219 0 L 494.472656 0 C 522.101562 0 544.589844 22.464844 544.589844 50.074219 L 544.589844 540.972656 C 544.589844 542.949219 542.992188 544.566406 540.992188 544.566406 " fill-opacity="1" fill-rule="nonzero"/></g><path fill="#000000" d="M 208.933594 51.480469 L 47.90625 51.480469 C 45.925781 51.480469 44.308594 49.863281 44.308594 47.882812 C 44.308594 45.90625 45.925781 44.289062 47.90625 44.289062 L 208.933594 44.289062 C 210.933594 44.289062 212.53125 45.90625 212.53125 47.882812 C 212.53125 49.863281 210.933594 51.480469 208.933594 51.480469 " fill-opacity="1" fill-rule="nonzero"/><path fill="#000000" d="M 128.398438 89.8125 L 47.90625 89.8125 C 45.925781 89.8125 44.308594 88.214844 44.308594 86.238281 C 44.308594 84.238281 45.925781 82.640625 47.90625 82.640625 L 128.398438 82.640625 C 130.375 82.640625 131.992188 84.238281 131.992188 86.238281 C 131.992188 88.214844 130.375 89.8125 128.398438 89.8125 " fill-opacity="1" fill-rule="nonzero"/><path fill="#000000" d="M 342.226562 382.621094 C 342.078125 382.621094 341.929688 382.621094 341.78125 382.601562 C 338.375 382.496094 335.226562 380.792969 333.101562 378.132812 C 328.484375 372.285156 282.644531 308.871094 272.285156 293.578125 C 261.921875 308.871094 216.082031 372.285156 211.464844 378.132812 C 209.339844 380.792969 206.191406 382.496094 202.789062 382.601562 C 202.636719 382.621094 202.488281 382.621094 202.339844 382.621094 C 192.128906 382.792969 186.640625 370.730469 193.300781 362.988281 C 222.167969 329.503906 243.542969 283.429688 243.542969 283.429688 C 256.09375 258.179688 250.457031 225.121094 230.226562 205.46875 C 227.1875 202.511719 223.78125 199.746094 221.742188 196.023438 C 219.699219 192.277344 219.378906 187.171875 222.335938 184.109375 C 224.570312 181.835938 228.101562 181.238281 231.25 181.855469 C 234.375 182.449219 237.207031 184.066406 239.992188 185.664062 L 257.585938 195.765625 C 262.136719 198.363281 267.21875 199.597656 272.285156 199.488281 C 277.347656 199.597656 282.429688 198.363281 286.980469 195.765625 L 304.574219 185.664062 C 307.359375 184.066406 310.191406 182.449219 313.316406 181.855469 C 316.464844 181.238281 319.996094 181.835938 322.230469 184.109375 C 325.1875 187.171875 324.867188 192.277344 322.824219 196.023438 C 320.785156 199.746094 317.378906 202.511719 314.339844 205.46875 C 294.109375 225.121094 288.472656 258.179688 301.023438 283.429688 C 301.023438 283.429688 322.402344 329.503906 351.265625 362.988281 C 357.925781 370.730469 352.4375 382.792969 342.226562 382.621094 Z M 451.800781 299.257812 C 449.074219 288.300781 445.097656 277.453125 438.3125 268.433594 C 431.527344 259.414062 421.59375 252.328125 410.402344 250.796875 C 402.574219 249.714844 394.214844 251.734375 387.917969 256.371094 C 381.835938 260.882812 373.175781 259.605469 369.242188 253.136719 C 368.921875 252.585938 368.625 252.054688 368.347656 251.5 C 363.371094 241.523438 372.835938 230.460938 383.683594 233.121094 C 387.449219 234.035156 391.28125 234.652344 395.171875 234.757812 C 404.234375 235.015625 413.847656 231.953125 419.335938 224.738281 C 425.058594 217.230469 425.25 206.933594 424.1875 197.554688 C 418.828125 150.820312 386.21875 108.234375 342.503906 90.832031 C 330.144531 85.917969 314.890625 83.300781 304.425781 91.535156 C 296.34375 97.894531 293.597656 108.976562 293.40625 119.25 C 293.40625 119.441406 293.40625 119.632812 293.40625 119.847656 C 293.238281 131.375 283.875 140.652344 272.347656 140.695312 C 272.324219 140.695312 272.304688 140.695312 272.285156 140.695312 C 272.285156 140.695312 272.242188 140.695312 272.21875 140.695312 C 260.691406 140.652344 251.332031 131.375 251.160156 119.847656 C 251.160156 119.632812 251.160156 119.441406 251.160156 119.25 C 250.96875 108.976562 248.222656 97.894531 240.140625 91.535156 C 229.675781 83.300781 214.421875 85.917969 202.0625 90.832031 C 158.351562 108.234375 125.738281 150.820312 120.378906 197.554688 C 119.316406 206.933594 119.507812 217.230469 125.230469 224.738281 C 130.71875 231.953125 140.332031 235.015625 149.394531 234.757812 C 153.285156 234.652344 157.117188 234.035156 160.882812 233.121094 C 171.730469 230.460938 181.195312 241.523438 176.21875 251.5 C 175.941406 252.054688 175.644531 252.585938 175.324219 253.136719 C 171.390625 259.605469 162.730469 260.882812 156.648438 256.371094 C 150.351562 251.734375 141.992188 249.714844 134.164062 250.796875 C 122.972656 252.328125 113.039062 259.414062 106.253906 268.433594 C 99.46875 277.453125 95.492188 288.300781 92.769531 299.257812 C 89.640625 311.957031 88.046875 325.441406 91.726562 337.992188 C 95.382812 350.542969 105.234375 361.902344 118.058594 364.347656 C 107.46875 379.730469 108.847656 401.214844 117.847656 417.59375 C 126.847656 433.972656 142.269531 445.929688 158.5625 455.074219 C 180.109375 467.136719 203.9375 475.113281 228.398438 478.429688 C 234.609375 479.261719 240.949219 479.8125 247.074219 478.539062 C 253.203125 477.261719 259.160156 473.964844 262.371094 468.582031 C 265.921875 462.667969 265.644531 455.097656 263.304688 448.609375 C 260.964844 442.121094 256.796875 436.503906 252.671875 430.972656 C 252.671875 430.972656 266.902344 420.933594 263.5625 400.339844 C 262.710938 395.214844 266.816406 390.578125 272.007812 390.640625 C 272.113281 390.640625 272.199219 390.664062 272.285156 390.664062 C 272.367188 390.664062 272.453125 390.640625 272.558594 390.640625 C 277.75 390.578125 281.855469 395.214844 281.003906 400.339844 C 277.664062 420.933594 291.894531 430.972656 291.894531 430.972656 C 287.769531 436.503906 283.601562 442.121094 281.261719 448.609375 C 278.921875 455.097656 278.644531 462.667969 282.195312 468.582031 C 285.410156 473.964844 291.363281 477.261719 297.492188 478.539062 C 303.617188 479.8125 309.957031 479.261719 316.167969 478.429688 C 340.628906 475.113281 364.457031 467.136719 386.003906 455.074219 C 402.296875 445.929688 417.722656 433.972656 426.71875 417.59375 C 435.71875 401.214844 437.101562 379.730469 426.507812 364.347656 C 439.332031 361.902344 449.183594 350.542969 452.839844 337.992188 C 456.519531 325.441406 454.925781 311.957031 451.800781 299.257812 " fill-opacity="1" fill-rule="nonzero"/><g clip-path="url(#850a7c389f)"><path fill="#008ab0" d="M 24.574219 24.59375 L 24.574219 511.875 C 24.574219 535.550781 43.847656 554.824219 67.523438 554.824219 L 554.84375 554.824219 L 554.84375 67.5 C 554.84375 43.847656 535.574219 24.59375 511.898438 24.59375 Z M 558.417969 561.992188 L 67.523438 561.992188 C 39.890625 561.992188 17.40625 539.507812 17.40625 511.875 L 17.40625 21.019531 C 17.40625 19.042969 19.023438 17.425781 21 17.425781 L 511.898438 17.425781 C 539.53125 17.425781 562.015625 39.890625 562.015625 67.5 L 562.015625 558.398438 C 562.015625 560.375 560.417969 561.992188 558.417969 561.992188 " fill-opacity="1" fill-rule="nonzero"/></g><path fill="#008ab0" d="M 226.359375 68.90625 L 65.332031 68.90625 C 63.351562 68.90625 61.734375 67.289062 61.734375 65.308594 C 61.734375 63.332031 63.351562 61.714844 65.332031 61.714844 L 226.359375 61.714844 C 228.359375 61.714844 229.957031 63.332031 229.957031 65.308594 C 229.957031 67.289062 228.359375 68.90625 226.359375 68.90625 " fill-opacity="1" fill-rule="nonzero"/><path fill="#008ab0" d="M 145.824219 107.238281 L 65.332031 107.238281 C 63.351562 107.238281 61.734375 105.640625 61.734375 103.664062 C 61.734375 101.664062 63.351562 100.070312 65.332031 100.070312 L 145.824219 100.070312 C 147.804688 100.070312 149.421875 101.664062 149.421875 103.664062 C 149.421875 105.640625 147.804688 107.238281 145.824219 107.238281 " fill-opacity="1" fill-rule="nonzero"/><path fill="#008ab0" d="M 359.652344 400.046875 C 359.503906 400.046875 359.355469 400.046875 359.207031 400.027344 C 355.800781 399.921875 352.652344 398.21875 350.527344 395.558594 C 345.910156 389.710938 300.070312 326.296875 289.710938 311.003906 C 279.351562 326.296875 233.507812 389.710938 228.894531 395.558594 C 226.765625 398.21875 223.617188 399.921875 220.214844 400.027344 C 220.066406 400.046875 219.914062 400.046875 219.765625 400.046875 C 209.554688 400.21875 204.066406 388.15625 210.726562 380.414062 C 239.59375 346.933594 260.972656 300.855469 260.972656 300.855469 C 273.523438 275.605469 267.882812 242.550781 247.65625 222.894531 C 244.613281 219.9375 241.210938 217.171875 239.167969 213.449219 C 237.125 209.707031 236.804688 204.601562 239.761719 201.535156 C 241.996094 199.261719 245.527344 198.664062 248.675781 199.28125 C 251.804688 199.878906 254.632812 201.496094 257.417969 203.089844 L 275.011719 213.195312 C 279.5625 215.789062 284.648438 217.023438 289.710938 216.917969 C 294.773438 217.023438 299.855469 215.789062 304.410156 213.195312 L 322 203.089844 C 324.789062 201.496094 327.617188 199.878906 330.742188 199.28125 C 333.890625 198.664062 337.421875 199.261719 339.65625 201.535156 C 342.613281 204.601562 342.292969 209.707031 340.253906 213.449219 C 338.210938 217.171875 334.808594 219.9375 331.765625 222.894531 C 311.535156 242.550781 305.898438 275.605469 318.449219 300.855469 C 318.449219 300.855469 339.828125 346.933594 368.691406 380.414062 C 375.351562 388.15625 369.863281 400.21875 359.652344 400.046875 Z M 469.226562 316.683594 C 466.503906 305.726562 462.523438 294.878906 455.738281 285.859375 C 448.953125 276.839844 439.019531 269.757812 427.828125 268.226562 C 420 267.140625 411.640625 269.160156 405.34375 273.796875 C 399.261719 278.308594 390.601562 277.03125 386.667969 270.566406 C 386.347656 270.011719 386.050781 269.480469 385.773438 268.925781 C 380.796875 258.949219 390.261719 247.890625 401.113281 250.546875 C 404.878906 251.460938 408.707031 252.078125 412.597656 252.1875 C 421.660156 252.441406 431.277344 249.378906 436.765625 242.167969 C 442.484375 234.65625 442.675781 224.363281 441.613281 214.980469 C 436.253906 168.246094 403.644531 125.660156 359.929688 108.257812 C 347.570312 103.34375 332.316406 100.726562 321.851562 108.960938 C 313.769531 115.320312 311.023438 126.402344 310.832031 136.679688 C 310.832031 136.871094 310.832031 137.0625 310.832031 137.273438 C 310.664062 148.804688 301.304688 158.078125 289.773438 158.121094 C 289.753906 158.121094 289.730469 158.121094 289.710938 158.121094 C 289.710938 158.121094 289.667969 158.121094 289.644531 158.121094 C 278.117188 158.078125 268.757812 148.804688 268.585938 137.273438 C 268.585938 137.0625 268.585938 136.871094 268.585938 136.679688 C 268.394531 126.402344 265.652344 115.320312 257.566406 108.960938 C 247.101562 100.726562 231.847656 103.34375 219.492188 108.257812 C 175.777344 125.660156 143.164062 168.246094 137.804688 214.980469 C 136.742188 224.363281 136.933594 234.65625 142.65625 242.167969 C 148.144531 249.378906 157.757812 252.441406 166.820312 252.1875 C 170.714844 252.078125 174.542969 251.460938 178.308594 250.546875 C 189.15625 247.890625 198.621094 258.949219 193.644531 268.925781 C 193.367188 269.480469 193.070312 270.011719 192.75 270.566406 C 188.816406 277.03125 180.160156 278.308594 174.074219 273.796875 C 167.777344 269.160156 159.417969 267.140625 151.589844 268.226562 C 140.402344 269.757812 130.464844 276.839844 123.679688 285.859375 C 116.894531 294.878906 112.917969 305.726562 110.195312 316.683594 C 107.066406 329.382812 105.472656 342.867188 109.152344 355.417969 C 112.8125 367.96875 122.660156 379.328125 135.488281 381.777344 C 124.894531 397.15625 126.277344 418.640625 135.273438 435.019531 C 144.273438 451.398438 159.695312 463.355469 175.988281 472.5 C 197.539062 484.5625 221.363281 492.539062 245.824219 495.859375 C 252.035156 496.6875 258.375 497.242188 264.503906 495.964844 C 270.628906 494.6875 276.585938 491.390625 279.796875 486.007812 C 283.347656 480.09375 283.074219 472.523438 280.734375 466.035156 C 278.394531 459.546875 274.222656 453.929688 270.097656 448.398438 C 270.097656 448.398438 284.328125 438.359375 280.988281 417.769531 C 280.136719 412.640625 284.242188 408.003906 289.433594 408.066406 C 289.539062 408.066406 289.625 408.089844 289.710938 408.089844 C 289.792969 408.089844 289.878906 408.066406 289.984375 408.066406 C 295.175781 408.003906 299.28125 412.640625 298.429688 417.769531 C 295.089844 438.359375 309.324219 448.398438 309.324219 448.398438 C 305.195312 453.929688 301.027344 459.546875 298.6875 466.035156 C 296.347656 472.523438 296.070312 480.09375 299.621094 486.007812 C 302.835938 491.390625 308.789062 494.6875 314.917969 495.964844 C 321.042969 497.242188 327.382812 496.6875 333.59375 495.859375 C 358.058594 492.539062 381.882812 484.5625 403.429688 472.5 C 419.726562 463.355469 435.148438 451.398438 444.144531 435.019531 C 453.144531 418.640625 454.527344 397.15625 443.933594 381.777344 C 456.761719 379.328125 466.609375 367.96875 470.269531 355.417969 C 473.949219 342.867188 472.351562 329.382812 469.226562 316.683594 " fill-opacity="1" fill-rule="nonzero"/></svg>