<svg xmlns="http://www.w3.org/2000/svg" xmlns:xlink="http://www.w3.org/1999/xlink" width="500" zoomAndPan="magnify" viewBox="0 0 375 374.999991" height="500" preserveAspectRatio="xMidYMid meet" version="1.0"><defs><clipPath id="589c7297ab"><path d="M 37.5 37.5 L 337.5 37.5 L 337.5 337.5 L 37.5 337.5 Z M 37.5 37.5 " clip-rule="nonzero"/></clipPath></defs><g clip-path="url(#589c7297ab)"><path fill="#008ab0" d="M 41.4375 41.449219 L 41.4375 309.890625 C 41.4375 322.933594 52.054688 333.550781 65.097656 333.550781 L 333.5625 333.550781 L 333.5625 65.085938 C 333.5625 52.054688 322.945312 41.449219 309.902344 41.449219 Z M 335.53125 337.5 L 65.097656 337.5 C 49.875 337.5 37.488281 325.113281 37.488281 309.890625 L 37.488281 39.480469 C 37.488281 38.390625 38.378906 37.5 39.46875 37.5 L 309.902344 37.5 C 325.125 37.5 337.511719 49.875 337.511719 65.085938 L 337.511719 335.519531 C 337.511719 336.609375 336.632812 337.5 335.53125 337.5 " fill-opacity="1" fill-rule="nonzero"/></g><path fill="#008ab0" d="M 152.601562 65.859375 L 63.890625 65.859375 C 62.800781 65.859375 61.910156 64.96875 61.910156 63.878906 C 61.910156 62.789062 62.800781 61.898438 63.890625 61.898438 L 152.601562 61.898438 C 153.703125 61.898438 154.582031 62.789062 154.582031 63.878906 C 154.582031 64.96875 153.703125 65.859375 152.601562 65.859375 " fill-opacity="1" fill-rule="nonzero"/><path fill="#008ab0" d="M 108.234375 86.976562 L 63.890625 86.976562 C 62.800781 86.976562 61.910156 86.097656 61.910156 85.007812 C 61.910156 83.90625 62.800781 83.027344 63.890625 83.027344 L 108.234375 83.027344 C 109.324219 83.027344 110.214844 83.90625 110.214844 85.007812 C 110.214844 86.097656 109.324219 86.976562 108.234375 86.976562 " fill-opacity="1" fill-rule="nonzero"/><path fill="#008ab0" d="M 226.03125 248.285156 C 225.949219 248.285156 225.867188 248.285156 225.785156 248.273438 C 223.910156 248.214844 222.175781 247.277344 221.003906 245.8125 C 218.460938 242.589844 193.207031 207.65625 187.5 199.230469 C 181.792969 207.65625 156.539062 242.589844 153.996094 245.8125 C 152.824219 247.277344 151.089844 248.214844 149.214844 248.273438 C 149.132812 248.285156 149.050781 248.285156 148.96875 248.285156 C 143.34375 248.378906 140.320312 241.734375 143.988281 237.46875 C 159.890625 219.023438 171.667969 193.640625 171.667969 193.640625 C 178.582031 179.730469 175.476562 161.519531 164.332031 150.691406 C 162.65625 149.0625 160.78125 147.539062 159.65625 145.488281 C 158.53125 143.425781 158.355469 140.613281 159.984375 138.925781 C 161.214844 137.671875 163.160156 137.34375 164.894531 137.683594 C 166.617188 138.011719 168.175781 138.902344 169.710938 139.78125 L 179.402344 145.347656 C 181.910156 146.777344 184.710938 147.457031 187.5 147.398438 C 190.289062 147.457031 193.089844 146.777344 195.597656 145.347656 L 205.289062 139.78125 C 206.824219 138.902344 208.382812 138.011719 210.105469 137.683594 C 211.839844 137.34375 213.785156 137.671875 215.015625 138.925781 C 216.644531 140.613281 216.46875 143.425781 215.34375 145.488281 C 214.21875 147.539062 212.34375 149.0625 210.667969 150.691406 C 199.523438 161.519531 196.417969 179.730469 203.332031 193.640625 C 203.332031 193.640625 215.109375 219.023438 231.011719 237.46875 C 234.679688 241.734375 231.65625 248.378906 226.03125 248.285156 Z M 286.394531 202.359375 C 284.894531 196.324219 282.703125 190.347656 278.964844 185.378906 C 275.226562 180.410156 269.753906 176.507812 263.589844 175.664062 C 259.277344 175.066406 254.671875 176.179688 251.203125 178.734375 C 247.851562 181.21875 243.082031 180.515625 240.914062 176.953125 C 240.738281 176.648438 240.574219 176.355469 240.421875 176.050781 C 237.679688 170.554688 242.894531 164.460938 248.871094 165.925781 C 250.945312 166.429688 253.054688 166.769531 255.199219 166.828125 C 260.191406 166.96875 265.488281 165.28125 268.511719 161.308594 C 271.664062 157.171875 271.769531 151.5 271.183594 146.332031 C 268.230469 120.585938 250.265625 97.125 226.183594 87.539062 C 219.375 84.832031 210.972656 83.390625 205.207031 87.925781 C 200.753906 91.429688 199.242188 97.535156 199.136719 103.195312 C 199.136719 103.300781 199.136719 103.40625 199.136719 103.523438 C 199.042969 109.875 193.886719 114.984375 187.535156 115.007812 C 187.523438 115.007812 187.511719 115.007812 187.5 115.007812 C 187.5 115.007812 187.476562 115.007812 187.464844 115.007812 C 181.113281 114.984375 175.957031 109.875 175.863281 103.523438 C 175.863281 103.40625 175.863281 103.300781 175.863281 103.195312 C 175.757812 97.535156 174.246094 91.429688 169.792969 87.925781 C 164.027344 83.390625 155.625 84.832031 148.816406 87.539062 C 124.734375 97.125 106.769531 120.585938 103.816406 146.332031 C 103.230469 151.5 103.335938 157.171875 106.488281 161.308594 C 109.511719 165.28125 114.808594 166.96875 119.800781 166.828125 C 121.945312 166.769531 124.054688 166.429688 126.128906 165.925781 C 132.105469 164.460938 137.320312 170.554688 134.578125 176.050781 C 134.425781 176.355469 134.261719 176.648438 134.085938 176.953125 C 131.917969 180.515625 127.148438 181.21875 123.796875 178.734375 C 120.328125 176.179688 115.722656 175.066406 111.410156 175.664062 C 105.246094 176.507812 99.773438 180.410156 96.035156 185.378906 C 92.296875 190.347656 90.105469 196.324219 88.605469 202.359375 C 86.882812 209.355469 86.003906 216.785156 88.03125 223.699219 C 90.046875 230.613281 95.472656 236.871094 102.539062 238.21875 C 96.703125 246.691406 97.464844 258.527344 102.421875 267.550781 C 107.378906 276.574219 115.875 283.160156 124.851562 288.199219 C 136.722656 294.84375 149.847656 299.238281 163.324219 301.066406 C 166.746094 301.523438 170.238281 301.828125 173.613281 301.125 C 176.988281 300.421875 180.269531 298.605469 182.039062 295.640625 C 183.996094 292.382812 183.84375 288.210938 182.554688 284.636719 C 181.265625 281.0625 178.96875 277.96875 176.695312 274.921875 C 176.695312 274.921875 184.535156 269.390625 182.695312 258.046875 C 182.226562 255.222656 184.488281 252.667969 187.347656 252.703125 C 187.40625 252.703125 187.453125 252.714844 187.5 252.714844 C 187.546875 252.714844 187.59375 252.703125 187.652344 252.703125 C 190.511719 252.667969 192.773438 255.222656 192.304688 258.046875 C 190.464844 269.390625 198.304688 274.921875 198.304688 274.921875 C 196.03125 277.96875 193.734375 281.0625 192.445312 284.636719 C 191.15625 288.210938 191.003906 292.382812 192.960938 295.640625 C 194.730469 298.605469 198.011719 300.421875 201.386719 301.125 C 204.761719 301.828125 208.253906 301.523438 211.675781 301.066406 C 225.152344 299.238281 238.277344 294.84375 250.148438 288.199219 C 259.125 283.160156 267.621094 276.574219 272.578125 267.550781 C 277.535156 258.527344 278.296875 246.691406 272.460938 238.21875 C 279.527344 236.871094 284.953125 230.613281 286.96875 223.699219 C 288.996094 216.785156 288.117188 209.355469 286.394531 202.359375 " fill-opacity="1" fill-rule="nonzero"/></svg>