<svg xmlns="http://www.w3.org/2000/svg" xmlns:xlink="http://www.w3.org/1999/xlink" width="500" zoomAndPan="magnify" viewBox="0 0 375 374.999991" height="500" preserveAspectRatio="xMidYMid meet" version="1.0"><path fill="#008ab0" d="M 4.921875 4.9375 L 4.921875 340.488281 C 4.921875 356.792969 18.195312 370.0625 34.496094 370.0625 L 370.078125 370.0625 L 370.078125 34.480469 C 370.078125 18.191406 356.804688 4.9375 340.503906 4.9375 Z M 372.539062 375 L 34.496094 375 C 15.46875 375 -0.015625 359.515625 -0.015625 340.488281 L -0.015625 2.476562 C -0.015625 1.113281 1.097656 0 2.460938 0 L 340.503906 0 C 359.53125 0 375.015625 15.46875 375.015625 34.480469 L 375.015625 372.523438 C 375.015625 373.886719 373.914062 375 372.539062 375 " fill-opacity="1" fill-rule="nonzero"/><path fill="#008ab0" d="M 143.875 35.449219 L 32.988281 35.449219 C 31.625 35.449219 30.511719 34.335938 30.511719 32.972656 C 30.511719 31.613281 31.625 30.496094 32.988281 30.496094 L 143.875 30.496094 C 145.253906 30.496094 146.351562 31.613281 146.351562 32.972656 C 146.351562 34.335938 145.253906 35.449219 143.875 35.449219 " fill-opacity="1" fill-rule="nonzero"/><path fill="#008ab0" d="M 88.417969 61.84375 L 32.988281 61.84375 C 31.625 61.84375 30.511719 60.746094 30.511719 59.382812 C 30.511719 58.007812 31.625 56.910156 32.988281 56.910156 L 88.417969 56.910156 C 89.78125 56.910156 90.894531 58.007812 90.894531 59.382812 C 90.894531 60.746094 89.78125 61.84375 88.417969 61.84375 " fill-opacity="1" fill-rule="nonzero"/><path fill="#008ab0" d="M 235.664062 263.480469 C 235.5625 263.480469 235.457031 263.480469 235.355469 263.464844 C 233.011719 263.394531 230.84375 262.222656 229.378906 260.390625 C 226.199219 256.363281 194.632812 212.695312 187.5 202.164062 C 180.367188 212.695312 148.796875 256.363281 145.621094 260.390625 C 144.15625 262.222656 141.988281 263.394531 139.644531 263.464844 C 139.539062 263.480469 139.4375 263.480469 139.335938 263.480469 C 132.304688 263.597656 128.523438 255.292969 133.109375 249.960938 C 152.988281 226.902344 167.710938 195.175781 167.710938 195.175781 C 176.351562 177.789062 172.46875 155.023438 158.539062 141.488281 C 156.445312 139.453125 154.101562 137.546875 152.695312 134.984375 C 151.289062 132.40625 151.070312 128.890625 153.105469 126.78125 C 154.644531 125.214844 157.074219 124.804688 159.242188 125.230469 C 161.394531 125.640625 163.34375 126.753906 165.261719 127.851562 L 177.378906 134.808594 C 180.511719 136.597656 184.011719 137.445312 187.5 137.371094 C 190.984375 137.445312 194.488281 136.597656 197.621094 134.808594 L 209.734375 127.851562 C 211.65625 126.753906 213.601562 125.640625 215.757812 125.230469 C 217.925781 124.804688 220.355469 125.214844 221.894531 126.78125 C 223.929688 128.890625 223.710938 132.40625 222.304688 134.984375 C 220.898438 137.546875 218.554688 139.453125 216.460938 141.488281 C 202.527344 155.023438 198.648438 177.789062 207.289062 195.175781 C 207.289062 195.175781 222.011719 226.902344 241.890625 249.960938 C 246.472656 255.292969 242.695312 263.597656 235.664062 263.480469 Z M 311.117188 206.074219 C 309.242188 198.53125 306.503906 191.058594 301.832031 184.847656 C 297.15625 178.636719 290.316406 173.757812 282.613281 172.703125 C 277.222656 171.957031 271.464844 173.347656 267.128906 176.542969 C 262.9375 179.648438 256.976562 178.769531 254.265625 174.316406 C 254.046875 173.933594 253.84375 173.570312 253.652344 173.1875 C 250.222656 166.316406 256.742188 158.699219 264.214844 160.53125 C 266.804688 161.160156 269.441406 161.585938 272.125 161.660156 C 278.363281 161.835938 284.984375 159.726562 288.765625 154.761719 C 292.703125 149.589844 292.835938 142.5 292.105469 136.039062 C 288.414062 103.855469 265.957031 74.53125 235.855469 62.546875 C 227.34375 59.164062 216.839844 57.363281 209.632812 63.03125 C 204.066406 67.410156 202.175781 75.042969 202.046875 82.117188 C 202.046875 82.25 202.046875 82.382812 202.046875 82.527344 C 201.929688 90.46875 195.484375 96.855469 187.542969 96.882812 C 187.527344 96.882812 187.515625 96.882812 187.5 96.882812 C 187.5 96.882812 187.46875 96.882812 187.457031 96.882812 C 179.515625 96.855469 173.070312 90.46875 172.953125 82.527344 C 172.953125 82.382812 172.953125 82.25 172.953125 82.117188 C 172.820312 75.042969 170.933594 67.410156 165.367188 63.03125 C 158.160156 57.363281 147.65625 59.164062 139.144531 62.546875 C 109.042969 74.53125 86.585938 103.855469 82.894531 136.039062 C 82.164062 142.5 82.296875 149.589844 86.234375 154.761719 C 90.015625 159.726562 96.636719 161.835938 102.875 161.660156 C 105.554688 161.585938 108.191406 161.160156 110.785156 160.53125 C 118.257812 158.699219 124.773438 166.316406 121.347656 173.1875 C 121.15625 173.570312 120.953125 173.933594 120.730469 174.316406 C 118.023438 178.769531 112.058594 179.648438 107.871094 176.542969 C 103.535156 173.347656 97.777344 171.957031 92.386719 172.703125 C 84.683594 173.757812 77.84375 178.636719 73.167969 184.847656 C 68.496094 191.058594 65.757812 198.53125 63.882812 206.074219 C 61.730469 214.820312 60.628906 224.105469 63.164062 232.75 C 65.683594 241.390625 72.464844 249.214844 81.300781 250.898438 C 74.003906 261.488281 74.957031 276.285156 81.152344 287.5625 C 87.347656 298.84375 97.96875 307.074219 109.1875 313.375 C 124.027344 321.679688 140.433594 327.171875 157.28125 329.457031 C 161.558594 330.027344 165.921875 330.410156 170.140625 329.53125 C 174.359375 328.652344 178.460938 326.382812 180.671875 322.675781 C 183.121094 318.601562 182.929688 313.386719 181.316406 308.921875 C 179.707031 304.453125 176.835938 300.585938 173.992188 296.777344 C 173.992188 296.777344 183.792969 289.863281 181.492188 275.683594 C 180.90625 272.152344 183.734375 268.960938 187.308594 269.003906 C 187.382812 269.003906 187.441406 269.019531 187.5 269.019531 C 187.558594 269.019531 187.617188 269.003906 187.691406 269.003906 C 191.265625 268.960938 194.089844 272.152344 193.503906 275.683594 C 191.207031 289.863281 201.003906 296.777344 201.003906 296.777344 C 198.164062 300.585938 195.292969 304.453125 193.679688 308.921875 C 192.070312 313.386719 191.878906 318.601562 194.324219 322.675781 C 196.539062 326.382812 200.640625 328.652344 204.859375 329.53125 C 209.078125 330.410156 213.441406 330.027344 217.71875 329.457031 C 234.566406 327.171875 250.972656 321.679688 265.808594 313.375 C 277.03125 307.074219 287.652344 298.84375 293.847656 287.5625 C 300.042969 276.285156 300.996094 261.488281 293.699219 250.898438 C 302.535156 249.214844 309.316406 241.390625 311.835938 232.75 C 314.371094 224.105469 313.269531 214.820312 311.117188 206.074219 " fill-opacity="1" fill-rule="nonzero"/></svg>