<svg xmlns="http://www.w3.org/2000/svg" xmlns:xlink="http://www.w3.org/1999/xlink" width="500" zoomAndPan="magnify" viewBox="0 0 375 374.999991" height="500" preserveAspectRatio="xMidYMid meet" version="1.0"><path fill="#008ab0" d="M 303.152344 189.398438 C 304.03125 191.734375 306.367188 193.195312 308.703125 193.195312 C 309.289062 193.195312 310.164062 193.195312 310.746094 192.902344 C 312.207031 192.320312 313.667969 191.734375 315.421875 190.859375 C 318.339844 189.398438 319.507812 185.894531 318.050781 182.972656 C 316.589844 180.050781 313.085938 178.882812 310.164062 180.34375 C 308.996094 180.929688 307.828125 181.511719 306.660156 181.804688 C 303.445312 182.972656 301.984375 186.476562 303.152344 189.398438 Z M 303.152344 189.398438 " fill-opacity="1" fill-rule="nonzero"/><path fill="#008ab0" d="M 308.410156 226.78125 C 308.996094 226.78125 309.871094 226.78125 310.457031 226.488281 C 311.914062 225.90625 313.375 225.320312 315.128906 224.445312 C 318.050781 222.984375 319.21875 219.480469 317.757812 216.558594 C 316.296875 213.640625 312.792969 212.472656 309.871094 213.929688 C 308.703125 214.515625 307.535156 215.097656 306.367188 215.390625 C 303.445312 216.558594 301.984375 220.0625 303.152344 222.984375 C 304.03125 225.320312 306.074219 226.78125 308.410156 226.78125 Z M 308.410156 226.78125 " fill-opacity="1" fill-rule="nonzero"/><path fill="#008ab0" d="M 214.953125 252.773438 C 212.910156 250.4375 209.113281 250.144531 206.777344 252.191406 C 205.609375 253.359375 204.4375 254.527344 203.269531 255.695312 C 201.226562 258.03125 201.226562 261.828125 203.5625 263.871094 C 204.730469 264.75 206.191406 265.332031 207.359375 265.332031 C 208.820312 265.332031 210.574219 264.75 211.742188 263.289062 C 212.617188 262.414062 213.492188 261.535156 214.371094 260.660156 C 216.707031 258.90625 216.996094 255.402344 214.953125 252.773438 Z M 214.953125 252.773438 " fill-opacity="1" fill-rule="nonzero"/><path fill="#008ab0" d="M 317.757812 252.773438 C 316.296875 249.855469 312.792969 248.6875 309.871094 250.144531 C 308.703125 250.730469 307.535156 251.3125 306.367188 251.605469 C 303.445312 252.773438 301.984375 256.277344 303.152344 259.199219 C 304.03125 261.535156 306.367188 262.996094 308.703125 262.996094 C 309.289062 262.996094 310.164062 262.996094 310.746094 262.703125 C 312.207031 262.121094 313.667969 261.535156 315.421875 260.660156 C 318.050781 259.199219 319.21875 255.695312 317.757812 252.773438 Z M 317.757812 252.773438 " fill-opacity="1" fill-rule="nonzero"/><path fill="#008ab0" d="M 206.484375 286.070312 C 205.316406 287.238281 204.148438 288.40625 202.980469 289.574219 C 200.933594 291.910156 200.933594 295.707031 203.5625 297.75 C 204.730469 298.628906 206.191406 299.210938 207.359375 299.210938 C 208.820312 299.210938 210.574219 298.628906 211.742188 297.167969 C 212.617188 296.289062 213.492188 295.414062 214.371094 294.539062 C 216.707031 292.496094 216.996094 288.699219 214.953125 286.359375 C 212.617188 284.023438 208.820312 283.734375 206.484375 286.070312 Z M 206.484375 286.070312 " fill-opacity="1" fill-rule="nonzero"/><path fill="#008ab0" d="M 226.050781 276.722656 C 222.839844 277.308594 220.503906 280.226562 221.085938 283.441406 C 221.378906 286.359375 224.007812 288.40625 226.925781 288.40625 C 227.21875 288.40625 227.511719 288.40625 227.804688 288.40625 C 230.140625 288.113281 233.0625 288.113281 235.6875 288.113281 C 238.902344 288.40625 241.824219 286.070312 242.113281 282.855469 C 242.40625 279.644531 240.070312 276.722656 236.859375 276.429688 C 233.0625 276.140625 229.554688 276.429688 226.050781 276.722656 Z M 226.050781 276.722656 " fill-opacity="1" fill-rule="nonzero"/><path fill="#008ab0" d="M 264.894531 283.148438 L 261.972656 282.273438 C 259.929688 281.6875 257.886719 281.105469 255.839844 280.519531 C 252.628906 279.644531 249.414062 281.394531 248.539062 284.609375 C 247.664062 287.820312 249.414062 291.035156 252.628906 291.910156 C 254.671875 292.492188 256.425781 293.078125 258.46875 293.664062 L 261.390625 294.539062 C 261.972656 294.832031 262.558594 294.832031 263.140625 294.832031 C 265.769531 294.832031 268.109375 293.078125 268.691406 290.742188 C 269.566406 287.238281 267.816406 284.023438 264.894531 283.148438 Z M 264.894531 283.148438 " fill-opacity="1" fill-rule="nonzero"/><path fill="#008ab0" d="M 282.125 287.238281 C 278.914062 286.652344 275.992188 288.988281 275.410156 292.203125 C 274.824219 295.414062 277.160156 298.335938 280.375 298.917969 C 283.878906 299.503906 287.089844 299.796875 290.304688 299.796875 C 290.304688 299.796875 290.304688 299.796875 290.597656 299.796875 C 293.808594 299.796875 296.4375 297.167969 296.4375 294.246094 C 296.4375 291.035156 294.101562 288.40625 290.886719 288.113281 C 287.96875 288.113281 285.046875 287.820312 282.125 287.238281 Z M 282.125 287.238281 " fill-opacity="1" fill-rule="nonzero"/><path fill="#008ab0" d="M 309.871094 284.023438 C 308.703125 284.609375 307.535156 285.191406 306.367188 285.484375 C 303.445312 286.652344 301.984375 290.15625 303.152344 293.078125 C 304.03125 295.414062 306.367188 296.875 308.703125 296.875 C 309.289062 296.875 310.164062 296.875 310.746094 296.582031 C 312.207031 296 313.667969 295.414062 315.421875 294.539062 C 318.339844 293.078125 319.507812 289.574219 318.050781 286.652344 C 316.589844 283.734375 312.792969 282.5625 309.871094 284.023438 Z M 309.871094 284.023438 " fill-opacity="1" fill-rule="nonzero"/><path fill="#008ab0" d="M 56.074219 182.679688 C 54.613281 185.601562 55.78125 189.105469 58.703125 190.566406 C 60.164062 191.441406 61.625 192.027344 63.375 192.609375 C 63.960938 192.902344 64.835938 192.902344 65.421875 192.902344 C 67.757812 192.902344 70.09375 191.441406 70.96875 189.105469 C 72.136719 186.1875 70.675781 182.679688 67.757812 181.511719 C 66.589844 180.929688 65.421875 180.636719 64.253906 180.050781 C 61.039062 178.882812 57.535156 180.050781 56.074219 182.679688 Z M 56.074219 182.679688 " fill-opacity="1" fill-rule="nonzero"/><path fill="#008ab0" d="M 98.421875 222.109375 C 97.839844 218.894531 94.917969 216.851562 91.707031 217.144531 C 88.785156 217.726562 85.863281 218.019531 83.234375 218.019531 C 80.023438 218.019531 77.394531 220.941406 77.6875 224.152344 C 77.6875 227.367188 80.316406 229.703125 83.527344 229.703125 C 83.527344 229.703125 83.527344 229.703125 83.820312 229.703125 C 87.03125 229.703125 90.246094 229.410156 93.75 228.824219 C 96.671875 228.242188 99.007812 225.320312 98.421875 222.109375 Z M 98.421875 222.109375 " fill-opacity="1" fill-rule="nonzero"/><path fill="#008ab0" d="M 58.703125 224.152344 C 60.164062 225.027344 61.625 225.613281 63.375 226.199219 C 63.960938 226.488281 64.835938 226.488281 65.421875 226.488281 C 67.757812 226.488281 69.800781 225.027344 70.96875 222.691406 C 72.136719 219.773438 70.675781 216.265625 67.757812 215.097656 C 66.589844 214.515625 65.421875 214.222656 64.253906 213.640625 C 61.332031 212.179688 57.828125 213.347656 56.367188 216.265625 C 54.613281 219.1875 55.78125 222.691406 58.703125 224.152344 Z M 58.703125 224.152344 " fill-opacity="1" fill-rule="nonzero"/><path fill="#008ab0" d="M 170.851562 255.988281 C 169.683594 254.820312 168.515625 253.652344 167.347656 252.484375 C 165.011719 250.4375 161.214844 250.4375 159.171875 253.066406 C 157.125 255.402344 157.125 259.199219 159.753906 261.246094 C 160.628906 262.121094 161.507812 262.996094 162.382812 263.871094 C 163.550781 265.039062 165.011719 265.917969 166.765625 265.917969 C 168.222656 265.917969 169.683594 265.332031 170.5625 264.457031 C 172.898438 262.121094 172.898438 258.324219 170.851562 255.988281 Z M 170.851562 255.988281 " fill-opacity="1" fill-rule="nonzero"/><path fill="#008ab0" d="M 67.464844 251.898438 C 66.296875 251.3125 65.128906 251.023438 63.960938 250.4375 C 61.039062 248.976562 57.535156 250.144531 56.074219 253.066406 C 54.613281 255.988281 55.78125 259.492188 58.703125 260.953125 C 60.164062 261.828125 61.625 262.414062 63.375 262.996094 C 63.960938 263.289062 64.835938 263.289062 65.421875 263.289062 C 67.757812 263.289062 70.09375 261.828125 70.96875 259.492188 C 71.847656 256.570312 70.386719 253.066406 67.464844 251.898438 Z M 67.464844 251.898438 " fill-opacity="1" fill-rule="nonzero"/><path fill="#008ab0" d="M 337.03125 137.996094 C 337.03125 137.996094 336.742188 137.996094 337.03125 137.996094 C 336.742188 137.703125 336.449219 137.703125 336.449219 137.414062 C 336.449219 137.414062 336.449219 137.414062 336.15625 137.121094 C 336.15625 137.121094 335.863281 137.121094 335.863281 136.828125 C 335.863281 136.828125 335.574219 136.535156 335.574219 136.535156 C 335.574219 136.535156 335.28125 136.535156 335.28125 136.535156 C 335.28125 136.535156 334.988281 136.535156 334.988281 136.535156 C 334.695312 136.535156 334.695312 136.535156 334.402344 136.535156 C 334.402344 136.535156 334.113281 136.535156 334.113281 136.535156 C 334.113281 136.535156 333.820312 136.535156 333.820312 136.535156 C 333.527344 136.535156 333.527344 136.535156 333.234375 136.535156 C 333.234375 136.535156 333.234375 136.535156 332.945312 136.535156 C 332.945312 136.535156 332.652344 136.535156 332.652344 136.535156 C 332.359375 136.535156 332.359375 136.535156 332.066406 136.535156 C 332.066406 136.535156 331.777344 136.535156 331.777344 136.535156 C 331.777344 136.535156 331.484375 136.535156 331.484375 136.535156 C 331.191406 136.535156 331.191406 136.535156 330.898438 136.828125 C 330.898438 136.828125 330.609375 136.828125 330.609375 136.828125 C 330.609375 136.828125 330.316406 136.828125 330.316406 137.121094 C 330.316406 137.121094 330.023438 137.121094 330.023438 137.121094 C 325.351562 139.75 320.96875 141.5 316.296875 142.667969 C 315.421875 146.757812 314.542969 151.140625 313.375 155.226562 C 317.757812 154.644531 322.429688 153.476562 326.8125 151.722656 L 326.8125 329.878906 C 305.78125 339.222656 283.292969 332.503906 261.683594 326.082031 C 239.195312 319.363281 216.414062 312.644531 195.96875 324.328125 C 194.507812 322.574219 193.339844 321.40625 192.464844 320.238281 L 192.464844 251.3125 C 190.421875 251.3125 188.667969 251.605469 186.625 251.605469 C 184.578125 251.605469 182.828125 251.605469 180.78125 251.3125 L 180.78125 319.949219 C 179.90625 320.824219 178.445312 322.285156 177.277344 324.035156 C 156.835938 312.644531 134.054688 319.363281 111.566406 325.789062 C 89.953125 332.214844 67.464844 338.640625 46.4375 329.585938 L 46.4375 152.890625 C 51.109375 154.644531 55.78125 155.8125 60.457031 156.394531 C 59.289062 152.308594 58.410156 148.21875 57.535156 143.835938 C 52.863281 142.667969 48.1875 140.917969 43.515625 138.289062 C 43.515625 138.289062 43.515625 138.289062 43.222656 138.289062 C 43.222656 138.289062 42.933594 138.289062 42.933594 137.996094 C 42.933594 137.996094 42.640625 137.996094 42.640625 137.996094 C 42.347656 137.996094 42.347656 137.996094 42.054688 137.996094 C 42.054688 137.996094 41.765625 137.996094 41.765625 137.996094 C 41.765625 137.996094 41.472656 137.996094 41.472656 137.996094 C 41.179688 137.996094 41.179688 137.996094 40.886719 137.996094 C 40.886719 137.996094 40.597656 137.996094 40.597656 137.996094 C 40.597656 137.996094 40.597656 137.996094 40.304688 137.996094 C 40.304688 137.996094 40.011719 137.996094 40.011719 137.996094 C 40.011719 137.996094 39.71875 137.996094 39.71875 137.996094 C 39.71875 137.996094 39.425781 137.996094 39.425781 137.996094 C 39.425781 137.996094 39.136719 137.996094 39.136719 137.996094 C 39.136719 137.996094 38.84375 137.996094 38.84375 137.996094 C 38.84375 137.996094 38.550781 137.996094 38.550781 137.996094 C 38.550781 137.996094 38.257812 137.996094 38.257812 138.289062 C 38.257812 138.289062 37.96875 138.289062 37.96875 138.582031 C 37.96875 138.582031 37.675781 138.582031 37.675781 138.871094 C 37.675781 138.871094 37.382812 139.164062 37.382812 139.164062 C 37.382812 139.164062 37.382812 139.164062 37.089844 139.164062 L 3.796875 169.832031 C 1.460938 172.167969 0 175.085938 0 178.59375 L 0 368.429688 C 0 368.722656 0 369.304688 0 369.597656 C 0 369.890625 0 369.890625 0.292969 370.179688 C 0.292969 370.472656 0.292969 370.472656 0.585938 370.765625 C 0.585938 371.058594 0.875 371.058594 0.875 371.347656 C 0.875 371.640625 0.875 371.640625 1.167969 371.933594 C 1.460938 372.515625 2.042969 373.101562 2.921875 373.6875 C 3.210938 373.6875 3.210938 373.976562 3.503906 373.976562 C 3.796875 373.976562 3.796875 374.269531 4.089844 374.269531 C 4.378906 374.269531 4.378906 374.269531 4.671875 374.5625 C 4.964844 374.5625 4.964844 374.5625 5.257812 374.5625 C 5.550781 374.5625 6.132812 374.5625 6.425781 374.5625 L 368.574219 374.5625 C 368.867188 374.5625 369.449219 374.5625 369.742188 374.5625 C 370.035156 374.5625 370.035156 374.5625 370.328125 374.269531 C 370.617188 374.269531 370.617188 374.269531 370.910156 373.976562 C 371.203125 373.976562 371.203125 373.6875 371.496094 373.6875 C 371.789062 373.6875 371.789062 373.394531 372.078125 373.394531 C 372.664062 373.101562 373.246094 372.515625 373.832031 371.640625 C 373.832031 371.640625 374.125 371.347656 374.125 371.058594 C 374.125 370.765625 374.414062 370.765625 374.414062 370.472656 C 374.414062 370.179688 374.414062 370.179688 374.707031 369.890625 C 374.707031 369.597656 374.707031 369.597656 375 369.304688 C 375 369.011719 375 368.722656 375 368.136719 L 375 178.300781 C 375 175.085938 373.539062 172.167969 371.496094 169.832031 Z M 362.148438 354.410156 L 338.785156 331.046875 L 338.785156 156.105469 L 362.148438 178.59375 Z M 258.761719 337.179688 C 273.074219 341.265625 288.550781 345.941406 304.324219 345.941406 C 313.375 345.941406 322.722656 344.480469 331.777344 340.390625 L 353.972656 362.585938 L 202.980469 362.585938 C 205.316406 358.207031 206.777344 352.65625 206.777344 346.816406 C 206.777344 342.4375 205.316406 338.054688 203.269531 333.964844 C 219.042969 325.496094 237.734375 331.046875 258.761719 337.179688 Z M 195.09375 346.816406 C 195.09375 355.285156 190.710938 361.710938 186.914062 361.710938 C 183.121094 361.710938 178.738281 355.285156 178.738281 346.816406 C 178.738281 341.851562 183.121094 335.425781 186.914062 331.046875 C 190.710938 335.425781 195.09375 341.851562 195.09375 346.816406 Z M 69.507812 345.941406 C 85.28125 345.941406 100.757812 341.265625 115.070312 337.179688 C 136.097656 331.046875 154.789062 325.496094 170.851562 333.964844 C 168.808594 338.054688 167.347656 342.4375 167.347656 346.816406 C 167.347656 352.65625 168.808594 358.207031 171.144531 362.585938 L 19.859375 362.585938 L 42.054688 340.390625 C 51.109375 344.480469 60.457031 345.941406 69.507812 345.941406 Z M 35.046875 156.980469 L 35.046875 331.046875 L 11.683594 354.410156 L 11.683594 178.300781 Z M 35.046875 156.980469 " fill-opacity="1" fill-rule="nonzero"/><path fill="#008ab0" d="M 156.542969 115.800781 C 159.171875 121.933594 164.136719 126.605469 169.390625 128.066406 C 169.683594 128.652344 169.683594 129.820312 169.683594 130.695312 C 169.976562 133.03125 169.976562 135.660156 171.4375 138.289062 C 173.480469 142.085938 176.402344 143.835938 178.738281 145.003906 C 181.074219 146.464844 182.535156 147.050781 183.703125 150.554688 C 185.164062 154.9375 188.085938 158.441406 191.878906 159.902344 C 194.800781 161.359375 198.015625 160.777344 200.058594 160.484375 C 200.933594 160.484375 201.519531 160.191406 202.101562 160.191406 C 204.148438 160.191406 206.191406 161.945312 208.820312 164.28125 C 210.574219 165.742188 212.910156 167.785156 215.246094 168.953125 C 217.582031 170.121094 220.210938 171 222.839844 171 C 225.757812 171 228.679688 170.121094 231.015625 167.785156 C 232.769531 166.035156 233.644531 163.699219 234.230469 162.238281 C 234.519531 161.945312 234.519531 161.070312 234.8125 160.777344 C 235.398438 160.777344 236.273438 160.484375 236.859375 160.484375 C 239.484375 160.191406 243.574219 159.902344 246.496094 156.394531 C 248.246094 154.351562 248.832031 152.015625 249.125 150.554688 C 251.167969 142.085938 252.921875 132.15625 249.125 123.976562 C 252.335938 121.058594 253.796875 115.800781 252.921875 109.960938 C 252.335938 106.746094 251.460938 102.65625 248.246094 99.738281 C 245.328125 97.109375 241.238281 96.234375 237.734375 96.816406 C 237.441406 96.523438 237.441406 96.523438 237.148438 96.234375 C 236.566406 95.648438 235.980469 94.773438 235.105469 94.1875 C 231.601562 90.390625 225.175781 88.929688 220.210938 90.390625 C 215.828125 91.851562 212.324219 91.558594 209.402344 91.558594 C 208.820312 91.558594 207.945312 91.558594 207.359375 91.558594 C 196.847656 91.265625 193.925781 87.761719 193.925781 87.761719 C 193.632812 87.179688 193.050781 85.132812 192.757812 83.675781 C 191.589844 79 188.960938 67.609375 178.152344 69.363281 C 174.941406 69.949219 172.605469 71.117188 171.144531 71.992188 C 170.851562 71.992188 170.5625 72.285156 170.5625 72.285156 C 170.5625 72.285156 170.269531 72.285156 170.269531 72.285156 C 168.222656 71.40625 166.179688 71.117188 162.96875 71.992188 C 159.460938 72.867188 157.710938 74.914062 156.835938 76.371094 C 154.496094 80.460938 155.957031 84.84375 157.125 88.640625 C 157.417969 89.808594 158.003906 91.851562 158.292969 92.726562 C 153.621094 100.320312 153.328125 108.5 156.542969 115.800781 Z M 167.933594 97.691406 C 169.976562 93.605469 168.515625 88.929688 167.347656 85.132812 C 167.347656 84.84375 167.054688 84.257812 167.054688 83.964844 C 168.222656 84.257812 169.976562 84.257812 172.3125 83.964844 C 174.066406 83.675781 175.234375 82.796875 176.402344 82.214844 C 177.277344 81.628906 178.152344 81.335938 179.324219 81.046875 C 179.90625 82.214844 180.492188 84.84375 181.074219 86.300781 C 181.949219 89.515625 182.535156 92.726562 184.578125 95.0625 C 186.625 97.402344 192.464844 102.65625 206.777344 103.242188 C 207.359375 103.242188 207.945312 103.242188 208.527344 103.242188 C 212.03125 103.535156 216.996094 103.824219 223.421875 101.78125 C 224.300781 101.488281 226.050781 102.074219 226.636719 102.65625 C 227.21875 103.242188 227.804688 103.824219 228.386719 104.410156 C 229.554688 105.578125 230.722656 107.039062 232.183594 108.207031 C 234.230469 109.960938 237.441406 110.25 239.484375 108.5 C 239.777344 108.5 240.070312 108.5 240.070312 108.5 C 240.363281 108.789062 240.945312 109.375 241.238281 112.003906 C 241.53125 114.339844 241.238281 115.507812 241.238281 115.800781 L 240.945312 116.09375 C 239.777344 116.675781 236.566406 118.429688 235.980469 122.226562 C 235.6875 125.144531 236.859375 127.191406 237.734375 128.066406 C 241.238281 133.324219 239.777344 140.917969 237.734375 148.511719 C 237.734375 148.800781 237.734375 149.09375 237.441406 149.386719 C 236.859375 149.386719 236.273438 149.679688 235.6875 149.679688 C 233.0625 149.972656 229.847656 150.261719 226.925781 152.597656 C 224.589844 154.644531 223.714844 156.980469 223.128906 158.730469 C 222.839844 159.023438 222.839844 159.902344 222.546875 160.191406 C 222.253906 160.191406 221.378906 159.902344 220.503906 159.609375 C 219.042969 158.730469 217.582031 157.5625 215.828125 156.105469 C 212.324219 153.183594 207.945312 149.386719 201.8125 149.386719 C 201.8125 149.386719 201.519531 149.386719 201.519531 149.386719 C 200.351562 149.386719 199.183594 149.386719 198.304688 149.679688 C 197.722656 149.679688 196.554688 149.972656 196.261719 149.972656 C 195.675781 149.679688 195.09375 148.800781 194.507812 147.632812 C 192.171875 140.039062 187.5 137.121094 184.289062 135.367188 C 182.535156 134.492188 181.949219 133.90625 181.660156 133.324219 C 181.367188 132.738281 181.367188 131.277344 181.367188 130.402344 C 181.074219 126.898438 180.492188 119.597656 172.898438 117.261719 C 171.144531 116.675781 168.808594 114.632812 167.347656 111.417969 C 166.179688 108.789062 164.71875 103.824219 167.933594 97.691406 Z M 167.933594 97.691406 " fill-opacity="1" fill-rule="nonzero"/><path fill="#008ab0" d="M 95.503906 197.574219 C 95.792969 197.867188 96.085938 198.160156 96.378906 198.453125 C 118.28125 223.859375 150.699219 239.925781 186.914062 239.925781 C 252.921875 239.925781 306.660156 186.1875 306.660156 120.179688 C 306.660156 54.175781 252.921875 0.4375 186.914062 0.4375 C 120.910156 0.4375 67.171875 54.175781 67.171875 120.179688 C 67.171875 149.386719 77.6875 175.964844 94.917969 196.699219 C 94.917969 196.992188 95.210938 197.285156 95.503906 197.574219 Z M 175.527344 227.65625 C 175.816406 226.199219 176.984375 224.738281 178.445312 223.570312 C 180.492188 222.109375 183.410156 221.234375 186.332031 220.0625 C 187.792969 219.480469 189.542969 218.894531 191.003906 218.3125 C 198.890625 215.097656 205.316406 210.132812 211.742188 205.167969 L 212.617188 204.292969 C 212.910156 204.585938 213.199219 204.878906 213.492188 205.167969 C 214.953125 206.921875 216.996094 208.675781 219.625 209.84375 C 226.925781 212.761719 233.644531 206.921875 235.980469 204.878906 L 242.992188 198.746094 C 243.28125 199.328125 243.867188 199.914062 244.449219 200.496094 C 247.664062 203.417969 251.460938 203.710938 254.671875 203.710938 C 236.273438 219.1875 212.617188 228.242188 186.914062 228.242188 C 183.121094 228.242188 179.324219 227.949219 175.527344 227.65625 Z M 290.597656 89.515625 C 287.089844 87.472656 282.417969 85.132812 277.160156 87.761719 C 274.242188 89.222656 272.78125 91.558594 271.320312 93.3125 C 270.734375 93.894531 270.445312 94.773438 270.152344 95.0625 C 269.277344 95.941406 266.648438 95.355469 265.1875 93.894531 C 262.851562 91.558594 261.972656 87.472656 261.390625 83.964844 C 260.804688 80.167969 259.929688 76.082031 257.300781 72.285156 C 254.671875 68.777344 250.875 67.320312 247.664062 66.441406 C 246.496094 66.152344 244.742188 65.273438 244.449219 65.273438 C 244.160156 64.691406 243.867188 62.9375 243.867188 61.769531 C 243.574219 58.558594 243.28125 54.46875 239.777344 51.839844 C 235.105469 48.042969 228.097656 47.75 221.378906 50.671875 C 219.335938 51.546875 217.289062 52.714844 215.539062 53.882812 C 213.492188 55.050781 211.742188 55.929688 209.988281 56.804688 C 207.359375 57.679688 204.730469 57.679688 203.855469 56.511719 C 203.5625 56.222656 202.980469 54.46875 202.6875 53.300781 C 201.519531 50.085938 199.765625 43.953125 193.339844 43.371094 C 188.085938 42.785156 187.792969 41.910156 186.914062 37.527344 C 186.039062 33.441406 184.578125 27.308594 177.570312 23.511719 C 173.480469 21.175781 168.515625 21.175781 164.136719 21.175781 C 156.835938 21.175781 155.957031 20.589844 155.664062 17.960938 C 165.011719 13.871094 175.816406 12.121094 186.914062 12.121094 C 235.980469 12.121094 277.453125 44.832031 290.597656 89.515625 Z M 143.984375 21.175781 C 146.613281 31.980469 157.710938 31.980469 163.257812 31.980469 C 166.472656 31.980469 169.390625 31.980469 171.144531 32.855469 C 173.480469 34.023438 173.773438 35.777344 174.648438 39.28125 C 175.816406 44.246094 177.570312 52.425781 190.128906 54.175781 C 190.421875 54.761719 190.710938 55.636719 190.710938 56.222656 C 191.589844 58.558594 192.464844 61.476562 194.800781 63.8125 C 200.058594 69.070312 207.945312 68.777344 213.492188 66.734375 C 216.121094 65.859375 218.457031 64.398438 220.792969 63.230469 C 222.546875 62.355469 224.007812 61.476562 225.46875 60.601562 C 227.804688 59.726562 230.140625 59.433594 231.601562 60.015625 C 231.601562 60.601562 231.890625 61.476562 231.890625 62.0625 C 232.183594 64.984375 232.476562 69.070312 235.105469 71.992188 C 237.441406 74.621094 240.652344 75.789062 243.574219 76.664062 C 245.035156 77.25 247.371094 77.832031 247.957031 78.417969 C 249.125 79.878906 249.707031 82.503906 250 84.84375 C 250.875 90.390625 252.335938 96.523438 257.007812 101.199219 C 259.929688 104.410156 264.601562 106.453125 268.984375 106.453125 C 272.195312 106.453125 275.410156 105.578125 278.039062 102.949219 C 279.496094 101.78125 280.375 100.320312 281.25 99.152344 C 281.542969 98.570312 282.125 97.984375 282.417969 97.691406 C 283.292969 97.984375 285.046875 99.152344 286.214844 99.738281 C 288.257812 101.199219 290.886719 102.949219 294.101562 103.535156 C 294.976562 108.789062 295.269531 114.046875 295.269531 119.304688 C 295.269531 147.925781 284.171875 173.917969 265.769531 193.195312 C 263.433594 192.027344 260.804688 191.441406 257.886719 191.441406 L 256.71875 191.441406 C 255.550781 191.441406 253.503906 191.441406 252.921875 191.152344 C 252.628906 190.859375 252.335938 190.566406 252.335938 190.273438 C 251.167969 188.8125 249.414062 186.476562 246.203125 185.601562 C 241.238281 184.433594 237.734375 187.644531 236.273438 188.8125 L 228.972656 195.238281 C 225.757812 198.160156 224.589844 198.160156 224.589844 198.160156 C 224.300781 197.867188 223.128906 196.992188 222.546875 196.40625 C 220.503906 194.070312 216.996094 190.566406 211.449219 191.441406 C 208.820312 192.027344 207.066406 193.488281 205.898438 194.363281 L 204.730469 196.117188 C 198.890625 200.789062 193.050781 205.167969 186.914062 207.796875 C 185.457031 208.382812 184.289062 208.675781 182.828125 209.257812 C 179.324219 210.425781 175.527344 211.886719 171.730469 214.222656 C 167.933594 216.851562 164.71875 221.234375 163.84375 225.90625 C 147.195312 222.402344 131.71875 214.808594 118.867188 204.292969 C 119.742188 203.710938 120.328125 203.417969 120.910156 202.539062 C 127.628906 196.117188 127.335938 187.0625 127.042969 179.175781 C 126.753906 171 126.753906 166.035156 130.839844 163.113281 C 136.972656 159.023438 141.355469 152.597656 142.816406 145.882812 C 143.691406 141.792969 143.109375 137.996094 142.816406 134.492188 C 142.230469 131.277344 141.9375 128.652344 142.816406 126.898438 C 143.109375 126.3125 143.691406 125.4375 144.277344 124.5625 C 145.152344 123.101562 146.320312 121.347656 147.195312 119.304688 C 149.53125 112.585938 146.902344 105.285156 140.480469 100.320312 C 138.433594 98.570312 137.558594 95.648438 138.433594 93.019531 L 138.433594 92.726562 C 139.3125 90.097656 140.480469 86.300781 139.019531 82.503906 C 135.222656 71.992188 127.335938 67.027344 117.113281 67.609375 C 116.238281 66.734375 114.777344 64.691406 113.902344 62.9375 C 111.566406 59.433594 108.644531 54.46875 103.679688 51.839844 C 114.484375 38.40625 128.210938 27.890625 143.984375 21.175781 Z M 96.378906 61.1875 C 99.007812 62.0625 101.050781 64.691406 103.679688 69.070312 C 106.601562 73.742188 110.398438 79.878906 117.40625 79.292969 C 120.910156 79 125 79.585938 127.628906 86.300781 C 127.628906 86.886719 127.335938 88.347656 127.042969 89.222656 L 127.042969 89.515625 C 124.707031 96.816406 127.335938 104.992188 133.175781 109.667969 C 134.929688 111.128906 136.972656 113.464844 136.097656 115.507812 C 135.804688 116.09375 135.222656 116.96875 134.636719 118.136719 C 133.761719 119.304688 132.886719 120.765625 132.007812 122.515625 C 129.964844 127.484375 130.550781 132.15625 131.132812 136.535156 C 131.425781 139.164062 132.007812 141.792969 131.425781 143.546875 C 130.550781 147.34375 127.628906 151.429688 124.125 153.765625 C 114.484375 160.484375 115.070312 171.289062 115.363281 180.050781 C 115.652344 187.355469 115.652344 192.027344 112.734375 194.65625 C 112.734375 194.65625 112.441406 194.949219 111.859375 194.949219 C 109.8125 194.949219 106.890625 193.195312 104.554688 191.152344 C 88.785156 171.582031 78.855469 147.050781 78.855469 120.179688 C 78.855469 98.277344 85.28125 78.125 96.378906 61.1875 Z M 96.378906 61.1875 " fill-opacity="1" fill-rule="nonzero"/><path fill="#008ab0" d="M 159.171875 286.359375 C 157.125 288.699219 157.125 292.492188 159.753906 294.539062 C 160.628906 295.414062 161.507812 296.289062 162.382812 297.167969 C 163.550781 298.335938 165.011719 299.210938 166.765625 299.210938 C 168.222656 299.210938 169.683594 298.628906 170.5625 297.75 C 172.898438 295.707031 173.1875 291.910156 171.144531 289.574219 C 169.976562 288.40625 168.808594 287.238281 167.640625 286.070312 C 165.011719 283.734375 161.214844 284.023438 159.171875 286.359375 Z M 159.171875 286.359375 " fill-opacity="1" fill-rule="nonzero"/><path fill="#008ab0" d="M 138.140625 288.113281 C 140.769531 287.820312 143.691406 287.820312 146.027344 288.40625 C 146.320312 288.40625 146.613281 288.40625 146.902344 288.40625 C 149.824219 288.40625 152.160156 286.359375 152.746094 283.441406 C 153.328125 280.226562 150.992188 277.308594 147.78125 276.722656 C 144.566406 276.140625 140.769531 276.140625 137.265625 276.429688 C 134.054688 276.722656 131.71875 279.644531 132.007812 282.855469 C 132.007812 286.070312 134.929688 288.40625 138.140625 288.113281 Z M 138.140625 288.113281 " fill-opacity="1" fill-rule="nonzero"/><path fill="#008ab0" d="M 110.6875 294.539062 C 111.273438 294.539062 111.859375 294.539062 112.441406 294.246094 L 115.363281 293.371094 C 117.40625 292.785156 119.449219 292.203125 121.203125 291.617188 C 124.414062 290.742188 126.167969 287.527344 125.292969 284.316406 C 124.414062 281.105469 121.203125 279.351562 117.992188 280.226562 C 115.945312 280.8125 113.902344 281.394531 111.859375 281.980469 L 108.9375 282.855469 C 105.722656 283.734375 103.972656 286.945312 104.847656 290.15625 C 105.722656 292.785156 108.0625 294.539062 110.6875 294.539062 Z M 110.6875 294.539062 " fill-opacity="1" fill-rule="nonzero"/><path fill="#008ab0" d="M 83.527344 299.796875 C 86.742188 299.796875 90.246094 299.503906 93.75 298.917969 C 96.960938 298.335938 99.007812 295.414062 98.714844 292.203125 C 98.128906 288.988281 95.210938 286.945312 91.996094 287.238281 C 89.078125 287.820312 86.15625 288.113281 83.527344 288.113281 C 80.316406 288.113281 77.6875 291.035156 77.980469 294.246094 C 77.6875 297.460938 80.316406 299.796875 83.527344 299.796875 Z M 83.527344 299.796875 " fill-opacity="1" fill-rule="nonzero"/><path fill="#008ab0" d="M 67.464844 285.484375 C 66.296875 284.902344 65.128906 284.609375 63.960938 284.023438 C 61.039062 282.5625 57.535156 283.734375 56.074219 286.652344 C 54.613281 289.574219 55.78125 293.078125 58.703125 294.539062 C 60.164062 295.414062 61.625 296 63.375 296.582031 C 63.960938 296.875 64.835938 296.875 65.421875 296.875 C 67.757812 296.875 69.800781 295.414062 70.96875 293.078125 C 71.847656 290.15625 70.386719 286.652344 67.464844 285.484375 Z M 67.464844 285.484375 " fill-opacity="1" fill-rule="nonzero"/><path fill="#008ab0" d="M 83.527344 266.210938 C 86.742188 266.210938 90.246094 265.917969 93.75 265.332031 C 96.960938 264.75 99.007812 261.828125 98.714844 258.617188 C 98.128906 255.402344 95.210938 253.359375 91.996094 253.652344 C 89.078125 254.234375 86.15625 254.527344 83.527344 254.527344 C 80.316406 254.527344 77.6875 257.15625 77.980469 260.367188 C 77.6875 263.582031 80.316406 266.210938 83.527344 266.210938 Z M 83.527344 266.210938 " fill-opacity="1" fill-rule="nonzero"/><path fill="#008ab0" d="M 138.140625 254.820312 C 140.769531 254.527344 143.691406 254.527344 146.027344 254.820312 C 146.320312 254.820312 146.613281 254.820312 146.902344 254.820312 C 149.824219 254.820312 152.160156 252.773438 152.746094 249.855469 C 152.746094 248.6875 152.746094 247.808594 152.453125 246.933594 C 148.074219 245.765625 143.984375 244.597656 140.1875 242.84375 C 139.3125 242.84375 138.140625 242.84375 137.265625 242.84375 C 134.054688 243.136719 131.71875 246.058594 132.007812 249.269531 C 132.007812 252.484375 134.929688 254.820312 138.140625 254.820312 Z M 138.140625 254.820312 " fill-opacity="1" fill-rule="nonzero"/><path fill="#008ab0" d="M 110.6875 260.953125 C 111.273438 260.953125 111.859375 260.953125 112.441406 260.660156 L 115.363281 259.785156 C 117.40625 259.199219 119.160156 258.617188 121.203125 258.03125 C 124.414062 257.15625 126.167969 253.941406 125.292969 250.730469 C 124.414062 247.515625 121.203125 245.765625 117.992188 246.640625 C 115.945312 247.226562 114.195312 247.808594 112.148438 248.394531 L 109.230469 249.269531 C 106.015625 250.144531 104.265625 253.359375 105.140625 256.570312 C 105.722656 259.199219 108.0625 260.953125 110.6875 260.953125 Z M 110.6875 260.953125 " fill-opacity="1" fill-rule="nonzero"/><path fill="#008ab0" d="M 280.082031 228.824219 C 283.585938 229.410156 286.800781 229.703125 290.011719 229.703125 C 290.011719 229.703125 290.011719 229.703125 290.304688 229.703125 C 293.515625 229.703125 296.144531 227.074219 296.144531 224.152344 C 296.144531 220.941406 293.808594 218.3125 290.597656 218.019531 C 287.96875 218.019531 285.046875 217.726562 282.125 217.144531 C 278.914062 216.558594 275.992188 218.894531 275.410156 222.109375 C 274.824219 225.320312 277.160156 228.242188 280.082031 228.824219 Z M 280.082031 228.824219 " fill-opacity="1" fill-rule="nonzero"/><path fill="#008ab0" d="M 264.894531 249.5625 L 261.972656 248.6875 C 259.929688 248.101562 257.886719 247.515625 256.132812 246.933594 C 252.921875 246.058594 249.707031 247.808594 248.832031 251.023438 C 247.957031 254.234375 249.707031 257.449219 252.921875 258.324219 C 254.964844 258.90625 256.71875 259.492188 258.761719 260.074219 L 261.683594 260.953125 C 262.265625 261.246094 262.851562 261.246094 263.433594 261.246094 C 266.0625 261.246094 268.398438 259.492188 268.984375 257.15625 C 269.566406 253.652344 267.816406 250.4375 264.894531 249.5625 Z M 264.894531 249.5625 " fill-opacity="1" fill-rule="nonzero"/><path fill="#008ab0" d="M 236.859375 243.136719 C 235.980469 243.136719 234.8125 243.136719 233.9375 243.136719 C 229.847656 244.597656 225.757812 246.058594 221.671875 247.226562 C 221.378906 248.101562 221.085938 248.976562 221.378906 250.144531 C 221.671875 253.066406 224.300781 255.109375 227.21875 255.109375 C 227.511719 255.109375 227.804688 255.109375 228.097656 255.109375 C 230.433594 254.820312 233.351562 254.820312 235.980469 255.109375 C 239.195312 255.402344 242.113281 253.066406 242.40625 249.855469 C 242.40625 246.058594 240.070312 243.429688 236.859375 243.136719 Z M 236.859375 243.136719 " fill-opacity="1" fill-rule="nonzero"/><path fill="#008ab0" d="M 290.597656 254.527344 C 287.96875 254.527344 285.339844 254.234375 282.125 253.652344 C 278.914062 253.066406 275.992188 255.402344 275.410156 258.617188 C 274.824219 261.828125 277.160156 264.75 280.375 265.332031 C 283.878906 265.917969 287.089844 266.210938 290.304688 266.210938 C 290.304688 266.210938 290.304688 266.210938 290.597656 266.210938 C 293.808594 266.210938 296.4375 263.582031 296.4375 260.367188 C 296.144531 257.15625 293.808594 254.527344 290.597656 254.527344 Z M 290.597656 254.527344 " fill-opacity="1" fill-rule="nonzero"/></svg>