<svg xmlns="http://www.w3.org/2000/svg" xmlns:xlink="http://www.w3.org/1999/xlink" width="500" zoomAndPan="magnify" viewBox="0 0 375 374.999991" height="500" preserveAspectRatio="xMidYMid meet" version="1.0"><defs><clipPath id="19bb47973b"><path d="M 37.5 146 L 337.5 146 L 337.5 337.5 L 37.5 337.5 Z M 37.5 146 " clip-rule="nonzero"/></clipPath><clipPath id="12aa2f47a5"><path d="M 91 37.5 L 283 37.5 L 283 230 L 91 230 Z M 91 37.5 " clip-rule="nonzero"/></clipPath></defs><path fill="#008ab0" d="M 280.023438 189.019531 C 280.722656 190.886719 282.59375 192.054688 284.460938 192.054688 C 284.929688 192.054688 285.628906 192.054688 286.097656 191.824219 C 287.265625 191.355469 288.433594 190.886719 289.835938 190.1875 C 292.171875 189.019531 293.109375 186.214844 291.9375 183.878906 C 290.769531 181.542969 287.96875 180.609375 285.628906 181.777344 C 284.695312 182.242188 283.761719 182.710938 282.828125 182.945312 C 280.257812 183.878906 279.089844 186.683594 280.023438 189.019531 Z M 280.023438 189.019531 " fill-opacity="1" fill-rule="nonzero"/><path fill="#008ab0" d="M 284.230469 218.925781 C 284.695312 218.925781 285.398438 218.925781 285.863281 218.691406 C 287.03125 218.222656 288.199219 217.757812 289.601562 217.054688 C 291.9375 215.886719 292.875 213.085938 291.707031 210.746094 C 290.539062 208.410156 287.734375 207.476562 285.398438 208.644531 C 284.460938 209.113281 283.527344 209.578125 282.59375 209.8125 C 280.257812 210.746094 279.089844 213.550781 280.023438 215.886719 C 280.722656 217.757812 282.359375 218.925781 284.230469 218.925781 Z M 284.230469 218.925781 " fill-opacity="1" fill-rule="nonzero"/><path fill="#008ab0" d="M 209.460938 239.71875 C 207.828125 237.851562 204.789062 237.617188 202.921875 239.253906 C 201.984375 240.1875 201.050781 241.121094 200.117188 242.054688 C 198.480469 243.925781 198.480469 246.960938 200.351562 248.597656 C 201.285156 249.300781 202.453125 249.765625 203.386719 249.765625 C 204.554688 249.765625 205.957031 249.300781 206.890625 248.128906 C 207.59375 247.429688 208.292969 246.730469 208.996094 246.027344 C 210.863281 244.625 211.097656 241.824219 209.460938 239.71875 Z M 209.460938 239.71875 " fill-opacity="1" fill-rule="nonzero"/><path fill="#008ab0" d="M 291.707031 239.71875 C 290.539062 237.382812 287.734375 236.449219 285.398438 237.617188 C 284.460938 238.085938 283.527344 238.550781 282.59375 238.785156 C 280.257812 239.71875 279.089844 242.523438 280.023438 244.859375 C 280.722656 246.730469 282.59375 247.898438 284.460938 247.898438 C 284.929688 247.898438 285.632812 247.898438 286.097656 247.664062 C 287.265625 247.195312 288.433594 246.730469 289.835938 246.027344 C 291.9375 244.859375 292.875 242.054688 291.707031 239.71875 Z M 291.707031 239.71875 " fill-opacity="1" fill-rule="nonzero"/><path fill="#008ab0" d="M 202.6875 266.355469 C 201.753906 267.289062 200.816406 268.222656 199.882812 269.160156 C 198.246094 271.027344 198.246094 274.066406 200.351562 275.699219 C 201.285156 276.402344 202.453125 276.871094 203.386719 276.871094 C 204.554688 276.871094 205.957031 276.402344 206.890625 275.234375 C 207.59375 274.53125 208.292969 273.832031 208.996094 273.128906 C 210.863281 271.496094 211.097656 268.457031 209.460938 266.589844 C 207.59375 264.71875 204.554688 264.484375 202.6875 266.355469 Z M 202.6875 266.355469 " fill-opacity="1" fill-rule="nonzero"/><path fill="#008ab0" d="M 218.339844 258.878906 C 215.769531 259.347656 213.902344 261.683594 214.371094 264.253906 C 214.601562 266.589844 216.707031 268.222656 219.042969 268.222656 C 219.277344 268.222656 219.507812 268.222656 219.742188 268.222656 C 221.613281 267.992188 223.949219 267.992188 226.050781 267.992188 C 228.621094 268.222656 230.957031 266.355469 231.191406 263.785156 C 231.425781 261.214844 229.554688 258.878906 226.984375 258.644531 C 223.949219 258.410156 221.144531 258.644531 218.339844 258.878906 Z M 218.339844 258.878906 " fill-opacity="1" fill-rule="nonzero"/><path fill="#008ab0" d="M 249.414062 264.019531 L 247.078125 263.316406 C 245.445312 262.851562 243.808594 262.382812 242.171875 261.914062 C 239.601562 261.214844 237.03125 262.617188 236.332031 265.1875 C 235.628906 267.757812 237.03125 270.328125 239.601562 271.027344 C 241.238281 271.496094 242.640625 271.960938 244.277344 272.429688 L 246.613281 273.128906 C 247.078125 273.363281 247.546875 273.363281 248.015625 273.363281 C 250.117188 273.363281 251.984375 271.960938 252.453125 270.09375 C 253.152344 267.289062 251.753906 264.71875 249.414062 264.019531 Z M 249.414062 264.019531 " fill-opacity="1" fill-rule="nonzero"/><path fill="#008ab0" d="M 263.199219 267.289062 C 260.628906 266.824219 258.292969 268.691406 257.828125 271.261719 C 257.359375 273.832031 259.230469 276.167969 261.800781 276.636719 C 264.601562 277.101562 267.171875 277.335938 269.742188 277.335938 C 269.742188 277.335938 269.742188 277.335938 269.976562 277.335938 C 272.546875 277.335938 274.648438 275.234375 274.648438 272.898438 C 274.648438 270.328125 272.78125 268.222656 270.210938 267.992188 C 267.875 267.992188 265.539062 267.757812 263.199219 267.289062 Z M 263.199219 267.289062 " fill-opacity="1" fill-rule="nonzero"/><path fill="#008ab0" d="M 285.398438 264.71875 C 284.460938 265.1875 283.527344 265.652344 282.59375 265.886719 C 280.257812 266.824219 279.089844 269.625 280.023438 271.960938 C 280.722656 273.832031 282.59375 275 284.460938 275 C 284.929688 275 285.628906 275 286.097656 274.765625 C 287.265625 274.300781 288.433594 273.832031 289.835938 273.128906 C 292.171875 271.960938 293.109375 269.160156 291.9375 266.824219 C 290.769531 264.484375 287.734375 263.550781 285.398438 264.71875 Z M 285.398438 264.71875 " fill-opacity="1" fill-rule="nonzero"/><path fill="#008ab0" d="M 82.359375 183.644531 C 81.191406 185.980469 82.125 188.785156 84.460938 189.953125 C 85.628906 190.652344 86.800781 191.121094 88.199219 191.589844 C 88.667969 191.824219 89.371094 191.824219 89.835938 191.824219 C 91.707031 191.824219 93.574219 190.652344 94.277344 188.785156 C 95.210938 186.449219 94.042969 183.644531 91.707031 182.710938 C 90.769531 182.242188 89.835938 182.007812 88.902344 181.542969 C 86.332031 180.609375 83.527344 181.542969 82.359375 183.644531 Z M 82.359375 183.644531 " fill-opacity="1" fill-rule="nonzero"/><path fill="#008ab0" d="M 116.238281 215.1875 C 115.769531 212.617188 113.433594 210.980469 110.863281 211.214844 C 108.527344 211.683594 106.191406 211.914062 104.089844 211.914062 C 101.519531 211.914062 99.414062 214.253906 99.648438 216.824219 C 99.648438 219.390625 101.753906 221.261719 104.324219 221.261719 C 104.324219 221.261719 104.324219 221.261719 104.554688 221.261719 C 107.125 221.261719 109.695312 221.027344 112.5 220.5625 C 114.835938 220.09375 116.707031 217.757812 116.238281 215.1875 Z M 116.238281 215.1875 " fill-opacity="1" fill-rule="nonzero"/><path fill="#008ab0" d="M 84.460938 216.824219 C 85.628906 217.523438 86.800781 217.992188 88.199219 218.457031 C 88.667969 218.691406 89.371094 218.691406 89.835938 218.691406 C 91.707031 218.691406 93.339844 217.523438 94.277344 215.652344 C 95.210938 213.316406 94.042969 210.515625 91.707031 209.578125 C 90.769531 209.113281 89.835938 208.878906 88.902344 208.410156 C 86.566406 207.242188 83.761719 208.175781 82.59375 210.515625 C 81.191406 212.851562 82.125 215.652344 84.460938 216.824219 Z M 84.460938 216.824219 " fill-opacity="1" fill-rule="nonzero"/><path fill="#008ab0" d="M 174.183594 242.289062 C 173.246094 241.355469 172.3125 240.421875 171.378906 239.484375 C 169.507812 237.851562 166.472656 237.851562 164.835938 239.953125 C 163.199219 241.824219 163.199219 244.859375 165.304688 246.496094 C 166.003906 247.195312 166.707031 247.898438 167.40625 248.597656 C 168.339844 249.53125 169.507812 250.234375 170.910156 250.234375 C 172.078125 250.234375 173.246094 249.765625 173.949219 249.066406 C 175.816406 247.195312 175.816406 244.160156 174.183594 242.289062 Z M 174.183594 242.289062 " fill-opacity="1" fill-rule="nonzero"/><path fill="#008ab0" d="M 91.472656 239.019531 C 90.539062 238.550781 89.601562 238.316406 88.667969 237.851562 C 86.332031 236.683594 83.527344 237.617188 82.359375 239.953125 C 81.191406 242.289062 82.125 245.09375 84.460938 246.261719 C 85.628906 246.960938 86.800781 247.429688 88.199219 247.898438 C 88.667969 248.128906 89.371094 248.128906 89.835938 248.128906 C 91.707031 248.128906 93.574219 246.960938 94.277344 245.09375 C 94.976562 242.757812 93.808594 239.953125 91.472656 239.019531 Z M 91.472656 239.019531 " fill-opacity="1" fill-rule="nonzero"/><g clip-path="url(#19bb47973b)"><path fill="#008ab0" d="M 307.125 147.898438 C 307.125 147.898438 306.890625 147.898438 307.125 147.898438 C 306.890625 147.664062 306.660156 147.664062 306.660156 147.429688 C 306.660156 147.429688 306.660156 147.429688 306.425781 147.195312 C 306.425781 147.195312 306.191406 147.195312 306.191406 146.960938 C 306.191406 146.960938 305.957031 146.730469 305.957031 146.730469 C 305.957031 146.730469 305.722656 146.730469 305.722656 146.730469 C 305.722656 146.730469 305.492188 146.730469 305.492188 146.730469 C 305.257812 146.730469 305.257812 146.730469 305.023438 146.730469 C 305.023438 146.730469 304.789062 146.730469 304.789062 146.730469 C 304.789062 146.730469 304.554688 146.730469 304.554688 146.730469 C 304.324219 146.730469 304.324219 146.730469 304.089844 146.730469 C 304.089844 146.730469 304.089844 146.730469 303.855469 146.730469 C 303.855469 146.730469 303.621094 146.730469 303.621094 146.730469 C 303.386719 146.730469 303.386719 146.730469 303.152344 146.730469 C 303.152344 146.730469 302.921875 146.730469 302.921875 146.730469 C 302.921875 146.730469 302.6875 146.730469 302.6875 146.730469 C 302.453125 146.730469 302.453125 146.730469 302.21875 146.960938 C 302.21875 146.960938 301.984375 146.960938 301.984375 146.960938 C 301.984375 146.960938 301.753906 146.960938 301.753906 147.195312 C 301.753906 147.195312 301.519531 147.195312 301.519531 147.195312 C 297.78125 149.300781 294.277344 150.699219 290.539062 151.636719 C 289.835938 154.90625 289.136719 158.410156 288.199219 161.683594 C 291.707031 161.214844 295.445312 160.28125 298.949219 158.878906 L 298.949219 301.402344 C 282.125 308.878906 264.136719 303.503906 246.847656 298.363281 C 228.855469 292.992188 210.632812 287.617188 194.277344 296.960938 C 193.109375 295.5625 192.171875 294.625 191.472656 293.691406 L 191.472656 238.550781 C 189.835938 238.550781 188.433594 238.785156 186.800781 238.785156 C 185.164062 238.785156 183.761719 238.785156 182.125 238.550781 L 182.125 293.457031 C 181.425781 294.160156 180.257812 295.328125 179.324219 296.730469 C 162.96875 287.617188 144.742188 292.992188 126.753906 298.128906 C 109.460938 303.269531 91.472656 308.410156 74.648438 301.167969 L 74.648438 159.8125 C 78.386719 161.214844 82.125 162.148438 85.863281 162.617188 C 84.929688 159.347656 84.230469 156.074219 83.527344 152.570312 C 79.789062 151.636719 76.050781 150.234375 72.3125 148.128906 C 72.3125 148.128906 72.3125 148.128906 72.078125 148.128906 C 72.078125 148.128906 71.847656 148.128906 71.847656 147.898438 C 71.847656 147.898438 71.613281 147.898438 71.613281 147.898438 C 71.378906 147.898438 71.378906 147.898438 71.144531 147.898438 C 71.144531 147.898438 70.910156 147.898438 70.910156 147.898438 C 70.910156 147.898438 70.675781 147.898438 70.675781 147.898438 C 70.445312 147.898438 70.445312 147.898438 70.210938 147.898438 C 70.210938 147.898438 69.976562 147.898438 69.976562 147.898438 C 69.976562 147.898438 69.976562 147.898438 69.742188 147.898438 C 69.742188 147.898438 69.507812 147.898438 69.507812 147.898438 C 69.507812 147.898438 69.277344 147.898438 69.277344 147.898438 C 69.277344 147.898438 69.042969 147.898438 69.042969 147.898438 C 69.042969 147.898438 68.808594 147.898438 68.808594 147.898438 C 68.808594 147.898438 68.574219 147.898438 68.574219 147.898438 C 68.574219 147.898438 68.339844 147.898438 68.339844 147.898438 C 68.339844 147.898438 68.109375 147.898438 68.109375 148.128906 C 68.109375 148.128906 67.875 148.128906 67.875 148.363281 C 67.875 148.363281 67.640625 148.363281 67.640625 148.597656 C 67.640625 148.597656 67.40625 148.832031 67.40625 148.832031 C 67.40625 148.832031 67.40625 148.832031 67.171875 148.832031 L 40.539062 173.363281 C 38.667969 175.234375 37.5 177.570312 37.5 180.375 L 37.5 332.242188 C 37.5 332.476562 37.5 332.945312 37.5 333.175781 C 37.5 333.410156 37.5 333.410156 37.734375 333.644531 C 37.734375 333.878906 37.734375 333.878906 37.96875 334.113281 C 37.96875 334.347656 38.199219 334.347656 38.199219 334.578125 C 38.199219 334.8125 38.199219 334.8125 38.433594 335.046875 C 38.667969 335.515625 39.136719 335.980469 39.835938 336.449219 C 40.070312 336.449219 40.070312 336.683594 40.304688 336.683594 C 40.539062 336.683594 40.539062 336.914062 40.769531 336.914062 C 41.003906 336.914062 41.003906 336.914062 41.238281 337.148438 C 41.472656 337.148438 41.472656 337.148438 41.707031 337.148438 C 41.9375 337.148438 42.40625 337.148438 42.640625 337.148438 L 332.359375 337.148438 C 332.59375 337.148438 333.0625 337.148438 333.292969 337.148438 C 333.527344 337.148438 333.527344 337.148438 333.761719 336.914062 C 333.996094 336.914062 333.996094 336.914062 334.230469 336.683594 C 334.460938 336.683594 334.460938 336.449219 334.695312 336.449219 C 334.929688 336.449219 334.929688 336.214844 335.164062 336.214844 C 335.628906 335.980469 336.097656 335.515625 336.566406 334.8125 C 336.566406 334.8125 336.800781 334.578125 336.800781 334.347656 C 336.800781 334.113281 337.03125 334.113281 337.03125 333.878906 C 337.03125 333.644531 337.03125 333.644531 337.265625 333.410156 C 337.265625 333.175781 337.265625 333.175781 337.5 332.945312 C 337.5 332.710938 337.5 332.476562 337.5 332.007812 L 337.5 180.140625 C 337.5 177.570312 336.332031 175.234375 334.695312 173.363281 Z M 327.21875 321.027344 L 308.527344 302.335938 L 308.527344 162.382812 L 327.21875 180.375 Z M 244.507812 307.242188 C 255.957031 310.515625 268.339844 314.253906 280.957031 314.253906 C 288.199219 314.253906 295.675781 313.085938 302.921875 309.8125 L 320.675781 327.570312 L 199.882812 327.570312 C 201.753906 324.066406 202.921875 319.625 202.921875 314.953125 C 202.921875 311.449219 201.753906 307.945312 200.117188 304.671875 C 212.734375 297.898438 227.6875 302.335938 244.507812 307.242188 Z M 193.574219 314.953125 C 193.574219 321.730469 190.070312 326.867188 187.03125 326.867188 C 183.996094 326.867188 180.492188 321.730469 180.492188 314.953125 C 180.492188 310.980469 183.996094 305.839844 187.03125 302.335938 C 190.070312 305.839844 193.574219 310.980469 193.574219 314.953125 Z M 93.109375 314.253906 C 105.722656 314.253906 118.109375 310.515625 129.554688 307.242188 C 146.378906 302.335938 161.332031 297.898438 174.183594 304.671875 C 172.546875 307.945312 171.378906 311.449219 171.378906 314.953125 C 171.378906 319.625 172.546875 324.066406 174.414062 327.570312 L 53.386719 327.570312 L 71.144531 309.8125 C 78.386719 313.085938 85.863281 314.253906 93.109375 314.253906 Z M 65.539062 163.085938 L 65.539062 302.335938 L 46.847656 321.027344 L 46.847656 180.140625 Z M 65.539062 163.085938 " fill-opacity="1" fill-rule="nonzero"/></g><path fill="#008ab0" d="M 162.734375 130.140625 C 164.835938 135.046875 168.808594 138.785156 173.015625 139.953125 C 173.246094 140.421875 173.246094 141.355469 173.246094 142.054688 C 173.480469 143.925781 173.480469 146.027344 174.648438 148.128906 C 176.285156 151.167969 178.621094 152.570312 180.492188 153.503906 C 182.359375 154.671875 183.527344 155.140625 184.460938 157.945312 C 185.628906 161.449219 187.96875 164.253906 191.003906 165.421875 C 193.339844 166.589844 195.910156 166.121094 197.546875 165.886719 C 198.246094 165.886719 198.714844 165.652344 199.183594 165.652344 C 200.816406 165.652344 202.453125 167.054688 204.554688 168.925781 C 205.957031 170.09375 207.828125 171.730469 209.695312 172.664062 C 211.566406 173.597656 213.667969 174.300781 215.769531 174.300781 C 218.109375 174.300781 220.445312 173.597656 222.3125 171.730469 C 223.714844 170.328125 224.414062 168.457031 224.882812 167.289062 C 225.117188 167.054688 225.117188 166.355469 225.351562 166.121094 C 225.816406 166.121094 226.519531 165.886719 226.984375 165.886719 C 229.089844 165.652344 232.359375 165.421875 234.695312 162.617188 C 236.097656 160.980469 236.566406 159.113281 236.800781 157.945312 C 238.433594 151.167969 239.835938 143.222656 236.800781 136.683594 C 239.367188 134.347656 240.539062 130.140625 239.835938 125.46875 C 239.371094 122.898438 238.667969 119.625 236.097656 117.289062 C 233.761719 115.1875 230.492188 114.484375 227.6875 114.953125 C 227.453125 114.71875 227.453125 114.71875 227.21875 114.484375 C 226.753906 114.019531 226.285156 113.316406 225.585938 112.851562 C 222.78125 109.8125 217.640625 108.644531 213.667969 109.8125 C 210.164062 110.980469 207.359375 110.746094 205.023438 110.746094 C 204.554688 110.746094 203.855469 110.746094 203.386719 110.746094 C 194.976562 110.515625 192.640625 107.710938 192.640625 107.710938 C 192.40625 107.242188 191.9375 105.609375 191.707031 104.4375 C 190.769531 100.699219 188.667969 91.589844 180.023438 92.992188 C 177.453125 93.457031 175.585938 94.390625 174.414062 95.09375 C 174.183594 95.09375 173.949219 95.328125 173.949219 95.328125 C 173.949219 95.328125 173.714844 95.328125 173.714844 95.328125 C 172.078125 94.625 170.445312 94.390625 167.875 95.09375 C 165.070312 95.792969 163.667969 97.429688 162.96875 98.597656 C 161.097656 101.871094 162.265625 105.375 163.199219 108.410156 C 163.433594 109.347656 163.902344 110.980469 164.136719 111.683594 C 160.398438 117.757812 160.164062 124.300781 162.734375 130.140625 Z M 171.847656 115.652344 C 173.480469 112.382812 172.3125 108.644531 171.378906 105.609375 C 171.378906 105.375 171.144531 104.90625 171.144531 104.671875 C 172.078125 104.90625 173.480469 104.90625 175.351562 104.671875 C 176.753906 104.4375 177.6875 103.738281 178.621094 103.269531 C 179.324219 102.804688 180.023438 102.570312 180.957031 102.335938 C 181.425781 103.269531 181.890625 105.375 182.359375 106.542969 C 183.0625 109.113281 183.527344 111.683594 185.164062 113.550781 C 186.800781 115.421875 191.472656 119.625 202.921875 120.09375 C 203.386719 120.09375 203.855469 120.09375 204.324219 120.09375 C 207.125 120.328125 211.097656 120.5625 216.238281 118.925781 C 216.9375 118.691406 218.339844 119.160156 218.808594 119.625 C 219.277344 120.09375 219.742188 120.5625 220.210938 121.027344 C 221.144531 121.960938 222.078125 123.128906 223.246094 124.066406 C 224.882812 125.46875 227.453125 125.699219 229.089844 124.300781 C 229.324219 124.300781 229.554688 124.300781 229.554688 124.300781 C 229.789062 124.53125 230.257812 125 230.492188 127.101562 C 230.722656 128.972656 230.492188 129.90625 230.492188 130.140625 L 230.257812 130.375 C 229.324219 130.839844 226.753906 132.242188 226.285156 135.28125 C 226.050781 137.617188 226.984375 139.253906 227.6875 139.953125 C 230.492188 144.160156 229.324219 150.234375 227.6875 156.308594 C 227.6875 156.542969 227.6875 156.777344 227.453125 157.007812 C 226.984375 157.007812 226.519531 157.242188 226.050781 157.242188 C 223.949219 157.476562 221.378906 157.710938 219.042969 159.578125 C 217.171875 161.214844 216.472656 163.085938 216.003906 164.484375 C 215.769531 164.71875 215.769531 165.421875 215.539062 165.652344 C 215.304688 165.652344 214.601562 165.421875 213.902344 165.1875 C 212.734375 164.484375 211.566406 163.550781 210.164062 162.382812 C 207.359375 160.046875 203.855469 157.007812 198.949219 157.007812 C 198.949219 157.007812 198.714844 157.007812 198.714844 157.007812 C 197.78125 157.007812 196.847656 157.007812 196.144531 157.242188 C 195.675781 157.242188 194.742188 157.476562 194.507812 157.476562 C 194.042969 157.242188 193.574219 156.542969 193.109375 155.609375 C 191.238281 149.53125 187.5 147.195312 184.929688 145.792969 C 183.527344 145.09375 183.0625 144.625 182.828125 144.160156 C 182.59375 143.691406 182.59375 142.523438 182.59375 141.824219 C 182.359375 139.019531 181.890625 133.175781 175.816406 131.308594 C 174.414062 130.839844 172.546875 129.207031 171.378906 126.636719 C 170.445312 124.53125 169.277344 120.5625 171.847656 115.652344 Z M 171.847656 115.652344 " fill-opacity="1" fill-rule="nonzero"/><g clip-path="url(#12aa2f47a5)"><path fill="#008ab0" d="M 113.902344 195.5625 C 114.136719 195.792969 114.371094 196.027344 114.601562 196.261719 C 132.125 216.589844 158.0625 229.4375 187.03125 229.4375 C 239.835938 229.4375 282.828125 186.449219 282.828125 133.644531 C 282.828125 80.839844 239.835938 37.851562 187.03125 37.851562 C 134.230469 37.851562 91.238281 80.839844 91.238281 133.644531 C 91.238281 157.007812 99.648438 178.269531 113.433594 194.859375 C 113.433594 195.09375 113.667969 195.328125 113.902344 195.5625 Z M 177.921875 219.625 C 178.152344 218.457031 179.089844 217.289062 180.257812 216.355469 C 181.890625 215.1875 184.230469 214.484375 186.566406 213.550781 C 187.734375 213.085938 189.136719 212.617188 190.304688 212.148438 C 196.613281 209.578125 201.753906 205.609375 206.890625 201.636719 L 207.59375 200.933594 C 207.828125 201.167969 208.0625 201.402344 208.292969 201.636719 C 209.460938 203.039062 211.097656 204.4375 213.199219 205.375 C 219.042969 207.710938 224.414062 203.039062 226.285156 201.402344 L 231.890625 196.496094 C 232.125 196.960938 232.59375 197.429688 233.0625 197.898438 C 235.628906 200.234375 238.667969 200.46875 241.238281 200.46875 C 226.519531 212.851562 207.59375 220.09375 187.03125 220.09375 C 183.996094 220.09375 180.957031 219.859375 177.921875 219.625 Z M 269.976562 109.113281 C 267.171875 107.476562 263.433594 105.609375 259.230469 107.710938 C 256.890625 108.878906 255.722656 110.746094 254.554688 112.148438 C 254.089844 112.617188 253.855469 113.316406 253.621094 113.550781 C 252.921875 114.253906 250.816406 113.785156 249.648438 112.617188 C 247.78125 110.746094 247.078125 107.476562 246.613281 104.671875 C 246.144531 101.636719 245.445312 98.363281 243.339844 95.328125 C 241.238281 92.523438 238.199219 91.355469 235.628906 90.652344 C 234.695312 90.421875 233.292969 89.71875 233.0625 89.71875 C 232.828125 89.253906 232.59375 87.851562 232.59375 86.914062 C 232.359375 84.347656 232.125 81.074219 229.324219 78.972656 C 225.585938 75.933594 219.976562 75.699219 214.601562 78.039062 C 212.96875 78.738281 211.332031 79.671875 209.929688 80.609375 C 208.292969 81.542969 206.890625 82.242188 205.492188 82.945312 C 203.386719 83.644531 201.285156 83.644531 200.585938 82.710938 C 200.351562 82.476562 199.882812 81.074219 199.648438 80.140625 C 198.714844 77.570312 197.3125 72.664062 192.171875 72.195312 C 187.96875 71.730469 187.734375 71.027344 187.03125 67.523438 C 186.332031 64.253906 185.164062 59.347656 179.554688 56.308594 C 176.285156 54.4375 172.3125 54.4375 168.808594 54.4375 C 162.96875 54.4375 162.265625 53.972656 162.03125 51.867188 C 169.507812 48.597656 178.152344 47.195312 187.03125 47.195312 C 226.285156 47.195312 259.460938 73.363281 269.976562 109.113281 Z M 152.6875 54.4375 C 154.789062 63.085938 163.667969 63.085938 168.109375 63.085938 C 170.675781 63.085938 173.015625 63.085938 174.414062 63.785156 C 176.285156 64.71875 176.519531 66.121094 177.21875 68.925781 C 178.152344 72.898438 179.554688 79.4375 189.601562 80.839844 C 189.835938 81.308594 190.070312 82.007812 190.070312 82.476562 C 190.769531 84.347656 191.472656 86.683594 193.339844 88.550781 C 197.546875 92.757812 203.855469 92.523438 208.292969 90.886719 C 210.398438 90.1875 212.265625 89.019531 214.136719 88.085938 C 215.539062 87.382812 216.707031 86.683594 217.875 85.980469 C 219.742188 85.28125 221.613281 85.046875 222.78125 85.515625 C 222.78125 85.980469 223.015625 86.683594 223.015625 87.148438 C 223.246094 89.484375 223.480469 92.757812 225.585938 95.09375 C 227.453125 97.195312 230.023438 98.128906 232.359375 98.832031 C 233.527344 99.300781 235.398438 99.765625 235.863281 100.234375 C 236.800781 101.402344 237.265625 103.503906 237.5 105.375 C 238.199219 109.8125 239.367188 114.71875 243.109375 118.457031 C 245.445312 121.027344 249.183594 122.664062 252.6875 122.664062 C 255.257812 122.664062 257.828125 121.960938 259.929688 119.859375 C 261.097656 118.925781 261.800781 117.757812 262.5 116.824219 C 262.734375 116.355469 263.199219 115.886719 263.433594 115.652344 C 264.136719 115.886719 265.539062 116.824219 266.472656 117.289062 C 268.109375 118.457031 270.210938 119.859375 272.78125 120.328125 C 273.480469 124.53125 273.714844 128.738281 273.714844 132.945312 C 273.714844 155.839844 264.835938 176.636719 250.117188 192.054688 C 248.246094 191.121094 246.144531 190.652344 243.808594 190.652344 L 242.875 190.652344 C 241.9375 190.652344 240.304688 190.652344 239.835938 190.421875 C 239.601562 190.1875 239.367188 189.953125 239.367188 189.71875 C 238.433594 188.550781 237.03125 186.683594 234.460938 185.980469 C 230.492188 185.046875 227.6875 187.617188 226.519531 188.550781 L 220.675781 193.691406 C 218.109375 196.027344 217.171875 196.027344 217.171875 196.027344 C 216.9375 195.792969 216.003906 195.09375 215.539062 194.625 C 213.902344 192.757812 211.097656 189.953125 206.660156 190.652344 C 204.554688 191.121094 203.152344 192.289062 202.21875 192.992188 L 201.285156 194.390625 C 196.613281 198.128906 191.9375 201.636719 187.03125 203.738281 C 185.863281 204.207031 184.929688 204.4375 183.761719 204.90625 C 180.957031 205.839844 177.921875 207.007812 174.882812 208.878906 C 171.847656 210.980469 169.277344 214.484375 168.574219 218.222656 C 155.257812 215.421875 142.875 209.347656 132.59375 200.933594 C 133.292969 200.46875 133.761719 200.234375 134.230469 199.53125 C 139.601562 194.390625 139.371094 187.148438 139.136719 180.839844 C 138.902344 174.300781 138.902344 170.328125 142.171875 167.992188 C 147.078125 164.71875 150.585938 159.578125 151.753906 154.207031 C 152.453125 150.933594 151.984375 147.898438 151.753906 145.09375 C 151.285156 142.523438 151.050781 140.421875 151.753906 139.019531 C 151.984375 138.550781 152.453125 137.851562 152.921875 137.148438 C 153.621094 135.980469 154.554688 134.578125 155.257812 132.945312 C 157.125 127.570312 155.023438 121.730469 149.882812 117.757812 C 148.246094 116.355469 147.546875 114.019531 148.246094 111.914062 L 148.246094 111.683594 C 148.949219 109.578125 149.882812 106.542969 148.714844 103.503906 C 145.675781 95.09375 139.371094 91.121094 131.191406 91.589844 C 130.492188 90.886719 129.324219 89.253906 128.621094 87.851562 C 126.753906 85.046875 124.414062 81.074219 120.445312 78.972656 C 129.089844 68.222656 140.070312 59.8125 152.6875 54.4375 Z M 114.601562 86.449219 C 116.707031 87.148438 118.339844 89.253906 120.445312 92.757812 C 122.78125 96.496094 125.816406 101.402344 131.425781 100.933594 C 134.230469 100.699219 137.5 101.167969 139.601562 106.542969 C 139.601562 107.007812 139.371094 108.175781 139.136719 108.878906 L 139.136719 109.113281 C 137.265625 114.953125 139.371094 121.496094 144.042969 125.234375 C 145.445312 126.402344 147.078125 128.269531 146.378906 129.90625 C 146.144531 130.375 145.675781 131.074219 145.210938 132.007812 C 144.507812 132.945312 143.808594 134.113281 143.109375 135.515625 C 141.472656 139.484375 141.9375 143.222656 142.40625 146.730469 C 142.640625 148.832031 143.109375 150.933594 142.640625 152.335938 C 141.9375 155.375 139.601562 158.644531 136.800781 160.515625 C 129.089844 165.886719 129.554688 174.53125 129.789062 181.542969 C 130.023438 187.382812 130.023438 191.121094 127.6875 193.222656 C 127.6875 193.222656 127.453125 193.457031 126.984375 193.457031 C 125.351562 193.457031 123.015625 192.054688 121.144531 190.421875 C 108.527344 174.765625 100.585938 155.140625 100.585938 133.644531 C 100.585938 116.121094 105.722656 100 114.601562 86.449219 Z M 114.601562 86.449219 " fill-opacity="1" fill-rule="nonzero"/></g><path fill="#008ab0" d="M 164.835938 266.589844 C 163.199219 268.457031 163.199219 271.496094 165.304688 273.128906 C 166.003906 273.832031 166.707031 274.53125 167.40625 275.234375 C 168.339844 276.167969 169.507812 276.871094 170.910156 276.871094 C 172.078125 276.871094 173.246094 276.402344 173.949219 275.699219 C 175.816406 274.066406 176.050781 271.027344 174.414062 269.160156 C 173.480469 268.222656 172.546875 267.289062 171.613281 266.355469 C 169.507812 264.484375 166.472656 264.71875 164.835938 266.589844 Z M 164.835938 266.589844 " fill-opacity="1" fill-rule="nonzero"/><path fill="#008ab0" d="M 148.015625 267.992188 C 150.117188 267.757812 152.453125 267.757812 154.324219 268.222656 C 154.554688 268.222656 154.789062 268.222656 155.023438 268.222656 C 157.359375 268.222656 159.230469 266.589844 159.695312 264.253906 C 160.164062 261.683594 158.292969 259.347656 155.722656 258.878906 C 153.152344 258.410156 150.117188 258.410156 147.3125 258.644531 C 144.742188 258.878906 142.875 261.214844 143.109375 263.785156 C 143.109375 266.355469 145.445312 268.222656 148.015625 267.992188 Z M 148.015625 267.992188 " fill-opacity="1" fill-rule="nonzero"/><path fill="#008ab0" d="M 126.050781 273.128906 C 126.519531 273.128906 126.984375 273.128906 127.453125 272.898438 L 129.789062 272.195312 C 131.425781 271.730469 133.0625 271.261719 134.460938 270.792969 C 137.03125 270.09375 138.433594 267.523438 137.734375 264.953125 C 137.03125 262.382812 134.460938 260.980469 131.890625 261.683594 C 130.257812 262.148438 128.621094 262.617188 126.984375 263.085938 L 124.648438 263.785156 C 122.078125 264.484375 120.675781 267.054688 121.378906 269.625 C 122.078125 271.730469 123.949219 273.128906 126.050781 273.128906 Z M 126.050781 273.128906 " fill-opacity="1" fill-rule="nonzero"/><path fill="#008ab0" d="M 104.324219 277.335938 C 106.890625 277.335938 109.695312 277.101562 112.5 276.636719 C 115.070312 276.167969 116.707031 273.832031 116.472656 271.261719 C 116.003906 268.691406 113.667969 267.054688 111.097656 267.289062 C 108.761719 267.757812 106.425781 267.992188 104.324219 267.992188 C 101.753906 267.992188 99.648438 270.328125 99.882812 272.898438 C 99.648438 275.46875 101.753906 277.335938 104.324219 277.335938 Z M 104.324219 277.335938 " fill-opacity="1" fill-rule="nonzero"/><path fill="#008ab0" d="M 91.472656 265.886719 C 90.539062 265.421875 89.601562 265.1875 88.667969 264.71875 C 86.332031 263.550781 83.527344 264.484375 82.359375 266.824219 C 81.191406 269.160156 82.125 271.960938 84.460938 273.128906 C 85.628906 273.832031 86.800781 274.300781 88.199219 274.765625 C 88.667969 275 89.371094 275 89.835938 275 C 91.707031 275 93.339844 273.832031 94.277344 271.960938 C 94.976562 269.625 93.808594 266.824219 91.472656 265.886719 Z M 91.472656 265.886719 " fill-opacity="1" fill-rule="nonzero"/><path fill="#008ab0" d="M 104.324219 250.46875 C 106.890625 250.46875 109.695312 250.234375 112.5 249.765625 C 115.070312 249.300781 116.707031 246.960938 116.472656 244.390625 C 116.003906 241.824219 113.667969 240.1875 111.097656 240.421875 C 108.761719 240.886719 106.425781 241.121094 104.324219 241.121094 C 101.753906 241.121094 99.648438 243.222656 99.882812 245.792969 C 99.648438 248.363281 101.753906 250.46875 104.324219 250.46875 Z M 104.324219 250.46875 " fill-opacity="1" fill-rule="nonzero"/><path fill="#008ab0" d="M 148.015625 241.355469 C 150.117188 241.121094 152.453125 241.121094 154.324219 241.355469 C 154.554688 241.355469 154.789062 241.355469 155.023438 241.355469 C 157.359375 241.355469 159.230469 239.71875 159.695312 237.382812 C 159.695312 236.449219 159.695312 235.746094 159.460938 235.046875 C 155.957031 234.113281 152.6875 233.175781 149.648438 231.777344 C 148.949219 231.777344 148.015625 231.777344 147.3125 231.777344 C 144.742188 232.007812 142.875 234.347656 143.109375 236.914062 C 143.109375 239.484375 145.445312 241.355469 148.015625 241.355469 Z M 148.015625 241.355469 " fill-opacity="1" fill-rule="nonzero"/><path fill="#008ab0" d="M 126.050781 246.261719 C 126.519531 246.261719 126.984375 246.261719 127.453125 246.027344 L 129.789062 245.328125 C 131.425781 244.859375 132.828125 244.390625 134.460938 243.925781 C 137.03125 243.222656 138.433594 240.652344 137.734375 238.085938 C 137.03125 235.515625 134.460938 234.113281 131.890625 234.8125 C 130.257812 235.28125 128.855469 235.746094 127.21875 236.214844 L 124.882812 236.914062 C 122.3125 237.617188 120.910156 240.1875 121.613281 242.757812 C 122.078125 244.859375 123.949219 246.261719 126.050781 246.261719 Z M 126.050781 246.261719 " fill-opacity="1" fill-rule="nonzero"/><path fill="#008ab0" d="M 261.566406 220.5625 C 264.371094 221.027344 266.9375 221.261719 269.507812 221.261719 C 269.507812 221.261719 269.507812 221.261719 269.742188 221.261719 C 272.3125 221.261719 274.414062 219.160156 274.414062 216.824219 C 274.414062 214.253906 272.546875 212.148438 269.976562 211.914062 C 267.875 211.914062 265.539062 211.683594 263.199219 211.214844 C 260.628906 210.746094 258.292969 212.617188 257.828125 215.1875 C 257.359375 217.757812 259.230469 220.09375 261.566406 220.5625 Z M 261.566406 220.5625 " fill-opacity="1" fill-rule="nonzero"/><path fill="#008ab0" d="M 249.414062 237.148438 L 247.078125 236.449219 C 245.445312 235.980469 243.808594 235.515625 242.40625 235.046875 C 239.835938 234.347656 237.265625 235.746094 236.566406 238.316406 C 235.863281 240.886719 237.265625 243.457031 239.835938 244.160156 C 241.472656 244.625 242.875 245.09375 244.507812 245.5625 L 246.847656 246.261719 C 247.3125 246.496094 247.78125 246.496094 248.246094 246.496094 C 250.351562 246.496094 252.21875 245.09375 252.6875 243.222656 C 253.152344 240.421875 251.753906 237.851562 249.414062 237.148438 Z M 249.414062 237.148438 " fill-opacity="1" fill-rule="nonzero"/><path fill="#008ab0" d="M 226.984375 232.007812 C 226.285156 232.007812 225.351562 232.007812 224.648438 232.007812 C 221.378906 233.175781 218.109375 234.347656 214.835938 235.28125 C 214.601562 235.980469 214.371094 236.683594 214.601562 237.617188 C 214.835938 239.953125 216.9375 241.589844 219.277344 241.589844 C 219.507812 241.589844 219.742188 241.589844 219.976562 241.589844 C 221.847656 241.355469 224.183594 241.355469 226.285156 241.589844 C 228.855469 241.824219 231.191406 239.953125 231.425781 237.382812 C 231.425781 234.347656 229.554688 232.242188 226.984375 232.007812 Z M 226.984375 232.007812 " fill-opacity="1" fill-rule="nonzero"/><path fill="#008ab0" d="M 269.976562 241.121094 C 267.875 241.121094 265.769531 240.886719 263.199219 240.421875 C 260.628906 239.953125 258.292969 241.824219 257.828125 244.390625 C 257.359375 246.960938 259.230469 249.300781 261.800781 249.765625 C 264.601562 250.234375 267.171875 250.46875 269.742188 250.46875 C 269.742188 250.46875 269.742188 250.46875 269.976562 250.46875 C 272.546875 250.46875 274.648438 248.363281 274.648438 245.792969 C 274.414062 243.222656 272.546875 241.121094 269.976562 241.121094 Z M 269.976562 241.121094 " fill-opacity="1" fill-rule="nonzero"/></svg>