<svg xmlns="http://www.w3.org/2000/svg" xmlns:xlink="http://www.w3.org/1999/xlink" width="750" zoomAndPan="magnify" viewBox="0 0 562.5 562.499982" height="750" preserveAspectRatio="xMidYMid meet" version="1.0"><path fill="#008ab0" d="M 454.328125 283.84375 C 455.640625 287.347656 459.140625 289.535156 462.644531 289.535156 C 463.519531 289.535156 464.832031 289.535156 465.707031 289.097656 C 467.894531 288.222656 470.085938 287.347656 472.710938 286.035156 C 477.085938 283.84375 478.839844 278.59375 476.648438 274.214844 C 474.460938 269.839844 469.210938 268.089844 464.832031 270.277344 C 463.082031 271.152344 461.332031 272.027344 459.578125 272.464844 C 454.765625 274.214844 452.578125 279.46875 454.328125 283.84375 Z M 454.328125 283.84375 " fill-opacity="1" fill-rule="nonzero"/><path fill="#008ab0" d="M 462.207031 339.871094 C 463.082031 339.871094 464.394531 339.871094 465.269531 339.433594 C 467.457031 338.558594 469.648438 337.683594 472.273438 336.367188 C 476.648438 334.179688 478.402344 328.929688 476.210938 324.550781 C 474.023438 320.175781 468.769531 318.421875 464.394531 320.613281 C 462.644531 321.488281 460.894531 322.363281 459.140625 322.800781 C 454.765625 324.550781 452.578125 329.804688 454.328125 334.179688 C 455.640625 337.683594 458.703125 339.871094 462.207031 339.871094 Z M 462.207031 339.871094 " fill-opacity="1" fill-rule="nonzero"/><path fill="#008ab0" d="M 322.144531 378.824219 C 319.078125 375.324219 313.390625 374.886719 309.886719 377.949219 C 308.136719 379.699219 306.386719 381.453125 304.636719 383.203125 C 301.570312 386.703125 301.570312 392.394531 305.074219 395.457031 C 306.824219 396.769531 309.011719 397.644531 310.761719 397.644531 C 312.953125 397.644531 315.578125 396.769531 317.328125 394.582031 C 318.640625 393.269531 319.957031 391.957031 321.269531 390.644531 C 324.769531 388.015625 325.207031 382.765625 322.144531 378.824219 Z M 322.144531 378.824219 " fill-opacity="1" fill-rule="nonzero"/><path fill="#008ab0" d="M 476.210938 378.824219 C 474.023438 374.449219 468.769531 372.699219 464.394531 374.886719 C 462.644531 375.761719 460.894531 376.636719 459.140625 377.074219 C 454.765625 378.824219 452.578125 384.078125 454.328125 388.453125 C 455.640625 391.957031 459.140625 394.144531 462.644531 394.144531 C 463.519531 394.144531 464.832031 394.144531 465.707031 393.707031 C 467.894531 392.832031 470.085938 391.957031 472.710938 390.644531 C 476.648438 388.453125 478.402344 383.203125 476.210938 378.824219 Z M 476.210938 378.824219 " fill-opacity="1" fill-rule="nonzero"/><path fill="#008ab0" d="M 309.449219 428.722656 C 307.699219 430.472656 305.949219 432.222656 304.199219 433.976562 C 301.132812 437.476562 301.132812 443.167969 305.074219 446.230469 C 306.824219 447.542969 309.011719 448.417969 310.761719 448.417969 C 312.953125 448.417969 315.578125 447.542969 317.328125 445.355469 C 318.640625 444.042969 319.957031 442.730469 321.269531 441.414062 C 324.769531 438.351562 325.207031 432.660156 322.144531 429.160156 C 318.640625 425.660156 312.953125 425.222656 309.449219 428.722656 Z M 309.449219 428.722656 " fill-opacity="1" fill-rule="nonzero"/><path fill="#008ab0" d="M 338.777344 414.714844 C 333.960938 415.589844 330.460938 419.96875 331.335938 424.78125 C 331.773438 429.160156 335.710938 432.222656 340.089844 432.222656 C 340.527344 432.222656 340.964844 432.222656 341.402344 432.222656 C 344.902344 431.785156 349.28125 431.785156 353.21875 431.785156 C 358.035156 432.222656 362.410156 428.722656 362.847656 423.90625 C 363.285156 419.09375 359.785156 414.714844 354.96875 414.277344 C 349.28125 413.839844 344.027344 414.277344 338.777344 414.714844 Z M 338.777344 414.714844 " fill-opacity="1" fill-rule="nonzero"/><path fill="#008ab0" d="M 396.988281 424.34375 L 392.613281 423.03125 C 389.546875 422.15625 386.484375 421.28125 383.421875 420.40625 C 378.605469 419.09375 373.792969 421.71875 372.476562 426.535156 C 371.164062 431.347656 373.792969 436.164062 378.605469 437.476562 C 381.671875 438.351562 384.296875 439.226562 387.359375 440.101562 L 391.738281 441.414062 C 392.613281 441.851562 393.488281 441.851562 394.363281 441.851562 C 398.300781 441.851562 401.804688 439.226562 402.679688 435.726562 C 403.992188 430.472656 401.367188 425.660156 396.988281 424.34375 Z M 396.988281 424.34375 " fill-opacity="1" fill-rule="nonzero"/><path fill="#008ab0" d="M 422.8125 430.472656 C 418 429.597656 413.621094 433.097656 412.746094 437.914062 C 411.871094 442.726562 415.371094 447.105469 420.1875 447.980469 C 425.441406 448.855469 430.253906 449.292969 435.070312 449.292969 C 435.070312 449.292969 435.070312 449.292969 435.507812 449.292969 C 440.320312 449.292969 444.261719 445.355469 444.261719 440.976562 C 444.261719 436.164062 440.757812 432.222656 435.945312 431.785156 C 431.566406 431.785156 427.191406 431.347656 422.8125 430.472656 Z M 422.8125 430.472656 " fill-opacity="1" fill-rule="nonzero"/><path fill="#008ab0" d="M 464.394531 425.660156 C 462.644531 426.535156 460.894531 427.410156 459.140625 427.847656 C 454.765625 429.597656 452.578125 434.851562 454.328125 439.226562 C 455.640625 442.730469 459.140625 444.917969 462.644531 444.917969 C 463.519531 444.917969 464.832031 444.917969 465.707031 444.480469 C 467.894531 443.605469 470.085938 442.730469 472.710938 441.414062 C 477.085938 439.226562 478.839844 433.976562 476.648438 429.597656 C 474.460938 425.222656 468.769531 423.46875 464.394531 425.660156 Z M 464.394531 425.660156 " fill-opacity="1" fill-rule="nonzero"/><path fill="#008ab0" d="M 84.039062 273.777344 C 81.847656 278.15625 83.601562 283.40625 87.976562 285.597656 C 90.164062 286.910156 92.355469 287.785156 94.980469 288.660156 C 95.855469 289.097656 97.167969 289.097656 98.042969 289.097656 C 101.546875 289.097656 105.046875 286.910156 106.359375 283.40625 C 108.109375 279.03125 105.921875 273.777344 101.546875 272.027344 C 99.792969 271.152344 98.042969 270.714844 96.292969 269.839844 C 91.476562 268.089844 86.226562 269.839844 84.039062 273.777344 Z M 84.039062 273.777344 " fill-opacity="1" fill-rule="nonzero"/><path fill="#008ab0" d="M 147.503906 332.867188 C 146.628906 328.050781 142.25 324.988281 137.4375 325.425781 C 133.058594 326.300781 128.683594 326.738281 124.742188 326.738281 C 119.929688 326.738281 115.988281 331.117188 116.425781 335.929688 C 116.425781 340.746094 120.367188 344.246094 125.179688 344.246094 C 125.179688 344.246094 125.179688 344.246094 125.617188 344.246094 C 130.433594 344.246094 135.246094 343.808594 140.5 342.933594 C 144.878906 342.058594 148.378906 337.683594 147.503906 332.867188 Z M 147.503906 332.867188 " fill-opacity="1" fill-rule="nonzero"/><path fill="#008ab0" d="M 87.976562 335.929688 C 90.164062 337.242188 92.355469 338.121094 94.980469 338.996094 C 95.855469 339.433594 97.167969 339.433594 98.042969 339.433594 C 101.546875 339.433594 104.609375 337.242188 106.359375 333.742188 C 108.109375 329.367188 105.921875 324.113281 101.546875 322.363281 C 99.792969 321.488281 98.042969 321.050781 96.292969 320.175781 C 91.914062 317.984375 86.664062 319.734375 84.476562 324.113281 C 81.847656 328.488281 83.601562 333.742188 87.976562 335.929688 Z M 87.976562 335.929688 " fill-opacity="1" fill-rule="nonzero"/><path fill="#008ab0" d="M 256.050781 383.640625 C 254.300781 381.890625 252.550781 380.136719 250.800781 378.386719 C 247.296875 375.324219 241.609375 375.324219 238.542969 379.261719 C 235.480469 382.765625 235.480469 388.453125 239.417969 391.519531 C 240.730469 392.832031 242.046875 394.144531 243.359375 395.457031 C 245.109375 397.207031 247.296875 398.519531 249.925781 398.519531 C 252.113281 398.519531 254.300781 397.644531 255.613281 396.332031 C 259.117188 392.832031 259.117188 387.140625 256.050781 383.640625 Z M 256.050781 383.640625 " fill-opacity="1" fill-rule="nonzero"/><path fill="#008ab0" d="M 101.109375 377.511719 C 99.355469 376.636719 97.605469 376.199219 95.855469 375.324219 C 91.476562 373.136719 86.226562 374.886719 84.039062 379.261719 C 81.847656 383.640625 83.601562 388.890625 87.976562 391.082031 C 90.164062 392.394531 92.355469 393.269531 94.980469 394.144531 C 95.855469 394.582031 97.167969 394.582031 98.042969 394.582031 C 101.546875 394.582031 105.046875 392.394531 106.359375 388.890625 C 107.671875 384.515625 105.484375 379.261719 101.109375 377.511719 Z M 101.109375 377.511719 " fill-opacity="1" fill-rule="nonzero"/><path fill="#008ab0" d="M 505.101562 206.8125 C 505.101562 206.8125 504.664062 206.8125 505.101562 206.8125 C 504.664062 206.375 504.226562 206.375 504.226562 205.933594 C 504.226562 205.933594 504.226562 205.933594 503.785156 205.496094 C 503.785156 205.496094 503.347656 205.496094 503.347656 205.058594 C 503.347656 205.058594 502.910156 204.621094 502.910156 204.621094 C 502.910156 204.621094 502.472656 204.621094 502.472656 204.621094 C 502.472656 204.621094 502.035156 204.621094 502.035156 204.621094 C 501.597656 204.621094 501.597656 204.621094 501.160156 204.621094 C 501.160156 204.621094 500.722656 204.621094 500.722656 204.621094 C 500.722656 204.621094 500.285156 204.621094 500.285156 204.621094 C 499.847656 204.621094 499.847656 204.621094 499.410156 204.621094 C 499.410156 204.621094 499.410156 204.621094 498.972656 204.621094 C 498.972656 204.621094 498.535156 204.621094 498.535156 204.621094 C 498.097656 204.621094 498.097656 204.621094 497.660156 204.621094 C 497.660156 204.621094 497.222656 204.621094 497.222656 204.621094 C 497.222656 204.621094 496.785156 204.621094 496.785156 204.621094 C 496.347656 204.621094 496.347656 204.621094 495.910156 205.058594 C 495.910156 205.058594 495.472656 205.058594 495.472656 205.058594 C 495.472656 205.058594 495.035156 205.058594 495.035156 205.496094 C 495.035156 205.496094 494.59375 205.496094 494.59375 205.496094 C 487.59375 209.4375 481.027344 212.0625 474.023438 213.8125 C 472.710938 219.941406 471.398438 226.507812 469.648438 232.636719 C 476.210938 231.757812 483.214844 230.007812 489.78125 227.382812 L 489.78125 494.375 C 458.265625 508.382812 424.5625 498.316406 392.175781 488.6875 C 358.472656 478.621094 324.332031 468.550781 293.695312 486.058594 C 291.503906 483.433594 289.753906 481.683594 288.441406 479.933594 L 288.441406 376.636719 C 285.378906 376.636719 282.75 377.074219 279.6875 377.074219 C 276.625 377.074219 273.996094 377.074219 270.933594 376.636719 L 270.933594 479.496094 C 269.621094 480.808594 267.433594 482.996094 265.679688 485.621094 C 235.042969 468.550781 200.902344 478.621094 167.199219 488.25 C 134.808594 497.878906 101.109375 507.507812 69.59375 493.9375 L 69.59375 229.132812 C 76.597656 231.757812 83.601562 233.511719 90.601562 234.386719 C 88.851562 228.257812 87.539062 222.128906 86.226562 215.566406 C 79.222656 213.8125 72.21875 211.1875 65.214844 207.25 C 65.214844 207.25 65.214844 207.25 64.777344 207.25 C 64.777344 207.25 64.339844 207.25 64.339844 206.8125 C 64.339844 206.8125 63.902344 206.8125 63.902344 206.8125 C 63.464844 206.8125 63.464844 206.8125 63.027344 206.8125 C 63.027344 206.8125 62.589844 206.8125 62.589844 206.8125 C 62.589844 206.8125 62.152344 206.8125 62.152344 206.8125 C 61.714844 206.8125 61.714844 206.8125 61.277344 206.8125 C 61.277344 206.8125 60.839844 206.8125 60.839844 206.8125 C 60.839844 206.8125 60.839844 206.8125 60.402344 206.8125 C 60.402344 206.8125 59.964844 206.8125 59.964844 206.8125 C 59.964844 206.8125 59.527344 206.8125 59.527344 206.8125 C 59.527344 206.8125 59.089844 206.8125 59.089844 206.8125 C 59.089844 206.8125 58.652344 206.8125 58.652344 206.8125 C 58.652344 206.8125 58.214844 206.8125 58.214844 206.8125 C 58.214844 206.8125 57.777344 206.8125 57.777344 206.8125 C 57.777344 206.8125 57.339844 206.8125 57.339844 207.25 C 57.339844 207.25 56.902344 207.25 56.902344 207.6875 C 56.902344 207.6875 56.460938 207.6875 56.460938 208.125 C 56.460938 208.125 56.023438 208.5625 56.023438 208.5625 C 56.023438 208.5625 56.023438 208.5625 55.585938 208.5625 L 5.691406 254.519531 C 2.1875 258.019531 0 262.398438 0 267.652344 L 0 552.152344 C 0 552.589844 0 553.464844 0 553.902344 C 0 554.339844 0 554.339844 0.4375 554.777344 C 0.4375 555.214844 0.4375 555.214844 0.875 555.652344 C 0.875 556.089844 1.3125 556.089844 1.3125 556.527344 C 1.3125 556.96875 1.3125 556.96875 1.75 557.40625 C 2.1875 558.28125 3.0625 559.15625 4.378906 560.03125 C 4.816406 560.03125 4.816406 560.46875 5.253906 560.46875 C 5.691406 560.46875 5.691406 560.90625 6.128906 560.90625 C 6.566406 560.90625 6.566406 560.90625 7.003906 561.34375 C 7.441406 561.34375 7.441406 561.34375 7.878906 561.34375 C 8.316406 561.34375 9.191406 561.34375 9.628906 561.34375 L 552.371094 561.34375 C 552.808594 561.34375 553.683594 561.34375 554.121094 561.34375 C 554.558594 561.34375 554.558594 561.34375 554.996094 560.90625 C 555.433594 560.90625 555.433594 560.90625 555.871094 560.46875 C 556.308594 560.46875 556.308594 560.03125 556.75 560.03125 C 557.1875 560.03125 557.1875 559.59375 557.625 559.59375 C 558.5 559.15625 559.375 558.28125 560.25 556.96875 C 560.25 556.96875 560.6875 556.527344 560.6875 556.089844 C 560.6875 555.652344 561.125 555.652344 561.125 555.214844 C 561.125 554.777344 561.125 554.777344 561.5625 554.339844 C 561.5625 553.902344 561.5625 553.902344 562 553.464844 C 562 553.027344 562 552.589844 562 551.714844 L 562 267.210938 C 562 262.398438 559.8125 258.019531 556.75 254.519531 Z M 542.742188 531.144531 L 507.726562 496.128906 L 507.726562 233.949219 L 542.742188 267.652344 Z M 387.796875 505.320312 C 409.246094 511.445312 432.441406 518.449219 456.078125 518.449219 C 469.648438 518.449219 483.652344 516.261719 497.222656 510.132812 L 530.488281 543.398438 L 304.199219 543.398438 C 307.699219 536.832031 309.886719 528.515625 309.886719 519.761719 C 309.886719 513.199219 307.699219 506.632812 304.636719 500.503906 C 328.269531 487.8125 356.285156 496.128906 387.796875 505.320312 Z M 292.378906 519.761719 C 292.378906 532.457031 285.816406 542.085938 280.125 542.085938 C 274.433594 542.085938 267.871094 532.457031 267.871094 519.761719 C 267.871094 512.320312 274.433594 502.691406 280.125 496.128906 C 285.816406 502.691406 292.378906 512.320312 292.378906 519.761719 Z M 104.171875 518.449219 C 127.808594 518.449219 151.003906 511.445312 172.453125 505.320312 C 203.964844 496.128906 231.976562 487.8125 256.050781 500.503906 C 252.988281 506.632812 250.800781 513.199219 250.800781 519.761719 C 250.800781 528.515625 252.988281 536.832031 256.488281 543.398438 L 29.761719 543.398438 L 63.027344 510.132812 C 76.597656 516.261719 90.601562 518.449219 104.171875 518.449219 Z M 52.523438 235.261719 L 52.523438 496.128906 L 17.507812 531.144531 L 17.507812 267.210938 Z M 52.523438 235.261719 " fill-opacity="1" fill-rule="nonzero"/><path fill="#008ab0" d="M 234.605469 173.546875 C 238.542969 182.738281 245.984375 189.742188 253.863281 191.929688 C 254.300781 192.804688 254.300781 194.554688 254.300781 195.867188 C 254.738281 199.371094 254.738281 203.308594 256.925781 207.25 C 259.992188 212.9375 264.367188 215.566406 267.871094 217.316406 C 271.371094 219.503906 273.558594 220.378906 275.308594 225.632812 C 277.5 232.195312 281.875 237.449219 287.566406 239.636719 C 291.941406 241.828125 296.757812 240.949219 299.820312 240.511719 C 301.132812 240.511719 302.007812 240.074219 302.886719 240.074219 C 305.949219 240.074219 309.011719 242.703125 312.953125 246.203125 C 315.578125 248.390625 319.078125 251.457031 322.582031 253.207031 C 326.082031 254.957031 330.023438 256.269531 333.960938 256.269531 C 338.339844 256.269531 342.714844 254.957031 346.214844 251.457031 C 348.84375 248.828125 350.15625 245.328125 351.03125 243.140625 C 351.46875 242.703125 351.46875 241.390625 351.90625 240.949219 C 352.78125 240.949219 354.09375 240.511719 354.96875 240.511719 C 358.910156 240.074219 365.039062 239.636719 369.414062 234.386719 C 372.039062 231.320312 372.917969 227.820312 373.355469 225.632812 C 376.417969 212.9375 379.042969 198.058594 373.355469 185.800781 C 378.167969 181.425781 380.355469 173.546875 379.042969 164.792969 C 378.167969 159.976562 376.855469 153.851562 372.039062 149.472656 C 367.664062 145.535156 361.535156 144.21875 356.285156 145.097656 C 355.847656 144.660156 355.847656 144.660156 355.410156 144.21875 C 354.53125 143.34375 353.65625 142.03125 352.34375 141.15625 C 347.09375 135.464844 337.464844 133.277344 330.023438 135.464844 C 323.457031 137.65625 318.203125 137.21875 313.828125 137.21875 C 312.953125 137.21875 311.640625 137.21875 310.761719 137.21875 C 295.007812 136.78125 290.628906 131.527344 290.628906 131.527344 C 290.191406 130.652344 289.316406 127.589844 288.878906 125.398438 C 287.128906 118.398438 283.1875 101.328125 266.992188 103.953125 C 262.179688 104.828125 258.679688 106.578125 256.488281 107.890625 C 256.050781 107.890625 255.613281 108.328125 255.613281 108.328125 C 255.613281 108.328125 255.175781 108.328125 255.175781 108.328125 C 252.113281 107.015625 249.046875 106.578125 244.234375 107.890625 C 238.980469 109.203125 236.355469 112.269531 235.042969 114.457031 C 231.539062 120.585938 233.730469 127.152344 235.480469 132.839844 C 235.917969 134.589844 236.792969 137.65625 237.230469 138.96875 C 230.226562 150.347656 229.789062 162.605469 234.605469 173.546875 Z M 251.675781 146.410156 C 254.738281 140.28125 252.550781 133.277344 250.800781 127.589844 C 250.800781 127.148438 250.363281 126.273438 250.363281 125.835938 C 252.113281 126.273438 254.738281 126.273438 258.238281 125.835938 C 260.867188 125.398438 262.617188 124.085938 264.367188 123.210938 C 265.679688 122.335938 266.992188 121.898438 268.746094 121.460938 C 269.621094 123.210938 270.496094 127.148438 271.371094 129.339844 C 272.683594 134.152344 273.558594 138.96875 276.625 142.46875 C 279.6875 145.972656 288.441406 153.851562 309.886719 154.726562 C 310.761719 154.726562 311.640625 154.726562 312.515625 154.726562 C 317.765625 155.164062 325.207031 155.601562 334.835938 152.535156 C 336.148438 152.097656 338.777344 152.972656 339.652344 153.851562 C 340.527344 154.726562 341.402344 155.601562 342.277344 156.476562 C 344.027344 158.226562 345.777344 160.414062 347.96875 162.164062 C 351.03125 164.792969 355.847656 165.230469 358.910156 162.605469 C 359.347656 162.605469 359.785156 162.605469 359.785156 162.605469 C 360.222656 163.042969 361.097656 163.917969 361.535156 167.855469 C 361.972656 171.359375 361.535156 173.109375 361.535156 173.546875 L 361.097656 173.984375 C 359.347656 174.859375 354.53125 177.484375 353.65625 183.175781 C 353.21875 187.550781 354.972656 190.617188 356.285156 191.929688 C 361.535156 199.808594 359.347656 211.1875 356.285156 222.566406 C 356.285156 223.003906 356.285156 223.441406 355.847656 223.882812 C 354.972656 223.882812 354.09375 224.320312 353.21875 224.320312 C 349.28125 224.757812 344.464844 225.195312 340.089844 228.695312 C 336.585938 231.757812 335.273438 235.261719 334.398438 237.886719 C 333.960938 238.324219 333.960938 239.636719 333.523438 240.074219 C 333.085938 240.074219 331.773438 239.636719 330.460938 239.199219 C 328.269531 237.886719 326.082031 236.136719 323.457031 233.949219 C 318.203125 229.570312 311.640625 223.882812 302.449219 223.882812 C 302.449219 223.882812 302.007812 223.882812 302.007812 223.882812 C 300.257812 223.882812 298.507812 223.882812 297.195312 224.320312 C 296.320312 224.320312 294.570312 224.757812 294.132812 224.757812 C 293.253906 224.320312 292.378906 223.003906 291.503906 221.253906 C 288.003906 209.875 281 205.496094 276.1875 202.871094 C 273.558594 201.558594 272.683594 200.683594 272.246094 199.808594 C 271.808594 198.933594 271.808594 196.742188 271.808594 195.429688 C 271.371094 190.179688 270.496094 179.234375 259.117188 175.734375 C 256.488281 174.859375 252.988281 171.796875 250.800781 166.980469 C 249.046875 163.042969 246.859375 155.601562 251.675781 146.410156 Z M 251.675781 146.410156 " fill-opacity="1" fill-rule="nonzero"/><path fill="#008ab0" d="M 143.125 296.101562 C 143.5625 296.539062 144 296.976562 144.4375 297.414062 C 177.265625 335.492188 225.851562 359.566406 280.125 359.566406 C 379.042969 359.566406 459.578125 279.03125 459.578125 180.113281 C 459.578125 81.191406 379.042969 0.65625 280.125 0.65625 C 181.207031 0.65625 100.667969 81.191406 100.667969 180.113281 C 100.667969 223.882812 116.425781 263.710938 142.25 294.789062 C 142.25 295.226562 142.6875 295.664062 143.125 296.101562 Z M 263.054688 341.183594 C 263.492188 338.996094 265.242188 336.804688 267.433594 335.054688 C 270.496094 332.867188 274.871094 331.554688 279.25 329.804688 C 281.4375 328.929688 284.0625 328.050781 286.253906 327.175781 C 298.070312 322.363281 307.699219 314.921875 317.328125 307.480469 L 318.640625 306.167969 C 319.078125 306.605469 319.515625 307.042969 319.957031 307.480469 C 322.144531 310.105469 325.207031 312.734375 329.148438 314.484375 C 340.089844 318.859375 350.15625 310.105469 353.65625 307.042969 L 364.164062 297.851562 C 364.601562 298.726562 365.476562 299.601562 366.351562 300.476562 C 371.164062 304.855469 376.855469 305.292969 381.671875 305.292969 C 354.09375 328.488281 318.640625 342.058594 280.125 342.058594 C 274.433594 342.058594 268.746094 341.621094 263.054688 341.183594 Z M 435.507812 134.152344 C 430.253906 131.089844 423.25 127.589844 415.371094 131.527344 C 410.996094 133.714844 408.808594 137.21875 406.617188 139.84375 C 405.742188 140.71875 405.304688 142.03125 404.867188 142.46875 C 403.554688 143.78125 399.617188 142.90625 397.425781 140.71875 C 393.925781 137.21875 392.613281 131.089844 391.738281 125.835938 C 390.863281 120.148438 389.546875 114.019531 385.609375 108.328125 C 381.671875 103.078125 375.980469 100.890625 371.164062 99.574219 C 369.414062 99.136719 366.789062 97.824219 366.351562 97.824219 C 365.914062 96.949219 365.476562 94.324219 365.476562 92.574219 C 365.039062 87.757812 364.601562 81.628906 359.347656 77.691406 C 352.34375 72 341.839844 71.5625 331.773438 75.941406 C 328.707031 77.253906 325.644531 79.003906 323.019531 80.753906 C 319.957031 82.503906 317.328125 83.820312 314.703125 85.132812 C 310.761719 86.445312 306.824219 86.445312 305.511719 84.695312 C 305.074219 84.257812 304.199219 81.628906 303.761719 79.878906 C 302.007812 75.066406 299.382812 65.875 289.753906 64.996094 C 281.875 64.121094 281.4375 62.808594 280.125 56.242188 C 278.8125 50.117188 276.625 40.925781 266.117188 35.234375 C 259.992188 31.734375 252.550781 31.734375 245.984375 31.734375 C 235.042969 31.734375 233.730469 30.859375 233.292969 26.917969 C 247.296875 20.789062 263.492188 18.164062 280.125 18.164062 C 353.65625 18.164062 415.808594 67.1875 435.507812 134.152344 Z M 215.785156 31.734375 C 219.722656 47.925781 236.355469 47.925781 244.671875 47.925781 C 249.484375 47.925781 253.863281 47.925781 256.488281 49.242188 C 259.992188 50.992188 260.429688 53.617188 261.742188 58.871094 C 263.492188 66.3125 266.117188 78.566406 284.941406 81.191406 C 285.378906 82.066406 285.816406 83.382812 285.816406 84.257812 C 287.128906 87.757812 288.441406 92.136719 291.941406 95.636719 C 299.820312 103.515625 311.640625 103.078125 319.957031 100.011719 C 323.894531 98.699219 327.394531 96.511719 330.898438 94.761719 C 333.523438 93.449219 335.710938 92.136719 337.902344 90.820312 C 341.402344 89.507812 344.902344 89.070312 347.09375 89.945312 C 347.09375 90.820312 347.53125 92.136719 347.53125 93.011719 C 347.96875 97.386719 348.40625 103.515625 352.34375 107.890625 C 355.847656 111.832031 360.660156 113.582031 365.039062 114.894531 C 367.226562 115.769531 370.726562 116.644531 371.601562 117.519531 C 373.355469 119.710938 374.230469 123.648438 374.667969 127.152344 C 375.980469 135.464844 378.167969 144.65625 385.171875 151.660156 C 389.546875 156.476562 396.550781 159.539062 403.117188 159.539062 C 407.933594 159.539062 412.746094 158.226562 416.6875 154.289062 C 418.875 152.535156 420.1875 150.347656 421.5 148.597656 C 421.9375 147.722656 422.8125 146.847656 423.25 146.410156 C 424.5625 146.847656 427.191406 148.597656 428.941406 149.472656 C 432.003906 151.660156 435.945312 154.289062 440.757812 155.164062 C 442.070312 163.042969 442.507812 170.917969 442.507812 178.796875 C 442.507812 221.691406 425.878906 260.648438 398.300781 289.535156 C 394.800781 287.785156 390.863281 286.910156 386.484375 286.910156 L 384.734375 286.910156 C 382.984375 286.910156 379.917969 286.910156 379.042969 286.472656 C 378.605469 286.035156 378.167969 285.597656 378.167969 285.160156 C 376.417969 282.96875 373.792969 279.46875 368.976562 278.15625 C 361.535156 276.40625 356.285156 281.21875 354.09375 282.96875 L 343.152344 292.597656 C 338.339844 296.976562 336.585938 296.976562 336.585938 296.976562 C 336.148438 296.539062 334.398438 295.226562 333.523438 294.351562 C 330.460938 290.847656 325.207031 285.597656 316.890625 286.910156 C 312.953125 287.785156 310.324219 289.972656 308.574219 291.285156 L 306.824219 293.914062 C 298.070312 300.914062 289.316406 307.480469 280.125 311.421875 C 277.9375 312.296875 276.1875 312.734375 273.996094 313.609375 C 268.746094 315.359375 263.054688 317.546875 257.363281 321.050781 C 251.675781 324.988281 246.859375 331.554688 245.546875 338.558594 C 220.597656 333.304688 197.402344 321.925781 178.140625 306.167969 C 179.453125 305.292969 180.332031 304.855469 181.207031 303.542969 C 191.273438 293.914062 190.835938 280.34375 190.398438 268.527344 C 189.960938 256.269531 189.960938 248.828125 196.085938 244.453125 C 205.277344 238.324219 211.84375 228.695312 214.03125 218.628906 C 215.347656 212.5 214.46875 206.8125 214.03125 201.558594 C 213.15625 196.742188 212.71875 192.804688 214.03125 190.179688 C 214.46875 189.304688 215.347656 187.988281 216.222656 186.675781 C 217.535156 184.488281 219.285156 181.863281 220.597656 178.796875 C 224.101562 168.730469 220.160156 157.789062 210.53125 150.347656 C 207.46875 147.722656 206.15625 143.34375 207.46875 139.40625 L 207.46875 138.96875 C 208.78125 135.027344 210.53125 129.339844 208.34375 123.648438 C 202.652344 107.890625 190.835938 100.449219 175.515625 101.328125 C 174.203125 100.011719 172.015625 96.949219 170.699219 94.324219 C 167.199219 89.070312 162.824219 81.628906 155.382812 77.691406 C 171.578125 57.558594 192.148438 41.800781 215.785156 31.734375 Z M 144.4375 91.695312 C 148.378906 93.011719 151.441406 96.949219 155.382812 103.515625 C 159.757812 110.519531 165.449219 119.710938 175.953125 118.835938 C 181.207031 118.394531 187.332031 119.273438 191.273438 129.339844 C 191.273438 130.214844 190.835938 132.402344 190.398438 133.714844 L 190.398438 134.152344 C 186.894531 145.097656 190.835938 157.351562 199.589844 164.355469 C 202.214844 166.542969 205.277344 170.042969 203.964844 173.109375 C 203.527344 173.984375 202.652344 175.296875 201.777344 177.046875 C 200.464844 178.796875 199.152344 180.988281 197.839844 183.613281 C 194.773438 191.054688 195.648438 198.058594 196.523438 204.621094 C 196.960938 208.5625 197.839844 212.5 196.960938 215.128906 C 195.648438 220.816406 191.273438 226.945312 186.019531 230.445312 C 171.578125 240.511719 172.453125 256.707031 172.890625 269.839844 C 173.328125 280.78125 173.328125 287.785156 168.949219 291.722656 C 168.949219 291.722656 168.511719 292.160156 167.636719 292.160156 C 164.574219 292.160156 160.195312 289.535156 156.695312 286.472656 C 133.058594 257.144531 118.175781 220.378906 118.175781 180.113281 C 118.175781 147.285156 127.808594 117.082031 144.4375 91.695312 Z M 144.4375 91.695312 " fill-opacity="1" fill-rule="nonzero"/><path fill="#008ab0" d="M 238.542969 429.160156 C 235.480469 432.660156 235.480469 438.351562 239.417969 441.414062 C 240.730469 442.730469 242.046875 444.042969 243.359375 445.355469 C 245.109375 447.105469 247.296875 448.417969 249.925781 448.417969 C 252.113281 448.417969 254.300781 447.542969 255.613281 446.230469 C 259.117188 443.167969 259.554688 437.476562 256.488281 433.976562 C 254.738281 432.222656 252.988281 430.472656 251.238281 428.722656 C 247.296875 425.222656 241.609375 425.660156 238.542969 429.160156 Z M 238.542969 429.160156 " fill-opacity="1" fill-rule="nonzero"/><path fill="#008ab0" d="M 207.03125 431.785156 C 210.96875 431.347656 215.347656 431.347656 218.847656 432.222656 C 219.285156 432.222656 219.722656 432.222656 220.160156 432.222656 C 224.539062 432.222656 228.039062 429.160156 228.914062 424.78125 C 229.789062 419.96875 226.289062 415.589844 221.472656 414.714844 C 216.660156 413.839844 210.96875 413.839844 205.714844 414.277344 C 200.902344 414.714844 197.402344 419.09375 197.839844 423.90625 C 197.839844 428.722656 202.214844 432.222656 207.03125 431.785156 Z M 207.03125 431.785156 " fill-opacity="1" fill-rule="nonzero"/><path fill="#008ab0" d="M 165.886719 441.414062 C 166.761719 441.414062 167.636719 441.414062 168.511719 440.976562 L 172.890625 439.664062 C 175.953125 438.789062 179.015625 437.914062 181.644531 437.039062 C 186.457031 435.726562 189.085938 430.910156 187.769531 426.097656 C 186.457031 421.28125 181.644531 418.65625 176.828125 419.96875 C 173.765625 420.84375 170.699219 421.71875 167.636719 422.59375 L 163.261719 423.90625 C 158.445312 425.222656 155.820312 430.035156 157.132812 434.851562 C 158.445312 438.789062 161.945312 441.414062 165.886719 441.414062 Z M 165.886719 441.414062 " fill-opacity="1" fill-rule="nonzero"/><path fill="#008ab0" d="M 125.179688 449.292969 C 129.996094 449.292969 135.246094 448.855469 140.5 447.980469 C 145.316406 447.105469 148.378906 442.730469 147.941406 437.914062 C 147.066406 433.097656 142.6875 430.035156 137.875 430.472656 C 133.496094 431.347656 129.121094 431.785156 125.179688 431.785156 C 120.367188 431.785156 116.425781 436.164062 116.863281 440.976562 C 116.425781 445.792969 120.367188 449.292969 125.179688 449.292969 Z M 125.179688 449.292969 " fill-opacity="1" fill-rule="nonzero"/><path fill="#008ab0" d="M 101.109375 427.847656 C 99.355469 426.972656 97.605469 426.535156 95.855469 425.660156 C 91.476562 423.46875 86.226562 425.222656 84.039062 429.597656 C 81.847656 433.976562 83.601562 439.226562 87.976562 441.414062 C 90.164062 442.730469 92.355469 443.605469 94.980469 444.480469 C 95.855469 444.917969 97.167969 444.917969 98.042969 444.917969 C 101.546875 444.917969 104.609375 442.726562 106.359375 439.226562 C 107.671875 434.851562 105.484375 429.597656 101.109375 427.847656 Z M 101.109375 427.847656 " fill-opacity="1" fill-rule="nonzero"/><path fill="#008ab0" d="M 125.179688 398.960938 C 129.996094 398.960938 135.246094 398.519531 140.5 397.644531 C 145.316406 396.769531 148.378906 392.394531 147.941406 387.578125 C 147.066406 382.765625 142.6875 379.699219 137.875 380.136719 C 133.496094 381.011719 129.121094 381.453125 125.179688 381.453125 C 120.367188 381.453125 116.425781 385.390625 116.863281 390.207031 C 116.425781 395.019531 120.367188 398.960938 125.179688 398.960938 Z M 125.179688 398.960938 " fill-opacity="1" fill-rule="nonzero"/><path fill="#008ab0" d="M 207.03125 381.890625 C 210.96875 381.453125 215.347656 381.453125 218.847656 381.890625 C 219.285156 381.890625 219.722656 381.890625 220.160156 381.890625 C 224.539062 381.890625 228.039062 378.824219 228.914062 374.449219 C 228.914062 372.699219 228.914062 371.382812 228.476562 370.070312 C 221.910156 368.320312 215.785156 366.570312 210.09375 363.945312 C 208.78125 363.945312 207.03125 363.945312 205.714844 363.945312 C 200.902344 364.382812 197.402344 368.757812 197.839844 373.574219 C 197.839844 378.386719 202.214844 381.890625 207.03125 381.890625 Z M 207.03125 381.890625 " fill-opacity="1" fill-rule="nonzero"/><path fill="#008ab0" d="M 165.886719 391.082031 C 166.761719 391.082031 167.636719 391.082031 168.511719 390.644531 L 172.890625 389.328125 C 175.953125 388.453125 178.578125 387.578125 181.644531 386.703125 C 186.457031 385.390625 189.085938 380.574219 187.769531 375.761719 C 186.457031 370.945312 181.644531 368.320312 176.828125 369.632812 C 173.765625 370.507812 171.140625 371.382812 168.074219 372.257812 L 163.699219 373.574219 C 158.882812 374.886719 156.257812 379.699219 157.570312 384.515625 C 158.445312 388.453125 161.945312 391.082031 165.886719 391.082031 Z M 165.886719 391.082031 " fill-opacity="1" fill-rule="nonzero"/><path fill="#008ab0" d="M 419.75 342.933594 C 425 343.808594 429.816406 344.246094 434.632812 344.246094 C 434.632812 344.246094 434.632812 344.246094 435.070312 344.246094 C 439.882812 344.246094 443.824219 340.308594 443.824219 335.929688 C 443.824219 331.117188 440.320312 327.175781 435.507812 326.738281 C 431.566406 326.738281 427.191406 326.300781 422.8125 325.425781 C 418 324.550781 413.621094 328.050781 412.746094 332.867188 C 411.871094 337.683594 415.371094 342.058594 419.75 342.933594 Z M 419.75 342.933594 " fill-opacity="1" fill-rule="nonzero"/><path fill="#008ab0" d="M 396.988281 374.011719 L 392.613281 372.699219 C 389.546875 371.820312 386.484375 370.945312 383.859375 370.070312 C 379.042969 368.757812 374.230469 371.382812 372.917969 376.199219 C 371.601562 381.011719 374.230469 385.828125 379.042969 387.140625 C 382.109375 388.015625 384.734375 388.890625 387.796875 389.765625 L 392.175781 391.082031 C 393.050781 391.519531 393.925781 391.519531 394.800781 391.519531 C 398.738281 391.519531 402.242188 388.890625 403.117188 385.390625 C 403.992188 380.136719 401.367188 375.324219 396.988281 374.011719 Z M 396.988281 374.011719 " fill-opacity="1" fill-rule="nonzero"/><path fill="#008ab0" d="M 354.96875 364.382812 C 353.65625 364.382812 351.90625 364.382812 350.59375 364.382812 C 344.464844 366.570312 338.339844 368.757812 332.210938 370.507812 C 331.773438 371.820312 331.335938 373.136719 331.773438 374.886719 C 332.210938 379.261719 336.148438 382.328125 340.527344 382.328125 C 340.964844 382.328125 341.402344 382.328125 341.839844 382.328125 C 345.339844 381.890625 349.71875 381.890625 353.65625 382.328125 C 358.472656 382.765625 362.847656 379.261719 363.285156 374.449219 C 363.285156 368.757812 359.785156 364.820312 354.96875 364.382812 Z M 354.96875 364.382812 " fill-opacity="1" fill-rule="nonzero"/><path fill="#008ab0" d="M 435.507812 381.453125 C 431.566406 381.453125 427.628906 381.011719 422.8125 380.136719 C 418 379.261719 413.621094 382.765625 412.746094 387.578125 C 411.871094 392.394531 415.371094 396.769531 420.1875 397.644531 C 425.441406 398.519531 430.253906 398.960938 435.070312 398.960938 C 435.070312 398.960938 435.070312 398.960938 435.507812 398.960938 C 440.320312 398.960938 444.261719 395.019531 444.261719 390.207031 C 443.824219 385.390625 440.320312 381.453125 435.507812 381.453125 Z M 435.507812 381.453125 " fill-opacity="1" fill-rule="nonzero"/></svg>